<svg width="16" height="16" viewBox="0 0 16 16" xmlns="http://www.w3.org/2000/svg">
<path fill-rule="evenodd" clip-rule="evenodd" d="M14.5 14.3C14.5 14.6866 14.156 15 13.7318 15L2.26815 15C1.8439 15 1.49997 14.6866 1.49997 14.3C1.49997 13.9134 1.8439 13.6 2.26815 13.6L13.7318 13.6C14.156 13.6 14.5 13.9134 14.5 14.3Z"/>
<path d="M10.75 5.5C10.75 5.22386 10.9738 5 11.25 5H13.75C14.0261 5 14.25 5.22386 14.25 5.5V7C14.25 7.27614 14.0261 7.5 13.75 7.5H11.25C10.9738 7.5 10.75 7.27614 10.75 7V5.5Z"/>
<path d="M6.24997 5.5C6.24997 5.22386 6.47383 5 6.74997 5H9.24997C9.52611 5 9.74997 5.22386 9.74997 5.5V7C9.74997 7.27614 9.52611 7.5 9.24997 7.5H6.74997C6.47383 7.5 6.24997 7.27614 6.24997 7V5.5Z"/>
<path d="M1.74997 5.5C1.74997 5.22386 1.97383 5 2.24997 5H4.74997C5.02611 5 5.24997 5.22386 5.24997 5.5V7C5.24997 7.27614 5.02611 7.5 4.74997 7.5H2.24997C1.97383 7.5 1.74997 7.27614 1.74997 7V5.5Z"/>
<path d="M1.74997 9C1.74997 8.72386 1.97383 8.5 2.24997 8.5H4.74997C5.02611 8.5 5.24997 8.72386 5.24997 9V10.5C5.24997 10.7761 5.02611 11 4.74997 11H2.24997C1.97383 11 1.74997 10.7761 1.74997 10.5V9Z"/>
<path fill-rule="evenodd" clip-rule="evenodd" d="M14.5 1.7C14.5 2.0866 14.156 2.4 13.7318 2.4L2.26815 2.4C1.8439 2.4 1.49997 2.0866 1.49997 1.7C1.49997 1.3134 1.8439 1 2.26815 1L13.7318 1C14.156 1 14.5 1.3134 14.5 1.7Z"/>
</svg>
