<svg width="16" height="16" viewBox="0 0 16 16" xmlns="http://www.w3.org/2000/svg">
<path fill-rule="evenodd" clip-rule="evenodd" d="M14.5 14.3C14.5 14.6866 14.1561 15 13.7318 15L2.26818 15C1.84393 15 1.5 14.6866 1.5 14.3C1.5 13.9134 1.84393 13.6 2.26818 13.6L13.7318 13.6C14.1561 13.6 14.5 13.9134 14.5 14.3Z"/>
<path d="M10.75 4.8C10.75 4.52386 10.9739 4.3 11.25 4.3H13.75C14.0261 4.3 14.25 4.52386 14.25 4.8V6.3C14.25 6.57614 14.0261 6.8 13.75 6.8H11.25C10.9739 6.8 10.75 6.57614 10.75 6.3V4.8Z"/>
<path d="M6.25 4.8C6.25 4.52386 6.47386 4.3 6.75 4.3H9.25C9.52614 4.3 9.75 4.52386 9.75 4.8V6.3C9.75 6.57614 9.52614 6.8 9.25 6.8H6.75C6.47386 6.8 6.25 6.57614 6.25 6.3V4.8Z"/>
<path d="M1.75 4.8C1.75 4.52386 1.97386 4.3 2.25 4.3H4.75C5.02614 4.3 5.25 4.52386 5.25 4.8V6.3C5.25 6.57614 5.02614 6.8 4.75 6.8H2.25C1.97386 6.8 1.75 6.57614 1.75 6.3V4.8Z"/>
<path d="M1.75 9.7C1.75 9.42386 1.97386 9.2 2.25 9.2H4.75C5.02614 9.2 5.25 9.42386 5.25 9.7V11.2C5.25 11.4761 5.02614 11.7 4.75 11.7H2.25C1.97386 11.7 1.75 11.4761 1.75 11.2V9.7Z"/>
<path fill-rule="evenodd" clip-rule="evenodd" d="M14.5 1.7C14.5 2.0866 14.1561 2.4 13.7318 2.4L2.26818 2.4C1.84393 2.4 1.5 2.0866 1.5 1.7C1.5 1.3134 1.84393 1 2.26818 1L13.7318 1C14.1561 1 14.5 1.3134 14.5 1.7Z"/>
</svg>
