<svg width="16" height="16" viewBox="0 0 16 16" xmlns="http://www.w3.org/2000/svg">
<path fill-rule="evenodd" clip-rule="evenodd" d="M14.5 14.3C14.5 14.6866 14.1561 15 13.7318 15L2.26818 15C1.84393 15 1.5 14.6866 1.5 14.3C1.5 13.9134 1.84393 13.6 2.26818 13.6L13.7318 13.6C14.1561 13.6 14.5 13.9134 14.5 14.3Z"/>
<path d="M10.75 4C10.75 3.72386 10.9739 3.5 11.25 3.5H13.75C14.0262 3.5 14.25 3.72386 14.25 4V5.5C14.25 5.77614 14.0262 6 13.75 6H11.25C10.9739 6 10.75 5.77614 10.75 5.5V4Z"/>
<path d="M6.25001 4C6.25001 3.72386 6.47387 3.5 6.75001 3.5H9.25001C9.52615 3.5 9.75001 3.72386 9.75001 4V5.5C9.75001 5.77614 9.52615 6 9.25001 6H6.75001C6.47387 6 6.25001 5.77614 6.25001 5.5V4Z"/>
<path d="M1.75001 4C1.75001 3.72386 1.97387 3.5 2.25001 3.5H4.75001C5.02615 3.5 5.25001 3.72386 5.25001 4V5.5C5.25001 5.77615 5.02615 6 4.75001 6H2.25001C1.97387 6 1.75001 5.77615 1.75001 5.5V4Z"/>
<path d="M1.75 10.5C1.75 10.2239 1.97386 10 2.25 10H4.75C5.02614 10 5.25 10.2239 5.25 10.5V12C5.25 12.2761 5.02614 12.5 4.75 12.5H2.25C1.97386 12.5 1.75 12.2761 1.75 12V10.5Z"/>
<path fill-rule="evenodd" clip-rule="evenodd" d="M14.5 1.7C14.5 2.0866 14.1561 2.4 13.7318 2.4L2.26818 2.4C1.84393 2.4 1.5 2.0866 1.5 1.7C1.5 1.3134 1.84393 1 2.26818 1L13.7318 1C14.1561 1 14.5 1.3134 14.5 1.7Z"/>
</svg>
