<svg width="16" height="16" viewBox="0 0 16 16" xmlns="http://www.w3.org/2000/svg">
<path fill-rule="evenodd" clip-rule="evenodd" d="M14.5 14.3C14.5 14.6866 14.1561 15 13.7318 15L2.26818 15C1.84393 15 1.5 14.6866 1.5 14.3C1.5 13.9134 1.84393 13.6 2.26818 13.6L13.7318 13.6C14.1561 13.6 14.5 13.9134 14.5 14.3Z"/>
<path d="M10.75 4C10.75 3.72386 10.9739 3.5 11.25 3.5H13.75C14.0261 3.5 14.25 3.72386 14.25 4V5.5C14.25 5.77614 14.0261 6 13.75 6H11.25C10.9739 6 10.75 5.77614 10.75 5.5V4Z"/>
<path d="M6.25 4C6.25 3.72386 6.47386 3.5 6.75 3.5H9.25C9.52614 3.5 9.75 3.72386 9.75 4V5.5C9.75 5.77614 9.52614 6 9.25 6H6.75C6.47386 6 6.25 5.77614 6.25 5.5V4Z"/>
<path d="M1.75 4C1.75 3.72386 1.97386 3.5 2.25 3.5H4.75C5.02614 3.5 5.25 3.72386 5.25 4V5.5C5.25 5.77614 5.02614 6 4.75 6H2.25C1.97386 6 1.75 5.77614 1.75 5.5V4Z"/>
<path d="M1.75 7.5C1.75 7.22386 1.97386 7 2.25 7H4.75C5.02614 7 5.25 7.22386 5.25 7.5V9C5.25 9.27614 5.02614 9.5 4.75 9.5H2.25C1.97386 9.5 1.75 9.27614 1.75 9V7.5Z"/>
<path fill-rule="evenodd" clip-rule="evenodd" d="M14.5 1.7C14.5 2.0866 14.1561 2.4 13.7318 2.4L2.26818 2.4C1.84393 2.4 1.5 2.0866 1.5 1.7C1.5 1.3134 1.84393 1 2.26818 1L13.7318 1C14.1561 1 14.5 1.3134 14.5 1.7Z"/>
</svg>
