<svg width="16" height="16" viewBox="0 0 16 16" xmlns="http://www.w3.org/2000/svg">
<path fill-rule="evenodd" clip-rule="evenodd" d="M1.5 2.30001C1.5 1.91341 1.84393 1.60001 2.26818 1.60001H13.7318C14.1561 1.60001 14.5 1.91341 14.5 2.30001C14.5 2.68661 14.1561 3.00001 13.7318 3.00001H2.26818C1.84393 3.00001 1.5 2.68661 1.5 2.30001Z"/>
<path d="M4.5 4.80001C4.5 4.35818 4.85817 4.00001 5.3 4.00001L6.7 4.00001C7.14183 4.00001 7.5 4.35818 7.5 4.80001L7.5 11.2C7.5 11.6418 7.14183 12 6.7 12H5.3C4.85817 12 4.5 11.6418 4.5 11.2L4.5 4.80001Z"/>
<path d="M8.5 4.80001C8.5 4.35818 8.85817 4.00001 9.3 4.00001L10.7 4.00001C11.1418 4.00001 11.5 4.35818 11.5 4.80001L11.5 8.20001C11.5 8.64183 11.1418 9.00001 10.7 9.00001L9.3 9.00001C8.85817 9.00001 8.5 8.64183 8.5 8.20001L8.5 4.80001Z"/>
</svg>
