<svg width="16" height="16" viewBox="0 0 16 16" xmlns="http://www.w3.org/2000/svg">
<path fill-rule="evenodd" clip-rule="evenodd" d="M4.5 3.8C4.5 3.35817 4.85817 3 5.3 3H6.7C7.14183 3 7.5 3.35817 7.5 3.8L7.5 12.2C7.5 12.6418 7.14183 13 6.7 13H5.3C4.85817 13 4.5 12.6418 4.5 12.2V3.8ZM5.5 7.26074L5.5 4L6.5 4L6.5 7.26074H5.5Z"/>
<path fill-rule="evenodd" clip-rule="evenodd" d="M11.5 10.2C11.5 10.6418 11.1418 11 10.7 11H9.3C8.85817 11 8.5 10.6418 8.5 10.2L8.5 8.06074C8.5 8.06026 8.5 8.05978 8.5 8.0593L8.5 3.8C8.5 3.35817 8.85817 3 9.3 3H10.7C11.1418 3 11.5 3.35817 11.5 3.8L11.5 10.2ZM9.5 4L9.5 7.26074H10.5L10.5 4L9.5 4Z"/>
<path fill-rule="evenodd" clip-rule="evenodd" d="M1.5 7.95C1.5 7.5634 1.84393 7.25 2.26818 7.25H13.7318C14.1561 7.25 14.5 7.5634 14.5 7.95C14.5 8.3366 14.1561 8.65 13.7318 8.65H2.26818C1.84393 8.65 1.5 8.3366 1.5 7.95Z"/>
</svg>
