<svg width="16" height="16" viewBox="0 0 16 16" xmlns="http://www.w3.org/2000/svg">
<path d="M13.7318 14.4001C14.1561 14.4001 14.5 14.0867 14.5 13.7001C14.5 13.3135 14.1561 13.0001 13.7318 13.0001H2.26818C1.84393 13.0001 1.5 13.3135 1.5 13.7001C1.5 14.0867 1.84393 14.4001 2.26818 14.4001H13.7318Z"/>
<path d="M10.7 12.0001C11.1418 12.0001 11.5 11.6419 11.5 11.2001L11.5 7.80009C11.5 7.35826 11.1418 7.00009 10.7 7.00009H9.3C8.85817 7.00009 8.5 7.35826 8.5 7.80009L8.5 11.2001C8.5 11.6419 8.85817 12.0001 9.3 12.0001H10.7Z"/>
<path d="M6.7 12.0001C7.14183 12.0001 7.5 11.6419 7.5 11.2001L7.5 4.80009C7.5 4.35826 7.14183 4.00009 6.7 4.00009H5.3C4.85817 4.00009 4.5 4.35826 4.5 4.80009L4.5 11.2001C4.5 11.6419 4.85817 12.0001 5.3 12.0001H6.7Z"/>
</svg>
