<svg width="16" height="16" viewBox="0 0 16 16" xmlns="http://www.w3.org/2000/svg">
<path d="M4.5 3.8C4.5 3.35817 4.85817 3 5.3 3L6.7 3C7.14183 3 7.5 3.35817 7.5 3.8L7.5 12.2C7.5 12.6418 7.14183 13 6.7 13H5.3C4.85817 13 4.5 12.6418 4.5 12.2L4.5 3.8Z"/>
<path d="M8.5 5.8C8.5 5.35817 8.85817 5 9.3 5L10.7 5C11.1418 5 11.5 5.35817 11.5 5.8V10.2C11.5 10.6418 11.1418 11 10.7 11L9.3 11C8.85817 11 8.5 10.6418 8.5 10.2L8.5 5.8Z"/>
<path fill-rule="evenodd" clip-rule="evenodd" d="M1.5 7.95C1.5 7.5634 1.84393 7.25 2.26818 7.25H13.7318C14.1561 7.25 14.5 7.5634 14.5 7.95C14.5 8.3366 14.1561 8.65 13.7318 8.65H2.26818C1.84393 8.65 1.5 8.3366 1.5 7.95Z"/>
</svg>
