<svg width="16" height="16" viewBox="0 0 16 16" xmlns="http://www.w3.org/2000/svg">
<path fill-rule="evenodd" clip-rule="evenodd" d="M14.5 14.2C14.5 14.5866 14.1561 14.9 13.7318 14.9L2.26818 14.9C1.84393 14.9 1.5 14.5866 1.5 14.2C1.5 13.8134 1.84393 13.5 2.26818 13.5L13.7318 13.5C14.1561 13.5 14.5 13.8134 14.5 14.2Z"/>
<path d="M9.5 11.6C9.5 12.0418 9.14183 12.4 8.7 12.4H7.3C6.85817 12.4 6.5 12.0418 6.5 11.6L6.5 4.19999C6.5 3.75817 6.85817 3.39999 7.3 3.39999L8.7 3.39999C9.14183 3.39999 9.5 3.75817 9.5 4.19999L9.5 11.6Z"/>
</svg>
