<svg width="16" height="16" viewBox="0 0 16 16" xmlns="http://www.w3.org/2000/svg">
<path fill-rule="evenodd" clip-rule="evenodd" d="M14.5 14.2C14.5 14.5866 14.1561 14.9 13.7318 14.9L2.26818 14.9C1.84393 14.9 1.5 14.5866 1.5 14.2C1.5 13.8134 1.84393 13.5 2.26818 13.5L13.7318 13.5C14.1561 13.5 14.5 13.8134 14.5 14.2Z"/>
<path d="M9.5 11.7C9.5 12.1418 9.14183 12.5 8.7 12.5H7.3C6.85817 12.5 6.5 12.1418 6.5 11.7L6.5 4.30001C6.5 3.85818 6.85817 3.50001 7.3 3.50001L8.7 3.50001C9.14183 3.50001 9.5 3.85818 9.5 4.30001L9.5 11.7Z"/>
<path fill-rule="evenodd" clip-rule="evenodd" d="M14.5 1.80001C14.5 2.18661 14.1561 2.50001 13.7318 2.50001L2.26818 2.50001C1.84393 2.50001 1.5 2.18661 1.5 1.80001C1.5 1.41341 1.84393 1.10001 2.26818 1.10001L13.7318 1.10001C14.1561 1.10001 14.5 1.41341 14.5 1.80001Z"/>
</svg>
