<svg width="16" height="16" viewBox="0 0 16 16" xmlns="http://www.w3.org/2000/svg">
<path fill-rule="evenodd" clip-rule="evenodd" d="M1.5 1.80001C1.5 1.41341 1.84393 1.10001 2.26818 1.10001H13.7318C14.1561 1.10001 14.5 1.41341 14.5 1.80001C14.5 2.18661 14.1561 2.50001 13.7318 2.50001H2.26818C1.84393 2.50001 1.5 2.18661 1.5 1.80001Z"/>
<path d="M6.5 4.40001C6.5 3.95818 6.85817 3.60001 7.3 3.60001L8.7 3.60001C9.14183 3.60001 9.5 3.95818 9.5 4.40001L9.5 11.8C9.5 12.2418 9.14183 12.6 8.7 12.6H7.3C6.85817 12.6 6.5 12.2418 6.5 11.8L6.5 4.40001Z"/>
</svg>
