<svg width="22" height="22" viewBox="0 0 22 22"  xmlns="http://www.w3.org/2000/svg">
<path d="M14.665 8.7498C14.4863 8.7498 14.3213 8.6545 14.232 8.4998L12.6427 5.74707C12.5534 5.59237 12.5534 5.40177 12.6427 5.24707C12.732 5.09237 12.8971 4.99707 13.0757 4.99707H16.2543C16.4329 4.99707 16.598 5.09237 16.6873 5.24707C16.7766 5.40177 16.7766 5.59237 16.6873 5.74707L15.098 8.4998C15.0087 8.6545 14.8436 8.7498 14.665 8.7498Z" />
<path d="M14.665 16.9998C14.4863 16.9998 14.3213 16.9045 14.232 16.7498L12.6427 13.9971C12.5534 13.8424 12.5534 13.6518 12.6427 13.4971C12.732 13.3424 12.8971 13.2471 13.0757 13.2471H16.2543C16.4329 13.2471 16.598 13.3424 16.6873 13.4971C16.7766 13.6518 16.7766 13.8424 16.6873 13.9971L15.098 16.7498C15.0087 16.9045 14.8436 16.9998 14.665 16.9998Z" />
<path fill-rule="evenodd" clip-rule="evenodd" d="M7.11821 2H14.8818C15.6249 1.99999 16.228 1.99999 16.7173 2.03996C17.2222 2.08121 17.6715 2.16876 18.089 2.38148C18.7475 2.71703 19.283 3.25247 19.6185 3.91103C19.8312 4.32851 19.9188 4.77778 19.96 5.28273C20 5.77195 20 6.37507 20 7.11811V14.8818C20 15.6249 20 16.2281 19.96 16.7173C19.9188 17.2222 19.8312 17.6715 19.6185 18.089C19.283 18.7475 18.7475 19.283 18.089 19.6185C17.6715 19.8312 17.2222 19.9188 16.7173 19.96C16.2281 20 15.6249 20 14.8819 20H7.11819C6.37515 20 5.77195 20 5.28273 19.96C4.77778 19.9188 4.32851 19.8312 3.91103 19.6185C3.25247 19.283 2.71704 18.7475 2.38148 18.089C2.16876 17.6715 2.08121 17.2222 2.03996 16.7173C1.99999 16.228 1.99999 15.6249 2 14.8818V7.11821C1.99999 6.37513 1.99999 5.77196 2.03996 5.28273C2.08121 4.77778 2.16876 4.32851 2.38148 3.91103C2.71703 3.25247 3.25247 2.71703 3.91103 2.38148C4.32851 2.16876 4.77778 2.08121 5.28273 2.03996C5.77196 1.99999 6.37513 1.99999 7.11821 2ZM18.5 7.15V10.25L3.5 10.25V7.15C3.5 6.36755 3.50058 5.82582 3.53498 5.40488C3.56865 4.99269 3.63097 4.7628 3.71799 4.59202C3.90973 4.2157 4.2157 3.90973 4.59202 3.71799C4.7628 3.63097 4.99269 3.56865 5.40488 3.53498C5.82582 3.50058 6.36755 3.5 7.15 3.5H14.85C15.6324 3.5 16.1742 3.50058 16.5951 3.53498C17.0073 3.56865 17.2372 3.63097 17.408 3.71799C17.7843 3.90973 18.0903 4.2157 18.282 4.59202C18.369 4.7628 18.4313 4.99269 18.465 5.40488C18.4994 5.82582 18.5 6.36755 18.5 7.15ZM18.5 11.75L3.5 11.75V14.85C3.5 15.6324 3.50058 16.1742 3.53498 16.5951C3.56865 17.0073 3.63097 17.2372 3.71799 17.408C3.90973 17.7843 4.2157 18.0903 4.59202 18.282C4.7628 18.369 4.99269 18.4313 5.40488 18.465C5.82582 18.4994 6.36755 18.5 7.15 18.5H14.85C15.6324 18.5 16.1742 18.4994 16.5951 18.465C17.0073 18.4313 17.2372 18.369 17.408 18.282C17.7843 18.0903 18.0903 17.7843 18.282 17.408C18.369 17.2372 18.4313 17.0073 18.465 16.5951C18.4994 16.1742 18.5 15.6324 18.5 14.85V11.75Z" />
</svg>
