<svg width="22" height="22" viewBox="0 0 22 22" xmlns="http://www.w3.org/2000/svg">
<path d="M15.0977 5.70361C15.0084 5.54891 14.8434 5.45361 14.6647 5.45361C14.4861 5.45361 14.321 5.54891 14.2317 5.70361L12.6424 8.45634C12.5531 8.61104 12.5531 8.80164 12.6424 8.95634C12.7317 9.11104 12.8968 9.20634 13.0754 9.20634H16.254C16.4326 9.20634 16.5977 9.11104 16.687 8.95634C16.7763 8.80164 16.7763 8.61104 16.687 8.45634L15.0977 5.70361Z" />
<path fill-rule="evenodd" clip-rule="evenodd" d="M14.8818 2H7.11821C6.37513 1.99999 5.77197 1.99999 5.28273 2.03996C4.77778 2.08121 4.32851 2.16876 3.91103 2.38148C3.25247 2.71703 2.71703 3.25247 2.38148 3.91103C2.16876 4.32851 2.08121 4.77778 2.03996 5.28273C1.99999 5.77196 1.99999 6.37512 2 7.1182V14.8818C1.99999 15.6249 1.99999 16.228 2.03996 16.7173C2.08121 17.2222 2.16876 17.6715 2.38148 18.089C2.71703 18.7475 3.25247 19.283 3.91103 19.6185C4.32851 19.8312 4.77778 19.9188 5.28273 19.96C5.77195 20 6.37507 20 7.11811 20H14.8818C15.6248 20 16.2281 20 16.7173 19.96C17.2222 19.9188 17.6715 19.8312 18.089 19.6185C18.7475 19.283 19.283 18.7475 19.6185 18.089C19.8312 17.6715 19.9188 17.2222 19.96 16.7173C20 16.2281 20 15.6249 20 14.8819V7.11819C20 6.37515 20 5.77195 19.96 5.28273C19.9188 4.77778 19.8312 4.32851 19.6185 3.91103C19.283 3.25247 18.7475 2.71703 18.089 2.38148C17.6715 2.16876 17.2222 2.08121 16.7173 2.03996C16.228 1.99999 15.6249 1.99999 14.8818 2ZM18.5 11.1714V7.15C18.5 6.36755 18.4994 5.82582 18.465 5.40488C18.4313 4.99269 18.369 4.7628 18.282 4.59202C18.0903 4.2157 17.7843 3.90973 17.408 3.71799C17.2372 3.63097 17.0073 3.56865 16.5951 3.53498C16.1742 3.50058 15.6324 3.5 14.85 3.5H7.15C6.36755 3.5 5.82582 3.50058 5.40488 3.53498C4.99269 3.56865 4.7628 3.63097 4.59202 3.71799C4.2157 3.90973 3.90973 4.2157 3.71799 4.59202C3.63097 4.7628 3.56865 4.99269 3.53498 5.40488C3.50058 5.82582 3.5 6.36755 3.5 7.15V11.1714L18.5 11.1714ZM3.5 12.6714L18.5 12.6714V14.85C18.5 15.6324 18.4994 16.1742 18.465 16.5951C18.4313 17.0073 18.369 17.2372 18.282 17.408C18.0903 17.7843 17.7843 18.0903 17.408 18.282C17.2372 18.369 17.0073 18.4313 16.5951 18.465C16.1742 18.4994 15.6324 18.5 14.85 18.5H7.15C6.36755 18.5 5.82582 18.4994 5.40488 18.465C4.99269 18.4313 4.7628 18.369 4.59202 18.282C4.2157 18.0903 3.90973 17.7843 3.71799 17.408C3.63097 17.2372 3.56865 17.0073 3.53498 16.5951C3.50058 16.1742 3.5 15.6324 3.5 14.85V12.6714Z"/>
</svg>
