<svg width="16" height="16" viewBox="0 0 16 16"  xmlns="http://www.w3.org/2000/svg">
<path d="M10.6654 6.50003C10.4867 6.50003 10.3217 6.40473 10.2324 6.25003L9.07651 4.24805C8.98719 4.09335 8.98719 3.90275 9.07651 3.74805C9.16583 3.59335 9.33089 3.49805 9.50952 3.49805H11.8212C11.9998 3.49805 12.1649 3.59335 12.2542 3.74805C12.3435 3.90275 12.3435 4.09335 12.2542 4.24805L11.0984 6.25003C11.0091 6.40473 10.844 6.50003 10.6654 6.50003Z" />
<path d="M10.6654 12.5C10.4867 12.5 10.3217 12.4047 10.2324 12.25L9.07651 10.248C8.98719 10.0933 8.98719 9.90275 9.07651 9.74805C9.16583 9.59335 9.33089 9.49805 9.50952 9.49805H11.8212C11.9998 9.49805 12.1649 9.59335 12.2542 9.74805C12.3435 9.90275 12.3435 10.0933 12.2542 10.248L11.0984 12.25C11.0091 12.4047 10.844 12.5 10.6654 12.5Z" />
<path fill-rule="evenodd" clip-rule="evenodd" d="M5.17304 1.3501H10.8269C11.3641 1.35009 11.8064 1.35008 12.1665 1.37951C12.5402 1.41004 12.8822 1.47547 13.2031 1.63893C13.7017 1.893 14.1071 2.29839 14.3611 2.79702C14.5246 3.11784 14.59 3.45987 14.6206 3.83357C14.65 4.19368 14.65 4.636 14.65 5.17316V10.827C14.65 11.3642 14.65 11.8065 14.6206 12.1666C14.59 12.5403 14.5246 12.8824 14.3611 13.2032C14.1071 13.7018 13.7017 14.1072 13.2031 14.3613C12.8822 14.5247 12.5402 14.5902 12.1665 14.6207C11.8064 14.6501 11.3641 14.6501 10.8269 14.6501H5.17304C4.63588 14.6501 4.19356 14.6501 3.83345 14.6207C3.45975 14.5902 3.11772 14.5247 2.7969 14.3613C2.29827 14.1072 1.89287 13.7018 1.63881 13.2032C1.47535 12.8824 1.40992 12.5403 1.37938 12.1666C1.34996 11.8065 1.34997 11.3642 1.34998 10.827V5.17316C1.34997 4.63601 1.34996 4.19368 1.37938 3.83357C1.40992 3.45987 1.47535 3.11784 1.63881 2.79702C1.89287 2.29839 2.29827 1.893 2.7969 1.63893C3.11772 1.47547 3.45975 1.41004 3.83345 1.37951C4.19356 1.35008 4.63589 1.35009 5.17304 1.3501ZM13.35 5.2001V7.3501L2.64998 7.3501V5.2001C2.64998 4.62932 2.65048 4.24033 2.67507 3.93943C2.69903 3.64613 2.74259 3.49422 2.79712 3.38721C2.92655 3.13319 3.13307 2.92667 3.38709 2.79724C3.4941 2.74272 3.646 2.69915 3.93931 2.67519C4.24021 2.6506 4.6292 2.6501 5.19998 2.6501H10.8C11.3708 2.6501 11.7597 2.6506 12.0606 2.67519C12.3539 2.69915 12.5059 2.74272 12.6129 2.79724C12.8669 2.92667 13.0734 3.13319 13.2028 3.38721C13.2574 3.49422 13.3009 3.64613 13.3249 3.93943C13.3495 4.24033 13.35 4.62932 13.35 5.2001ZM13.35 8.6501L2.64998 8.6501V10.8001C2.64998 11.3709 2.65048 11.7599 2.67507 12.0608C2.69903 12.3541 2.74259 12.506 2.79712 12.613C2.92655 12.867 3.13307 13.0735 3.38709 13.203C3.4941 13.2575 3.646 13.301 3.93931 13.325C4.24021 13.3496 4.6292 13.3501 5.19998 13.3501H10.8C11.3708 13.3501 11.7597 13.3496 12.0606 13.325C12.3539 13.301 12.5059 13.2575 12.6129 13.203C12.8669 13.0735 13.0734 12.867 13.2028 12.613C13.2574 12.506 13.3009 12.3541 13.3249 12.0608C13.3495 11.7599 13.35 11.3709 13.35 10.8001V8.6501Z" />
</svg>
