<svg width="16" height="16" viewBox="0 0 16 16"  xmlns="http://www.w3.org/2000/svg">
<path fill-rule="evenodd" clip-rule="evenodd" d="M4.86157 3.3461H11.1384C11.7375 3.34609 12.2264 3.34609 12.6235 3.37853C13.0343 3.41209 13.4038 3.48358 13.7483 3.65915C14.2888 3.93452 14.7282 4.37391 15.0036 4.91435C15.1791 5.25894 15.2506 5.62841 15.2842 6.03916C15.3166 6.4363 15.3166 6.92522 15.3166 7.52427L15.3166 8.47184C15.3166 9.0709 15.3166 9.55981 15.2842 9.95695C15.2506 10.3677 15.1791 10.7372 15.0036 11.0818C14.7282 11.6222 14.2888 12.0616 13.7484 12.337C13.4038 12.5125 13.0343 12.584 12.6235 12.6176C12.2264 12.65 11.7375 12.65 11.1384 12.65H4.86153C4.26247 12.65 3.77355 12.65 3.37642 12.6176C2.96566 12.584 2.59619 12.5125 2.25161 12.337C1.71117 12.0616 1.27178 11.6222 0.996407 11.0818C0.820833 10.7372 0.749349 10.3677 0.715789 9.95695C0.683341 9.5598 0.683347 9.07087 0.683355 8.47179L0.68335 7.52432C0.683342 6.92524 0.683336 6.43631 0.715785 6.03916C0.749345 5.62841 0.820829 5.25894 0.996402 4.91435C1.27177 4.37391 1.71116 3.93452 2.2516 3.65915C2.59619 3.48358 2.96566 3.41209 3.37641 3.37853C3.77356 3.34609 4.26249 3.34609 4.86157 3.3461ZM3.48227 4.67422C3.15191 4.70121 2.97257 4.75083 2.84179 4.81746C2.54596 4.96819 2.30544 5.20871 2.15471 5.50454C2.08808 5.63532 2.03846 5.81466 2.01147 6.14502C1.98386 6.48297 1.98335 6.91863 1.98335 7.55163L1.98335 8.44447C1.98335 9.07748 1.98386 9.51314 2.01147 9.85109C2.03846 10.1814 2.08808 10.3608 2.15472 10.4916C2.30545 10.7874 2.54597 11.0279 2.8418 11.1786C2.97257 11.2453 3.15192 11.2949 3.48228 11.3219C3.82023 11.3495 4.25589 11.35 4.88889 11.35H11.1111C11.7441 11.35 12.1797 11.3495 12.5177 11.3219C12.848 11.2949 13.0274 11.2453 13.1582 11.1786C13.454 11.0279 13.6945 10.7874 13.8452 10.4916C13.9119 10.3608 13.9615 10.1814 13.9885 9.85109C14.0161 9.51314 14.0166 9.07748 14.0166 8.44448L14.0166 7.55163C14.0166 6.91863 14.0161 6.48297 13.9885 6.14502C13.9615 5.81466 13.9119 5.63531 13.8452 5.50454C13.6945 5.20871 13.454 4.96819 13.1582 4.81746C13.0274 4.75083 12.848 4.70121 12.5177 4.67422C12.1797 4.64661 11.7441 4.6461 11.1111 4.6461H4.88888C4.25588 4.6461 3.82022 4.64661 3.48227 4.67422Z" />
<path d="M10.5624 9.24854C10.6517 9.40324 10.8167 9.49854 10.9954 9.49854C11.174 9.49854 11.3391 9.40324 11.4284 9.24854L12.5842 7.24656C12.6736 7.09186 12.6736 6.90126 12.5842 6.74656C12.4949 6.59186 12.3299 6.49656 12.1512 6.49656H9.83953C9.6609 6.49656 9.49583 6.59186 9.40652 6.74656C9.3172 6.90126 9.3172 7.09186 9.40652 7.24656L10.5624 9.24854Z" />
</svg>
