<svg width="22" height="22" viewBox="0 0 22 22" xmlns="http://www.w3.org/2000/svg">
<path d="M14.6857 12.623C14.775 12.7777 14.9401 12.873 15.1187 12.873C15.2974 12.873 15.4624 12.7777 15.5517 12.623L17.141 9.87032C17.2303 9.71562 17.2303 9.52502 17.141 9.37032C17.0517 9.21562 16.8866 9.12032 16.708 9.12032L13.5294 9.12032C13.3508 9.12032 13.1857 9.21562 13.0964 9.37032C13.0071 9.52502 13.0071 9.71562 13.0964 9.87032L14.6857 12.623Z" />
<path fill-rule="evenodd" clip-rule="evenodd" d="M6.69019 4.74463H15.31C16.1384 4.74462 16.8056 4.74462 17.3458 4.78875C17.9017 4.83417 18.3887 4.93004 18.8389 5.15941C19.5549 5.52426 20.1371 6.10643 20.5019 6.82249C20.7313 7.27265 20.8272 7.75965 20.8726 8.31555C20.9167 8.85571 20.9167 9.52297 20.9167 10.3513L20.9167 11.6433C20.9167 12.4717 20.9167 13.1389 20.8726 13.6791C20.8272 14.235 20.7313 14.722 20.5019 15.1721C20.1371 15.8882 19.5549 16.4704 18.8389 16.8352C18.3887 17.0646 17.9017 17.1605 17.3458 17.2059C16.8056 17.25 16.1384 17.25 15.3101 17.25H6.69017C5.86184 17.25 5.19458 17.25 4.65442 17.2059C4.09852 17.1605 3.61152 17.0646 3.16136 16.8352C2.44531 16.4704 1.86313 15.8882 1.49828 15.1721C1.26891 14.722 1.17304 14.235 1.12762 13.6791C1.08349 13.1389 1.0835 12.4717 1.0835 11.6434L1.0835 10.3513C1.08349 9.52298 1.08348 8.85571 1.12762 8.31554C1.17304 7.75965 1.26891 7.27265 1.49828 6.82249C1.86313 6.10643 2.4453 5.52426 3.16136 5.15941C3.61152 4.93004 4.09851 4.83417 4.65441 4.78875C5.19458 4.74462 5.86186 4.74462 6.69019 4.74463ZM4.77656 6.28377C4.31342 6.32161 4.0458 6.39225 3.84234 6.49592C3.40853 6.71696 3.05582 7.06966 2.83479 7.50348C2.73112 7.70693 2.66047 7.97456 2.62264 8.43769C2.58408 8.90958 2.5835 9.51548 2.5835 10.3835L2.5835 11.6111C2.5835 12.4792 2.58409 13.085 2.62264 13.5569C2.66048 14.0201 2.73113 14.2877 2.83479 14.4912C3.05583 14.925 3.40853 15.2777 3.84235 15.4987C4.04581 15.6024 4.31343 15.673 4.77657 15.7109C5.24846 15.7494 5.85436 15.75 6.72236 15.75H15.2779C16.1459 15.75 16.7518 15.7494 17.2237 15.7109C17.6868 15.673 17.9544 15.6024 18.1579 15.4987C18.5917 15.2777 18.9444 14.925 19.1654 14.4912C19.2691 14.2877 19.3397 14.0201 19.3776 13.5569C19.4161 13.0851 19.4167 12.4792 19.4167 11.6112L19.4167 10.3835C19.4167 9.51548 19.4161 8.90958 19.3776 8.43769C19.3397 7.97456 19.2691 7.70693 19.1654 7.50348C18.9444 7.06966 18.5917 6.71696 18.1579 6.49592C17.9544 6.39225 17.6868 6.32161 17.2237 6.28377C16.7518 6.24521 16.1459 6.24463 15.2779 6.24463H6.72236C5.85435 6.24463 5.24845 6.24521 4.77656 6.28377Z" />
</svg>
