<svg
  width="16"
  height="16"
  viewBox="0 0 16 16"
  fill="none"
  xmlns="http://www.w3.org/2000/svg"
>
  <path
    d="M3.33333 2C2.97971 2 2.64057 2.14048 2.39052 2.39052C2.14048 2.64057 2 2.97971 2 3.33333"
    stroke="currentColor"
    stroke-linecap="round"
    stroke-linejoin="round"
  />
  <path
    d="M14.0001 12.6667C14.0001 13.0203 13.8596 13.3594 13.6096 13.6095C13.3595 13.8595 13.0204 14 12.6667 14"
    stroke="currentColor"
    stroke-linecap="round"
    stroke-linejoin="round"
  />
  <path
    d="M3.33333 14C2.97971 14 2.64057 13.8595 2.39052 13.6095C2.14048 13.3594 2 13.0203 2 12.6667"
    stroke="currentColor"
    stroke-linecap="round"
    stroke-linejoin="round"
  />
  <path
    d="M6 2H6.66667"
    stroke="currentColor"
    stroke-linecap="round"
    stroke-linejoin="round"
  />
  <path
    d="M6 14H6.66667"
    stroke="currentColor"
    stroke-linecap="round"
    stroke-linejoin="round"
  />
  <path
    d="M9.33325 14H9.99992"
    stroke="currentColor"
    stroke-linecap="round"
    stroke-linejoin="round"
  />
  <path
    d="M2 6V6.66667"
    stroke="currentColor"
    stroke-linecap="round"
    stroke-linejoin="round"
  />
  <path
    d="M2 9.33333V9.99999"
    stroke="currentColor"
    stroke-linecap="round"
    stroke-linejoin="round"
  />
  <path
    d="M14 9.33333V9.99999"
    stroke="currentColor"
    stroke-linecap="round"
    stroke-linejoin="round"
  />
  <path
    fill-rule="evenodd"
    clip-rule="evenodd"
    d="M11.7692 2C11.7692 1.72386 11.5454 1.5 11.2692 1.5C10.9931 1.5 10.7692 1.72386 10.7692 2V4.26923H8.5C8.22386 4.26923 8 4.49309 8 4.76923C8 5.04537 8.22386 5.26923 8.5 5.26923H10.7692V7.53846C10.7692 7.8146 10.9931 8.03846 11.2692 8.03846C11.5454 8.03846 11.7692 7.8146 11.7692 7.53846V5.26923H14.0385C14.3146 5.26923 14.5385 5.04537 14.5385 4.76923C14.5385 4.49309 14.3146 4.26923 14.0385 4.26923H11.7692V2Z"
    fill="currentColor"
  />
</svg>
