<svg width="16" height="16" viewBox="0 0 16 16" fill="none" xmlns="http://www.w3.org/2000/svg">
<path d="M4.33005 1.35591C4.14935 1.36011 3.98395 1.36734 3.83291 1.37979C3.45835 1.41065 3.11577 1.47679 2.79398 1.64143C2.30975 1.89009 1.89577 2.28665 1.63997 2.79678C1.47636 3.11778 1.41051 3.45947 1.37973 3.83297C1.36729 3.98402 1.36005 4.14945 1.35585 4.33017H2.65618C2.65989 4.18354 2.66583 4.05516 2.67534 3.93972C2.69948 3.64678 2.74334 3.49436 2.7987 3.38615L2.80141 3.38078C2.92564 3.13233 3.13177 2.92947 3.3865 2.79855C3.49468 2.74328 3.64709 2.6995 3.93966 2.6754C4.05509 2.66589 4.18345 2.65995 4.33005 2.65624V1.35591Z" fill="currentColor"/>
<path d="M11.67 13.3439C11.8166 13.3402 11.945 13.3343 12.0604 13.3248C12.353 13.3007 12.5054 13.2569 12.6136 13.2016C12.8683 13.0707 13.0744 12.8678 13.1987 12.6194L13.2014 12.614C13.2567 12.5058 13.3006 12.3534 13.3247 12.0605C13.3342 11.945 13.3402 11.8166 13.3439 11.67H14.6442C14.64 11.8507 14.6328 12.0162 14.6203 12.1672C14.5896 12.5407 14.5237 12.8824 14.3601 13.2034C14.1043 13.7135 13.6912 14.1096 13.207 14.3583C12.8852 14.523 12.5417 14.5895 12.1672 14.6204C12.0161 14.6328 11.8507 14.6401 11.67 14.6443V13.3439Z" fill="currentColor"/>
<path d="M6.33005 13.3501H9.67002V14.6501H6.33005V13.3501Z" fill="currentColor"/>
<path d="M2.65618 11.67C2.65989 11.8166 2.66583 11.945 2.67534 12.0605C2.69946 12.3531 2.74326 12.5056 2.79855 12.6137C2.92948 12.8684 3.13231 13.0745 3.38073 13.1987L3.38611 13.2014C3.49431 13.2568 3.64672 13.3007 3.93966 13.3248C4.05509 13.3343 4.18345 13.3402 4.33005 13.3439V14.6443C4.14935 14.6401 3.98395 14.6328 3.83291 14.6204C3.45944 14.5896 3.11777 14.5238 2.7968 14.3602C2.28663 14.1044 1.89049 13.6913 1.64182 13.207C1.47718 12.8852 1.41059 12.5418 1.37973 12.1672C1.36729 12.0162 1.36005 11.8507 1.35585 11.67H2.65618Z" fill="currentColor"/>
<path d="M2.65004 6.33017V9.67001H1.35004V6.33017H2.65004Z" fill="currentColor"/>
<path d="M2.65004 6.33017V9.67001H1.35004V6.33017H2.65004Z" fill="currentColor"/>
<path fill-rule="evenodd" clip-rule="evenodd" d="M9.99998 1.35001C10.359 1.35001 10.65 1.64102 10.65 2.00001V10C10.65 10.359 10.359 10.65 9.99998 10.65C9.64099 10.65 9.34998 10.359 9.34998 10V2.00001C9.34998 1.64102 9.64099 1.35001 9.99998 1.35001Z" fill="currentColor"/>
<path fill-rule="evenodd" clip-rule="evenodd" d="M14.65 6.00001C14.65 6.35899 14.359 6.65001 14 6.65001H5.99998C5.64099 6.65001 5.34998 6.35899 5.34998 6.00001C5.34998 5.64102 5.64099 5.35001 5.99998 5.35001H14C14.359 5.35001 14.65 5.64102 14.65 6.00001Z" fill="currentColor"/>
</svg>
