<svg
  id="evA4hI5dD261"
  xmlns="http://www.w3.org/2000/svg"
  xmlns:xlink="http://www.w3.org/1999/xlink"
  viewBox="0 0 17 17"
  shape-rendering="geometricPrecision"
  text-rendering="geometricPrecision"
>
  <style>
    <![CDATA[
      #evA4hI5dD263 {animation: evA4hI5dD263_s_do 4000ms linear infinite normal forwards}@keyframes evA4hI5dD263_s_do { 0% {stroke-dashoffset: 6.2} 17.5% {stroke-dashoffset: -6.24} 82.5% {stroke-dashoffset: -6.24} 100% {stroke-dashoffset: 6.2}} #evA4hI5dD264 {animation: evA4hI5dD264_s_do 4000ms linear infinite normal forwards}@keyframes evA4hI5dD264_s_do { 0% {stroke-dashoffset: 6.8} 10% {stroke-dashoffset: 6.8} 22.5% {stroke-dashoffset: -6.8} 77.5% {stroke-dashoffset: -6.8} 90% {stroke-dashoffset: 6.8} 100% {stroke-dashoffset: 6.8}} #evA4hI5dD265 {animation: evA4hI5dD265_s_do 4000ms linear infinite normal forwards}@keyframes evA4hI5dD265_s_do { 0% {stroke-dashoffset: 2.32} 17.5% {stroke-dashoffset: 2.32} 27.5% {stroke-dashoffset: -2.32} 72.5% {stroke-dashoffset: -2.32} 82.5% {stroke-dashoffset: 2.32} 100% {stroke-dashoffset: 2.32}} #evA4hI5dD266 {animation: evA4hI5dD266_s_do 4000ms linear infinite normal forwards}@keyframes evA4hI5dD266_s_do { 0% {stroke-dashoffset: 2.47} 22.5% {stroke-dashoffset: 2.47} 32.5% {stroke-dashoffset: -2.47} 67.5% {stroke-dashoffset: -2.47} 77.5% {stroke-dashoffset: 2.47} 100% {stroke-dashoffset: 2.47}} #evA4hI5dD267 {animation: evA4hI5dD267_s_do 4000ms linear infinite normal forwards}@keyframes evA4hI5dD267_s_do { 0% {stroke-dashoffset: 5.42} 27.5% {stroke-dashoffset: 5.42} 40% {stroke-dashoffset: -5.42} 60% {stroke-dashoffset: -5.42} 72.5% {stroke-dashoffset: 5.42} 100% {stroke-dashoffset: 5.42}} #evA4hI5dD268 {animation: evA4hI5dD268_s_do 4000ms linear infinite normal forwards}@keyframes evA4hI5dD268_s_do { 0% {stroke-dashoffset: 6.13} 32.5% {stroke-dashoffset: 6.13} 50% {stroke-dashoffset: -6.1} 67.5% {stroke-dashoffset: 6.13} 100% {stroke-dashoffset: 6.13}}
    ]]>
  </style>
  <path
    d="M2.81592,12.9564c0,0,.699-2.7972,1.513-6.05155.285-1.1412,1.311-1.9416,2.487-1.9416c1.177,0,2.202.8004,2.487,1.9416.457,1.8276.87798,3.50995,1.15898,4.63435.2059.8244.9668,1.4172,1.816,1.4172c1.0186,0,1.872-.8534,1.872-1.872c0-2.36515,0-6.12835,0-6.12835"
    fill="none"
    stroke="rgba(255,255,255,0.4)"
    stroke-width="2.2"
    stroke-linecap="round"
    stroke-dasharray="0"
  />
  <path
    id="evA4hI5dD263"
    d="M2.81592,12.9564c0,0,.699-2.7972,1.513-6.05155"
    fill="none"
    stroke="#fff"
    stroke-width="3.3"
    stroke-linecap="round"
    stroke-dashoffset="6.2"
    stroke-dasharray="6.24"
  />
  <path
    id="evA4hI5dD264"
    d="M4.32892,6.90485c.285-1.1412,1.311-1.9416,2.487-1.9416c1.177,0,2.202.8004,2.487,1.9416"
    fill="none"
    stroke="#fff"
    stroke-width="3.3"
    stroke-linecap="round"
    stroke-dashoffset="6.8"
    stroke-dasharray="6.8"
  />
  <path
    id="evA4hI5dD265"
    d="M9.30292,6.90485c.093946.375699.326476,1.305406.561072,2.243404"
    fill="none"
    stroke="#fff"
    stroke-width="3.3"
    stroke-linecap="round"
    stroke-dashoffset="2.32"
    stroke-dasharray="2.32"
  />
  <path
    id="evA4hI5dD266"
    d="M9.863992,9.148254c.255929,1.023295.514316,2.056457.597908,2.390946"
    fill="none"
    stroke="#fff"
    stroke-width="3.3"
    stroke-linecap="round"
    stroke-dashoffset="2.47"
    stroke-dasharray="2.47"
  />
  <path
    id="evA4hI5dD267"
    d="M10.4619,11.5392c.2059.8244.9668,1.4172,1.816,1.4172c1.0186,0,1.872-.8534,1.872-1.872"
    fill="none"
    stroke="#fff"
    stroke-width="3.3"
    stroke-linecap="round"
    stroke-dashoffset="5.42"
    stroke-dasharray="5.42"
  />
  <path
    id="evA4hI5dD268"
    d="M14.1499,11.0844c0-2.36515,0-6.12835,0-6.12835"
    fill="none"
    stroke="#fff"
    stroke-width="3.3"
    stroke-linecap="round"
    stroke-dashoffset="6.13"
    stroke-dasharray="6.13"
  />
</svg>
