<svg xmlns="http://www.w3.org/2000/svg" width="16" height="16" viewBox="0 0 16 16">
  <path d="M11.4582 13.305C13.1832 13.305 14.6292 11.8576 14.6292 10.1301V3.9965C14.6292 3.27884 14.0472 2.69531 13.3292 2.69531C12.6122 2.69531 12.0292 3.27884 12.0292 3.9965V10.1301C12.0292 10.4412 11.7694 10.7024 11.4585 10.7026C11.1995 10.7026 10.9663 10.5213 10.9043 10.27C10.6233 9.14402 10.2023 7.46048 9.74527 5.63082C9.31626 3.91025 7.77125 2.70216 5.99824 2.70216C4.22622 2.70216 2.68021 3.91025 2.25021 5.63182L0.738198 11.6883C0.564197 12.385 0.9882 13.0916 1.68421 13.2658C2.38021 13.4399 3.08622 13.0155 3.26022 12.3189C3.26022 12.3189 3.95922 9.51936 4.77323 6.26239C4.91323 5.69988 5.41923 5.30452 5.99824 5.30452C6.57724 5.30452 7.08224 5.69988 7.22325 6.26239C7.67925 8.09106 8.10025 9.77559 8.38125 10.9006C8.73023 12.2988 10.0193 13.3048 11.4582 13.305Z"/>
</svg>