<svg xmlns="http://www.w3.org/2000/svg" width="16" height="16" viewBox="0 0 16 16">
  <path fill-rule="evenodd" clip-rule="evenodd" d="M3.03963 12.3265C2.89263 12.9155 2.29463 13.2735 1.70563 13.1265C1.11663 12.9795 0.757634 12.3815 0.905634 11.7925C0.905634 11.7925 1.60463 8.99548 2.41863 5.74147C2.82563 4.11047 4.29163 2.96647 5.97263 2.96647C7.65463 2.96647 9.11963 4.11047 9.52663 5.74147C9.98363 7.56848 10.4046 9.25148 10.6856 10.3755C10.7706 10.7155 11.0846 10.9595 11.4346 10.9595C11.8546 10.9595 12.2066 10.6075 12.2066 10.1875V4.05947C12.2066 3.45247 12.6996 2.95947 13.3066 2.95947C13.9136 2.95947 14.4066 3.45247 14.4066 4.05947V10.1875C14.4066 11.8045 13.0516 13.1595 11.4346 13.1595C10.0856 13.1595 8.87763 12.2175 8.55163 10.9095C8.27063 9.78448 7.84963 8.10248 7.39263 6.27447C7.22963 5.62347 6.64463 5.16647 5.97263 5.16647C5.30063 5.16647 4.71563 5.62347 4.55263 6.27447C3.73863 9.52948 3.03963 12.3265 3.03963 12.3265Z"/>
</svg>