<svg width="22" height="22" viewBox="0 0 22 22" fill="none" xmlns="http://www.w3.org/2000/svg">
  <path fill-rule="evenodd" clip-rule="evenodd" d="M9.21309 2.56705C9.99686 1.17402 12.0026 1.17402 12.7863 2.56705L20.8758 16.9447C21.6446 18.3112 20.6571 19.9999 19.0891 19.9999H2.91028C1.34229 19.9999 0.354791 18.3112 1.12366 16.9447L9.21309 2.56705ZM11.479 3.30258C11.2688 2.92884 10.7307 2.92884 10.5204 3.30258L2.43095 17.6802C2.22466 18.0468 2.4896 18.4999 2.91028 18.4999H19.0891C19.5098 18.4999 19.7748 18.0468 19.5685 17.6802L11.479 3.30258Z" />
  <path fill-rule="evenodd" clip-rule="evenodd" d="M10.9995 7.49999C11.4137 7.49999 11.7495 7.83578 11.7495 8.24999V11.9075C11.7495 12.3217 11.4137 12.6575 10.9995 12.6575C10.5853 12.6575 10.2495 12.3217 10.2495 11.9075V8.24999C10.2495 7.83578 10.5853 7.49999 10.9995 7.49999Z" />
  <path fill-rule="evenodd" clip-rule="evenodd" d="M10.0995 15.5832C10.0995 15.0862 10.5025 14.6832 10.9995 14.6832H11.0087C11.5057 14.6832 11.9087 15.0862 11.9087 15.5832C11.9087 16.0803 11.5057 16.4832 11.0087 16.4832H10.9995C10.5025 16.4832 10.0995 16.0803 10.0995 15.5832Z" />
</svg>
  