<svg
  width="16"
  height="16"
  viewBox="0 0 16 16"
  fill="none"
  xmlns="http://www.w3.org/2000/svg"
>
  <path
    d="M14.4866 12L9.15329 2.66667C9.037 2.46147 8.86836 2.29079 8.66457 2.17204C8.46078 2.0533 8.22915 1.99073 7.99329 1.99073C7.75743 1.99073 7.52579 2.0533 7.322 2.17204C7.11822 2.29079 6.94958 2.46147 6.83329 2.66667L1.49995 12C1.38241 12.2036 1.32077 12.4346 1.32129 12.6697C1.32181 12.9047 1.38447 13.1355 1.50292 13.3385C1.62136 13.5416 1.79138 13.7097 1.99575 13.8259C2.20011 13.942 2.43156 14.0021 2.66662 14H13.3333C13.5672 13.9998 13.797 13.938 13.9995 13.8209C14.202 13.7037 14.3701 13.5354 14.487 13.3327C14.6038 13.1301 14.6653 12.9003 14.6653 12.6663C14.6652 12.4324 14.6036 12.2026 14.4866 12Z"
    stroke="currentColor"
    stroke-linecap="round"
    stroke-linejoin="round"
  />
  <path
    d="M8 6V8.66667"
    stroke="currentColor"
    stroke-linecap="round"
    stroke-linejoin="round"
  />
  <path
    d="M8 11.3333H8.00667"
    stroke="currentColor"
    stroke-linecap="round"
    stroke-linejoin="round"
  />
</svg>
