<svg width="16" height="16" viewBox="0 0 16 16" xmlns="http://www.w3.org/2000/svg">
<path fill-rule="evenodd" clip-rule="evenodd" d="M6.30056 2.3544C7.0461 1.02932 8.95396 1.02933 9.6995 2.35441L14.9764 11.7333C15.7078 13.0331 14.7685 14.6395 13.277 14.6395H2.7231C1.2316 14.6395 0.292268 13.0331 1.02363 11.7333L6.30056 2.3544ZM8.56652 2.99187C8.318 2.55017 7.68205 2.55017 7.43354 2.99186L2.15661 12.3707C1.91282 12.804 2.22594 13.3395 2.7231 13.3395H13.277C13.7741 13.3395 14.0872 12.804 13.8434 12.3707L8.56652 2.99187Z" />
<path fill-rule="evenodd" clip-rule="evenodd" d="M7.99989 5.33953C8.35887 5.33953 8.64989 5.63055 8.64989 5.98953V8.64953C8.64989 9.00852 8.35887 9.29953 7.99989 9.29953C7.6409 9.29953 7.34989 9.00852 7.34989 8.64953V5.98953C7.34989 5.63055 7.6409 5.33953 7.99989 5.33953Z" />
<path fill-rule="evenodd" clip-rule="evenodd" d="M7.19989 11.3228C7.19989 10.881 7.55806 10.5228 7.99989 10.5228H8.00656C8.44838 10.5228 8.80656 10.881 8.80656 11.3228C8.80656 11.7646 8.44838 12.1228 8.00656 12.1228H7.99989C7.55806 12.1228 7.19989 11.7646 7.19989 11.3228Z" />
</svg>
