<svg
  width="16"
  height="16"
  viewBox="0 0 16 16"
  fill="none"
  xmlns="http://www.w3.org/2000/svg"
>
  <path
    d="M1.50012 8H14.4999"
    stroke="currentColor"
    stroke-linecap="round"
    stroke-linejoin="round"
  />
  <path
    d="M6.69998 10.6V13.1999C6.69998 13.5447 6.56301 13.8753 6.31922 14.1191C6.07543 14.3629 5.74478 14.4999 5.4 14.4999H4.10002C3.75525 14.4999 3.4246 14.3629 3.1808 14.1191C2.93701 13.8753 2.80005 13.5447 2.80005 13.1999V10.6"
    stroke="currentColor"
    stroke-linecap="round"
    stroke-linejoin="round"
  />
  <path
    d="M6.69998 5.40005V2.8001C6.69998 2.45532 6.56301 2.12467 6.31922 1.88088C6.07543 1.63708 5.74478 1.50012 5.4 1.50012H4.10002C3.75525 1.50012 3.4246 1.63708 3.1808 1.88088C2.93701 2.12467 2.80005 2.45532 2.80005 2.8001V5.40005"
    stroke="currentColor"
    stroke-linecap="round"
    stroke-linejoin="round"
  />
  <path
    d="M13.1999 10.6V11.2499C13.1999 11.5947 13.0629 11.9254 12.8191 12.1692C12.5753 12.413 12.2447 12.5499 11.8999 12.5499H10.5999C10.2551 12.5499 9.92447 12.413 9.68068 12.1692C9.43689 11.9254 9.29993 11.5947 9.29993 11.2499V10.6"
    stroke="currentColor"
    stroke-linecap="round"
    stroke-linejoin="round"
  />
  <path
    d="M9.29993 5.40005V4.75006C9.29993 4.03507 9.88492 3.45008 10.5999 3.45008H11.8999C12.2447 3.45008 12.5753 3.58705 12.8191 3.83084C13.0629 4.07463 13.1999 4.40529 13.1999 4.75006V5.40005"
    stroke="currentColor"
    stroke-linecap="round"
    stroke-linejoin="round"
  />
</svg>
