<svg
  width="16"
  height="16"
  viewBox="0 0 16 16"
  fill="none"
  xmlns="http://www.w3.org/2000/svg"
>
  <path
    d="M3.86734 4.23668H3.15128C2.60934 4.23668 2.17001 4.63962 2.17001 5.13668L2.16992 5.6C2.16992 6.09706 2.60925 6.5 3.15119 6.5H3.86726C4.4092 6.5 4.84853 6.09706 4.84853 5.6L4.84861 5.13668C4.84861 4.63962 4.40928 4.23668 3.86734 4.23668Z"
    stroke="currentColor"
    stroke-linecap="round"
    stroke-linejoin="round"
  />
  <path
    d="M3.84867 8H3.1326C2.59066 8 2.15133 8.40294 2.15133 8.9L2.15125 9.36332C2.15125 9.86038 2.59057 10.2633 3.13252 10.2633H3.84858C4.39052 10.2633 4.82985 9.86038 4.82985 9.36332L4.82994 8.9C4.82994 8.40294 4.39061 8 3.84867 8Z"
    stroke="currentColor"
    stroke-linecap="round"
    stroke-linejoin="round"
  />
  <path
    d="M8.36734 4.23668H7.65128C7.10934 4.23668 6.67001 4.63962 6.67001 5.13668L6.66992 5.6C6.66992 6.09706 7.10925 6.5 7.65119 6.5H8.36726C8.9092 6.5 9.34853 6.09706 9.34853 5.6L9.34861 5.13668C9.34861 4.63962 8.90928 4.23668 8.36734 4.23668Z"
    stroke="currentColor"
    stroke-linecap="round"
    stroke-linejoin="round"
  />
  <path
    d="M12.8673 4.23668H12.1513C11.6093 4.23668 11.17 4.63962 11.17 5.13668L11.1699 5.6C11.1699 6.09706 11.6093 6.5 12.1512 6.5H12.8673C13.4092 6.5 13.8485 6.09706 13.8485 5.6L13.8486 5.13668C13.8486 4.63962 13.4093 4.23668 12.8673 4.23668Z"
    stroke="currentColor"
    stroke-linecap="round"
    stroke-linejoin="round"
  />
  <path
    d="M1.50002 2.32706L7.99989 2.32706L14.4998 2.32706"
    stroke="currentColor"
    stroke-linecap="round"
    stroke-linejoin="round"
  />
  <path
    d="M1.50026 13.6729L8.00013 13.6729L14.5 13.6729"
    stroke="currentColor"
    stroke-linecap="round"
    stroke-linejoin="round"
  />
</svg>
