<svg
  width="16"
  height="16"
  viewBox="0 0 16 16"
  fill="none"
  xmlns="http://www.w3.org/2000/svg"
>
  <path
    d="M3.86726 6.66052H3.15119C2.60925 6.66052 2.16992 7.06347 2.16992 7.56052V8.43947C2.16992 8.93652 2.60925 9.33947 3.15119 9.33947H3.86726C4.4092 9.33947 4.84853 8.93652 4.84853 8.43947V7.56052C4.84853 7.06347 4.4092 6.66052 3.86726 6.66052Z"
    stroke="currentColor"
    stroke-linecap="round"
    stroke-linejoin="round"
  />
  <path
    d="M8.36726 6.66052H7.65119C7.10925 6.66052 6.66992 7.06347 6.66992 7.56052V8.43947C6.66992 8.93652 7.10925 9.33947 7.65119 9.33947H8.36726C8.9092 9.33947 9.34853 8.93652 9.34853 8.43947V7.56052C9.34853 7.06347 8.9092 6.66052 8.36726 6.66052Z"
    stroke="currentColor"
    stroke-linecap="round"
    stroke-linejoin="round"
  />
  <path
    d="M12.8673 6.66052H12.1512C11.6093 6.66052 11.1699 7.06347 11.1699 7.56052V8.43947C11.1699 8.93652 11.6093 9.33947 12.1512 9.33947H12.8673C13.4092 9.33947 13.8485 8.93652 13.8485 8.43947V7.56052C13.8485 7.06347 13.4092 6.66052 12.8673 6.66052Z"
    stroke="currentColor"
    stroke-linecap="round"
    stroke-linejoin="round"
  />
  <path
    d="M1.50002 2.32706L7.99989 2.32706L14.4998 2.32706"
    stroke="currentColor"
    stroke-linecap="round"
    stroke-linejoin="round"
  />
  <path
    d="M1.50026 13.6729L8.00013 13.6729L14.5 13.6729"
    stroke="currentColor"
    stroke-linecap="round"
    stroke-linejoin="round"
  />
</svg>
