<svg
  width="16"
  height="16"
  viewBox="0 0 16 16"
  fill="none"
  xmlns="http://www.w3.org/2000/svg"
>
  <path
    d="M3.86734 4.24278H3.15128C2.60934 4.24278 2.17001 4.64573 2.17001 5.14278L2.16992 5.6061C2.16992 6.10316 2.60925 6.5061 3.15119 6.5061H3.86726C4.4092 6.5061 4.84853 6.10316 4.84853 5.6061L4.84861 5.14278C4.84861 4.64573 4.40928 4.24278 3.86734 4.24278Z"
    stroke="currentColor"
    stroke-linecap="round"
    stroke-linejoin="round"
  />
  <path
    d="M3.84867 9.49037H3.1326C2.59066 9.49037 2.15133 9.89332 2.15133 10.3904L2.15125 10.8537C2.15125 11.3507 2.59057 11.7537 3.13252 11.7537H3.84858C4.39052 11.7537 4.82985 11.3507 4.82985 10.8537L4.82994 10.3904C4.82994 9.89332 4.39061 9.49037 3.84867 9.49037Z"
    stroke="currentColor"
    stroke-linecap="round"
    stroke-linejoin="round"
  />
  <path
    d="M8.36734 4.24278H7.65128C7.10934 4.24278 6.67001 4.64573 6.67001 5.14278L6.66992 5.6061C6.66992 6.10316 7.10925 6.5061 7.65119 6.5061H8.36726C8.9092 6.5061 9.34853 6.10316 9.34853 5.6061L9.34861 5.14278C9.34861 4.64573 8.90928 4.24278 8.36734 4.24278Z"
    stroke="currentColor"
    stroke-linecap="round"
    stroke-linejoin="round"
  />
  <path
    d="M12.8673 4.24278H12.1513C11.6093 4.24278 11.17 4.64573 11.17 5.14278L11.1699 5.6061C11.1699 6.10316 11.6093 6.5061 12.1512 6.5061H12.8673C13.4092 6.5061 13.8485 6.10316 13.8485 5.6061L13.8486 5.14278C13.8486 4.64573 13.4093 4.24278 12.8673 4.24278Z"
    stroke="currentColor"
    stroke-linecap="round"
    stroke-linejoin="round"
  />
  <path
    d="M1.50002 2.32706L7.99989 2.32706L14.4998 2.32706"
    stroke="currentColor"
    stroke-linecap="round"
    stroke-linejoin="round"
  />
  <path
    d="M1.50026 13.6729L8.00013 13.6729L14.5 13.6729"
    stroke="currentColor"
    stroke-linecap="round"
    stroke-linejoin="round"
  />
</svg>
