<svg
  width="16"
  height="16"
  viewBox="0 0 16 16"
  fill="none"
  xmlns="http://www.w3.org/2000/svg"
>
  <path
    d="M3.86726 8.38466H3.15119C2.60925 8.38466 2.16992 7.98172 2.16992 7.48466V6.60571C2.16992 6.10866 2.60925 5.70571 3.15119 5.70571H3.86726C4.4092 5.70571 4.84853 6.10866 4.84853 6.60571V7.48466C4.84853 7.98172 4.4092 8.38466 3.86726 8.38466Z"
    stroke="currentColor"
    stroke-linecap="round"
    stroke-linejoin="round"
  />
  <path
    d="M8.36726 8.38466H7.65119C7.10925 8.38466 6.66992 7.98172 6.66992 7.48466V6.60571C6.66992 6.10866 7.10925 5.70571 7.65119 5.70571H8.36726C8.9092 5.70571 9.34853 6.10866 9.34853 6.60571V7.48466C9.34853 7.98172 8.9092 8.38466 8.36726 8.38466Z"
    stroke="currentColor"
    stroke-linecap="round"
    stroke-linejoin="round"
  />
  <path
    d="M12.8673 8.38466H12.1512C11.6093 8.38466 11.1699 7.98172 11.1699 7.48466V6.60571C11.1699 6.10866 11.6093 5.70571 12.1512 5.70571H12.8673C13.4092 5.70571 13.8485 6.10866 13.8485 6.60571V7.48466C13.8485 7.98172 13.4092 8.38466 12.8673 8.38466Z"
    stroke="currentColor"
    stroke-linecap="round"
    stroke-linejoin="round"
  />
  <path
    d="M1.50002 10.2943L7.99989 10.2943L14.4998 10.2943"
    stroke="currentColor"
    stroke-linecap="round"
    stroke-linejoin="round"
  />
</svg>
