<svg
  width="16"
  height="16"
  viewBox="0 0 16 16"
  fill="none"
  xmlns="http://www.w3.org/2000/svg"
>
  <path
    d="M3.86734 3.98665H3.15128C2.60934 3.98665 2.17001 4.38959 2.17001 4.88665L2.16992 6.39829C2.16992 6.89534 2.60925 7.29829 3.15119 7.29829H3.86726C4.4092 7.29829 4.84853 6.89534 4.84853 6.39829L4.84861 4.88665C4.84861 4.38959 4.40928 3.98665 3.86734 3.98665Z"
    stroke="currentColor"
    stroke-linecap="round"
    stroke-linejoin="round"
  />
  <path
    d="M3.86734 8.70172H3.15128C2.60934 8.70172 2.17001 9.10466 2.17001 9.60172L2.16992 11.1134C2.16992 11.6104 2.60925 12.0134 3.15119 12.0134H3.86726C4.4092 12.0134 4.84853 11.6104 4.84853 11.1134L4.84861 9.60172C4.84861 9.10466 4.40928 8.70172 3.86734 8.70172Z"
    stroke="currentColor"
    stroke-linecap="round"
    stroke-linejoin="round"
  />
  <path
    d="M8.36734 3.98665H7.65128C7.10934 3.98665 6.67001 4.38959 6.67001 4.88665L6.66992 6.39829C6.66992 6.89534 7.10925 7.29829 7.65119 7.29829H8.36726C8.9092 7.29829 9.34853 6.89534 9.34853 6.39829L9.34861 4.88665C9.34861 4.38959 8.90928 3.98665 8.36734 3.98665Z"
    stroke="currentColor"
    stroke-linecap="round"
    stroke-linejoin="round"
  />
  <path
    d="M12.8673 3.98665H12.1513C11.6093 3.98665 11.17 4.38959 11.17 4.88665L11.1699 6.39829C11.1699 6.89534 11.6093 7.29829 12.1512 7.29829H12.8673C13.4092 7.29829 13.8485 6.89534 13.8485 6.39829L13.8486 4.88665C13.8486 4.38959 13.4093 3.98665 12.8673 3.98665Z"
    stroke="currentColor"
    stroke-linecap="round"
    stroke-linejoin="round"
  />
  <path
    d="M1.50002 2.32706L7.99989 2.32706L14.4998 2.32706"
    stroke="currentColor"
    stroke-linecap="round"
    stroke-linejoin="round"
  />
  <path
    d="M1.50026 13.6729L8.00013 13.6729L14.5 13.6729"
    stroke="currentColor"
    stroke-linecap="round"
    stroke-linejoin="round"
  />
</svg>
