<svg
  width="16"
  height="16"
  viewBox="0 0 16 16"
  fill="none"
  xmlns="http://www.w3.org/2000/svg"
>
  <path
    d="M3.86726 7.61534H3.15119C2.60925 7.61534 2.16992 8.01828 2.16992 8.51534V9.39429C2.16992 9.89134 2.60925 10.2943 3.15119 10.2943H3.86726C4.4092 10.2943 4.84853 9.89134 4.84853 9.39429V8.51534C4.84853 8.01828 4.4092 7.61534 3.86726 7.61534Z"
    stroke="currentColor"
    stroke-linecap="round"
    stroke-linejoin="round"
  />
  <path
    d="M8.36726 7.61534H7.65119C7.10925 7.61534 6.66992 8.01828 6.66992 8.51534V9.39429C6.66992 9.89134 7.10925 10.2943 7.65119 10.2943H8.36726C8.9092 10.2943 9.34853 9.89134 9.34853 9.39429V8.51534C9.34853 8.01828 8.9092 7.61534 8.36726 7.61534Z"
    stroke="currentColor"
    stroke-linecap="round"
    stroke-linejoin="round"
  />
  <path
    d="M12.8673 7.61534H12.1512C11.6093 7.61534 11.1699 8.01828 11.1699 8.51534V9.39429C11.1699 9.89134 11.6093 10.2943 12.1512 10.2943H12.8673C13.4092 10.2943 13.8485 9.89134 13.8485 9.39429V8.51534C13.8485 8.01828 13.4092 7.61534 12.8673 7.61534Z"
    stroke="currentColor"
    stroke-linecap="round"
    stroke-linejoin="round"
  />
  <path
    d="M1.50002 5.70572L7.99989 5.70572L14.4998 5.70572"
    stroke="currentColor"
    stroke-linecap="round"
    stroke-linejoin="round"
  />
</svg>
