<svg
  width="16"
  height="16"
  viewBox="0 0 16 16"
  fill="none"
  xmlns="http://www.w3.org/2000/svg"
>
  <path
    d="M3.86734 4.98668H3.15128C2.60934 4.98668 2.17001 5.38962 2.17001 5.88668L2.16992 6.35C2.16992 6.84706 2.60925 7.25 3.15119 7.25H3.86726C4.4092 7.25 4.84853 6.84706 4.84853 6.35L4.84861 5.88668C4.84861 5.38962 4.40928 4.98668 3.86734 4.98668Z"
    stroke="currentColor"
    stroke-linecap="round"
    stroke-linejoin="round"
  />
  <path
    d="M3.84867 8.75H3.1326C2.59066 8.75 2.15133 9.15294 2.15133 9.65L2.15125 10.1133C2.15125 10.6104 2.59057 11.0133 3.13252 11.0133H3.84858C4.39052 11.0133 4.82985 10.6104 4.82985 10.1133L4.82994 9.65C4.82994 9.15294 4.39061 8.75 3.84867 8.75Z"
    stroke="currentColor"
    stroke-linecap="round"
    stroke-linejoin="round"
  />
  <path
    d="M8.36734 4.98668H7.65128C7.10934 4.98668 6.67001 5.38962 6.67001 5.88668L6.66992 6.35C6.66992 6.84706 7.10925 7.25 7.65119 7.25H8.36726C8.9092 7.25 9.34853 6.84706 9.34853 6.35L9.34861 5.88668C9.34861 5.38962 8.90928 4.98668 8.36734 4.98668Z"
    stroke="currentColor"
    stroke-linecap="round"
    stroke-linejoin="round"
  />
  <path
    d="M12.8673 4.98668H12.1513C11.6093 4.98668 11.17 5.38962 11.17 5.88668L11.1699 6.35C11.1699 6.84706 11.6093 7.25 12.1512 7.25H12.8673C13.4092 7.25 13.8485 6.84706 13.8485 6.35L13.8486 5.88668C13.8486 5.38962 13.4093 4.98668 12.8673 4.98668Z"
    stroke="currentColor"
    stroke-linecap="round"
    stroke-linejoin="round"
  />
  <path
    d="M1.50002 2.32706L7.99989 2.32706L14.4998 2.32706"
    stroke="currentColor"
    stroke-linecap="round"
    stroke-linejoin="round"
  />
  <path
    d="M1.50026 13.6729L8.00013 13.6729L14.5 13.6729"
    stroke="currentColor"
    stroke-linecap="round"
    stroke-linejoin="round"
  />
</svg>
