<svg
  width="16"
  height="16"
  viewBox="0 0 16 16"
  fill="none"
  xmlns="http://www.w3.org/2000/svg"
>
  <path
    d="M3.86734 5.72705H3.15128C2.60934 5.72705 2.17001 6.12999 2.17001 6.62705L2.16992 7.09037C2.16992 7.58743 2.60925 7.99037 3.15119 7.99037H3.86726C4.4092 7.99037 4.84853 7.58743 4.84853 7.09037L4.84861 6.62705C4.84861 6.12999 4.40928 5.72705 3.86734 5.72705Z"
    stroke="currentColor"
    stroke-linecap="round"
    stroke-linejoin="round"
  />
  <path
    d="M3.84867 9.49037H3.1326C2.59066 9.49037 2.15133 9.89332 2.15133 10.3904L2.15125 10.8537C2.15125 11.3507 2.59057 11.7537 3.13252 11.7537H3.84858C4.39052 11.7537 4.82985 11.3507 4.82985 10.8537L4.82994 10.3904C4.82994 9.89332 4.39061 9.49037 3.84867 9.49037Z"
    stroke="currentColor"
    stroke-linecap="round"
    stroke-linejoin="round"
  />
  <path
    d="M8.36734 5.72705H7.65128C7.10934 5.72705 6.67001 6.12999 6.67001 6.62705L6.66992 7.09037C6.66992 7.58743 7.10925 7.99037 7.65119 7.99037H8.36726C8.9092 7.99037 9.34853 7.58743 9.34853 7.09037L9.34861 6.62705C9.34861 6.12999 8.90928 5.72705 8.36734 5.72705Z"
    stroke="currentColor"
    stroke-linecap="round"
    stroke-linejoin="round"
  />
  <path
    d="M12.8673 5.72705H12.1513C11.6093 5.72705 11.17 6.12999 11.17 6.62705L11.1699 7.09037C11.1699 7.58743 11.6093 7.99037 12.1512 7.99037H12.8673C13.4092 7.99037 13.8485 7.58743 13.8485 7.09037L13.8486 6.62705C13.8486 6.12999 13.4093 5.72705 12.8673 5.72705Z"
    stroke="currentColor"
    stroke-linecap="round"
    stroke-linejoin="round"
  />
  <path
    d="M1.50002 2.32706L7.99989 2.32706L14.4998 2.32706"
    stroke="currentColor"
    stroke-linecap="round"
    stroke-linejoin="round"
  />
  <path
    d="M1.50026 13.6729L8.00013 13.6729L14.5 13.6729"
    stroke="currentColor"
    stroke-linecap="round"
    stroke-linejoin="round"
  />
</svg>
