<svg
  width="16"
  height="16"
  viewBox="0 0 16 16"
  fill="none"
  xmlns="http://www.w3.org/2000/svg"
>
  <path
    d="M3.86734 4.57779H3.15128C2.60934 4.57779 2.17001 4.98073 2.17001 5.47779L2.16992 5.94111C2.16992 6.43817 2.60925 6.84111 3.15119 6.84111H3.86726C4.4092 6.84111 4.84853 6.43817 4.84853 5.94111L4.84861 5.47779C4.84861 4.98073 4.40928 4.57779 3.86734 4.57779Z"
    stroke="currentColor"
    stroke-linecap="round"
    stroke-linejoin="round"
  />
  <path
    d="M3.84867 9.15887H3.1326C2.59066 9.15887 2.15133 9.56182 2.15133 10.0589L2.15125 10.5222C2.15125 11.0193 2.59057 11.4222 3.13252 11.4222H3.84858C4.39052 11.4222 4.82985 11.0193 4.82985 10.5222L4.82994 10.0589C4.82994 9.56182 4.39061 9.15887 3.84867 9.15887Z"
    stroke="currentColor"
    stroke-linecap="round"
    stroke-linejoin="round"
  />
  <path
    d="M8.36734 4.57779H7.65128C7.10934 4.57779 6.67001 4.98073 6.67001 5.47779L6.66992 5.94111C6.66992 6.43817 7.10925 6.84111 7.65119 6.84111H8.36726C8.9092 6.84111 9.34853 6.43817 9.34853 5.94111L9.34861 5.47779C9.34861 4.98073 8.90928 4.57779 8.36734 4.57779Z"
    stroke="currentColor"
    stroke-linecap="round"
    stroke-linejoin="round"
  />
  <path
    d="M12.8673 4.57779H12.1513C11.6093 4.57779 11.17 4.98073 11.17 5.47779L11.1699 5.94111C11.1699 6.43817 11.6093 6.84111 12.1512 6.84111H12.8673C13.4092 6.84111 13.8485 6.43817 13.8485 5.94111L13.8486 5.47779C13.8486 4.98073 13.4093 4.57779 12.8673 4.57779Z"
    stroke="currentColor"
    stroke-linecap="round"
    stroke-linejoin="round"
  />
  <path
    d="M1.50002 2.32706L7.99989 2.32706L14.4998 2.32706"
    stroke="currentColor"
    stroke-linecap="round"
    stroke-linejoin="round"
  />
  <path
    d="M1.50026 13.6729L8.00013 13.6729L14.5 13.6729"
    stroke="currentColor"
    stroke-linecap="round"
    stroke-linejoin="round"
  />
</svg>
