<svg
  width="16"
  height="16"
  viewBox="0 0 16 16"
  fill="none"
  xmlns="http://www.w3.org/2000/svg"
>
  <path
    d="M4.5 8.3C6.3 7.7 7.8 8 9.3 11C9.6 9.2 10.5 6.5 11.4 5"
    stroke="currentColor"
    stroke-linecap="round"
    stroke-linejoin="round"
  />
  <path
    d="M4.20833 1.5H2.94444C2.56135 1.5 2.19395 1.65218 1.92307 1.92307C1.65218 2.19395 1.5 2.56135 1.5 2.94444V4.20833M14.5 4.20833V2.94444C14.5 2.56135 14.3478 2.19395 14.0769 1.92307C13.806 1.65218 13.4386 1.5 13.0555 1.5H11.7917M14.5 13.0556C14.5 13.0787 14.4994 13.1018 14.4983 13.1248M11.7917 14.5H13.0555C13.4386 14.5 13.806 14.3478 14.0769 14.0769C14.3315 13.8224 14.4812 13.4827 14.4983 13.1248M14.4983 13.1248V11.7917M1.5 11.7917V13.0556C1.5 13.4386 1.65218 13.806 1.92307 14.0769C2.19395 14.3478 2.56135 14.5 2.94444 14.5H4.20833M6.91667 1.5H9.08333M6.91667 14.5H9.08333M1.5 6.91667V9.08333M14.5 6.91667V9.08333"
    stroke="currentColor"
    stroke-linecap="round"
    stroke-linejoin="round"
  />
</svg>
