<svg width="16" height="17" viewBox="0 0 16 17" xmlns="http://www.w3.org/2000/svg">
<path fill-rule="evenodd" clip-rule="evenodd" d="M4.66617 2.31665C4.83882 2.31665 5.00438 2.38534 5.12632 2.50756L7.7902 5.17756C8.04375 5.43169 8.04328 5.84325 7.78914 6.0968C7.53501 6.35035 7.12346 6.34987 6.86991 6.09574L5.31617 4.53844L5.31617 10.3301C5.31617 10.6891 5.60719 10.9801 5.96617 10.9801H11.823L10.2677 9.43063C10.0134 9.17726 10.0126 8.76571 10.266 8.51139C10.5193 8.25707 10.9309 8.2563 11.1852 8.50967L13.8552 11.1697C13.9775 11.2915 14.0463 11.4569 14.0464 11.6295C14.0466 11.8021 13.9781 11.9677 13.8561 12.0898L11.1861 14.7598C10.9322 15.0136 10.5207 15.0136 10.2668 14.7598C10.013 14.5059 10.013 14.0944 10.2668 13.8405L11.8272 12.2801H5.96617C4.88922 12.2801 4.01617 11.4071 4.01617 10.3301L4.01617 4.53844L2.46244 6.09574C2.20889 6.34987 1.79734 6.35035 1.5432 6.0968C1.28907 5.84325 1.2886 5.43169 1.54215 5.17756L4.20603 2.50756C4.32797 2.38534 4.49353 2.31665 4.66617 2.31665Z" />
</svg>
