<svg
  width="16"
  height="16"
  viewBox="0 0 16 16"
  fill="none"
  xmlns="http://www.w3.org/2000/svg"
>
  <path
    d="M8.82275 13.5013L14.0001 8.2"
    stroke="currentColor"
    stroke-linecap="round"
    stroke-linejoin="round"
  />
  <path
    d="M10.6668 4L5.05743 9.724C4.80747 9.97403 4.66705 10.3131 4.66705 10.6667C4.66705 11.0202 4.80747 11.3593 5.05743 11.6093C5.30746 11.8593 5.64654 11.9997 6.00009 11.9997C6.35365 11.9997 6.69272 11.8593 6.94276 11.6093L12.5521 5.88533C13.052 5.38526 13.3329 4.7071 13.3329 4C13.3329 3.29289 13.052 2.61474 12.5521 2.11466C12.052 1.61474 11.3739 1.3339 10.6668 1.3339C9.95966 1.3339 9.2815 1.61474 8.78143 2.11466L3.17143 7.838C2.42122 8.58821 1.99976 9.60571 1.99976 10.6667C1.99976 11.7276 2.42122 12.7451 3.17143 13.4953C3.92164 14.2455 4.93914 14.667 6.00009 14.667C7.06105 14.667 8.05448 14.2697 8.80469 13.5195"
    stroke="currentColor"
    stroke-linecap="round"
    stroke-linejoin="round"
  />
</svg>
