<svg width="16" height="16" viewBox="0 0 16 16" xmlns="http://www.w3.org/2000/svg">
<path fill-rule="evenodd" clip-rule="evenodd" d="M9.12985 1.84184C10.0729 0.898832 11.6018 0.898832 12.5448 1.84183C13.4878 2.78484 13.4878 4.31375 12.5448 5.25675L6.65619 11.1453C6.40235 11.3992 5.99079 11.3992 5.73695 11.1453C5.48311 10.8915 5.48311 10.4799 5.73695 10.2261L11.6255 4.33751C12.0609 3.90219 12.0609 3.19639 11.6255 2.76107C11.1902 2.32575 10.4844 2.32575 10.0491 2.76107L4.16051 8.64965C3.03603 9.77414 3.03603 11.5973 4.16051 12.7218C5.285 13.8463 7.10815 13.8463 8.23263 12.7218L12.8734 8.08103C13.1272 7.82719 13.5388 7.82719 13.7926 8.08103C14.0464 8.33487 14.0464 8.74643 13.7926 9.00027L9.15187 13.641C7.5197 15.2732 4.87344 15.2732 3.24128 13.641C1.60911 12.0088 1.60911 9.36258 3.24127 7.73041L9.12985 1.84184Z" />
</svg>
