<svg width="16" height="16" viewBox="0 0 16 16" xmlns="http://www.w3.org/2000/svg">
<path d="M2.375 3.30211C2.375 2.99719 2.65482 2.75 3 2.75H13C13.3452 2.75 13.625 2.99719 13.625 3.30211C13.625 3.60703 13.3452 3.85422 13 3.85422H3C2.65482 3.85422 2.375 3.60703 2.375 3.30211Z" />
<path d="M2.375 12.6979C2.375 12.393 2.65482 12.1458 3 12.1458H13C13.3452 12.1458 13.625 12.393 13.625 12.6979C13.625 13.0028 13.3452 13.25 13 13.25H3C2.65482 13.25 2.375 13.0028 2.375 12.6979Z" />
<path d="M11.2308 5.42897C11.2308 5.16911 11.0187 4.95845 10.7571 4.95845C10.4954 4.95845 10.2833 5.16911 10.2833 5.42897V9.37504L9.04521 8.14546C8.86019 7.96171 8.56021 7.96171 8.37519 8.14546C8.19018 8.32921 8.19018 8.62712 8.37519 8.81087L10.4221 10.8437C10.6071 11.0274 10.907 11.0274 11.0921 10.8437L13.1389 8.81087C13.3239 8.62712 13.3239 8.32921 13.1389 8.14546C12.9539 7.96171 12.6539 7.96171 12.4689 8.14546L11.2308 9.37504V5.42897Z" />
<path fill-rule="evenodd" clip-rule="evenodd" d="M5.48697 4.96492C5.64949 5.07271 5.72113 5.24257 5.7494 5.3096L5.74991 5.31082C5.78646 5.39746 5.82427 5.5095 5.86387 5.62685L7.49267 10.4518C7.57717 10.7021 7.44135 10.973 7.18931 11.057C6.93727 11.1409 6.66444 11.006 6.57995 10.7557L5.99888 9.03443H4.27249L3.69142 10.7557C3.60693 11.006 3.3341 11.1409 3.08206 11.057C2.83002 10.973 2.6942 10.7021 2.7787 10.4518L4.40248 5.64171C4.40416 5.63675 4.40583 5.63179 4.4075 5.62685C4.4471 5.5095 4.48491 5.39746 4.52146 5.31082L4.52197 5.3096C4.55024 5.24258 4.62188 5.07271 4.7844 4.96492C4.99917 4.82249 5.2722 4.82249 5.48697 4.96492ZM4.59522 8.07839H5.67615L5.13569 6.4774L4.59522 8.07839Z" />
</svg>
