<svg
  width="16"
  height="16"
  viewBox="0 0 16 16"
  fill="currentColor"
  xmlns="http://www.w3.org/2000/svg"
>
  <path
    fill-rule="evenodd"
    clip-rule="evenodd"
    d="M4.7306 4.72942V6.03547C4.7306 6.39445 5.02161 6.68547 5.3806 6.68547C5.73959 6.68547 6.0306 6.39445 6.0306 6.03547V4.72093L9.96936 4.72093V6.03547C9.96936 6.39445 10.2604 6.68547 10.6194 6.68547C10.9783 6.68547 11.2694 6.39445 11.2694 6.03547V4.72942C11.3575 4.73255 11.438 4.73682 11.5126 4.74267C11.7759 4.76332 11.9141 4.80074 12.0135 4.84794C12.2491 4.95979 12.4461 5.13921 12.5795 5.36337C12.6358 5.45795 12.6859 5.59199 12.7311 5.85228C12.7776 6.12048 12.8106 6.46819 12.8587 6.98147L13.2517 11.1725C13.3086 11.7795 13.3469 12.1943 13.3498 12.5158C13.3527 12.8304 13.3193 12.9914 13.2715 13.1028C13.1552 13.3733 12.9516 13.597 12.6931 13.738C12.5866 13.7961 12.4294 13.8442 12.1159 13.8708C11.7955 13.8979 11.3789 13.8984 10.7693 13.8984H5.23067C4.62103 13.8984 4.20446 13.8979 3.88407 13.8708C3.57056 13.8442 3.41338 13.7961 3.30689 13.738C3.0484 13.597 2.84473 13.3733 2.7285 13.1028C2.68062 12.9914 2.64731 12.8304 2.65015 12.5158C2.65306 12.1943 2.6914 11.7795 2.7483 11.1725L3.14121 6.98147C3.18933 6.46819 3.22239 6.12048 3.2689 5.85228C3.31404 5.59199 3.3642 5.45795 3.42046 5.36337C3.55382 5.13921 3.75085 4.95979 3.98648 4.84794C4.0859 4.80074 4.22404 4.76332 4.48741 4.74267C4.56198 4.73682 4.64243 4.73255 4.7306 4.72942ZM11.206 3.427C11.353 3.43075 11.4888 3.43682 11.6142 3.44665C11.9561 3.47345 12.2705 3.53093 12.571 3.67353C13.0396 3.896 13.4315 4.25286 13.6967 4.69871C13.8668 4.98451 13.9533 5.29223 14.0119 5.63016C14.0682 5.95451 14.1056 6.35321 14.1507 6.83482L14.5486 11.0793C14.6022 11.6512 14.6463 12.121 14.6498 12.504C14.6533 12.9003 14.6157 13.2673 14.4659 13.616C14.2347 14.1541 13.8296 14.5989 13.3155 14.8793C12.9823 15.061 12.6204 15.1327 12.2255 15.1662C11.8438 15.1985 11.372 15.1985 10.7976 15.1984H5.2024C4.628 15.1985 4.15616 15.1985 3.77443 15.1662C3.37959 15.1327 3.01769 15.061 2.68445 14.8793C2.17035 14.5989 1.76525 14.1541 1.53408 13.616C1.38424 13.2673 1.34662 12.9003 1.3502 12.504C1.35367 12.1209 1.39772 11.6512 1.45134 11.0793L1.84926 6.83482C1.8944 6.35321 1.93177 5.95451 1.98802 5.63015C2.04662 5.29223 2.1332 4.98451 2.30323 4.69871C2.56847 4.25286 2.96035 3.896 3.42901 3.67353C3.72943 3.53092 4.04388 3.47345 4.38581 3.44665C4.51113 3.43682 4.64699 3.43075 4.794 3.427C5.09307 1.92975 6.41477 0.801554 7.99998 0.801554C9.58519 0.801554 10.9069 1.92975 11.206 3.427ZM9.85957 3.42093C9.59104 2.65266 8.85987 2.10155 7.99998 2.10155C7.14009 2.10155 6.40891 2.65266 6.14039 3.42093L9.85957 3.42093Z"
  />
</svg>
