<svg
  width="16"
  height="16"
  viewBox="0 0 16 16"
  fill="none"
  xmlns="http://www.w3.org/2000/svg"
>
  <path
    d="M6.66669 8H3.33335C3.15654 8 2.98697 7.92976 2.86195 7.80474C2.73693 7.67972 2.66669 7.51015 2.66669 7.33334V5C2.66669 4.82319 2.73693 4.65362 2.86195 4.5286C2.98697 4.40357 3.15654 4.33334 3.33335 4.33334H6.00002C6.17683 4.33334 6.3464 4.40357 6.47142 4.5286C6.59645 4.65362 6.66669 4.82319 6.66669 5V8ZM6.66669 8C6.66669 9.66667 6.00002 10.6667 4.00002 11.6667M13.3334 8H10C9.82321 8 9.65364 7.92976 9.52862 7.80474C9.40359 7.67972 9.33335 7.51015 9.33335 7.33334V5C9.33335 4.82319 9.40359 4.65362 9.52862 4.5286C9.65364 4.40357 9.82321 4.33334 10 4.33334H12.6667C12.8435 4.33334 13.0131 4.40357 13.1381 4.5286C13.2631 4.65362 13.3334 4.82319 13.3334 5V8ZM13.3334 8C13.3334 9.66667 12.6667 10.6667 10.6667 11.6667"
    stroke="currentColor"
    stroke-linecap="round"
  />
</svg>
