<svg
  width="16"
  height="16"
  viewBox="0 0 16 16"
  fill="none"
  xmlns="http://www.w3.org/2000/svg"
>
  <path
    d="M10.6666 2C10.313 2 9.97382 2.14048 9.72378 2.39052C9.47373 2.64057 9.33325 2.97971 9.33325 3.33333V7.33333C9.33325 7.68696 9.47373 8.02609 9.72378 8.27614C9.97382 8.52619 10.313 8.66667 10.6666 8.66667C10.8434 8.66667 11.013 8.7369 11.138 8.86193C11.263 8.98695 11.3333 9.15652 11.3333 9.33333V10C11.3333 10.3536 11.1928 10.6928 10.9427 10.9428C10.6927 11.1929 10.3535 11.3333 9.99992 11.3333C9.82311 11.3333 9.65354 11.4036 9.52851 11.5286C9.40349 11.6536 9.33325 11.8232 9.33325 12V13.3333C9.33325 13.5101 9.40349 13.6797 9.52851 13.8047C9.65354 13.9298 9.82311 14 9.99992 14C11.0608 14 12.0782 13.5786 12.8283 12.8284C13.5785 12.0783 13.9999 11.0609 13.9999 10V3.33333C13.9999 2.97971 13.8594 2.64057 13.6094 2.39052C13.3593 2.14048 13.0202 2 12.6666 2H10.6666Z"
    stroke="currentColor"
    stroke-linecap="round"
    stroke-linejoin="round"
  />
  <path
    d="M3.33333 2C2.97971 2 2.64057 2.14048 2.39052 2.39052C2.14048 2.64057 2 2.97971 2 3.33333V7.33333C2 7.68696 2.14048 8.02609 2.39052 8.27614C2.64057 8.52619 2.97971 8.66667 3.33333 8.66667C3.51014 8.66667 3.67971 8.7369 3.80474 8.86193C3.92976 8.98695 4 9.15652 4 9.33333V10C4 10.3536 3.85952 10.6928 3.60948 10.9428C3.35943 11.1929 3.02029 11.3333 2.66667 11.3333C2.48986 11.3333 2.32029 11.4036 2.19526 11.5286C2.07024 11.6536 2 11.8232 2 12V13.3333C2 13.5101 2.07024 13.6797 2.19526 13.8047C2.32029 13.9298 2.48986 14 2.66667 14C3.72753 14 4.74495 13.5786 5.49509 12.8284C6.24524 12.0783 6.66667 11.0609 6.66667 10V3.33333C6.66667 2.97971 6.52619 2.64057 6.27614 2.39052C6.02609 2.14048 5.68696 2 5.33333 2H3.33333Z"
    stroke="currentColor"
    stroke-linecap="round"
    stroke-linejoin="round"
  />
</svg>
