<svg
  width="16"
  height="16"
  viewBox="0 0 16 16"
  fill="none"
  xmlns="http://www.w3.org/2000/svg"
>
  <path
    fill-rule="evenodd"
    clip-rule="evenodd"
    d="M6.14178 8.5C6.08637 9.01613 5.93701 9.42807 5.67655 9.79273C5.32795 10.2807 4.74389 10.7357 3.77647 11.2195C3.52949 11.3429 3.42937 11.6433 3.55287 11.8903C3.67636 12.1373 3.9767 12.2374 4.22369 12.1139C5.25627 11.5976 6.00554 11.0526 6.49028 10.3739C6.98415 9.68253 7.16675 8.90473 7.16675 8V5C7.16675 4.35567 6.64441 3.83333 6.00008 3.83333H3.33341C2.68909 3.83333 2.16675 4.35567 2.16675 5V7.33333C2.16675 7.97767 2.68909 8.5 3.33341 8.5H6.14178Z"
    fill="currentColor"
  />
  <path
    fill-rule="evenodd"
    clip-rule="evenodd"
    d="M12.8083 8.5C12.7529 9.01613 12.6035 9.42807 12.3431 9.79273C11.9945 10.2807 11.4104 10.7357 10.443 11.2195C10.196 11.3429 10.0959 11.6433 10.2194 11.8903C10.3429 12.1373 10.6432 12.2374 10.8902 12.1139C11.9228 11.5976 12.6721 11.0526 13.1568 10.3739C13.6507 9.68253 13.8333 8.90473 13.8333 8V5C13.8333 4.35568 13.3109 3.83333 12.6666 3.83333H9.99992C9.35559 3.83333 8.83325 4.35568 8.83325 5V7.33333C8.83325 7.97767 9.35559 8.5 9.99992 8.5H12.8083Z"
    fill="currentColor"
  />
</svg>
