<svg width="16" height="16" viewBox="0 0 16 16" xmlns="http://www.w3.org/2000/svg">
  <path d="M3.76439 11.3104C3.16941 10.6705 2.84998 9.95277 2.84998 8.78935C2.84998 6.87158 4.09543 5.14014 5.94956 4.18306C6.16702 4.07081 6.43042 4.15194 6.56234 4.35806C6.71741 4.60036 6.63284 4.92181 6.3926 5.08006C4.86047 6.08928 4.53324 7.30357 4.39576 8.09388C4.70596 7.93127 5.11204 7.87453 5.51004 7.91197C6.55212 8.00965 7.37353 8.87592 7.37353 9.95277C7.37353 10.4957 7.16052 11.0164 6.78137 11.4004C6.40221 11.7843 5.88797 12 5.35177 12C4.73195 12 4.13928 11.7134 3.76439 11.3104ZM9.54086 11.3104C8.94589 10.6705 8.62645 9.95277 8.62645 8.78935C8.62645 6.87158 9.8719 5.14014 11.726 4.18306C11.9435 4.07081 12.2069 4.15194 12.3388 4.35806C12.4939 4.60036 12.4093 4.92181 12.1691 5.08006C10.6369 6.08928 10.3097 7.30357 10.1722 8.09388C10.4824 7.93127 10.8885 7.87453 11.2865 7.91197C12.3286 8.00965 13.15 8.87592 13.15 9.95277C13.15 10.4957 12.937 11.0164 12.5578 11.4004C12.1787 11.7843 11.6644 12 11.1282 12C10.5084 12 9.91575 11.7134 9.54086 11.3104Z"/>
</svg>
  