<svg
  width="16"
  height="16"
  viewBox="0 0 16 16"
  fill="none"
  xmlns="http://www.w3.org/2000/svg"
>
  <path
    d="M8 7.29973C7.36592 6.06656 5.63983 3.76881 4.0345 2.63598C2.49683 1.55039 1.91058 1.73823 1.52617 1.91264C1.08108 2.11273 1 2.79639 1 3.19773C1 3.60023 1.2205 6.49356 1.364 6.97714C1.83942 8.57314 3.52992 9.11214 5.08742 8.93948C5.16675 8.92781 5.24783 8.91673 5.3295 8.90681C5.249 8.91964 5.1685 8.93014 5.08742 8.93948C2.80542 9.27781 0.778333 10.1091 3.43658 13.0683C6.36083 16.0958 7.44408 12.4191 8 10.5553C8.55592 12.4191 9.19583 15.9634 12.5109 13.0683C15 10.5553 13.1946 9.27781 10.9126 8.93948C10.8316 8.93052 10.7509 8.91963 10.6705 8.90681C10.7522 8.91673 10.8333 8.92781 10.9126 8.93948C12.4701 9.11273 14.1606 8.57314 14.636 6.97714C14.7795 6.49414 15 3.59964 15 3.19831C15 2.79581 14.9189 2.11273 14.4738 1.91148C14.0894 1.73764 13.5032 1.54981 11.9655 2.63481C10.3602 3.76939 8.63408 6.06714 8 7.29973Z"
    fill="currentColor"
  />
</svg>
