<svg width="15" height="16" viewBox="0 0 15 16" xmlns="http://www.w3.org/2000/svg">
<path clip-rule="evenodd" d="M3.20001 2.6667C3.20001 2.22487 3.55818 1.8667 4.00001 1.8667H9.33335C11.2479 1.8667 12.8 3.41878 12.8 5.33337C12.8 6.26219 12.4347 7.1057 11.84 7.72808C12.8171 8.34116 13.4667 9.42807 13.4667 10.6667C13.4667 12.5813 11.9146 14.1334 10 14.1334H4.00001C3.55818 14.1334 3.20001 13.7752 3.20001 13.3334V2.6667ZM4.80001 8.80003V12.5334H10C11.0309 12.5334 11.8667 11.6976 11.8667 10.6667C11.8667 9.63577 11.0309 8.80003 10 8.80003H4.80001ZM4.80001 7.20003H9.33335C10.3643 7.20003 11.2 6.3643 11.2 5.33337C11.2 4.30243 10.3643 3.4667 9.33335 3.4667H4.80001V7.20003Z" />
</svg>
