<svg width="16" height="16" viewBox="0 0 16 16" xmlns="http://www.w3.org/2000/svg">
<path fill-rule="evenodd" clip-rule="evenodd" d="M5.31798 14.0034C5.3155 14.3624 5.02248 14.6514 4.6635 14.6489C3.91467 14.6437 3.31067 14.623 2.79697 14.3612C2.29834 14.1071 1.89294 13.7017 1.63888 13.2031C1.47542 12.8823 1.40999 12.5403 1.37945 12.1666C1.35003 11.8065 1.35004 11.3641 1.35005 10.827L1.35005 5.17311C1.35004 4.63595 1.35003 4.19363 1.37945 3.83352C1.40999 3.45982 1.47542 3.11779 1.63888 2.79697C1.89294 2.29834 2.29834 1.89294 2.79697 1.63888C3.11779 1.47541 3.45982 1.40998 3.83352 1.37945C4.19363 1.35003 4.63595 1.35004 5.17311 1.35005L10.827 1.35005C11.3641 1.35004 11.8065 1.35003 12.1666 1.37945C12.5403 1.40999 12.8823 1.47542 13.2031 1.63888C13.7018 1.89294 14.1072 2.29834 14.3612 2.79697C14.6229 3.31065 14.6437 3.91463 14.6489 4.66343C14.6514 5.0224 14.3624 5.31542 14.0034 5.3179C13.6444 5.32038 13.3514 5.03139 13.3489 4.67241C13.3434 3.86648 13.3019 3.58144 13.2029 3.38716C13.0735 3.13314 12.867 2.92662 12.6129 2.79719C12.5059 2.74266 12.354 2.6991 12.0607 2.67514C11.7598 2.65055 11.3708 2.65005 10.8 2.65005L5.20005 2.65004C4.62927 2.65004 4.24028 2.65055 3.93938 2.67513C3.64607 2.6991 3.49417 2.74266 3.38716 2.79719C3.13314 2.92661 2.92662 3.13314 2.79719 3.38716C2.74267 3.49417 2.6991 3.64607 2.67514 3.93938C2.65055 4.24027 2.65005 4.62927 2.65005 5.20004L2.65005 10.8C2.65005 11.3708 2.65055 11.7598 2.67514 12.0607C2.6991 12.354 2.74266 12.5059 2.79719 12.6129C2.92662 12.867 3.13314 13.0735 3.38716 13.2029C3.58145 13.3019 3.8665 13.3434 4.67249 13.3489C5.03146 13.3514 5.32046 13.6444 5.31798 14.0034Z" fill="#C1C8CD"/>
<path fill-rule="evenodd" clip-rule="evenodd" d="M10.8268 14.6499L8.67178 14.6499C8.31279 14.6499 8.02178 14.3589 8.02178 13.9999C8.02178 13.6409 8.31279 13.3499 8.67178 13.3499L10.7999 13.3499C11.3707 13.3499 11.7597 13.3494 12.0606 13.3248C12.3539 13.3008 12.5058 13.2573 12.6128 13.2028C12.8668 13.0733 13.0733 12.8668 13.2028 12.6128C13.2573 12.5058 13.3008 12.3539 13.3248 12.0606C13.3494 11.7597 13.3499 11.3707 13.3499 10.7999L13.3499 8.66396C13.3499 8.30498 13.6409 8.01396 13.9999 8.01396C14.3589 8.01396 14.6499 8.30498 14.6499 8.66396L14.6499 10.8268C14.6499 11.364 14.6499 11.8063 14.6205 12.1664C14.59 12.5401 14.5245 12.8822 14.3611 13.203C14.107 13.7016 13.7016 14.107 13.203 14.3611C12.8822 14.5245 12.5401 14.59 12.1664 14.6205C11.8063 14.6499 11.364 14.6499 10.8268 14.6499Z" fill="#11181C"/>
</svg>
