<svg width="16" height="16" viewBox="0 0 16 16" xmlns="http://www.w3.org/2000/svg">
<path fill-rule="evenodd" clip-rule="evenodd" d="M14.0034 10.682C14.3623 10.6845 14.6513 10.9775 14.6489 11.3365C14.6437 12.0853 14.6229 12.6893 14.3612 13.203C14.1071 13.7017 13.7017 14.1071 13.2031 14.3611C12.8823 14.5246 12.5402 14.59 12.1665 14.6205C11.8064 14.65 11.3641 14.65 10.8269 14.65L5.17306 14.65C4.6359 14.65 4.19358 14.65 3.83347 14.6205C3.45977 14.59 3.11774 14.5246 2.79692 14.3611C2.2983 14.1071 1.8929 13.7017 1.63883 13.203C1.47537 12.8822 1.40994 12.5402 1.37941 12.1665C1.34998 11.8064 1.34999 11.364 1.35 10.8269L1.35 5.17302C1.34999 4.63586 1.34998 4.19354 1.37941 3.83343C1.40994 3.45973 1.47537 3.11769 1.63883 2.79688C1.8929 2.29825 2.2983 1.89285 2.79693 1.63879C3.31061 1.37705 3.91458 1.35627 4.66338 1.35109C5.02236 1.34861 5.31538 1.63761 5.31786 1.99658C5.32034 2.35556 5.03134 2.64858 4.67237 2.65106C3.86643 2.65663 3.58139 2.6981 3.38711 2.79709C3.13309 2.92652 2.92657 3.13305 2.79714 3.38707C2.74262 3.49407 2.69905 3.64598 2.67509 3.93929C2.6505 4.24018 2.65 4.62918 2.65 5.19995L2.65 10.8C2.65 11.3707 2.6505 11.7597 2.67509 12.0606C2.69905 12.3539 2.74262 12.5058 2.79714 12.6128C2.92657 12.8669 3.13309 13.0734 3.38711 13.2028C3.49412 13.2573 3.64603 13.3009 3.93933 13.3249C4.24023 13.3494 4.62922 13.35 5.2 13.35L10.8 13.35C11.3708 13.35 11.7598 13.3494 12.0607 13.3249C12.354 13.3009 12.5059 13.2573 12.6129 13.2028C12.8669 13.0734 13.0734 12.8669 13.2029 12.6128C13.3019 12.4186 13.3433 12.1335 13.3489 11.3275C13.3514 10.9685 13.6444 10.6795 14.0034 10.682Z" fill="#C1C8CD"/>
<path fill-rule="evenodd" clip-rule="evenodd" d="M14.65 5.17316L14.65 7.32822C14.65 7.68721 14.359 7.97822 14 7.97822C13.641 7.97822 13.35 7.68721 13.35 7.32822L13.35 5.2001C13.35 4.62932 13.3495 4.24033 13.3249 3.93943C13.3009 3.64613 13.2574 3.49422 13.2029 3.38721C13.0734 3.13319 12.8669 2.92667 12.6129 2.79724C12.5059 2.74272 12.354 2.69915 12.0607 2.67519C11.7598 2.6506 11.3708 2.6501 10.8 2.6501L8.66406 2.6501C8.30507 2.6501 8.01406 2.35908 8.01406 2.0001C8.01406 1.64111 8.30507 1.3501 8.66406 1.3501L10.8269 1.3501C11.3641 1.35009 11.8064 1.35008 12.1665 1.37951C12.5402 1.41004 12.8823 1.47547 13.2031 1.63893C13.7017 1.893 14.1071 2.29839 14.3612 2.79702C14.5246 3.11784 14.5901 3.45987 14.6206 3.83357C14.65 4.19368 14.65 4.636 14.65 5.17316Z" fill="#11181C"/>
</svg>
