<svg width="16" height="16" viewBox="0 0 16 16" xmlns="http://www.w3.org/2000/svg">
<path fill-rule="evenodd" clip-rule="evenodd" d="M5.17307 1.34998L10.8269 1.34998C11.3641 1.34997 11.8064 1.34996 12.1665 1.37939C12.5402 1.40992 12.8823 1.47535 13.2031 1.63881C13.7017 1.89288 14.1071 2.29827 14.3612 2.7969C14.5246 3.11772 14.5901 3.45975 14.6206 3.83345C14.65 4.19356 14.65 4.63588 14.65 5.17304L14.65 9.9954C14.65 10.3544 14.359 10.6454 14 10.6454C13.641 10.6454 13.35 10.3544 13.35 9.9954L13.35 5.19998C13.35 4.6292 13.3495 4.24021 13.3249 3.93931C13.301 3.64601 13.2574 3.4941 13.2029 3.38709C13.0734 3.13307 12.8669 2.92655 12.6129 2.79712C12.5059 2.7426 12.354 2.69903 12.0607 2.67507C11.7598 2.65048 11.3708 2.64998 10.8 2.64998L5.20001 2.64998C4.62923 2.64998 4.24024 2.65048 3.93934 2.67507C3.64603 2.69903 3.49413 2.74259 3.38712 2.79712C3.1331 2.92655 2.92658 3.13307 2.79715 3.38709C2.74262 3.4941 2.69906 3.646 2.6751 3.93931C2.65051 4.24021 2.65001 4.6292 2.65001 5.19998L2.65001 9.9954C2.65 10.3544 2.35899 10.6454 2 10.6454C1.64102 10.6454 1.35001 10.3544 1.35001 9.9954L1.35001 5.17304C1.35 4.63588 1.34999 4.19356 1.37941 3.83345C1.40995 3.45975 1.47538 3.11772 1.63884 2.7969C1.8929 2.29827 2.2983 1.89287 2.79693 1.63881C3.11775 1.47535 3.45978 1.40992 3.83348 1.37938C4.19359 1.34996 4.63591 1.34997 5.17307 1.34998Z" fill="#C1C8CD"/>
<path fill-rule="evenodd" clip-rule="evenodd" d="M14.6498 14C14.6498 14.359 14.3588 14.65 13.9998 14.65L1.99981 14.65C1.64083 14.65 1.34981 14.359 1.34981 14C1.34981 13.641 1.64083 13.35 1.99981 13.35L13.9998 13.35C14.3588 13.35 14.6498 13.641 14.6498 14Z" />
</svg>
