<svg width="16" height="16" viewBox="0 0 16 16" xmlns="http://www.w3.org/2000/svg">
<path fill-rule="evenodd" clip-rule="evenodd" d="M4.68355 1.99998C4.68355 1.64099 4.97456 1.34998 5.33355 1.34998H10.6665C11.0255 1.34998 11.3165 1.64099 11.3165 1.99998C11.3165 2.35896 11.0255 2.64998 10.6665 2.64998H5.33355C4.97456 2.64998 4.68355 2.35896 4.68355 1.99998ZM14 4.68347C14.359 4.68347 14.65 4.97449 14.65 5.33347V10.6667C14.65 11.0257 14.359 11.3167 14 11.3167C13.641 11.3167 13.35 11.0257 13.35 10.6667V5.33347C13.35 4.97449 13.641 4.68347 14 4.68347ZM2.00001 4.68347C2.35899 4.68347 2.65001 4.97449 2.65001 5.33347L2.65001 10.6666C2.65001 11.0255 2.35899 11.3166 2.00001 11.3166C1.64102 11.3166 1.35001 11.0255 1.35001 10.6666L1.35001 5.33347C1.35001 4.97449 1.64102 4.68347 2.00001 4.68347ZM4.68355 14C4.68355 13.641 4.97456 13.35 5.33355 13.35H10.6665C11.0255 13.35 11.3165 13.641 11.3165 14C11.3165 14.359 11.0255 14.65 10.6665 14.65H5.33355C4.97456 14.65 4.68355 14.359 4.68355 14Z" />
</svg>
