<svg width="16" height="16" viewBox="0 0 16 16" xmlns="http://www.w3.org/2000/svg">
<path fill-rule="evenodd" clip-rule="evenodd" d="M1.99661 5.31798C1.63764 5.3155 1.34864 5.02248 1.35112 4.6635C1.35629 3.91467 1.37707 3.31067 1.63882 2.79697C1.89288 2.29834 2.29828 1.89294 2.79691 1.63888C3.11773 1.47542 3.45976 1.40999 3.83346 1.37945C4.19357 1.35003 4.63589 1.35004 5.17305 1.35005L10.8269 1.35005C11.3641 1.35004 11.8064 1.35003 12.1665 1.37945C12.5402 1.40999 12.8822 1.47541 13.2031 1.63888C13.7017 1.89294 14.1071 2.29834 14.3612 2.79697C14.5246 3.11779 14.59 3.45982 14.6206 3.83352C14.65 4.19363 14.65 4.63595 14.65 5.17311L14.65 10.827C14.65 11.3641 14.65 11.8065 14.6206 12.1666C14.59 12.5403 14.5246 12.8823 14.3612 13.2031C14.1071 13.7017 13.7017 14.1071 13.2031 14.3612C12.6894 14.6229 12.0854 14.6437 11.3366 14.6489C10.9776 14.6514 10.6846 14.3624 10.6821 14.0034C10.6796 13.6444 10.9686 13.3514 11.3276 13.3489C12.1336 13.3434 12.4186 13.3019 12.6129 13.2029C12.8669 13.0735 13.0734 12.867 13.2028 12.6129C13.2574 12.5059 13.3009 12.354 13.3249 12.0607C13.3495 11.7598 13.35 11.3708 13.35 10.8L13.35 5.20005C13.35 4.62927 13.3495 4.24028 13.3249 3.93938C13.3009 3.64607 13.2574 3.49417 13.2028 3.38716C13.0734 3.13314 12.8669 2.92662 12.6129 2.79719C12.5059 2.74266 12.354 2.6991 12.0607 2.67514C11.7598 2.65055 11.3708 2.65004 10.8 2.65004L5.19998 2.65005C4.62921 2.65005 4.24021 2.65055 3.93932 2.67514C3.64601 2.6991 3.4941 2.74266 3.3871 2.79719C3.13308 2.92662 2.92655 3.13314 2.79713 3.38716C2.69813 3.58145 2.65666 3.8665 2.65109 4.67249C2.64861 5.03146 2.35559 5.32046 1.99661 5.31798Z" fill="#C1C8CD"/>
<path fill-rule="evenodd" clip-rule="evenodd" d="M1.35013 10.8268L1.35013 8.67178C1.35013 8.31279 1.64114 8.02178 2.00013 8.02178C2.35911 8.02178 2.65013 8.31279 2.65013 8.67178L2.65013 10.7999C2.65013 11.3707 2.65063 11.7597 2.67522 12.0606C2.69918 12.3539 2.74275 12.5058 2.79727 12.6128C2.9267 12.8668 3.13322 13.0733 3.38724 13.2028C3.49425 13.2573 3.64616 13.3008 3.93946 13.3248C4.24036 13.3494 4.62935 13.3499 5.20013 13.3499L7.33607 13.3499C7.69505 13.3499 7.98607 13.6409 7.98607 13.9999C7.98607 14.3589 7.69505 14.6499 7.33607 14.6499L5.17319 14.6499C4.63603 14.6499 4.19371 14.6499 3.8336 14.6205C3.4599 14.59 3.11787 14.5245 2.79705 14.3611C2.29842 14.107 1.89303 13.7016 1.63896 13.203C1.4755 12.8822 1.41007 12.5401 1.37954 12.1664C1.35011 11.8063 1.35012 11.364 1.35013 10.8268Z" fill="#11181C"/>
</svg>
