<svg width="16" height="16" viewBox="0 0 16 16" xmlns="http://www.w3.org/2000/svg">
<path fill-rule="evenodd" clip-rule="evenodd" d="M10.682 1.99658C10.6845 1.63761 10.9775 1.34861 11.3365 1.35109C12.0853 1.35626 12.6893 1.37704 13.203 1.63879C13.7017 1.89285 14.1071 2.29825 14.3611 2.79688C14.5246 3.1177 14.59 3.45973 14.6205 3.83343C14.65 4.19354 14.65 4.63586 14.65 5.17302L14.65 10.8269C14.65 11.364 14.65 11.8064 14.6205 12.1665C14.59 12.5402 14.5246 12.8822 14.3611 13.203C14.1071 13.7017 13.7017 14.1071 13.203 14.3611C12.8822 14.5246 12.5402 14.59 12.1665 14.6205C11.8064 14.65 11.364 14.65 10.8269 14.65L5.17302 14.65C4.63586 14.65 4.19354 14.65 3.83343 14.6205C3.45973 14.59 3.11769 14.5246 2.79688 14.3611C2.29825 14.1071 1.89285 13.7017 1.63879 13.203C1.37705 12.6893 1.35627 12.0854 1.35109 11.3366C1.34861 10.9776 1.63761 10.6846 1.99658 10.6821C2.35556 10.6796 2.64858 10.9686 2.65106 11.3276C2.65663 12.1335 2.6981 12.4186 2.79709 12.6128C2.92652 12.8669 3.13305 13.0734 3.38707 13.2028C3.49407 13.2573 3.64598 13.3009 3.93929 13.3249C4.24018 13.3494 4.62918 13.35 5.19995 13.35L10.8 13.35C11.3707 13.35 11.7597 13.3494 12.0606 13.3249C12.3539 13.3009 12.5058 13.2573 12.6128 13.2028C12.8669 13.0734 13.0734 12.8669 13.2028 12.6128C13.2573 12.5058 13.3009 12.3539 13.3249 12.0606C13.3494 11.7597 13.35 11.3707 13.35 10.8L13.35 5.19995C13.35 4.62918 13.3494 4.24018 13.3249 3.93929C13.3009 3.64598 13.2573 3.49407 13.2028 3.38707C13.0734 3.13305 12.8669 2.92652 12.6128 2.7971C12.4186 2.6981 12.1335 2.65663 11.3275 2.65106C10.9685 2.64858 10.6795 2.35556 10.682 1.99658Z" fill="#C1C8CD"/>
<path fill-rule="evenodd" clip-rule="evenodd" d="M5.17316 1.3501L7.32822 1.3501C7.68721 1.3501 7.97822 1.64111 7.97822 2.0001C7.97822 2.35908 7.68721 2.6501 7.32822 2.6501L5.2001 2.6501C4.62932 2.6501 4.24033 2.6506 3.93943 2.67519C3.64613 2.69915 3.49422 2.74272 3.38721 2.79724C3.13319 2.92667 2.92667 3.13319 2.79724 3.38721C2.74272 3.49422 2.69915 3.64613 2.67519 3.93943C2.6506 4.24033 2.6501 4.62932 2.6501 5.2001L2.6501 7.33604C2.6501 7.69502 2.35908 7.98604 2.0001 7.98604C1.64111 7.98604 1.3501 7.69502 1.3501 7.33604L1.3501 5.17316C1.35009 4.636 1.35008 4.19368 1.37951 3.83357C1.41004 3.45987 1.47547 3.11784 1.63893 2.79702C1.893 2.29839 2.29839 1.893 2.79702 1.63893C3.11784 1.47547 3.45987 1.41004 3.83357 1.37951C4.19368 1.35008 4.636 1.35009 5.17316 1.3501Z" fill="#11181C"/>
</svg>
