<svg width="16" height="16" viewBox="0 0 16 16" xmlns="http://www.w3.org/2000/svg">
<path fill-rule="evenodd" clip-rule="evenodd" d="M10.8267 14.65L5.17287 14.65C4.63571 14.65 4.19339 14.65 3.83328 14.6206C3.45958 14.5901 3.11755 14.5247 2.79674 14.3612C2.29811 14.1071 1.89271 13.7017 1.63864 13.2031C1.47518 12.8823 1.40975 12.5403 1.37922 12.1665C1.3498 11.8064 1.3498 11.3641 1.34981 10.827L1.34981 6.0046C1.34981 5.64562 1.64083 5.3546 1.99981 5.3546C2.3588 5.3546 2.64981 5.64562 2.64981 6.0046L2.64981 10.8C2.64981 11.3708 2.65032 11.7598 2.6749 12.0607C2.69886 12.354 2.74243 12.5059 2.79695 12.6129C2.92638 12.8669 3.1329 13.0735 3.38692 13.2029C3.49393 13.2574 3.64584 13.301 3.93914 13.3249C4.24004 13.3495 4.62903 13.35 5.19981 13.35L10.7998 13.35C11.3706 13.35 11.7596 13.3495 12.0605 13.3249C12.3538 13.301 12.5057 13.2574 12.6127 13.2029C12.8667 13.0735 13.0732 12.8669 13.2027 12.6129C13.2572 12.5059 13.3008 12.354 13.3247 12.0607C13.3493 11.7598 13.3498 11.3708 13.3498 10.8L13.3498 6.0046C13.3498 5.64562 13.6408 5.3546 13.9998 5.3546C14.3588 5.3546 14.6498 5.64562 14.6498 6.0046L14.6498 10.827C14.6498 11.3641 14.6498 11.8064 14.6204 12.1666C14.5899 12.5403 14.5244 12.8823 14.361 13.2031C14.1069 13.7017 13.7015 14.1071 13.2029 14.3612C12.8821 14.5247 12.54 14.5901 12.1663 14.6206C11.8062 14.65 11.3639 14.65 10.8267 14.65Z" fill="#C1C8CD"/>
<path fill-rule="evenodd" clip-rule="evenodd" d="M1.35001 2.00002C1.35001 1.64104 1.64102 1.35002 2.00001 1.35002L14 1.35003C14.359 1.35003 14.65 1.64104 14.65 2.00003C14.65 2.35901 14.359 2.65003 14 2.65003L2.00001 2.65002C1.64102 2.65002 1.35001 2.35901 1.35001 2.00002Z" />
</svg>
