<svg width="16" height="16" viewBox="0 0 16 16" xmlns="http://www.w3.org/2000/svg">
<path fill-rule="evenodd" clip-rule="evenodd" d="M14.6499 5.17304L14.6499 10.8269C14.6499 11.3641 14.6499 11.8064 14.6205 12.1665C14.59 12.5402 14.5245 12.8822 14.3611 13.2031C14.107 13.7017 13.7016 14.1071 13.203 14.3611C12.8822 14.5246 12.5401 14.59 12.1664 14.6206C11.8063 14.65 11.364 14.65 10.8268 14.65L6.00448 14.65C5.6455 14.65 5.35448 14.359 5.35448 14C5.35448 13.641 5.6455 13.35 6.00448 13.35L10.7999 13.35C11.3707 13.35 11.7597 13.3495 12.0606 13.3249C12.3539 13.3009 12.5058 13.2574 12.6128 13.2028C12.8668 13.0734 13.0733 12.8669 13.2028 12.6129C13.2573 12.5059 13.3008 12.3539 13.3248 12.0606C13.3494 11.7597 13.3499 11.3708 13.3499 10.8L13.3499 5.19998C13.3499 4.6292 13.3494 4.24021 13.3248 3.93931C13.3008 3.646 13.2573 3.4941 13.2028 3.38709C13.0733 3.13307 12.8668 2.92655 12.6128 2.79712C12.5058 2.74259 12.3539 2.69903 12.0606 2.67507C11.7597 2.65048 11.3707 2.64998 10.7999 2.64998L6.00448 2.64998C5.6455 2.64998 5.35448 2.35896 5.35448 1.99998C5.35448 1.64099 5.6455 1.34998 6.00448 1.34998L10.8268 1.34998C11.364 1.34997 11.8063 1.34996 12.1664 1.37938C12.5401 1.40992 12.8822 1.47534 13.203 1.63881C13.7016 1.89287 14.107 2.29827 14.3611 2.7969C14.5245 3.11772 14.59 3.45975 14.6205 3.83345C14.6499 4.19356 14.6499 4.63588 14.6499 5.17304Z" fill="#C1C8CD"/>
<path fill-rule="evenodd" clip-rule="evenodd" d="M1.9999 14.65C1.64092 14.65 1.3499 14.359 1.3499 14L1.3499 2.00002C1.3499 1.64104 1.64092 1.35003 1.9999 1.35003C2.35889 1.35003 2.6499 1.64104 2.6499 2.00002L2.6499 14C2.6499 14.359 2.35889 14.65 1.9999 14.65Z" />
</svg>
