<svg width="16" height="16" viewBox="0 0 16 16" xmlns="http://www.w3.org/2000/svg">
<path fill-rule="evenodd" clip-rule="evenodd" d="M1.34992 10.8268L1.34992 5.17296C1.34991 4.63581 1.3499 4.19348 1.37932 3.83337C1.40986 3.45967 1.47529 3.11764 1.63875 2.79683C1.89281 2.2982 2.29821 1.8928 2.79684 1.63874C3.11766 1.47527 3.45969 1.40984 3.83339 1.37931C4.1935 1.34989 4.63582 1.34989 5.17298 1.3499L9.99534 1.3499C10.3543 1.3499 10.6453 1.64092 10.6453 1.9999C10.6453 2.35889 10.3543 2.6499 9.99534 2.6499L5.19992 2.6499C4.62914 2.6499 4.24015 2.65041 3.93925 2.67499C3.64594 2.69896 3.49404 2.74252 3.38703 2.79704C3.13301 2.92647 2.92649 3.133 2.79706 3.38701C2.74253 3.49402 2.69897 3.64593 2.67501 3.93924C2.65042 4.24013 2.64992 4.62912 2.64992 5.1999L2.64992 10.7999C2.64992 11.3707 2.65042 11.7597 2.67501 12.0606C2.69897 12.3539 2.74253 12.5058 2.79706 12.6128C2.92649 12.8668 3.13301 13.0733 3.38703 13.2028C3.49404 13.2573 3.64594 13.3008 3.93925 13.3248C4.24015 13.3494 4.62914 13.3499 5.19992 13.3499L9.99533 13.3499C10.3543 13.3499 10.6453 13.6409 10.6453 13.9999C10.6453 14.3589 10.3543 14.6499 9.99533 14.6499L5.17298 14.6499C4.63582 14.6499 4.1935 14.6499 3.83339 14.6205C3.45969 14.59 3.11766 14.5245 2.79684 14.3611C2.29821 14.107 1.89281 13.7016 1.63875 13.203C1.47528 12.8822 1.40985 12.5401 1.37932 12.1664C1.3499 11.8063 1.34991 11.364 1.34992 10.8268Z" fill="#C1C8CD"/>
<path fill-rule="evenodd" clip-rule="evenodd" d="M13.9999 1.3501C14.3589 1.3501 14.6499 1.64111 14.6499 2.0001L14.6499 14.0001C14.6499 14.3591 14.3589 14.6501 13.9999 14.6501C13.6409 14.6501 13.3499 14.3591 13.3499 14.0001L13.3499 2.0001C13.3499 1.64111 13.6409 1.3501 13.9999 1.3501Z" />
</svg>
