<svg width="16" height="16" viewBox="0 0 16 16" xmlns="http://www.w3.org/2000/svg">
<path fill-rule="evenodd" clip-rule="evenodd" d="M5.17307 1.34998L5.33001 1.34998C5.68899 1.34998 5.98001 1.64099 5.98001 1.99998C5.98001 2.35896 5.68899 2.64998 5.33001 2.64998H5.20001C4.62923 2.64998 4.24024 2.65048 3.93934 2.67507C3.64603 2.69903 3.49413 2.74259 3.38712 2.79712C3.1331 2.92655 2.92658 3.13307 2.79715 3.38709C2.74262 3.4941 2.69906 3.646 2.6751 3.93931C2.65051 4.24021 2.65001 4.6292 2.65001 5.19998V5.32998C2.65001 5.68896 2.35899 5.97998 2.00001 5.97998C1.64102 5.97998 1.35001 5.68896 1.35001 5.32998L1.35001 5.17304C1.35 4.63588 1.34999 4.19356 1.37941 3.83345C1.40995 3.45975 1.47538 3.11772 1.63884 2.7969C1.8929 2.29827 2.2983 1.89287 2.79693 1.63881C3.11775 1.47534 3.45978 1.40992 3.83348 1.37938C4.19359 1.34996 4.63591 1.34997 5.17307 1.34998ZM12.0607 2.67507C11.7598 2.65048 11.3708 2.64998 10.8 2.64998H10.67C10.311 2.64998 10.02 2.35896 10.02 1.99998C10.02 1.64099 10.311 1.34998 10.67 1.34998L10.8269 1.34998C11.3641 1.34997 11.8064 1.34996 12.1665 1.37938C12.5402 1.40992 12.8823 1.47534 13.2031 1.63881C13.7017 1.89287 14.1071 2.29827 14.3612 2.7969C14.5246 3.11772 14.5901 3.45975 14.6206 3.83345C14.65 4.19356 14.65 4.63588 14.65 5.17304V5.32998C14.65 5.68896 14.359 5.97998 14 5.97998C13.641 5.97998 13.35 5.68896 13.35 5.32998V5.19998C13.35 4.6292 13.3495 4.24021 13.3249 3.93931C13.301 3.646 13.2574 3.4941 13.2029 3.38709C13.0734 3.13307 12.8669 2.92655 12.6129 2.79712C12.5059 2.74259 12.354 2.69903 12.0607 2.67507ZM2.00001 10.02C2.35899 10.02 2.65001 10.311 2.65001 10.67V10.8C2.65001 11.3708 2.65051 11.7597 2.6751 12.0606C2.69906 12.3539 2.74262 12.5059 2.79715 12.6129C2.92658 12.8669 3.1331 13.0734 3.38712 13.2028C3.49413 13.2574 3.64603 13.3009 3.93934 13.3249C4.24024 13.3495 4.62923 13.35 5.20001 13.35H5.33001C5.68899 13.35 5.98001 13.641 5.98001 14C5.98001 14.359 5.68899 14.65 5.33001 14.65H5.17307C4.63591 14.65 4.19359 14.65 3.83348 14.6206C3.45978 14.59 3.11775 14.5246 2.79693 14.3611C2.2983 14.1071 1.8929 13.7017 1.63884 13.2031C1.47538 12.8822 1.40995 12.5402 1.37941 12.1665C1.34999 11.8064 1.35 11.3641 1.35001 10.8269L1.35001 10.67C1.35001 10.311 1.64102 10.02 2.00001 10.02ZM14 10.02C14.359 10.02 14.65 10.311 14.65 10.67V10.8269C14.65 11.3641 14.65 11.8064 14.6206 12.1665C14.5901 12.5402 14.5246 12.8822 14.3612 13.2031C14.1071 13.7017 13.7017 14.1071 13.2031 14.3611C12.8823 14.5246 12.5402 14.59 12.1665 14.6206C11.8064 14.65 11.3641 14.65 10.8269 14.65H10.67C10.311 14.65 10.02 14.359 10.02 14C10.02 13.641 10.311 13.35 10.67 13.35H10.8C11.3708 13.35 11.7598 13.3495 12.0607 13.3249C12.354 13.3009 12.5059 13.2574 12.6129 13.2028C12.8669 13.0734 13.0734 12.8669 13.2029 12.6129C13.2574 12.5059 13.301 12.3539 13.3249 12.0606C13.3495 11.7597 13.35 11.3708 13.35 10.8V10.67C13.35 10.311 13.641 10.02 14 10.02Z" />
</svg>
