<svg width="22" height="22" viewBox="0 0 22 22" xmlns="http://www.w3.org/2000/svg">
  <path fill-rule="evenodd" clip-rule="evenodd" d="M14.8815 2H7.11797C6.37488 1.99999 5.77172 1.99999 5.28249 2.03996C4.77754 2.08121 4.32827 2.16876 3.91079 2.38148C3.25222 2.71703 2.71679 3.25247 2.38123 3.91103C2.16852 4.32851 2.08097 4.77778 2.03971 5.28273C1.99974 5.77196 1.99975 6.37511 1.99976 7.11819V14.8818C1.99975 15.6249 1.99974 16.228 2.03971 16.7173C2.08097 17.2222 2.16852 17.6715 2.38123 18.089C2.71679 18.7475 3.25222 19.283 3.91079 19.6185C4.32827 19.8312 4.77754 19.9188 5.28249 19.96C5.77172 20 6.37487 20 7.11795 20H14.8816C15.6246 20 16.2278 20 16.717 19.96C17.222 19.9188 17.6712 19.8312 18.0887 19.6185C18.7473 19.283 19.2827 18.7475 19.6183 18.089C19.831 17.6715 19.9185 17.2222 19.9598 16.7173C19.9998 16.228 19.9998 15.6249 19.9998 14.8818V7.11821C19.9998 6.37512 19.9998 5.77197 19.9598 5.28273C19.9185 4.77778 19.831 4.32851 19.6183 3.91103C19.2827 3.25247 18.7473 2.71703 18.0887 2.38148C17.6712 2.16876 17.222 2.08121 16.717 2.03996C16.2278 1.99999 15.6246 1.99999 14.8815 2ZM16.5949 3.53498C17.0071 3.56865 17.237 3.63097 17.4077 3.71799C17.7841 3.90973 18.09 4.2157 18.2818 4.59202C18.3688 4.7628 18.4311 4.99269 18.4648 5.40488C18.4992 5.82582 18.4998 6.36755 18.4998 7.15V14.85C18.4998 15.6324 18.4992 16.1742 18.4648 16.5951C18.4311 17.0073 18.3688 17.2372 18.2818 17.408C18.09 17.7843 17.7841 18.0903 17.4077 18.282C17.237 18.369 17.0071 18.4313 16.5949 18.465C16.1739 18.4994 15.6322 18.5 14.8498 18.5H7.14976C6.36731 18.5 5.82558 18.4994 5.40463 18.465C4.99245 18.4313 4.76255 18.369 4.59177 18.282C4.21545 18.0903 3.90949 17.7843 3.71774 17.408C3.63073 17.2372 3.56841 17.0073 3.53473 16.5951C3.50034 16.1742 3.49976 15.6324 3.49976 14.85V7.15C3.49976 6.36755 3.50034 5.82582 3.53473 5.40488C3.56841 4.99269 3.63073 4.7628 3.71774 4.59202C3.90949 4.2157 4.21545 3.90973 4.59178 3.71799C4.76255 3.63097 4.99245 3.56865 5.40463 3.53498C5.82558 3.50058 6.36731 3.5 7.14976 3.5H14.8498C15.6322 3.5 16.1739 3.50058 16.5949 3.53498Z"/>
  <path fill-rule="evenodd" clip-rule="evenodd" d="M14.4663 7.53872C13.8957 6.96818 12.7604 6.94244 11.9203 7.78258L11.1874 8.51539C10.8946 8.80828 10.4197 8.80828 10.1268 8.51539C9.83389 8.22249 9.83389 7.74762 10.1268 7.45473L10.8596 6.72192C12.146 5.43547 14.2402 5.19137 15.5269 6.47806C16.8136 7.76475 16.5695 9.85894 15.2831 11.1454L14.5503 11.8782C14.2574 12.1711 13.7825 12.1711 13.4896 11.8782C13.1967 11.5853 13.1967 11.1104 13.4896 10.8175L14.2224 10.0847C15.0625 9.24459 15.0368 8.10926 14.4663 7.53872ZM12.8592 9.14596C13.1521 9.43885 13.1521 9.91372 12.8592 10.2066L10.2065 12.8593C9.91359 13.1522 9.43871 13.1522 9.14582 12.8593C8.85293 12.5664 8.85293 12.0915 9.14582 11.7987L11.7985 9.14596C12.0914 8.85306 12.5663 8.85306 12.8592 9.14596ZM8.51538 10.1271C8.80827 10.42 8.80827 10.8949 8.51538 11.1878L7.78257 11.9206C6.94243 12.7607 6.96817 13.896 7.53871 14.4666C8.10924 15.0371 9.24457 15.0628 10.0847 14.2227L10.8175 13.4899C11.1104 13.197 11.5853 13.197 11.8782 13.4899C12.1711 13.7828 12.1711 14.2577 11.8782 14.5506L11.1454 15.2834C9.85893 16.5698 7.76473 16.8139 6.47805 15.5272C5.19136 14.2405 5.43546 12.1464 6.72191 10.8599L7.45472 10.1271C7.74761 9.83421 8.22248 9.83421 8.51538 10.1271Z" />
</svg>
  