<svg width="22" height="22" viewBox="0 0 22 22" xmlns="http://www.w3.org/2000/svg">
  <path fill-rule="evenodd" clip-rule="evenodd" d="M14.8818 2H7.11821C6.37512 1.99999 5.77197 1.99999 5.28273 2.03996C4.77778 2.08121 4.32851 2.16876 3.91103 2.38148C3.25246 2.71703 2.71703 3.25247 2.38148 3.91103C2.16876 4.32851 2.08121 4.77778 2.03996 5.28273C1.99998 5.77196 1.99999 6.37511 2 7.11819V14.8818C1.99999 15.6249 1.99998 16.228 2.03996 16.7173C2.08121 17.2222 2.16876 17.6715 2.38148 18.089C2.71703 18.7475 3.25246 19.283 3.91103 19.6185C4.32851 19.8312 4.77778 19.9188 5.28273 19.96C5.77196 20 6.37511 20 7.11819 20H14.8818C15.6249 20 16.228 20 16.7173 19.96C17.2222 19.9188 17.6715 19.8312 18.089 19.6185C18.7475 19.283 19.283 18.7475 19.6185 18.089C19.8312 17.6715 19.9188 17.2222 19.96 16.7173C20 16.228 20 15.6249 20 14.8818V7.11821C20 6.37512 20 5.77197 19.96 5.28273C19.9188 4.77778 19.8312 4.32851 19.6185 3.91103C19.283 3.25247 18.7475 2.71703 18.089 2.38148C17.6715 2.16876 17.2222 2.08121 16.7173 2.03996C16.228 1.99999 15.6249 1.99999 14.8818 2ZM16.5951 3.53498C17.0073 3.56865 17.2372 3.63097 17.408 3.71799C17.7843 3.90973 18.0903 4.2157 18.282 4.59202C18.369 4.7628 18.4313 4.99269 18.465 5.40488C18.4994 5.82582 18.5 6.36755 18.5 7.15V14.85C18.5 15.6324 18.4994 16.1742 18.465 16.5951C18.4313 17.0073 18.369 17.2372 18.282 17.408C18.0903 17.7843 17.7843 18.0903 17.408 18.282C17.2372 18.369 17.0073 18.4313 16.5951 18.465C16.1742 18.4994 15.6324 18.5 14.85 18.5H7.15C6.36755 18.5 5.82582 18.4994 5.40488 18.465C4.99269 18.4313 4.7628 18.369 4.59202 18.282C4.21569 18.0903 3.90973 17.7843 3.71799 17.408C3.63097 17.2372 3.56865 17.0073 3.53498 16.5951C3.50058 16.1742 3.5 15.6324 3.5 14.85V7.15C3.5 6.36755 3.50058 5.82582 3.53498 5.40488C3.56865 4.99269 3.63097 4.7628 3.71799 4.59202C3.90973 4.2157 4.2157 3.90973 4.59202 3.71799C4.7628 3.63097 4.99269 3.56865 5.40488 3.53498C5.82582 3.50058 6.36755 3.5 7.15 3.5H14.85C15.6324 3.5 16.1742 3.50058 16.5951 3.53498Z" />
</svg>
  