<svg width="22" height="22" viewBox="0 0 22 22" xmlns="http://www.w3.org/2000/svg">
  <path d="M10.4673 4.6117C10.6384 4.26493 10.724 4.09154 10.8402 4.03615C10.9413 3.98795 11.0587 3.98795 11.1598 4.03615C11.276 4.09154 11.3616 4.26493 11.5328 4.6117L13.1567 7.90158C13.2072 8.00395 13.2325 8.05514 13.2694 8.09488C13.3021 8.13007 13.3413 8.15858 13.3849 8.17884C13.434 8.20171 13.4905 8.20997 13.6035 8.22648L17.236 8.75742C17.6185 8.81333 17.8097 8.84128 17.8982 8.93471C17.9753 9.016 18.0115 9.12769 17.9968 9.2387C17.98 9.36629 17.8415 9.50116 17.5646 9.77088L14.9371 12.3301C14.8552 12.4098 14.8142 12.4497 14.7878 12.4972C14.7644 12.5392 14.7494 12.5854 14.7436 12.6331C14.7371 12.687 14.7467 12.7434 14.766 12.8561L15.386 16.4708C15.4514 16.8521 15.4841 17.0427 15.4227 17.1558C15.3692 17.2542 15.2742 17.3233 15.164 17.3437C15.0375 17.3671 14.8663 17.2771 14.5239 17.0971L11.2765 15.3893C11.1754 15.3361 11.1248 15.3095 11.0715 15.299C11.0243 15.2898 10.9757 15.2898 10.9285 15.299C10.8752 15.3095 10.8247 15.3361 10.7235 15.3893L7.4761 17.0971C7.13373 17.2771 6.96255 17.3671 6.83597 17.3437C6.72585 17.3233 6.63082 17.2542 6.57736 17.1558C6.51592 17.0427 6.54861 16.8521 6.614 16.4708L7.23397 12.8561C7.2533 12.7434 7.26296 12.687 7.25642 12.6331C7.25063 12.5854 7.23562 12.5392 7.21222 12.4972C7.1858 12.4497 7.14484 12.4098 7.06294 12.3301L4.43545 9.77088C4.15852 9.50116 4.02005 9.36629 4.0032 9.2387C3.98854 9.12769 4.02476 9.016 4.10177 8.93471C4.19028 8.84128 4.38154 8.81333 4.76406 8.75742L8.39652 8.22648C8.50948 8.20997 8.56597 8.20171 8.61516 8.17884C8.65871 8.15858 8.69792 8.13007 8.73061 8.09488C8.76754 8.05514 8.79281 8.00395 8.84334 7.90158L10.4673 4.6117Z" fill="#707375"/>
  <path fill-rule="evenodd" clip-rule="evenodd" d="M10.5174 3.35916C10.8227 3.21361 11.1773 3.21361 11.4826 3.35916C11.7468 3.48512 11.8923 3.70373 11.9653 3.82305C12.0409 3.94644 12.1184 4.10353 12.1937 4.25625C12.1976 4.26409 12.2014 4.27192 12.2053 4.27973L13.793 7.49621L17.3704 8.01909C17.5388 8.04367 17.7121 8.06896 17.8527 8.10278C17.9887 8.13549 18.2415 8.20648 18.4427 8.4189C18.6753 8.66436 18.7846 9.00167 18.7404 9.3369C18.702 9.62699 18.539 9.83277 18.4481 9.93907C18.3541 10.049 18.2286 10.1711 18.1067 10.2899L15.5191 12.8101L16.1296 16.3698C16.1585 16.5377 16.1881 16.7104 16.1996 16.8547C16.2106 16.9941 16.2214 17.2566 16.0817 17.5138C15.9203 17.811 15.6333 18.0195 15.3007 18.0811C15.0129 18.1345 14.7667 18.043 14.6375 17.9894C14.5038 17.934 14.3488 17.8524 14.198 17.7731L11 16.0913L7.80202 17.7731C7.65127 17.8524 7.49621 17.934 7.36255 17.9894C7.23332 18.043 6.9871 18.1345 6.69927 18.0811C6.36671 18.0195 6.07974 17.811 5.91831 17.5138C5.77859 17.2566 5.78942 16.9941 5.80046 16.8547C5.81188 16.7104 5.84153 16.5377 5.87036 16.3699L6.4809 12.8101L3.91215 10.3082C3.9059 10.3021 3.89965 10.296 3.89338 10.2899C3.77142 10.1711 3.64595 10.049 3.55191 9.93907C3.46097 9.83277 3.29797 9.62699 3.25966 9.3369C3.21539 9.00167 3.32476 8.66436 3.55731 8.4189C3.75856 8.20648 4.0113 8.13549 4.14731 8.10278C4.28795 8.06897 4.46122 8.04367 4.62965 8.01909C4.63831 8.01783 4.64696 8.01657 4.65558 8.0153L8.20704 7.49621L9.79473 4.27973C9.79859 4.27192 9.80245 4.26408 9.80632 4.25624C9.88166 4.10353 9.95916 3.94644 10.0347 3.82305C10.1078 3.70374 10.2532 3.48512 10.5174 3.35916ZM11 5.22685L9.51587 8.23355C9.51304 8.23928 9.5098 8.24598 9.50616 8.25353C9.47084 8.32668 9.39708 8.47943 9.28006 8.60538C9.18134 8.71164 9.06293 8.79774 8.9314 8.8589C8.77552 8.93139 8.60746 8.95447 8.52699 8.96552C8.51869 8.96666 8.51132 8.96767 8.50499 8.96859L5.18489 9.45388L7.58624 11.7928C7.59082 11.7973 7.59621 11.8024 7.60227 11.8082C7.66103 11.8645 7.78375 11.9819 7.8675 12.1323C7.93815 12.2592 7.98348 12.3987 8.00097 12.5428C8.02169 12.7137 7.99152 12.8809 7.97707 12.961C7.97558 12.9692 7.97426 12.9766 7.97317 12.9829L7.40661 16.2862L10.3744 14.7255C10.3801 14.7225 10.3866 14.719 10.394 14.715C10.4657 14.6766 10.6153 14.5962 10.7842 14.5631C10.9267 14.5351 11.0733 14.5351 11.2158 14.5631C11.3847 14.5962 11.5344 14.6766 11.606 14.715C11.6134 14.719 11.62 14.7225 11.6256 14.7255L14.5934 16.2862L14.0268 12.9829C14.0258 12.9766 14.0244 12.9692 14.0229 12.961C14.0085 12.8809 13.9783 12.7137 13.999 12.5428C14.0165 12.3987 14.0619 12.2592 14.1325 12.1323C14.2163 11.9819 14.339 11.8645 14.3977 11.8082C14.4038 11.8024 14.4092 11.7973 14.4138 11.7928L16.8151 9.45388L13.495 8.96859C13.4887 8.96767 13.4813 8.96666 13.473 8.96552C13.3926 8.95447 13.2245 8.9314 13.0686 8.8589C12.9371 8.79774 12.8187 8.71164 12.7199 8.60538C12.6029 8.47943 12.5292 8.32668 12.4939 8.25353C12.4902 8.24598 12.487 8.23928 12.4841 8.23355L11 5.22685Z" fill="white"/>
</svg>
  