<svg
  width="16"
  height="16"
  viewBox="0 0 16 16"
  fill="none"
  xmlns="http://www.w3.org/2000/svg"
>
  <path
    d="M5.33333 2H4.66667C4.31304 2 3.97391 2.14048 3.72386 2.39052C3.47381 2.64057 3.33333 2.97971 3.33333 3.33333V6.66667C3.33333 7.02029 3.19286 7.35943 2.94281 7.60948C2.69276 7.85952 2.35362 8 2 8C2.35362 8 2.69276 8.14048 2.94281 8.39052C3.19286 8.64057 3.33333 8.97971 3.33333 9.33333V12.6667C3.33333 13.4 3.93333 14 4.66667 14H5.33333"
    stroke="currentColor"
    stroke-linecap="round"
    stroke-linejoin="round"
  />
  <path
    d="M10.6667 14H11.3334C11.687 14 12.0262 13.8595 12.2762 13.6095C12.5263 13.3594 12.6667 13.0203 12.6667 12.6667V9.33333C12.6667 8.6 13.2667 8 14.0001 8C13.6465 8 13.3073 7.85952 13.0573 7.60948C12.8072 7.35943 12.6667 7.02029 12.6667 6.66667V3.33333C12.6667 2.97971 12.5263 2.64057 12.2762 2.39052C12.0262 2.14048 11.687 2 11.3334 2H10.6667"
    stroke="currentColor"
    stroke-linecap="round"
    stroke-linejoin="round"
  />
</svg>
