<svg
  width="16"
  height="16"
  viewBox="0 0 16 16"
  fill="none"
  xmlns="http://www.w3.org/2000/svg"
>
  <path
    d="M10.6667 14.6667L10 12M12.6667 9.33333C12.8435 9.33333 13.0131 9.26309 13.1381 9.13807C13.2631 9.01305 13.3334 8.84348 13.3334 8.66667V8C13.3334 7.64638 13.1929 7.30724 12.9428 7.05719C12.6928 6.80714 12.3536 6.66667 12 6.66667H10C9.82321 6.66667 9.65364 6.59643 9.52862 6.4714C9.40359 6.34638 9.33335 6.17681 9.33335 6V2.66667C9.33335 2.31304 9.19288 1.9739 8.94283 1.72386C8.69278 1.47381 8.35364 1.33333 8.00002 1.33333C7.6464 1.33333 7.30726 1.47381 7.05721 1.72386C6.80716 1.9739 6.66669 2.31304 6.66669 2.66667V6C6.66669 6.17681 6.59645 6.34638 6.47143 6.4714C6.3464 6.59643 6.17683 6.66667 6.00002 6.66667H4.00002C3.6464 6.66667 3.30726 6.80714 3.05721 7.05719C2.80716 7.30724 2.66669 7.64638 2.66669 8V8.66667C2.66669 8.84348 2.73693 9.01305 2.86195 9.13807C2.98697 9.26309 3.15654 9.33333 3.33335 9.33333M12.6667 9.33333H3.33335M12.6667 9.33333L13.982 13.8447C14.0055 13.9427 14.0064 14.0447 13.9848 14.1432C13.9631 14.2416 13.9194 14.3339 13.857 14.413C13.7946 14.4921 13.715 14.556 13.6243 14.6C13.5336 14.6439 13.4341 14.6667 13.3333 14.6667H2.66665C2.56586 14.6667 2.46637 14.6439 2.37567 14.6C2.28496 14.556 2.20539 14.4921 2.14296 14.413C2.08052 14.3339 2.03684 14.2416 2.01519 14.1432C1.99354 14.0447 1.9945 13.9427 2.01798 13.8447L3.33335 9.33333M5.33331 14.6667L5.99998 12"
    stroke="currentColor"
    stroke-linecap="round"
    stroke-linejoin="round"
  />
</svg>
