<svg
  width="16"
  height="16"
  viewBox="0 0 16 16"
  fill="none"
  xmlns="http://www.w3.org/2000/svg"
>
  <path
    d="M5.33331 1.33333L6.58665 2.58667"
    stroke="currentColor"
    stroke-linecap="round"
    stroke-linejoin="round"
  />
  <path
    d="M9.41333 2.58667L10.6667 1.33333"
    stroke="currentColor"
    stroke-linecap="round"
    stroke-linejoin="round"
  />
  <path
    d="M5.99999 4.75333V4.08667C5.9879 3.8165 6.03068 3.54668 6.12574 3.2935C6.2208 3.04032 6.36617 2.80902 6.55307 2.61357C6.73998 2.41811 6.96455 2.26255 7.21323 2.15627C7.46191 2.04999 7.72955 1.9952 7.99999 1.9952C8.27042 1.9952 8.53806 2.04999 8.78674 2.15627C9.03542 2.26255 9.25999 2.41811 9.4469 2.61357C9.63381 2.80902 9.77918 3.04032 9.87423 3.2935C9.96929 3.54668 10.0121 3.8165 9.99999 4.08667V4.75333"
    stroke="currentColor"
    stroke-linecap="round"
    stroke-linejoin="round"
  />
  <path
    d="M8 13.3333C5.8 13.3333 4 11.5333 4 9.33333V7.33333C4 6.62609 4.28095 5.94781 4.78105 5.44772C5.28115 4.94762 5.95942 4.66667 6.66667 4.66667H9.33333C10.0406 4.66667 10.7189 4.94762 11.219 5.44772C11.719 5.94781 12 6.62609 12 7.33333V9.33333C12 11.5333 10.2 13.3333 8 13.3333Z"
    stroke="currentColor"
    stroke-linecap="round"
    stroke-linejoin="round"
  />
  <path
    d="M8 13.3333V7.33333"
    stroke="currentColor"
    stroke-linecap="round"
    stroke-linejoin="round"
  />
  <path
    d="M4.35333 6C3.06667 5.86667 2 4.73333 2 3.33333"
    stroke="currentColor"
    stroke-linecap="round"
    stroke-linejoin="round"
  />
  <path
    d="M3.99998 8.66667H1.33331"
    stroke="currentColor"
    stroke-linecap="round"
    stroke-linejoin="round"
  />
  <path
    d="M2 14C2 12.6 3.13333 11.4 4.53333 11.3333"
    stroke="currentColor"
    stroke-linecap="round"
    stroke-linejoin="round"
  />
  <path
    d="M13.98 3.33333C13.98 4.73333 12.9133 5.86667 11.6467 6"
    stroke="currentColor"
    stroke-linecap="round"
    stroke-linejoin="round"
  />
  <path
    d="M14.6667 8.66667H12"
    stroke="currentColor"
    stroke-linecap="round"
    stroke-linejoin="round"
  />
  <path
    d="M11.4667 11.3333C12.8667 11.4 14 12.6 14 14"
    stroke="currentColor"
    stroke-linecap="round"
    stroke-linejoin="round"
  />
</svg>
