<svg
  width="16"
  height="16"
  viewBox="0 0 16 16"
  fill="none"
  xmlns="http://www.w3.org/2000/svg"
>
  <path
    fill-rule="evenodd"
    clip-rule="evenodd"
    d="M1.83337 8C1.83337 6.067 3.40038 4.5 5.33337 4.5H10.6667C12.5997 4.5 14.1667 6.067 14.1667 8C14.1667 9.933 12.5997 11.5 10.6667 11.5H5.33337C3.40038 11.5 1.83337 9.933 1.83337 8ZM5.33337 3.5C2.84809 3.5 0.833374 5.51472 0.833374 8C0.833374 10.4853 2.84809 12.5 5.33337 12.5H10.6667C13.152 12.5 15.1667 10.4853 15.1667 8C15.1667 5.51472 13.152 3.5 10.6667 3.5H5.33337ZM5.71985 8C5.71985 8.55228 5.27213 9 4.71985 9C4.16756 9 3.71985 8.55228 3.71985 8C3.71985 7.44772 4.16756 7 4.71985 7C5.27213 7 5.71985 7.44772 5.71985 8ZM8.00012 9C8.55241 9 9.00012 8.55228 9.00012 8C9.00012 7.44772 8.55241 7 8.00012 7C7.44784 7 7.00012 7.44772 7.00012 8C7.00012 8.55228 7.44784 9 8.00012 9ZM12.2802 8C12.2802 8.55228 11.8324 9 11.2802 9C10.7279 9 10.2802 8.55228 10.2802 8C10.2802 7.44772 10.7279 7 11.2802 7C11.8324 7 12.2802 7.44772 12.2802 8Z"
    fill="currentColor"
  />
</svg>
