<svg width="16" height="16" viewBox="0 0 16 16" xmlns="http://www.w3.org/2000/svg">
<path fill-rule="evenodd" clip-rule="evenodd" d="M0.68335 7.47402C0.68335 5.62387 2.1832 4.12402 4.03335 4.12402H11.9667C13.8168 4.12402 15.3167 5.62387 15.3167 7.47402V8.77402C15.3167 10.6242 13.8168 12.124 11.9667 12.124H4.03335C2.18319 12.124 0.68335 10.6242 0.68335 8.77402V7.47402ZM4.03335 5.42402C2.90117 5.42402 1.98335 6.34184 1.98335 7.47402V8.77402C1.98335 9.90621 2.90117 10.824 4.03335 10.824H11.9667C13.0989 10.824 14.0167 9.90621 14.0167 8.77402V7.47402C14.0167 6.34184 13.0989 5.42402 11.9667 5.42402H4.03335ZM3.85001 8.124C3.85001 7.67297 4.21564 7.30733 4.66667 7.30733C5.11771 7.30733 5.48334 7.67297 5.48334 8.124C5.48334 8.57503 5.11771 8.94067 4.66667 8.94067C4.21564 8.94067 3.85001 8.57503 3.85001 8.124ZM7.18334 8.124C7.18334 7.67296 7.54898 7.30733 8.00001 7.30733C8.45104 7.30733 8.81667 7.67296 8.81667 8.124C8.81667 8.57503 8.45104 8.94067 8.00001 8.94067C7.54897 8.94067 7.18334 8.57503 7.18334 8.124ZM10.5167 8.124C10.5167 7.67297 10.8823 7.30733 11.3333 7.30733C11.7844 7.30733 12.15 7.67296 12.15 8.124C12.15 8.57503 11.7844 8.94067 11.3333 8.94067C10.8823 8.94067 10.5167 8.57503 10.5167 8.124Z" />
</svg>
