<svg width="16" height="16" viewBox="0 0 16 16" xmlns="http://www.w3.org/2000/svg">
<path fill-rule="evenodd" clip-rule="evenodd" d="M1.59158 2.5603C1.34998 3.03447 1.34998 3.65519 1.34998 4.89664V11.1033C1.34998 12.3448 1.34998 12.9655 1.59158 13.4397C1.8041 13.8567 2.1432 14.1959 2.5603 14.4084C3.03447 14.65 3.65519 14.65 4.89664 14.65H11.1033C12.3448 14.65 12.9655 14.65 13.4397 14.4084C13.8567 14.1959 14.1959 13.8567 14.4084 13.4397C14.65 12.9655 14.65 12.3448 14.65 11.1033V4.89664C14.65 3.65519 14.65 3.03447 14.4084 2.5603C14.1959 2.1432 13.8567 1.8041 13.4397 1.59158C12.9655 1.34998 12.3448 1.34998 11.1033 1.34998H4.89664C3.65519 1.34998 3.03447 1.34998 2.5603 1.59158C2.1432 1.8041 1.8041 2.1432 1.59158 2.5603ZM12.229 6.13314C12.5753 5.78687 12.5753 5.22547 12.229 4.8792C11.8828 4.53294 11.3214 4.53294 10.9751 4.8792L6.61457 9.23974L5.02487 7.65004C4.67861 7.30378 4.1172 7.30378 3.77094 7.65004C3.42467 7.99631 3.42467 8.55771 3.77094 8.90398L5.9876 11.1206C6.15388 11.2869 6.37941 11.3803 6.61457 11.3803C6.84973 11.3803 7.07526 11.2869 7.24154 11.1206L12.229 6.13314Z" />
</svg>
