<svg width="16" height="16" viewBox="0 0 16 16" xmlns="http://www.w3.org/2000/svg">
<path fill-rule="evenodd" clip-rule="evenodd" d="M1.59158 2.5603C1.34998 3.03447 1.34998 3.65519 1.34998 4.89664V11.1033C1.34998 12.3448 1.34998 12.9655 1.59158 13.4397C1.8041 13.8567 2.1432 14.1959 2.5603 14.4084C3.03447 14.65 3.65519 14.65 4.89664 14.65H11.1033C12.3448 14.65 12.9655 14.65 13.4397 14.4084C13.8567 14.1959 14.1959 13.8567 14.4084 13.4397C14.65 12.9655 14.65 12.3448 14.65 11.1033V4.89664C14.65 3.65519 14.65 3.03447 14.4084 2.5603C14.1959 2.1432 13.8567 1.8041 13.4397 1.59158C12.9655 1.34998 12.3448 1.34998 11.1033 1.34998H4.89664C3.65519 1.34998 3.03447 1.34998 2.5603 1.59158C2.1432 1.8041 1.8041 2.1432 1.59158 2.5603ZM4.67499 7.11326C4.1853 7.11326 3.78832 7.51023 3.78832 7.99992C3.78832 8.48961 4.1853 8.88659 4.67499 8.88659H11.325C11.8147 8.88659 12.2117 8.48961 12.2117 7.99992C12.2117 7.51023 11.8147 7.11326 11.325 7.11326H4.67499Z" />
</svg>
