<svg width="16" height="16" viewBox="0 0 16 16" xmlns="http://www.w3.org/2000/svg">
  <path fill-rule="evenodd" clip-rule="evenodd" d="M8.00002 1.98311C4.6771 1.98311 1.98335 4.67686 1.98335 7.99977C1.98335 11.3227 4.6771 14.0164 8.00002 14.0164C11.3229 14.0164 14.0167 11.3227 14.0167 7.99977C14.0167 4.67686 11.3229 1.98311 8.00002 1.98311ZM0.68335 7.99977C0.68335 3.95889 3.95913 0.683105 8.00002 0.683105C12.0409 0.683105 15.3167 3.95889 15.3167 7.99977C15.3167 12.0407 12.0409 15.3164 8.00002 15.3164C3.95913 15.3164 0.68335 12.0407 0.68335 7.99977Z"/>
  <path fill-rule="evenodd" clip-rule="evenodd" d="M11.5657 5.35718C11.8781 5.6696 11.8781 6.17613 11.5657 6.48855L7.41185 10.6424C7.26183 10.7924 7.05834 10.8767 6.84617 10.8767C6.634 10.8767 6.43051 10.7924 6.28048 10.6424L4.43433 8.79625C4.12191 8.48383 4.12191 7.9773 4.43433 7.66488C4.74675 7.35246 5.25328 7.35246 5.5657 7.66488L6.84617 8.94535L10.4343 5.35718C10.7467 5.04476 11.2533 5.04476 11.5657 5.35718Z" />
</svg>
