<svg width="16" height="16" viewBox="0 0 16 16" xmlns="http://www.w3.org/2000/svg">
<path fill-rule="evenodd" clip-rule="evenodd" d="M2.21799 3.09202C2 3.51984 2 4.0799 2 5.2V10.8C2 11.9201 2 12.4802 2.21799 12.908C2.40973 13.2843 2.71569 13.5903 3.09202 13.782C3.51984 14 4.0799 14 5.2 14H10.8C11.9201 14 12.4802 14 12.908 13.782C13.2843 13.5903 13.5903 13.2843 13.782 12.908C14 12.4802 14 11.9201 14 10.8V5.2C14 4.0799 14 3.51984 13.782 3.09202C13.5903 2.71569 13.2843 2.40973 12.908 2.21799C12.4802 2 11.9201 2 10.8 2H5.2C4.0799 2 3.51984 2 3.09202 2.21799C2.71569 2.40973 2.40973 2.71569 2.21799 3.09202ZM11.8157 6.31564C12.1281 6.00322 12.1281 5.49668 11.8157 5.18427C11.5033 4.87185 10.9967 4.87185 10.6843 5.18427L6.75001 9.11858L5.3157 7.68427C5.00328 7.37185 4.49675 7.37185 4.18433 7.68427C3.87191 7.99669 3.87191 8.50322 4.18433 8.81564L6.18432 10.8156C6.33435 10.9657 6.53784 11.05 6.75001 11.05C6.96218 11.05 7.16567 10.9657 7.3157 10.8156L11.8157 6.31564Z" />
</svg>
