<svg width="16" height="16" viewBox="0 0 16 16" xmlns="http://www.w3.org/2000/svg">
<path fill-rule="evenodd" clip-rule="evenodd" d="M5.17304 1.34998H10.8269C11.3641 1.34997 11.8064 1.34996 12.1665 1.37938C12.5402 1.40992 12.8822 1.47535 13.2031 1.63881C13.7017 1.89287 14.1071 2.29827 14.3611 2.7969C14.5246 3.11772 14.59 3.45975 14.6206 3.83345C14.65 4.19356 14.65 4.63588 14.65 5.17304V10.8269C14.65 11.3641 14.65 11.8064 14.6206 12.1665C14.59 12.5402 14.5246 12.8822 14.3611 13.2031C14.1071 13.7017 13.7017 14.1071 13.2031 14.3611C12.8822 14.5246 12.5402 14.59 12.1665 14.6206C11.8064 14.65 11.3641 14.65 10.8269 14.65H5.17304C4.63588 14.65 4.19356 14.65 3.83345 14.6206C3.45975 14.59 3.11772 14.5246 2.7969 14.3611C2.29827 14.1071 1.89287 13.7017 1.63881 13.2031C1.47534 12.8822 1.40992 12.5402 1.37938 12.1665C1.34996 11.8064 1.34997 11.3641 1.34998 10.8269V5.17304C1.34997 4.63588 1.34996 4.19356 1.37938 3.83345C1.40992 3.45975 1.47534 3.11772 1.63881 2.7969C1.89287 2.29827 2.29827 1.89287 2.7969 1.63881C3.11772 1.47534 3.45975 1.40992 3.83345 1.37938C4.19356 1.34996 4.63588 1.34997 5.17304 1.34998ZM3.93931 2.67507C3.646 2.69903 3.4941 2.74259 3.38709 2.79712C3.13307 2.92655 2.92655 3.13307 2.79712 3.38709C2.74259 3.4941 2.69903 3.646 2.67507 3.93931C2.65048 4.24021 2.64998 4.6292 2.64998 5.19998V10.8C2.64998 11.3708 2.65048 11.7597 2.67507 12.0606C2.69903 12.3539 2.74259 12.5059 2.79712 12.6129C2.92655 12.8669 3.13307 13.0734 3.38709 13.2028C3.4941 13.2574 3.646 13.3009 3.93931 13.3249C4.24021 13.3495 4.6292 13.35 5.19998 13.35H10.8C11.3708 13.35 11.7597 13.3495 12.0606 13.3249C12.3539 13.3009 12.5059 13.2574 12.6129 13.2028C12.8669 13.0734 13.0734 12.8669 13.2028 12.6129C13.2574 12.5059 13.3009 12.3539 13.3249 12.0606C13.3495 11.7597 13.35 11.3708 13.35 10.8V5.19998C13.35 4.6292 13.3495 4.24021 13.3249 3.93931C13.3009 3.646 13.2574 3.4941 13.2028 3.38709C13.0734 3.13307 12.8669 2.92655 12.6129 2.79712C12.5059 2.74259 12.3539 2.69903 12.0606 2.67507C11.7597 2.65048 11.3708 2.64998 10.8 2.64998H5.19998C4.6292 2.64998 4.24021 2.65048 3.93931 2.67507Z" />
</svg>
