<svg
  width="16"
  height="16"
  viewBox="0 0 16 16"
  fill="none"
  xmlns="http://www.w3.org/2000/svg"
>
  <path
    fill-rule="evenodd"
    clip-rule="evenodd"
    d="M2.69698 7.28264C2.89377 4.52559 5.19281 2.35001 7.99999 2.35001C10.6065 2.35001 12.7743 4.22523 13.229 6.70053C14.4626 7.28566 15.3167 8.54239 15.3167 10C15.3167 12.0158 13.6825 13.65 11.6667 13.65H3.99999C2.16824 13.65 0.683319 12.1651 0.683319 10.3333C0.683319 8.96356 1.51322 7.78891 2.69698 7.28264ZM7.99999 3.65001C5.78164 3.65001 3.98332 5.44833 3.98332 7.66667C3.98332 7.69085 3.98353 7.71498 3.98396 7.73905C3.98926 8.03992 3.78734 8.3051 3.49589 8.38003C2.62567 8.60374 1.98332 9.39434 1.98332 10.3333C1.98332 11.4471 2.88621 12.35 3.99999 12.35H11.6667C12.9645 12.35 14.0167 11.2979 14.0167 10C14.0167 8.96991 13.3535 8.09302 12.4289 7.7762C12.1902 7.6944 12.0204 7.4818 11.9933 7.23089C11.7766 5.21783 10.0709 3.65001 7.99999 3.65001Z"
  />
</svg>
