<svg
  width="16"
  height="16"
  viewBox="0 0 16 16"
  fill="none"
  xmlns="http://www.w3.org/2000/svg"
>
  <path
    d="M11.6666 12.6667H5.99994C5.13452 12.6664 4.28621 12.4256 3.54979 11.971C2.81338 11.5164 2.21789 10.866 1.82986 10.0924C1.44183 9.31885 1.27654 8.45263 1.35247 7.59055C1.4284 6.72846 1.74256 5.90447 2.25984 5.21065C2.77712 4.51684 3.47714 3.98053 4.28168 3.66166C5.08622 3.34279 5.96357 3.25392 6.81571 3.40498C7.66785 3.55604 8.4612 3.94108 9.1071 4.51707C9.753 5.09306 10.226 5.83732 10.4733 6.66667H11.6666C12.4623 6.66667 13.2253 6.98274 13.7879 7.54535C14.3505 8.10796 14.6666 8.87102 14.6666 9.66667C14.6666 10.4623 14.3505 11.2254 13.7879 11.788C13.2253 12.3506 12.4623 12.6667 11.6666 12.6667Z"
    stroke="currentColor"
    stroke-linecap="round"
    stroke-linejoin="round"
  />
</svg>
