<svg width="16" height="16" viewBox="0 0 16 16" xmlns="http://www.w3.org/2000/svg">
<path fill-rule="evenodd" clip-rule="evenodd" d="M1.44529 4.19075C1.44529 2.98976 2.4183 2.01675 3.61929 2.01675C3.97827 2.01675 4.26929 2.30776 4.26929 2.66675C4.26929 3.02573 3.97827 3.31675 3.61929 3.31675C3.13627 3.31675 2.74529 3.70773 2.74529 4.19075V7.23808C2.74529 7.41047 2.67681 7.5758 2.55491 7.6977L2.25253 8.00008L2.55491 8.30246C2.67681 8.42436 2.74529 8.58969 2.74529 8.76208V11.8094C2.74529 12.2924 3.13627 12.6834 3.61929 12.6834C3.97827 12.6834 4.26929 12.9744 4.26929 13.3334C4.26929 13.6924 3.97827 13.9834 3.61929 13.9834C2.4183 13.9834 1.44529 13.0104 1.44529 11.8094V9.03132L0.873669 8.4597C0.751771 8.3378 0.683289 8.17247 0.683289 8.00008C0.683289 7.82769 0.751771 7.66236 0.873669 7.54046L1.44529 6.96884V4.19075ZM11.7305 2.66675C11.7305 2.30776 12.0215 2.01675 12.3805 2.01675C13.5815 2.01675 14.5545 2.98976 14.5545 4.19075V6.96884L15.1261 7.54046C15.248 7.66236 15.3165 7.82769 15.3165 8.00008C15.3165 8.17247 15.248 8.3378 15.1261 8.4597L14.5545 9.03132V11.8094C14.5545 13.0106 13.5806 13.9834 12.3805 13.9834C12.0215 13.9834 11.7305 13.6924 11.7305 13.3334C11.7305 12.9744 12.0215 12.6834 12.3805 12.6834C12.863 12.6834 13.2545 12.2922 13.2545 11.8094V8.76208C13.2545 8.58969 13.323 8.42436 13.4449 8.30246L13.7473 8.00008L13.4449 7.6977C13.323 7.5758 13.2545 7.41047 13.2545 7.23808V4.19075C13.2545 3.70773 12.8635 3.31675 12.3805 3.31675C12.0215 3.31675 11.7305 3.02573 11.7305 2.66675Z" />
</svg>
