<svg width="16" height="16" viewBox="0 0 16 16"  xmlns="http://www.w3.org/2000/svg">
  <path fill-rule="evenodd" clip-rule="evenodd" d="M9.47435 1.36547C9.82479 1.44335 10.0457 1.79056 9.96787 2.141L7.3012 14.141C7.22333 14.4914 6.87611 14.7124 6.52568 14.6345C6.17524 14.5566 5.95429 14.2094 6.03216 13.859L8.69883 1.85899C8.7767 1.50855 9.12392 1.2876 9.47435 1.36547ZM5.1263 4.20704C5.38014 4.46088 5.38014 4.87244 5.1263 5.12628L2.25259 7.99999L5.1263 10.8737C5.38014 11.1275 5.38014 11.5391 5.1263 11.7929C4.87246 12.0468 4.4609 12.0468 4.20706 11.7929L0.87373 8.45961C0.619889 8.20577 0.619889 7.79421 0.87373 7.54037L4.20706 4.20704C4.4609 3.9532 4.87246 3.9532 5.1263 4.20704ZM10.8737 4.20704C11.1276 3.9532 11.5391 3.9532 11.793 4.20704L15.1263 7.54037C15.3801 7.79421 15.3801 8.20577 15.1263 8.45961L11.793 11.7929C11.5391 12.0468 11.1276 12.0468 10.8737 11.7929C10.6199 11.5391 10.6199 11.1275 10.8737 10.8737L13.7474 7.99999L10.8737 5.12628C10.6199 4.87244 10.6199 4.46088 10.8737 4.20704Z" fill="black"/>
</svg>
