<svg width="22" height="22" viewBox="0 0 22 22" xmlns="http://www.w3.org/2000/svg">
  <path fill-rule="evenodd" clip-rule="evenodd" d="M12.9961 2.01802C13.4004 2.10788 13.6554 2.50851 13.5655 2.91286L9.89885 19.4129C9.80899 19.8172 9.40836 20.0722 9.00401 19.9823C8.59966 19.8924 8.34471 19.4918 8.43457 19.0875L12.1012 2.58746C12.1911 2.18311 12.5917 1.92816 12.9961 2.01802ZM6.94704 5.8865C7.23993 6.17939 7.23993 6.65426 6.94704 6.94716L2.89403 11.0002L6.94704 15.0532C7.23993 15.3461 7.23993 15.8209 6.94704 16.1138C6.65414 16.4067 6.17927 16.4067 5.88638 16.1138L1.30304 11.5305C1.01015 11.2376 1.01015 10.7627 1.30304 10.4698L5.88638 5.8865C6.17927 5.5936 6.65414 5.5936 6.94704 5.8865ZM15.053 5.8865C15.3459 5.5936 15.8208 5.5936 16.1137 5.8865L20.697 10.4698C20.9899 10.7627 20.9899 11.2376 20.697 11.5305L16.1137 16.1138C15.8208 16.4067 15.3459 16.4067 15.053 16.1138C14.7602 15.8209 14.7602 15.3461 15.053 15.0532L19.106 11.0002L15.053 6.94716C14.7602 6.65426 14.7602 6.17939 15.053 5.8865Z" />
</svg>
  