<svg width="22" height="22" viewBox="0 0 22 22"  xmlns="http://www.w3.org/2000/svg">
<path fill-rule="evenodd" clip-rule="evenodd" d="M11.0032 1.07861C11.4174 1.07861 11.7532 1.4144 11.7532 1.82861L11.7532 5.52289L13.2519 4.02422C13.5448 3.73133 14.0197 3.73133 14.3126 4.02422C14.6055 4.31711 14.6055 4.79199 14.3126 5.08488L11.5336 7.86389C11.2407 8.15678 10.7658 8.15678 10.4729 7.86389L7.69389 5.08488C7.401 4.79199 7.401 4.31711 7.69389 4.02422C7.98678 3.73133 8.46166 3.73133 8.75455 4.02422L10.2532 5.5229L10.2532 1.82861C10.2532 1.4144 10.589 1.07861 11.0032 1.07861ZM2 11C2 10.5858 2.33579 10.25 2.75 10.25H19.25C19.6642 10.25 20 10.5858 20 11C20 11.4142 19.6642 11.75 19.25 11.75H2.75C2.33579 11.75 2 11.4142 2 11ZM11 13.9112C11.1989 13.9112 11.3897 13.9902 11.5303 14.1309L14.311 16.9116C14.6039 17.2045 14.6039 17.6794 14.311 17.9722C14.0181 18.2651 13.5433 18.2651 13.2504 17.9722L11.75 16.4719L11.75 20.1767C11.75 20.5909 11.4142 20.9267 11 20.9267C10.5858 20.9267 10.25 20.5909 10.25 20.1767L10.25 16.4719L8.74963 17.9722C8.45674 18.2651 7.98186 18.2651 7.68897 17.9722C7.39608 17.6794 7.39608 17.2045 7.68897 16.9116L10.4697 14.1309C10.6103 13.9902 10.8011 13.9112 11 13.9112Z" />
</svg>
