<svg
  width="16"
  height="16"
  viewBox="0 0 16 16"
  fill="none"
  xmlns="http://www.w3.org/2000/svg"
>
  <path
    d="M4.6665 5.33334H8.6665"
    stroke="currentColor"
    stroke-linecap="round"
    stroke-linejoin="round"
  />
  <path
    d="M4.6665 8H9.99984"
    stroke="currentColor"
    stroke-linecap="round"
    stroke-linejoin="round"
  />
  <path
    d="M14 8.75V3.5C14 3.10218 13.842 2.72064 13.5607 2.43934C13.2794 2.15804 12.8978 2 12.5 2H3.5C3.10218 2 2.72064 2.15804 2.43934 2.43934C2.15804 2.72064 2 3.10218 2 3.5V8.75107V11.3766V12.6894V12.7521C2 13.4425 2.55964 14.0021 3.25 14.0021V14.0021H4.5H6"
    stroke="currentColor"
    stroke-linecap="round"
    stroke-linejoin="round"
  />
  <path
    d="M12.8171 13.6983L14 12.5154L12.8171 11.3326"
    stroke="currentColor"
    stroke-linecap="round"
    stroke-linejoin="round"
  />
  <path
    d="M9.26856 11.3326L8.08569 12.5154L9.26856 13.6983"
    stroke="currentColor"
    stroke-linecap="round"
    stroke-linejoin="round"
  />
  <path
    d="M11.6515 10.6121L10.4338 14.2631"
    stroke="currentColor"
    stroke-linecap="round"
    stroke-linejoin="round"
  />
</svg>
