<svg
  width="16"
  height="16"
  viewBox="0 0 16 16"
  fill="none"
  xmlns="http://www.w3.org/2000/svg"
>
  <path
    d="M12.5 7.85416V4.05416C12.5 2.93405 12.5 2.374 12.282 1.94618C12.0902 1.56985 11.7843 1.26389 11.408 1.07214C10.9801 0.854156 10.4201 0.854156 9.29998 0.854156H5.03331C3.91321 0.854156 3.35316 0.854156 2.92533 1.07214C2.54901 1.26389 2.24305 1.56985 2.0513 1.94618C1.83331 2.374 1.83331 2.93405 1.83331 4.05416V10.9875C1.83331 12.1076 1.83331 12.6676 2.0513 13.0955C2.24305 13.4718 2.54901 13.7778 2.92533 13.9695C3.35316 14.1875 3.91321 14.1875 5.03331 14.1875H7.16665M8.49998 6.85416H4.49998M5.83331 9.52082H4.49998M9.83331 4.18749H4.49998M12.4166 13.7847L14.1666 12.0833L12.4166 10.3819M8.91665 10.3819L7.16665 12.0833L8.91665 13.7847M11.3666 9.02082L9.96665 15.1458"
    stroke="currentcolor"
    stroke-width="1.3"
    stroke-linecap="round"
    stroke-linejoin="round"
  />
</svg>
