<svg width="16" height="16" viewBox="0 0 16 16" xmlns="http://www.w3.org/2000/svg">
<path fill-rule="evenodd" clip-rule="evenodd" d="M7.49534 1.3501H12.1046C12.4196 1.35009 12.6942 1.35007 12.9211 1.36861C13.1614 1.38824 13.4046 1.43187 13.6399 1.55174C13.988 1.7291 14.271 2.01212 14.4483 2.36022C14.5682 2.59547 14.6118 2.83871 14.6315 3.07901C14.65 3.30583 14.65 3.58049 14.65 3.89546V8.50473C14.65 8.81971 14.65 9.09437 14.6315 9.32119C14.6118 9.56149 14.5682 9.80473 14.4483 10.04C14.271 10.3881 13.988 10.6711 13.6399 10.8485C13.4046 10.9683 13.1614 11.012 12.9211 11.0316C12.6942 11.0501 12.4196 11.0501 12.1046 11.0501H11.05V12.1047C11.05 12.4197 11.05 12.6944 11.0315 12.9212C11.0118 13.1615 10.9682 13.4047 10.8483 13.64C10.671 13.9881 10.388 14.2711 10.0399 14.4485C9.80461 14.5683 9.56137 14.612 9.32107 14.6316C9.09425 14.6501 8.81959 14.6501 8.50461 14.6501H3.89534C3.58037 14.6501 3.30571 14.6501 3.07889 14.6316C2.83859 14.612 2.59535 14.5683 2.36009 14.4485C2.012 14.2711 1.72898 13.9881 1.55161 13.64C1.43175 13.4047 1.38812 13.1615 1.36848 12.9212C1.34995 12.6944 1.34996 12.4197 1.34998 12.1047V7.49546C1.34996 7.18049 1.34995 6.90583 1.36848 6.67901C1.38812 6.43871 1.43175 6.19547 1.55161 5.96022C1.72898 5.61212 2.01199 5.3291 2.36009 5.15174C2.59535 5.03187 2.83859 4.98824 3.07889 4.96861C3.3057 4.95008 3.58036 4.95009 3.89533 4.9501L4.94998 4.9501L4.94998 3.89545C4.94996 3.58048 4.94995 3.30583 4.96848 3.07901C4.98812 2.83871 5.03175 2.59547 5.15162 2.36022C5.32898 2.01212 5.61199 1.7291 5.96009 1.55174C6.19535 1.43187 6.43859 1.38824 6.67889 1.36861C6.9057 1.35007 7.18036 1.35009 7.49534 1.3501ZM3.91998 6.2501C3.57322 6.2501 3.35224 6.2506 3.18475 6.26429C3.02484 6.27735 2.97172 6.29912 2.95028 6.31005C2.84679 6.36278 2.76265 6.44692 2.70992 6.5504C2.699 6.57185 2.67723 6.62497 2.66417 6.78487C2.65048 6.95237 2.64998 7.17334 2.64998 7.5201V12.0801C2.64998 12.4269 2.65048 12.6478 2.66417 12.8153C2.67723 12.9752 2.699 13.0284 2.70992 13.0498C2.76265 13.1533 2.84679 13.2374 2.95028 13.2902C2.97172 13.3011 3.02484 13.3228 3.18475 13.3359C3.35224 13.3496 3.57322 13.3501 3.91998 13.3501H8.47998C8.82673 13.3501 9.04771 13.3496 9.2152 13.3359C9.37511 13.3228 9.42823 13.3011 9.44967 13.2902C9.55316 13.2374 9.6373 13.1533 9.69003 13.0498C9.70096 13.0284 9.72272 12.9752 9.73579 12.8153C9.74947 12.6478 9.74998 12.4269 9.74998 12.0801V7.5201C9.74998 7.17334 9.74947 6.95237 9.73579 6.78487C9.72272 6.62497 9.70096 6.57185 9.69003 6.5504C9.6373 6.44692 9.55316 6.36278 9.44967 6.31005C9.42823 6.29912 9.37511 6.27735 9.2152 6.26429C9.04771 6.2506 8.82673 6.2501 8.47998 6.2501H3.91998ZM11.05 9.7501V7.49546C11.05 7.18049 11.05 6.90583 11.0315 6.67901C11.0118 6.43871 10.9682 6.19547 10.8483 5.96022C10.671 5.61212 10.388 5.3291 10.0399 5.15174C9.80461 5.03187 9.56137 4.98824 9.32107 4.96861C9.09425 4.95008 8.81959 4.95009 8.50462 4.9501L6.24998 4.9501V3.9201C6.24998 3.57334 6.25048 3.35237 6.26417 3.18487C6.27723 3.02497 6.299 2.97185 6.30992 2.9504C6.36265 2.84692 6.44679 2.76278 6.55028 2.71005C6.57172 2.69912 6.62484 2.67735 6.78475 2.66429C6.95224 2.6506 7.17322 2.6501 7.51998 2.6501H12.08C12.4267 2.6501 12.6477 2.6506 12.8152 2.66429C12.9751 2.67735 13.0282 2.69912 13.0497 2.71005C13.1532 2.76278 13.2373 2.84691 13.29 2.9504C13.301 2.97185 13.3227 3.02497 13.3358 3.18487C13.3495 3.35237 13.35 3.57334 13.35 3.9201V8.4801C13.35 8.82686 13.3495 9.04783 13.3358 9.21533C13.3227 9.37523 13.301 9.42835 13.29 9.44979C13.2373 9.55328 13.1532 9.63742 13.0497 9.69015C13.0282 9.70108 12.9751 9.72284 12.8152 9.73591C12.6477 9.74959 12.4267 9.7501 12.08 9.7501H11.05Z"/>
</svg>
