<svg width="17" height="16" viewBox="0 0 17 16" xmlns="http://www.w3.org/2000/svg">
<path fill-rule="evenodd" clip-rule="evenodd" d="M5.67307 1.35013H11.3269C11.8641 1.35012 12.3064 1.35011 12.6665 1.37954C13.0402 1.41007 13.3823 1.4755 13.7031 1.63896C14.2017 1.89303 14.6071 2.29842 14.8612 2.79705C15.0246 3.11787 15.0901 3.4599 15.1206 3.8336C15.15 4.19371 15.15 4.63604 15.15 5.17319V10.8271C15.15 11.3642 15.15 11.8065 15.1206 12.1667C15.0901 12.5404 15.0246 12.8824 14.8612 13.2032C14.6071 13.7018 14.2017 14.1072 13.7031 14.3613C13.3823 14.5248 13.0402 14.5902 12.6665 14.6207C12.3064 14.6501 11.8641 14.6501 11.3269 14.6501H5.67307C5.13591 14.6501 4.69359 14.6501 4.33348 14.6207C3.95978 14.5902 3.61775 14.5248 3.29693 14.3613C2.7983 14.1072 2.3929 13.7018 2.13884 13.2032C1.97538 12.8824 1.90995 12.5404 1.87941 12.1667C1.84999 11.8065 1.85 11.3642 1.85001 10.8271V5.17319C1.85 4.63603 1.84999 4.19371 1.87941 3.8336C1.90995 3.4599 1.97538 3.11787 2.13884 2.79705C2.3929 2.29842 2.7983 1.89303 3.29693 1.63896C3.61775 1.4755 3.95978 1.41007 4.33348 1.37954C4.69359 1.35011 5.13591 1.35012 5.67307 1.35013ZM4.43934 2.67522C4.14603 2.69918 3.99413 2.74275 3.88712 2.79727C3.6331 2.9267 3.42658 3.13322 3.29715 3.38724C3.24262 3.49425 3.19906 3.64616 3.1751 3.93946C3.15051 4.24036 3.15001 4.62935 3.15001 5.20013V10.8001C3.15001 11.3709 3.15051 11.7599 3.1751 12.0608C3.19906 12.3541 3.24262 12.506 3.29715 12.613C3.42658 12.867 3.6331 13.0736 3.88712 13.203C3.99413 13.2575 4.14603 13.3011 4.43934 13.325C4.74024 13.3496 5.12923 13.3501 5.70001 13.3501H11.3C11.8708 13.3501 12.2598 13.3496 12.5607 13.325C12.854 13.3011 13.0059 13.2575 13.1129 13.203C13.3669 13.0736 13.5734 12.867 13.7029 12.613C13.7574 12.506 13.801 12.3541 13.8249 12.0608C13.8495 11.7599 13.85 11.3709 13.85 10.8001V5.20013C13.85 4.62935 13.8495 4.24036 13.8249 3.93946C13.801 3.64616 13.7574 3.49425 13.7029 3.38724C13.5734 3.13322 13.3669 2.9267 13.1129 2.79727C13.0059 2.74275 12.854 2.69918 12.5607 2.67522C12.2598 2.65063 11.8708 2.65013 11.3 2.65013H5.70001C5.12923 2.65013 4.74024 2.65063 4.43934 2.67522Z" />
<path fill-rule="evenodd" clip-rule="evenodd" d="M8.51676 10.3301C8.51676 9.97114 8.80777 9.68013 9.16676 9.68013H11.8334C12.1924 9.68013 12.4834 9.97114 12.4834 10.3301C12.4834 10.6891 12.1924 10.9801 11.8334 10.9801H9.16676C8.80777 10.9801 8.51676 10.6891 8.51676 10.3301Z" />
<path fill-rule="evenodd" clip-rule="evenodd" d="M4.70714 5.21051C4.96098 4.95667 5.37253 4.95667 5.62637 5.21051L7.62637 7.21051C7.74827 7.33241 7.81676 7.49774 7.81675 7.67013C7.81675 7.84252 7.74827 8.00785 7.62637 8.12975L5.62637 10.1297C5.37253 10.3836 4.96098 10.3836 4.70713 10.1297C4.45329 9.87591 4.45329 9.46435 4.70714 9.21051L6.24752 7.67013L4.70714 6.12975C4.45329 5.87591 4.45329 5.46435 4.70714 5.21051Z" />
</svg>
