<svg xmlns="http://www.w3.org/2000/svg" width="16" height="16" viewBox="0 0 16 16">
  <path d="M10.755 14.6501H5.24501C4.74501 14.6501 4.26501 14.4601 3.89501 14.1201C3.52501 13.7701 3.30501 13.3101 3.26501 12.8101L2.72501 5.3201H2.66501C2.30501 5.3201 2.01501 5.0301 2.01501 4.6701C2.01501 4.3101 2.30501 4.0201 2.66501 4.0201H5.34501V2.6701C5.34501 2.3201 5.48501 1.9901 5.73501 1.7401C5.98501 1.4901 6.31501 1.3501 6.66501 1.3501H9.33501C9.68501 1.3501 10.015 1.4901 10.265 1.7301C10.515 1.9801 10.655 2.3101 10.655 2.6601V4.0101H13.335C13.695 4.0101 13.985 4.3001 13.985 4.6601C13.985 5.0201 13.695 5.3101 13.335 5.3101H13.275L12.735 12.8001C12.705 13.3001 12.475 13.7701 12.105 14.1101C11.735 14.4501 11.255 14.6401 10.755 14.6401V14.6501ZM4.03501 5.3201L4.56501 12.7201C4.57501 12.8901 4.65501 13.0501 4.78501 13.1701C4.91501 13.2901 5.07501 13.3501 5.25501 13.3501H10.775C10.945 13.3501 11.115 13.2901 11.245 13.1701C11.375 13.0501 11.445 12.8901 11.465 12.7201L11.995 5.3201H4.03501ZM6.65501 4.0201H9.35501V2.6701L6.67501 2.6501V4.0201H6.65501Z" />
  <path d="M9.33501 11.9801C8.97501 11.9801 8.68501 11.6901 8.68501 11.3301V7.3301C8.68501 6.9701 8.97501 6.6801 9.33501 6.6801C9.69501 6.6801 9.98501 6.9701 9.98501 7.3301V11.3301C9.98501 11.6901 9.69501 11.9801 9.33501 11.9801ZM6.66501 11.9801C6.30501 11.9801 6.01501 11.6901 6.01501 11.3301V7.3301C6.01501 6.9701 6.30501 6.6801 6.66501 6.6801C7.02501 6.6801 7.31501 6.9701 7.31501 7.3301V11.3301C7.31501 11.6901 7.02501 11.9801 6.66501 11.9801Z" />
</svg>