<svg width="22" height="22" viewBox="0 0 22 22"  xmlns="http://www.w3.org/2000/svg">
<path d="M9.23031 8.21059C9.09036 8.04674 8.88044 7.95978 8.66562 7.97669C8.46544 7.99244 8.32601 8.10701 8.27254 8.15178C8.21006 8.20408 8.14047 8.27372 8.07633 8.33789L6.96883 9.44539L6.95297 9.46118L6.93059 9.46123L6.31526 9.46123C6.23038 9.46121 6.1394 9.46119 6.06082 9.46761C5.97215 9.47486 5.85627 9.4927 5.73699 9.55347C5.57775 9.63461 5.44829 9.76408 5.36715 9.92332C5.30638 10.0426 5.28853 10.1585 5.28129 10.2471C5.27487 10.3257 5.27489 10.4167 5.2749 10.5016V11.4987C5.27489 11.5835 5.27487 11.6745 5.28129 11.7531C5.28853 11.8418 5.30638 11.9577 5.36715 12.0769C5.44828 12.2362 5.57775 12.3656 5.73699 12.4468C5.85627 12.5076 5.97215 12.5254 6.06082 12.5326C6.13939 12.5391 6.23037 12.539 6.31525 12.539L6.93059 12.539L6.95297 12.5391L6.96883 12.5549L8.07631 13.6623C8.14045 13.7265 8.21006 13.7962 8.27254 13.8485C8.32602 13.8932 8.46544 14.0078 8.66562 14.0236C8.88044 14.0405 9.09036 13.9535 9.23031 13.7897C9.36072 13.637 9.37829 13.4574 9.38445 13.3879C9.39164 13.3067 9.39162 13.2083 9.39159 13.1175V8.88271C9.39162 8.79198 9.39164 8.69352 9.38445 8.61235C9.37829 8.54288 9.36072 8.36328 9.23031 8.21059Z" />
<path d="M15.28 6.71223C15.0382 6.37598 14.5695 6.29948 14.2332 6.54137C13.897 6.78326 13.8205 7.25193 14.0624 7.58818C14.7532 8.54846 15.1599 9.72572 15.1599 11.0002C15.1599 12.2747 14.7532 13.4519 14.0624 14.4122C13.8205 14.7485 13.897 15.2171 14.2332 15.459C14.5695 15.7009 15.0382 15.6244 15.28 15.2882C16.1483 14.0812 16.6599 12.5993 16.6599 11.0002C16.6599 9.40106 16.1483 7.9192 15.28 6.71223Z" />
<path d="M12.5363 8.37106C12.2994 8.03133 11.8319 7.94803 11.4921 8.185C11.1524 8.42197 11.0691 8.88948 11.3061 9.22921C11.6561 9.73103 11.8613 10.3405 11.8613 11.0001C11.8613 11.6598 11.6561 12.2692 11.3061 12.7711C11.0691 13.1108 11.1524 13.5783 11.4921 13.8153C11.8319 14.0522 12.2994 13.9689 12.5363 13.6292C13.0563 12.8838 13.3613 11.9765 13.3613 11.0001C13.3613 10.0238 13.0563 9.11645 12.5363 8.37106Z" />
<path fill-rule="evenodd" clip-rule="evenodd" d="M7.11821 2H14.8818C15.6249 1.99999 16.228 1.99999 16.7173 2.03996C17.2222 2.08121 17.6715 2.16876 18.089 2.38148C18.7475 2.71703 19.283 3.25247 19.6185 3.91103C19.8312 4.32851 19.9188 4.77778 19.96 5.28273C20 5.77195 20 6.37507 20 7.11811V14.8818C20 15.6249 20 16.2281 19.96 16.7173C19.9188 17.2222 19.8312 17.6715 19.6185 18.089C19.283 18.7475 18.7475 19.283 18.089 19.6185C17.6715 19.8312 17.2222 19.9188 16.7173 19.96C16.2281 20 15.6249 20 14.8819 20H7.11819C6.37515 20 5.77195 20 5.28273 19.96C4.77778 19.9188 4.32851 19.8312 3.91103 19.6185C3.25247 19.283 2.71703 18.7475 2.38148 18.089C2.16876 17.6715 2.08121 17.2222 2.03996 16.7173C1.99999 16.228 1.99999 15.6249 2 14.8818V7.11821C1.99999 6.37513 1.99999 5.77197 2.03996 5.28273C2.08121 4.77778 2.16876 4.32851 2.38148 3.91103C2.71703 3.25247 3.25247 2.71703 3.91103 2.38148C4.32851 2.16876 4.77778 2.08121 5.28273 2.03996C5.77197 1.99999 6.37513 1.99999 7.11821 2ZM5.40488 3.53498C4.99269 3.56865 4.7628 3.63097 4.59202 3.71799C4.2157 3.90973 3.90973 4.2157 3.71799 4.59202C3.63097 4.7628 3.56865 4.99269 3.53498 5.40488C3.50058 5.82582 3.5 6.36755 3.5 7.15V14.85C3.5 15.6324 3.50058 16.1742 3.53498 16.5951C3.56865 17.0073 3.63097 17.2372 3.71799 17.408C3.90973 17.7843 4.2157 18.0903 4.59202 18.282C4.7628 18.369 4.99269 18.4313 5.40488 18.465C5.82582 18.4994 6.36755 18.5 7.15 18.5H14.85C15.6324 18.5 16.1742 18.4994 16.5951 18.465C17.0073 18.4313 17.2372 18.369 17.408 18.282C17.7843 18.0903 18.0903 17.7843 18.282 17.408C18.369 17.2372 18.4313 17.0073 18.465 16.5951C18.4994 16.1742 18.5 15.6324 18.5 14.85V7.15C18.5 6.36755 18.4994 5.82582 18.465 5.40488C18.4313 4.99269 18.369 4.7628 18.282 4.59202C18.0903 4.2157 17.7843 3.90973 17.408 3.71799C17.2372 3.63097 17.0073 3.56865 16.5951 3.53498C16.1742 3.50058 15.6324 3.5 14.85 3.5H7.15C6.36755 3.5 5.82582 3.50058 5.40488 3.53498Z" />
</svg>
