<svg
  width="16"
  height="16"
  viewBox="0 0 16 16"
  fill="none"
  xmlns="http://www.w3.org/2000/svg"
>
  <path
    d="M7.33337 3.13467C7.33324 3.04181 7.3056 2.95107 7.25395 2.8739C7.2023 2.79674 7.12894 2.7366 7.04314 2.70108C6.95735 2.66557 6.86295 2.65626 6.77187 2.67434C6.68079 2.69242 6.5971 2.73707 6.53137 2.80266L4.27537 5.058C4.18831 5.14558 4.08473 5.21502 3.97064 5.26228C3.85654 5.30954 3.7342 5.33369 3.61071 5.33333H2.00004C1.82323 5.33333 1.65366 5.40357 1.52864 5.52859C1.40361 5.65362 1.33337 5.82319 1.33337 6V10C1.33337 10.1768 1.40361 10.3464 1.52864 10.4714C1.65366 10.5964 1.82323 10.6667 2.00004 10.6667H3.61071C3.7342 10.6663 3.85654 10.6905 3.97064 10.7377C4.08473 10.785 4.18831 10.8544 4.27537 10.942L6.53071 13.198C6.59644 13.2639 6.68024 13.3087 6.7715 13.3269C6.86276 13.3451 6.95736 13.3358 7.04332 13.3002C7.12929 13.2645 7.20274 13.2042 7.25437 13.1268C7.30601 13.0494 7.3335 12.9584 7.33337 12.8653V3.13467Z"
    stroke="currentColor"
    stroke-linecap="round"
    stroke-linejoin="round"
  />
  <path
    d="M10.6666 6C11.0994 6.57699 11.3333 7.27877 11.3333 8C11.3333 8.72123 11.0994 9.42301 10.6666 10"
    stroke="currentColor"
    stroke-linecap="round"
    stroke-linejoin="round"
  />
  <path
    d="M12.9093 12.2427C13.4665 11.6855 13.9084 11.0241 14.21 10.2961C14.5115 9.56816 14.6667 8.78794 14.6667 8C14.6667 7.21206 14.5115 6.43184 14.21 5.70388C13.9084 4.97592 13.4665 4.31448 12.9093 3.75733"
    stroke="currentColor"
    stroke-linecap="round"
    stroke-linejoin="round"
  />
</svg>
