<svg width="16" height="16" viewBox="0 0 16 16"  xmlns="http://www.w3.org/2000/svg">
<path fill-rule="evenodd" clip-rule="evenodd" d="M5.17304 1.35001H10.8269C11.3641 1.35 11.8064 1.34999 12.1665 1.37941C12.5402 1.40995 12.8822 1.47538 13.2031 1.63884C13.7017 1.8929 14.1071 2.2983 14.3611 2.79693C14.5246 3.11775 14.59 3.45978 14.6206 3.83348C14.65 4.19359 14.65 4.63591 14.65 5.17307V10.8269C14.65 11.3641 14.65 11.8064 14.6206 12.1665C14.59 12.5402 14.5246 12.8823 14.3611 13.2031C14.1071 13.7017 13.7017 14.1071 13.2031 14.3612C12.8822 14.5246 12.5402 14.5901 12.1665 14.6206C11.8064 14.65 11.3641 14.65 10.8269 14.65H5.17304C4.63588 14.65 4.19356 14.65 3.83345 14.6206C3.45975 14.5901 3.11772 14.5246 2.7969 14.3612C2.29827 14.1071 1.89287 13.7017 1.63881 13.2031C1.47534 12.8823 1.40992 12.5402 1.37938 12.1665C1.34996 11.8064 1.34997 11.3641 1.34998 10.8269V5.17307C1.34997 4.63591 1.34996 4.19359 1.37938 3.83348C1.40992 3.45978 1.47534 3.11775 1.63881 2.79693C1.89287 2.2983 2.29827 1.8929 2.7969 1.63884C3.11772 1.47538 3.45975 1.40995 3.83345 1.37941C4.19356 1.34999 4.63588 1.35 5.17304 1.35001ZM3.93931 2.6751C3.646 2.69906 3.4941 2.74262 3.38709 2.79715C3.13307 2.92658 2.92655 3.1331 2.79712 3.38712C2.74259 3.49413 2.69903 3.64603 2.67507 3.93934C2.65048 4.24024 2.64998 4.62923 2.64998 5.20001V10.8C2.64998 11.3708 2.65048 11.7598 2.67507 12.0607C2.69903 12.354 2.74259 12.5059 2.79712 12.6129C2.92655 12.8669 3.13307 13.0734 3.38709 13.2029C3.4941 13.2574 3.646 13.301 3.93931 13.3249C4.24021 13.3495 4.6292 13.35 5.19998 13.35H10.8C11.3708 13.35 11.7597 13.3495 12.0606 13.3249C12.3539 13.301 12.5059 13.2574 12.6129 13.2029C12.8669 13.0734 13.0734 12.8669 13.2028 12.6129C13.2574 12.5059 13.3009 12.354 13.3249 12.0607C13.3495 11.7598 13.35 11.3708 13.35 10.8V5.20001C13.35 4.62923 13.3495 4.24024 13.3249 3.93934C13.3009 3.64603 13.2574 3.49413 13.2028 3.38712C13.0734 3.1331 12.8669 2.92658 12.6129 2.79715C12.5059 2.74262 12.3539 2.69906 12.0606 2.6751C11.7597 2.65051 11.3708 2.65001 10.8 2.65001H5.19998C4.6292 2.65001 4.24021 2.65051 3.93931 2.6751Z" />
<path fill-rule="evenodd" clip-rule="evenodd" d="M10.2904 4.67255C10.5818 4.46291 10.988 4.52921 11.1976 4.82062C11.8415 5.71562 12.2208 6.81457 12.2208 8.00019C12.2208 9.18582 11.8415 10.2848 11.1976 11.1798C10.988 11.4712 10.5818 11.5375 10.2904 11.3278C9.99898 11.1182 9.93269 10.712 10.1423 10.4206C10.6324 9.73941 10.9208 8.90445 10.9208 8.00019C10.9208 7.09594 10.6324 6.26097 10.1423 5.57978C9.93269 5.28837 9.99898 4.88218 10.2904 4.67255Z" />
<path d="M6.29162 5.66527C6.49137 5.64955 6.68657 5.7304 6.81669 5.88276C6.94118 6.02852 6.95613 6.19724 6.9609 6.25113C6.9667 6.3165 6.96669 6.39434 6.96666 6.45839V9.54176C6.96669 9.60581 6.96673 9.68331 6.96094 9.74868C6.95616 9.80256 6.94118 9.97163 6.81669 10.1174C6.68657 10.2697 6.49137 10.3506 6.29162 10.3349C6.10053 10.3198 5.97065 10.2111 5.92917 10.1764C5.87885 10.1343 5.82381 10.0792 5.77854 10.0339L5.00029 9.25563L4.59133 9.25564C4.53129 9.25566 4.45978 9.25569 4.39681 9.25054C4.3239 9.24458 4.21967 9.22931 4.1105 9.17369C3.96903 9.1016 3.85401 8.98658 3.78193 8.84511C3.7263 8.73594 3.71103 8.63172 3.70507 8.5588C3.69993 8.49584 3.69995 8.42433 3.69998 8.36429V7.63586C3.69995 7.57582 3.69993 7.50431 3.70507 7.44135C3.71103 7.36843 3.7263 7.26421 3.78193 7.15503C3.85401 7.01356 3.96903 6.89855 4.1105 6.82646C4.21967 6.77084 4.3239 6.75556 4.39681 6.74961C4.45978 6.74446 4.53129 6.74449 4.59133 6.74451L5.00029 6.74452L5.77854 5.96625C5.82381 5.92094 5.87858 5.86612 5.9289 5.82399C5.97038 5.78926 6.10053 5.68031 6.29162 5.66527Z" />
<path fill-rule="evenodd" clip-rule="evenodd" d="M8.29811 5.86703C8.59255 5.66166 8.99772 5.73386 9.2031 6.02829C9.59307 6.58737 9.82185 7.26801 9.82185 8.00015C9.82185 8.73228 9.59307 9.41293 9.2031 9.97201C8.99772 10.2664 8.59255 10.3386 8.29811 10.1333C8.00368 9.92789 7.93148 9.52272 8.13686 9.22828C8.37959 8.88029 8.52185 8.45781 8.52185 8.00015C8.52185 7.54249 8.37959 7.12 8.13686 6.77202C7.93148 6.47758 8.00368 6.07241 8.29811 5.86703Z" />
</svg>
