<svg width="22" height="22" viewBox="0 0 22 22"  xmlns="http://www.w3.org/2000/svg">
<g clip-path="url(#clip0_4923_4584)">
<path opacity="0.3" fill-rule="evenodd" clip-rule="evenodd" d="M0.394547 2.0025C-0.00518799 2.78702 -0.00518799 3.81402 -0.00518799 5.86802V16.1371C-0.00518799 18.1911 -0.00518799 19.2181 0.394547 20.0026C0.746164 20.6927 1.30722 21.2537 1.99731 21.6054C2.78184 22.0051 3.80884 22.0051 5.86284 22.0051H16.1319C18.1859 22.0051 19.2129 22.0051 19.9974 21.6054C20.6875 21.2537 21.2486 20.6927 21.6002 20.0026C21.9999 19.2181 21.9999 18.1911 21.9999 16.1371V5.86803C21.9999 3.81402 21.9999 2.78702 21.6002 2.0025C21.2486 1.31241 20.6875 0.751352 19.9974 0.399735C19.2129 0 18.1859 0 16.1319 0H5.86284C3.80884 0 2.78184 0 1.99731 0.399735C1.30722 0.751352 0.746164 1.31241 0.394547 2.0025ZM4.81865 5.75301C4.58561 6.21038 4.58561 6.80911 4.58561 8.00657V13.9933C4.58561 15.1908 4.58561 15.7895 4.81865 16.2469C5.02364 16.6492 5.35073 16.9763 5.75304 17.1813C6.21041 17.4143 6.80914 17.4143 8.00661 17.4143H13.9934C15.1908 17.4143 15.7896 17.4143 16.2469 17.1813C16.6492 16.9763 16.9763 16.6492 17.1813 16.2469C17.4144 15.7895 17.4144 15.1908 17.4144 13.9933V8.00657C17.4144 6.80911 17.4144 6.21038 17.1813 5.75301C16.9763 5.35069 16.6492 5.0236 16.2469 4.81861C15.7896 4.58557 15.1908 4.58557 13.9934 4.58557H8.00661C6.80915 4.58557 6.21041 4.58557 5.75304 4.81861C5.35073 5.0236 5.02364 5.35069 4.81865 5.75301Z" />
<path fill-rule="evenodd" clip-rule="evenodd" d="M7.97589 3.83557H14.0241C14.5967 3.83556 15.0715 3.83555 15.4588 3.86719C15.8617 3.90011 16.2354 3.97099 16.5874 4.15036C17.1309 4.42725 17.5727 4.86908 17.8496 5.41252C18.029 5.76455 18.0998 6.13826 18.1328 6.54118C18.1644 6.92843 18.1644 7.40323 18.1644 7.97581V14.0241C18.1644 14.5967 18.1644 15.0715 18.1328 15.4587C18.0998 15.8616 18.029 16.2353 17.8496 16.5874C17.5727 17.1308 17.1309 17.5726 16.5874 17.8495C16.2354 18.0289 15.8617 18.0998 15.4588 18.1327C15.0715 18.1643 14.5967 18.1643 14.0241 18.1643H7.97587C7.40329 18.1643 6.92849 18.1643 6.54124 18.1327C6.13833 18.0998 5.76461 18.0289 5.41258 17.8495C4.86914 17.5726 4.42731 17.1308 4.15042 16.5874C3.97105 16.2353 3.90017 15.8616 3.86725 15.4587C3.83561 15.0715 3.83562 14.5967 3.83563 14.0241V7.97582C3.83562 7.40324 3.83561 6.92843 3.86725 6.54118C3.90017 6.13826 3.97105 5.76455 4.15042 5.41252C4.42731 4.86908 4.86914 4.42725 5.41258 4.15036C5.76461 3.97099 6.13833 3.90011 6.54124 3.86719C6.92849 3.83555 7.4033 3.83556 7.97589 3.83557ZM6.66339 5.36221C6.35323 5.38755 6.1989 5.4332 6.09356 5.48687C5.83237 5.61995 5.62001 5.83231 5.48693 6.0935C5.43326 6.19884 5.38761 6.35317 5.36227 6.66333C5.33622 6.98224 5.33563 7.39546 5.33563 8.00657V13.9933C5.33563 14.6044 5.33622 15.0177 5.36227 15.3366C5.38761 15.6467 5.43326 15.8011 5.48693 15.9064C5.62001 16.1676 5.83237 16.3799 6.09356 16.513C6.1989 16.5667 6.35323 16.6123 6.66339 16.6377C6.9823 16.6637 7.39553 16.6643 8.00663 16.6643H13.9934C14.6045 16.6643 15.0177 16.6637 15.3366 16.6377C15.6468 16.6123 15.8011 16.5667 15.9065 16.513C16.1676 16.3799 16.38 16.1676 16.5131 15.9064C16.5668 15.8011 16.6124 15.6467 16.6377 15.3366C16.6638 15.0177 16.6644 14.6044 16.6644 13.9933V8.00657C16.6644 7.39547 16.6638 6.98224 16.6377 6.66333C16.6124 6.35317 16.5668 6.19884 16.5131 6.0935C16.38 5.83231 16.1676 5.61995 15.9065 5.48687C15.8011 5.4332 15.6468 5.38755 15.3366 5.36221C15.0177 5.33616 14.6045 5.33557 13.9934 5.33557H8.00663C7.39553 5.33557 6.9823 5.33616 6.66339 5.36221Z" />
</g>
<defs>
<clipPath id="clip0_4923_4584">
<rect width="22" height="22" fill="white"/>
</clipPath>
</defs>
</svg>
