<svg width="16" height="16" viewBox="0 0 16 16"  xmlns="http://www.w3.org/2000/svg">
<g clip-path="url(#clip0_4923_4565)">
<path opacity="0.3" fill-rule="evenodd" clip-rule="evenodd" d="M0.286932 1.45636C-0.00378418 2.02693 -0.00378418 2.77384 -0.00378418 4.26765V11.7361C-0.00378418 13.2299 -0.00378418 13.9768 0.286932 14.5473C0.542654 15.0492 0.950697 15.4573 1.45258 15.713C2.02314 16.0037 2.77005 16.0037 4.26387 16.0037H11.7323C13.2261 16.0037 13.973 16.0037 14.5436 15.713C15.0454 15.4573 15.4535 15.0492 15.7092 14.5473C15.9999 13.9768 15.9999 13.2299 15.9999 11.7361V4.26766C15.9999 2.77384 15.9999 2.02693 15.7092 1.45636C15.4535 0.954481 15.0454 0.546438 14.5436 0.290717C13.973 0 13.2261 0 11.7323 0H4.26387C2.77005 0 2.02314 0 1.45258 0.290717C0.950697 0.546438 0.542654 0.954481 0.286932 1.45636ZM3.50446 4.18401C3.33498 4.51664 3.33498 4.95208 3.33498 5.82296V10.177C3.33498 11.0478 3.33498 11.4833 3.50446 11.8159C3.65354 12.1085 3.89143 12.3464 4.18402 12.4955C4.51665 12.665 4.95209 12.665 5.82298 12.665H10.177C11.0479 12.665 11.4833 12.665 11.8159 12.4955C12.1085 12.3464 12.3464 12.1085 12.4955 11.8159C12.665 11.4833 12.665 11.0478 12.665 10.177V5.82296C12.665 4.95208 12.665 4.51664 12.4955 4.18401C12.3464 3.89141 12.1085 3.65353 11.8159 3.50445C11.4833 3.33496 11.0479 3.33496 10.177 3.33496H5.82298C4.95209 3.33496 4.51665 3.33496 4.18402 3.50445C3.89143 3.65353 3.65354 3.89141 3.50446 4.18401Z" />
<path fill-rule="evenodd" clip-rule="evenodd" d="M5.79709 2.68497H10.2029C10.6163 2.68496 10.9653 2.68495 11.2513 2.70831C11.5507 2.73278 11.8378 2.78609 12.111 2.9253C12.5259 3.1367 12.8633 3.47402 13.0747 3.88892C13.2139 4.16214 13.2672 4.44922 13.2917 4.74872C13.315 5.03467 13.315 5.38369 13.315 5.79706V10.2029C13.315 10.6162 13.315 10.9653 13.2917 11.2512C13.2672 11.5507 13.2139 11.8378 13.0747 12.111C12.8633 12.5259 12.5259 12.8632 12.111 13.0746C11.8378 13.2138 11.5507 13.2672 11.2513 13.2916C10.9653 13.315 10.6163 13.315 10.2029 13.315H5.79709C5.38372 13.315 5.0347 13.315 4.74875 13.2916C4.44925 13.2672 4.16217 13.2138 3.88895 13.0746C3.47405 12.8632 3.13673 12.5259 2.92533 12.111C2.78612 11.8378 2.73281 11.5507 2.70834 11.2512C2.68498 10.9653 2.68499 10.6162 2.685 10.2029V5.79706C2.68499 5.38369 2.68498 5.03467 2.70834 4.74872C2.73281 4.44922 2.78612 4.16214 2.92533 3.88892C3.13673 3.47402 3.47405 3.1367 3.88895 2.9253C4.16217 2.78609 4.44925 2.73278 4.74875 2.70831C5.0347 2.68495 5.38372 2.68496 5.79709 2.68497ZM4.85461 4.00399C4.63551 4.0219 4.53855 4.05333 4.47914 4.08361C4.30885 4.17037 4.1704 4.30882 4.08364 4.47911C4.05337 4.53852 4.02193 4.63547 4.00403 4.85458C3.9855 5.08127 3.985 5.3768 3.985 5.82297V10.177C3.985 10.6231 3.9855 10.9187 4.00403 11.1454C4.02193 11.3645 4.05337 11.4614 4.08364 11.5208C4.1704 11.6911 4.30885 11.8296 4.47914 11.9163C4.53855 11.9466 4.63551 11.978 4.85461 11.9959C5.0813 12.0145 5.37683 12.015 5.823 12.015H10.177C10.6232 12.015 10.9187 12.0145 11.1454 11.9959C11.3645 11.978 11.4614 11.9466 11.5209 11.9163C11.6911 11.8296 11.8296 11.6911 11.9164 11.5208C11.9466 11.4614 11.9781 11.3645 11.996 11.1454C12.0145 10.9187 12.015 10.6231 12.015 10.177V5.82297C12.015 5.3768 12.0145 5.08127 11.996 4.85458C11.9781 4.63547 11.9466 4.53852 11.9164 4.47911C11.8296 4.30882 11.6911 4.17037 11.5209 4.08361C11.4614 4.05333 11.3645 4.0219 11.1454 4.00399C10.9187 3.98547 10.6232 3.98497 10.177 3.98497H5.823C5.37683 3.98497 5.0813 3.98547 4.85461 4.00399Z" />
</g>
<defs>
<clipPath id="clip0_4923_4565">
<rect width="16" height="16" fill="white"/>
</clipPath>
</defs>
</svg>
