<svg width="16" height="17" viewBox="0 0 16 17" xmlns="http://www.w3.org/2000/svg">
<path fill-rule="evenodd" clip-rule="evenodd" d="M7.82108 4.06254C7.82149 4.42153 8.11284 4.71221 8.47183 4.7118L10.6717 4.70927L4.40923 10.9717L4.41175 8.77187C4.41216 8.41289 4.12148 8.12154 3.7625 8.12113C3.40351 8.12072 3.11216 8.4114 3.11175 8.77038L3.10742 12.542C3.10722 12.7147 3.17572 12.8803 3.2978 13.0024C3.41988 13.1245 3.58552 13.1929 3.75817 13.1928L7.52979 13.1884C7.88878 13.188 8.17946 12.8967 8.17904 12.5377C8.17863 12.1787 7.88728 11.888 7.5283 11.8884L5.32846 11.8909L11.5909 5.62851L11.5884 7.82835C11.588 8.18733 11.8786 8.47868 12.2376 8.47909C12.5966 8.4795 12.888 8.18882 12.8884 7.82984L12.8927 4.05822C12.8929 3.88557 12.8244 3.71993 12.7023 3.59785C12.5802 3.47577 12.4146 3.40727 12.242 3.40747L8.47033 3.4118C8.11135 3.41221 7.82067 3.70356 7.82108 4.06254Z" />
</svg>
