<svg
  width="16"
  height="16"
  viewBox="0 0 16 16"
  fill="none"
  xmlns="http://www.w3.org/2000/svg"
>
  <path
    d="M5.53462 11.9012C5.18591 12.4099 4.81238 12.9011 4.41538 13.3731C1.57692 13.2923 0.5 11.45 0.5 11.45C0.540344 8.83965 1.17292 6.27254 2.35 3.94231C3.38469 3.13286 4.64543 2.66512 5.95769 2.60384L6.34231 3.49231C6.89164 3.41604 7.44541 3.37621 8 3.37308C8.55706 3.37491 9.11339 3.41345 9.66538 3.48846L10.05 2.6C11.3635 2.66459 12.6244 3.13641 13.6577 3.95C14.831 6.27854 15.4609 8.84286 15.5 11.45C15.5 11.45 14.4231 13.2923 11.5846 13.3731C11.1936 12.9034 10.8265 12.4143 10.4846 11.9077M12.9692 10.7923C11.4923 11.5404 10.0631 12.2885 8 12.2885C5.93692 12.2885 4.50769 11.5404 3.03077 10.7923M6.92192 8.84615C6.92192 9.55775 6.34506 10.1346 5.63346 10.1346C4.92186 10.1346 4.345 9.55775 4.345 8.84615C4.345 8.13455 4.92186 7.55769 5.63346 7.55769C6.34506 7.55769 6.92192 8.13455 6.92192 8.84615ZM11.655 8.84615C11.655 9.55775 11.0781 10.1346 10.3665 10.1346C9.65494 10.1346 9.07808 9.55775 9.07808 8.84615C9.07808 8.13455 9.65494 7.55769 10.3665 7.55769C11.0781 7.55769 11.655 8.13455 11.655 8.84615Z"
    stroke="currentColor"
    stroke-linecap="round"
    stroke-linejoin="round"
  />
</svg>
