<svg width="16" height="16" viewBox="0 0 16 16" fill="currentColor" xmlns="http://www.w3.org/2000/svg">
  <path d="M6.8881 6.7C6.54083 6.7 6.26666 7.09039 6.26666 7.56666C6.26666 8.04294 6.54692 8.43333 6.8881 8.43333C7.23538 8.43333 7.50954 8.04294 7.50954 7.56666C7.51564 7.09039 7.23538 6.7 6.8881 6.7ZM9.11189 6.7C8.76461 6.7 8.49045 7.09039 8.49045 7.56666C8.49045 8.04294 8.7707 8.43333 9.11189 8.43333C9.45916 8.43333 9.73333 8.04294 9.73333 7.56666C9.73333 7.09039 9.45916 6.7 9.11189 6.7Z"/>
  <path d="M12.9771 1.5H3.02286C2.18343 1.5 1.5 2.098 1.5 2.839V11.627C1.5 12.368 2.18343 12.966 3.02286 12.966H11.4469L11.0531 11.7635L12.004 12.537L12.9029 13.265L14.5 14.5V2.839C14.5 2.098 13.8166 1.5 12.9771 1.5ZM10.1097 9.989C10.1097 9.989 9.84229 9.7095 9.61943 9.4625C10.5926 9.222 10.964 8.689 10.964 8.689C10.6594 8.8645 10.3697 8.988 10.1097 9.0725C9.73829 9.209 9.38171 9.3 9.03257 9.352C8.39635 9.4545 7.74387 9.45229 7.10857 9.3455C6.7356 9.28164 6.37008 9.18809 6.01657 9.066C5.83023 9.0033 5.64904 8.92946 5.47429 8.845C5.452 8.832 5.42971 8.8255 5.40743 8.8125C5.39257 8.806 5.38514 8.7995 5.37771 8.793C5.244 8.728 5.16971 8.6825 5.16971 8.6825C5.16971 8.6825 5.52629 9.2025 6.46971 9.4495C6.24686 9.6965 5.972 9.989 5.972 9.989C4.33029 9.9435 3.70629 9.001 3.70629 9.001C3.70629 6.908 4.776 5.2115 4.776 5.2115C5.84571 4.5095 6.86343 4.529 6.86343 4.529L6.93771 4.607C5.60057 4.945 4.984 5.4585 4.984 5.4585C4.984 5.4585 5.14743 5.3805 5.42229 5.27C6.21714 4.9645 6.84857 4.88 7.10857 4.8605C7.15314 4.854 7.19029 4.8475 7.23486 4.8475C8.52305 4.69494 9.83315 4.90916 10.9714 5.4585C10.9714 5.4585 10.3846 4.971 9.12171 4.633L9.22571 4.529C9.22571 4.529 10.2434 4.5095 11.3131 5.2115C11.3131 5.2115 12.3829 6.908 12.3829 9.001C12.3829 9.001 11.7514 9.9435 10.1097 9.989Z"/>
</svg>
  