<svg
  width="16"
  height="16"
  viewBox="0 0 16 16"
  fill="none"
  xmlns="http://www.w3.org/2000/svg"
>
  <path
    d="M4.56482 7.42857C4.56482 7.58012 4.63062 7.72547 4.74776 7.83263C4.86489 7.9398 5.02375 8 5.1894 8C5.35505 8 5.51392 7.9398 5.63105 7.83263C5.74818 7.72547 5.81399 7.58012 5.81399 7.42857C5.81399 7.27702 5.74818 7.13167 5.63105 7.02451C5.51392 6.91735 5.35505 6.85714 5.1894 6.85714C5.02375 6.85714 4.86489 6.91735 4.74776 7.02451C4.63062 7.13167 4.56482 7.27702 4.56482 7.42857ZM10.1861 7.42857C10.1861 7.58012 10.2519 7.72547 10.369 7.83263C10.4861 7.9398 10.645 8 10.8107 8C10.9763 8 11.1352 7.9398 11.2523 7.83263C11.3694 7.72547 11.4352 7.58012 11.4352 7.42857C11.4352 7.27702 11.3694 7.13167 11.2523 7.02451C11.1352 6.91735 10.9763 6.85714 10.8107 6.85714C10.645 6.85714 10.4861 6.91735 10.369 7.02451C10.2519 7.13167 10.1861 7.27702 10.1861 7.42857Z"
    stroke="currentColor"
  />
  <path
    d="M0.5 11.2731C0.5 8.52914 1.57179 4.90286 2.64232 3.432C2.64232 3.432 3.71411 2.94172 8 2.94172C12.2846 2.94172 13.3564 3.43314 13.3564 3.43314C14.4282 4.90286 15.5 8.52914 15.5 11.2731C15.1427 11.7646 13.8923 12.8423 11.75 13.2343L9.86376 11.0789C8.63722 11.34 7.36153 11.34 6.13499 11.0789L4.25 13.2343C2.10768 12.8423 0.857262 11.7634 0.5 11.2731Z"
    stroke="currentColor"
    stroke-linecap="round"
    stroke-linejoin="round"
  />
  <path
    d="M4.25 10.2937C4.57603 10.592 5.26183 10.8914 6.13499 11.0789C7.36193 11.3401 8.63807 11.3401 9.86501 11.0789C10.7382 10.8914 11.4227 10.592 11.75 10.2937"
    stroke="currentColor"
    stroke-linecap="round"
    stroke-linejoin="round"
  />
</svg>
