<svg width="16" height="16" viewBox="0 0 16 16" xmlns="http://www.w3.org/2000/svg">
<path fill-rule="evenodd" clip-rule="evenodd" d="M1.51999 7.99998C1.51999 7.36485 2.03486 6.84998 2.66999 6.84998H2.67999C3.31512 6.84998 3.82999 7.36485 3.82999 7.99998C3.82999 8.6351 3.31512 9.14998 2.67999 9.14998H2.66999C2.03486 9.14998 1.51999 8.6351 1.51999 7.99998Z"/>
<path fill-rule="evenodd" clip-rule="evenodd" d="M12.18 7.99998C12.18 7.36485 12.6949 6.84998 13.33 6.84998H13.34C13.9751 6.84998 14.49 7.36485 14.49 7.99998C14.49 8.6351 13.9751 9.14998 13.34 9.14998H13.33C12.6949 9.14998 12.18 8.6351 12.18 7.99998Z"/>
<path fill-rule="evenodd" clip-rule="evenodd" d="M5.07334 7.99998C5.07334 7.36485 5.58821 6.84998 6.22334 6.84998H6.23334C6.86846 6.84998 7.38334 7.36485 7.38334 7.99998C7.38334 8.6351 6.86846 9.14998 6.23334 9.14998H6.22334C5.58821 9.14998 5.07334 8.6351 5.07334 7.99998Z"/>
<path fill-rule="evenodd" clip-rule="evenodd" d="M8.62668 7.99998C8.62668 7.36485 9.14156 6.84998 9.77668 6.84998H9.78668C10.4218 6.84998 10.9367 7.36485 10.9367 7.99998C10.9367 8.6351 10.4218 9.14998 9.78668 9.14998H9.77668C9.14156 9.14998 8.62668 8.6351 8.62668 7.99998Z"/>
</svg>
