<svg
  width="16"
  height="16"
  viewBox="0 0 16 16"
  fill="none"
  xmlns="http://www.w3.org/2000/svg"
>
  <path
    d="M5.46391 8C5.46391 8.36819 5.76238 8.66667 6.13057 8.66667C6.49876 8.66667 6.79724 8.36819 6.79724 8C6.79724 7.63181 6.49876 7.33334 6.13057 7.33334C5.76238 7.33334 5.46391 7.63181 5.46391 8Z"
    stroke="currentColor"
    stroke-linecap="round"
    stroke-linejoin="round"
  />
  <path
    d="M9.20231 8C9.20231 8.36819 9.50079 8.66667 9.86898 8.66667C10.2372 8.66667 10.5356 8.36819 10.5356 8C10.5356 7.63181 10.2372 7.33334 9.86898 7.33334C9.50079 7.33334 9.20231 7.63181 9.20231 8Z"
    stroke="currentColor"
    stroke-linecap="round"
    stroke-linejoin="round"
  />
  <path
    d="M12.9407 8.00001C12.9407 8.3682 13.2392 8.66668 13.6074 8.66668C13.9756 8.66668 14.274 8.3682 14.274 8.00001C14.274 7.63182 13.9756 7.33334 13.6074 7.33334C13.2392 7.33334 12.9407 7.63182 12.9407 8.00001Z"
    stroke="currentColor"
    stroke-linecap="round"
    stroke-linejoin="round"
  />
  <path
    d="M1.72587 8C1.72587 8.36819 2.02435 8.66667 2.39254 8.66667C2.76073 8.66667 3.0592 8.36819 3.0592 8C3.0592 7.63181 2.76073 7.33334 2.39254 7.33334C2.02435 7.33334 1.72587 7.63181 1.72587 8Z"
    stroke="currentColor"
    stroke-linecap="round"
    stroke-linejoin="round"
  />
</svg>
