<svg
  width="16"
  height="16"
  viewBox="0 0 16 16"
  fill="none"
  xmlns="http://www.w3.org/2000/svg"
>
  <path
    d="M5.99992 8.66667C6.36811 8.66667 6.66659 8.36819 6.66659 8C6.66659 7.63181 6.36811 7.33334 5.99992 7.33334C5.63173 7.33334 5.33325 7.63181 5.33325 8C5.33325 8.36819 5.63173 8.66667 5.99992 8.66667Z"
    stroke="currentColor"
    stroke-linecap="round"
    stroke-linejoin="round"
  />
  <path
    d="M5.99992 4C6.36811 4 6.66659 3.70152 6.66659 3.33333C6.66659 2.96514 6.36811 2.66666 5.99992 2.66666C5.63173 2.66666 5.33325 2.96514 5.33325 3.33333C5.33325 3.70152 5.63173 4 5.99992 4Z"
    stroke="currentColor"
    stroke-linecap="round"
    stroke-linejoin="round"
  />
  <path
    d="M5.99992 13.3333C6.36811 13.3333 6.66659 13.0349 6.66659 12.6667C6.66659 12.2985 6.36811 12 5.99992 12C5.63173 12 5.33325 12.2985 5.33325 12.6667C5.33325 13.0349 5.63173 13.3333 5.99992 13.3333Z"
    stroke="currentColor"
    stroke-linecap="round"
    stroke-linejoin="round"
  />
  <path
    d="M9.99992 8.66667C10.3681 8.66667 10.6666 8.36819 10.6666 8C10.6666 7.63181 10.3681 7.33334 9.99992 7.33334C9.63173 7.33334 9.33325 7.63181 9.33325 8C9.33325 8.36819 9.63173 8.66667 9.99992 8.66667Z"
    stroke="currentColor"
    stroke-linecap="round"
    stroke-linejoin="round"
  />
  <path
    d="M9.99992 4C10.3681 4 10.6666 3.70152 10.6666 3.33333C10.6666 2.96514 10.3681 2.66666 9.99992 2.66666C9.63173 2.66666 9.33325 2.96514 9.33325 3.33333C9.33325 3.70152 9.63173 4 9.99992 4Z"
    stroke="currentColor"
    stroke-linecap="round"
    stroke-linejoin="round"
  />
  <path
    d="M9.99992 13.3333C10.3681 13.3333 10.6666 13.0349 10.6666 12.6667C10.6666 12.2985 10.3681 12 9.99992 12C9.63173 12 9.33325 12.2985 9.33325 12.6667C9.33325 13.0349 9.63173 13.3333 9.99992 13.3333Z"
    stroke="currentColor"
    stroke-linecap="round"
    stroke-linejoin="round"
  />
</svg>
