<svg
  width="16"
  height="16"
  viewBox="0 0 16 16"
  fill="none"
  xmlns="http://www.w3.org/2000/svg"
>
  <path
    d="M7.99982 12.2031H3.85541C3.46459 12.2031 3.08978 12.0478 2.81344 11.7715C2.53709 11.4951 2.38184 11.1203 2.38184 10.7295L2.38184 2.80909C2.38184 2.41827 2.53709 2.04346 2.81343 1.76712C3.08978 1.49077 3.46459 1.33552 3.8554 1.33552H9.93387L13.6178 5.01944L13.6178 10.7295C13.6178 11.1203 13.4625 11.4951 13.1862 11.7715C12.9098 12.0478 12.535 12.2031 12.1442 12.2031H7.99982ZM7.99982 12.2031L8.00934 14.6645M8.00934 14.6645H2.39136M8.00934 14.6645H13.6273"
    stroke="currentColor"
    stroke-linecap="round"
    stroke-linejoin="round"
  />
  <path
    d="M9.19751 1.88811V3.73007C9.19751 4.12088 9.35276 4.49569 9.62911 4.77204C9.90546 5.04839 10.2803 5.20364 10.6711 5.20364H13.6182"
    stroke="currentColor"
    stroke-linecap="round"
    stroke-linejoin="round"
  />
</svg>
