<svg width="16" height="16" viewBox="0 0 16 16" xmlns="http://www.w3.org/2000/svg">
<path fill-rule="evenodd" clip-rule="evenodd" d="M8.54999 2.30826C8.44266 2.30149 8.28373 2.30005 8.00705 2.30005H6.07999C5.56522 2.30005 5.21823 2.30055 4.95068 2.32241C4.69073 2.34365 4.56352 2.38176 4.4779 2.42539C4.26151 2.53564 4.08559 2.71157 3.97533 2.92796C3.93171 3.01357 3.89359 3.14078 3.87235 3.40074C3.85049 3.66828 3.84999 4.01527 3.84999 4.53005V5.77005C3.84999 6.28482 3.85049 8.63181 3.87235 8.89935C3.89359 9.15931 3.93171 9.28652 3.97533 9.37213C4.08559 9.58852 4.26151 9.76445 4.4779 9.8747C4.56352 9.91833 4.69073 9.95644 4.95068 9.97768C5.21823 9.99954 5.56522 10 6.07999 10H9.91999C10.4348 10 10.7817 9.99954 11.0493 9.97768C11.3093 9.95644 11.4365 9.91833 11.5221 9.8747C11.7385 9.76445 11.9144 9.58852 12.0246 9.37213C12.0683 9.28652 12.1064 9.15931 12.1276 8.89935C12.1495 8.63181 12.15 6.28482 12.15 5.77005V8.44298C12.15 8.1663 12.1485 6.00738 12.1418 5.90005L10.1399 5.90005C9.98934 5.90007 9.83998 5.90009 9.71298 5.88971C9.57273 5.87825 9.40358 5.85097 9.2325 5.7638C8.9973 5.64396 8.80607 5.45274 8.68623 5.21753C8.59906 5.04646 8.57178 4.8773 8.56032 4.73706C8.54995 4.61006 8.54997 4.4607 8.54999 4.31018L8.54999 2.30826ZM9.4535 1.21301C9.31609 1.15165 9.17311 1.10298 9.02635 1.06774C8.74276 0.999656 8.44909 0.999816 8.07097 1.00002C8.04993 1.00003 8.02863 1.00005 8.00705 1.00005L6.05346 1.00004C5.57198 1.00004 5.1716 1.00003 4.84482 1.02673C4.50447 1.05454 4.18714 1.11451 3.88771 1.26708C3.42671 1.50197 3.05191 1.87677 2.81702 2.33777C2.66446 2.63719 2.60448 2.95453 2.57667 3.29488C2.54997 3.62166 2.54998 4.02204 2.54999 4.50351V5.79658C2.54998 6.27805 2.54997 8.67843 2.57667 9.00521C2.60448 9.34556 2.66446 9.6629 2.81702 9.96232C3.05191 10.4233 3.42671 10.7981 3.88771 11.033C4.18714 11.1856 4.50447 11.2456 4.84482 11.2734C5.1716 11.3001 5.57198 11.3001 6.05346 11.3H7.99999H9.94652C10.428 11.3001 10.8284 11.3001 11.1552 11.2734C11.4955 11.2456 11.8128 11.1856 12.1123 11.033C12.5733 10.7981 12.9481 10.4233 13.183 9.96232C13.3355 9.6629 13.3955 9.34556 13.4233 9.00521C13.45 8.67843 13.45 6.27805 13.45 5.79657V8.44298C13.45 8.4214 13.45 8.4001 13.45 8.37906C13.4502 8.00094 13.4504 5.70727 13.3823 5.42369C13.3471 5.27691 13.2984 5.13392 13.237 4.9965C13.2327 4.98624 13.228 4.97611 13.2232 4.96612C13.1834 4.88018 13.1386 4.79649 13.089 4.71551C12.9366 4.46684 12.7288 4.25929 12.4613 3.99206C12.4464 3.9772 12.4313 3.96215 12.4161 3.94689L10.5031 2.03396C10.4879 2.0187 10.4728 2.00363 10.458 1.98875C10.1907 1.72123 9.98319 1.51346 9.73453 1.36108C9.65355 1.31146 9.56988 1.26666 9.48395 1.22686C9.47394 1.22199 9.46379 1.21737 9.4535 1.21301ZM9.84999 3.21928V4.29005C9.84999 4.44006 9.85034 4.53107 9.85372 4.59631C9.91896 4.59969 10.01 4.60005 10.16 4.60005H11.2308L9.84999 3.21928Z" />
<path fill-rule="evenodd" clip-rule="evenodd" d="M8 11C8.64999 11 8.65001 11.141 8.65001 11.5V11.9032C9.06921 12.0761 9.4044 12.4113 9.57733 12.8305H12.75C13.109 12.8305 13.4 13.1215 13.4 13.4805C13.4 13.8395 13.109 14.1305 12.75 14.1305H9.57733C9.32175 14.75 8.7118 15.1861 8.00001 15.1861C7.28822 15.1861 6.67827 14.75 6.42269 14.1305H3.25001C2.89103 14.1305 2.60001 13.8395 2.60001 13.4805C2.60001 13.1215 2.89103 12.8305 3.25001 12.8305H6.42269C6.59562 12.4113 6.93081 12.0761 7.35001 11.9032C7.35001 11.9032 7.35001 11.859 7.35001 11.5C7.35001 11.141 7.35001 11 8 11ZM8.00001 13.075C7.77603 13.075 7.59446 13.2565 7.59446 13.4805C7.59446 13.7045 7.77603 13.8861 8.00001 13.8861C8.22399 13.8861 8.40557 13.7045 8.40557 13.4805C8.40557 13.2565 8.22399 13.075 8.00001 13.075Z" />
</svg>
