<svg
  width="16"
  height="16"
  viewBox="0 0 16 16"
  fill="none"
  xmlns="http://www.w3.org/2000/svg"
>
  <path
    d="M8.08334 11.8333H4.33334C3.97971 11.8333 3.64058 11.6929 3.39053 11.4428C3.14048 11.1928 3 10.8536 3 10.5L3 3.33333C3 2.97971 3.14048 2.64057 3.39052 2.39052C3.64057 2.14048 3.97971 2 4.33333 2H9.83333L13.1667 5.33333L13.1667 10.5C13.1667 10.8536 13.0262 11.1928 12.7761 11.4428C12.5261 11.6929 12.187 11.8333 11.8333 11.8333H8.08334ZM8.08334 11.8333V14M8.08334 14H3M8.08334 14H13.1667"
    stroke="currentColor"
    stroke-linecap="round"
    stroke-linejoin="round"
  />
  <path
    d="M9.16675 2.5V4.16667C9.16675 4.52029 9.30722 4.85943 9.55727 5.10948C9.80732 5.35952 10.1465 5.5 10.5001 5.5H13.1667"
    stroke="currentColor"
    stroke-linecap="round"
    stroke-linejoin="round"
  />
</svg>
