<svg width="16" height="16" viewBox="0 0 16 16" fill="none" xmlns="http://www.w3.org/2000/svg">
<path fill-rule="evenodd" clip-rule="evenodd" d="M11.8737 1.20713C12.6798 0.401007 13.9868 0.401009 14.7929 1.20713C15.5991 2.01326 15.5991 3.32025 14.7929 4.12637L8.41777 10.5015C8.4047 10.5146 8.39177 10.5276 8.37894 10.5404C8.18682 10.7329 8.01924 10.9007 7.81731 11.0245C7.63986 11.1332 7.4464 11.2134 7.24403 11.262C7.01374 11.3172 6.77653 11.317 6.50458 11.3168C6.48643 11.3168 6.46812 11.3168 6.44965 11.3168H5.33329C4.97431 11.3168 4.68329 11.0257 4.68329 10.6668V9.55041C4.68329 9.53194 4.68328 9.51364 4.68326 9.49548C4.68302 9.22353 4.6828 8.98633 4.73809 8.75604C4.78668 8.55367 4.86681 8.3602 4.97556 8.18275C5.0993 7.98082 5.26718 7.81324 5.45965 7.62111C5.4725 7.60829 5.48545 7.59535 5.49851 7.58229L11.8737 1.20713ZM13.8737 2.12637C13.5752 1.82793 13.0914 1.82793 12.7929 2.12637L6.41775 8.50153C6.16527 8.75401 6.1169 8.8083 6.08399 8.862C6.04652 8.92314 6.01891 8.98979 6.00217 9.05952C5.98747 9.12076 5.98329 9.19335 5.98329 9.55041V10.0168H6.44965C6.80671 10.0168 6.8793 10.0126 6.94055 9.99787C7.01027 9.98113 7.07693 9.95352 7.13807 9.91606C7.19177 9.88315 7.24605 9.83478 7.49853 9.58229L13.8737 3.20713C14.1721 2.90869 14.1721 2.42482 13.8737 2.12637ZM5.17304 1.35033L7.32998 1.35033C7.68896 1.35033 7.97998 1.64135 7.97998 2.00033C7.97998 2.35932 7.68896 2.65033 7.32998 2.65033H5.19998C4.6292 2.65033 4.24021 2.65084 3.93931 2.67542C3.646 2.69938 3.4941 2.74295 3.38709 2.79747C3.13307 2.9269 2.92655 3.13342 2.79712 3.38744C2.74259 3.49445 2.69903 3.64636 2.67507 3.93967C2.65048 4.24056 2.64998 4.62955 2.64998 5.20033V10.8003C2.64998 11.3711 2.65048 11.7601 2.67507 12.061C2.69903 12.3543 2.74259 12.5062 2.79712 12.6132C2.92655 12.8672 3.13307 13.0738 3.38709 13.2032C3.4941 13.2577 3.646 13.3013 3.93931 13.3252C4.24021 13.3498 4.6292 13.3503 5.19998 13.3503H10.8C11.3708 13.3503 11.7597 13.3498 12.0606 13.3252C12.3539 13.3013 12.5059 13.2577 12.6129 13.2032C12.8669 13.0738 13.0734 12.8672 13.2028 12.6132C13.2574 12.5062 13.3009 12.3543 13.3249 12.061C13.3495 11.7601 13.35 11.3711 13.35 10.8003V8.67009C13.35 8.3111 13.641 8.02009 14 8.02009C14.359 8.02009 14.65 8.3111 14.65 8.67009V10.8273C14.65 11.3644 14.65 11.8067 14.6206 12.1669C14.59 12.5406 14.5246 12.8826 14.3611 13.2034C14.1071 13.702 13.7017 14.1074 13.2031 14.3615C12.8822 14.525 12.5402 14.5904 12.1665 14.6209C11.8064 14.6503 11.3641 14.6503 10.8269 14.6503H5.17304C4.63588 14.6503 4.19356 14.6503 3.83345 14.6209C3.45975 14.5904 3.11772 14.525 2.7969 14.3615C2.29827 14.1074 1.89287 13.702 1.63881 13.2034C1.47534 12.8826 1.40992 12.5406 1.37938 12.1669C1.34996 11.8067 1.34997 11.3644 1.34998 10.8273V5.17339C1.34997 4.63624 1.34996 4.19391 1.37938 3.8338C1.40992 3.4601 1.47534 3.11807 1.63881 2.79726C1.89287 2.29863 2.29827 1.89323 2.7969 1.63916C3.11772 1.4757 3.45975 1.41027 3.83345 1.37974C4.19356 1.35032 4.63588 1.35032 5.17304 1.35033Z" fill="currentColor"/>
</svg>
