<svg
  width="16"
  height="16"
  viewBox="0 0 16 16"
  fill="none"
  xmlns="http://www.w3.org/2000/svg"
>
  <path
    fill-rule="evenodd"
    clip-rule="evenodd"
    d="M3.37272 5.73594C2.20251 6.40462 1.64998 7.22936 1.64998 8.00001C1.64998 8.77065 2.20251 9.59539 3.37272 10.2641C4.52453 10.9223 6.15914 11.35 7.99998 11.35C9.84081 11.35 11.4754 10.9223 12.6272 10.2641C13.7974 9.59539 14.35 8.77065 14.35 8.00001C14.35 7.22936 13.7974 6.40462 12.6272 5.73594C11.4754 5.07776 9.84081 4.65001 7.99998 4.65001C6.15914 4.65001 4.52453 5.07776 3.37272 5.73594ZM2.72774 4.60722C4.10942 3.81769 5.97482 3.35001 7.99998 3.35001C10.0251 3.35001 11.8905 3.81769 13.2722 4.60722C14.6355 5.38625 15.65 6.56151 15.65 8.00001C15.65 9.4385 14.6355 10.6138 13.2722 11.3928C11.8905 12.1823 10.0251 12.65 7.99998 12.65C5.97482 12.65 4.10942 12.1823 2.72774 11.3928C1.36444 10.6138 0.349976 9.4385 0.349976 8.00001C0.349976 6.56151 1.36444 5.38625 2.72774 4.60722Z"
    fill="currentColor"
  />
</svg>
