<svg
  width="16"
  height="16"
  viewBox="0 0 16 16"
  fill="none"
  xmlns="http://www.w3.org/2000/svg"
>
  <path
    d="M7.11168 8C7.11168 8.49067 7.50945 8.88843 8.00012 8.88843C8.49078 8.88843 8.88855 8.49067 8.88855 8C8.88855 7.50933 8.49078 7.11157 8.00012 7.11157C7.50945 7.11157 7.11168 7.50933 7.11168 8Z"
    fill="currentColor"
    stroke="currentColor"
    stroke-linecap="round"
    stroke-linejoin="round"
  />
  <path
    d="M12.7244 8C12.7244 8.49067 13.1221 8.88843 13.6128 8.88843C14.1035 8.88843 14.5012 8.49067 14.5012 8C14.5012 7.50933 14.1035 7.11157 13.6128 7.11157C13.1221 7.11157 12.7244 7.50933 12.7244 8Z"
    fill="currentColor"
    stroke="currentColor"
    stroke-linecap="round"
    stroke-linejoin="round"
  />
  <path
    d="M1.49889 8C1.49889 8.49067 1.89666 8.88843 2.38732 8.88843C2.87799 8.88843 3.27576 8.49067 3.27576 8C3.27576 7.50933 2.87799 7.11157 2.38732 7.11157C1.89666 7.11157 1.49889 7.50933 1.49889 8Z"
    fill="currentColor"
    stroke="currentColor"
    stroke-linecap="round"
    stroke-linejoin="round"
  />
</svg>
