<svg width="16" height="16" viewBox="0 0 16 16" xmlns="http://www.w3.org/2000/svg">
<path fill-rule="evenodd" clip-rule="evenodd" d="M4.85345 2.54995H11.1465C11.628 2.54994 12.0284 2.54993 12.3551 2.57663C12.6955 2.60444 13.0128 2.66442 13.3123 2.81698C13.7733 3.05187 14.1481 3.42668 14.3829 3.88767C14.5537 4.22277 14.6092 4.58248 14.6323 4.97325C14.65 5.27327 14.65 5.63462 14.65 6.06176V9.94652C14.65 10.428 14.65 10.8283 14.6233 11.1551C14.5955 11.4955 14.5355 11.8128 14.3829 12.1122C14.1481 12.5732 13.7733 12.948 13.3123 13.1829C13.0128 13.3355 12.6955 13.3955 12.3551 13.4233C12.0284 13.45 11.628 13.45 11.1466 13.4499H4.8534C4.37194 13.45 3.97158 13.45 3.64481 13.4233C3.30446 13.3955 2.98712 13.3355 2.6877 13.1829C2.2267 12.948 1.8519 12.5732 1.61701 12.1122C1.46445 11.8128 1.40447 11.4955 1.37666 11.1551C1.34996 10.8283 1.34997 10.428 1.34998 9.94648L1.34998 6.06177C1.34997 5.63463 1.34997 5.27327 1.36768 4.97325C1.39075 4.58248 1.44627 4.22277 1.61701 3.88767C1.8519 3.42668 2.2267 3.05187 2.6877 2.81698C2.98712 2.66442 3.30446 2.60444 3.64481 2.57663C3.97159 2.54993 4.37197 2.54994 4.85345 2.54995ZM3.75067 3.87232C3.49071 3.89355 3.3635 3.93167 3.27789 3.97529C3.0615 4.08555 2.88557 4.26147 2.77532 4.47786C2.74859 4.53031 2.72431 4.59746 2.70458 4.69975L7.27168 7.89671C7.71243 8.20524 7.79628 8.25122 7.86695 8.26883C7.9543 8.29061 8.04566 8.29061 8.133 8.26883C8.20367 8.25122 8.28752 8.20524 8.72827 7.89672L13.2954 4.69975C13.2756 4.59746 13.2514 4.53031 13.2246 4.47786C13.1144 4.26147 12.9385 4.08555 12.7221 3.97529C12.6364 3.93167 12.5092 3.89355 12.2493 3.87232C11.9817 3.85046 11.6347 3.84995 11.12 3.84995H4.87998C4.3652 3.84995 4.01822 3.85046 3.75067 3.87232ZM13.35 6.24838L9.47377 8.96172C9.44977 8.97852 9.42594 8.99526 9.40228 9.01188C9.0783 9.23947 8.78371 9.44641 8.44743 9.53024C8.15362 9.60347 7.84633 9.60347 7.55252 9.53024C7.21624 9.44641 6.92165 9.23947 6.59767 9.01188C6.57401 8.99526 6.55018 8.97852 6.52618 8.96172L2.64998 6.24838V9.91995C2.64998 10.4347 2.65048 10.7817 2.67234 11.0493C2.69358 11.3092 2.7317 11.4364 2.77532 11.522C2.88557 11.7384 3.0615 11.9144 3.27789 12.0246C3.3635 12.0682 3.49071 12.1063 3.75067 12.1276C4.01822 12.1494 4.3652 12.15 4.87998 12.15H11.12C11.6347 12.15 11.9817 12.1494 12.2493 12.1276C12.5092 12.1063 12.6364 12.0682 12.7221 12.0246C12.9385 11.9144 13.1144 11.7384 13.2246 11.522C13.2683 11.4364 13.3064 11.3092 13.3276 11.0493C13.3495 10.7817 13.35 10.4347 13.35 9.91995V6.24838Z" />
</svg>
