<svg
  width="16"
  height="16"
  viewBox="0 0 16 16"
  fill="none"
  xmlns="http://www.w3.org/2000/svg"
>
  <path
    fill-rule="evenodd"
    clip-rule="evenodd"
    d="M4.28361 3.59802C4.28361 3.59802 5.19366 3.60238 5.77677 3.60517C6.35989 3.60797 6.68682 3.60953 7.26994 3.61232C7.26994 3.94455 6.96064 3.58705 7.26994 3.61232C7.26994 3.84612 6.99439 3.47193 7.26994 3.61232C7.26994 4.09217 7.26994 8.20117 7.26994 8.75139C7.44172 8.75139 12.1656 8.75139 12.4233 8.75139C12.4738 12.8651 12.4233 8.29003 12.4233 8.75139V11.7377C12.4233 12.1991 12.4233 12.579 12.3981 12.8883C12.3718 13.2093 12.3156 13.503 12.1752 13.7786C11.957 14.2068 11.6088 14.555 11.1806 14.7733C10.905 14.9136 10.6112 14.9698 10.2903 14.9961C9.98097 15.0213 9.60106 15.0213 9.1397 15.0213H4.28361C3.82225 15.0213 3.44234 15.0213 3.13304 14.9961C2.81207 14.9698 2.51831 14.9136 2.24276 14.7733C1.81449 14.555 1.46629 14.2068 1.24808 13.7786C1.10768 13.503 1.05148 13.2093 1.02526 12.8883C0.999987 12.579 0.999993 12.1991 1 11.7377V6.88163C0.999993 6.42027 0.999987 6.04037 1.02526 5.73107C1.05148 5.4101 1.10768 5.11633 1.24808 4.84078C1.46629 4.41251 1.81449 4.06432 2.24276 3.8461C2.51831 3.7057 2.81207 3.6495 3.13304 3.62328C3.44234 3.59801 3.82225 3.59802 4.28361 3.59802ZM2.11656 9.86795V11.7146C2.11656 12.2048 2.117 12.5389 2.13811 12.7974C2.1587 13.0493 2.19611 13.1798 2.24294 13.2717C2.35411 13.4898 2.53149 13.6672 2.74967 13.7784C2.84158 13.8252 2.97205 13.8626 3.22397 13.8832C3.48241 13.9043 3.81651 13.9048 4.30675 13.9048H6.15337V9.86795H2.11656ZM6.15337 8.75139H2.11656V6.90477C2.11656 6.41453 2.117 6.08043 2.13811 5.82199C2.1587 5.57007 2.19611 5.4396 2.24294 5.34769C2.35411 5.12952 2.53149 4.95213 2.74967 4.84097C2.84158 4.79414 2.97205 4.75672 3.22397 4.73614C3.48241 4.71502 3.81651 4.71459 4.30675 4.71459H6.15337V8.75139ZM7.26994 9.86795V13.9048H9.11656C9.6068 13.9048 9.94091 13.9043 10.1993 13.8832C10.4513 13.8626 10.5817 13.8252 10.6736 13.7784C10.8918 13.6672 11.0692 13.4898 11.1804 13.2717C11.2272 13.1798 11.2646 13.0493 11.2852 12.7974C11.3063 12.5389 11.3067 12.2048 11.3067 11.7146V9.86795H7.26994Z"
    fill="currentColor"
  />
  <path
    fill-rule="evenodd"
    clip-rule="evenodd"
    d="M13.7572 1.22675C13.4817 1.08636 13.1879 1.03016 12.867 1.00393C12.8373 1.00151 12.807 0.999321 12.776 0.99734C12.4841 0.978665 12.1335 0.97867 11.7164 0.978676H8.73006V7.24862H14.9747L15 6.69033V4.26229C15 3.80093 15 3.42102 14.9747 3.11172C14.9485 2.79075 14.8923 2.49698 14.7519 2.22143C14.6719 2.06434 14.5743 1.91802 14.4618 1.78494C14.2675 1.55521 14.0284 1.36493 13.7572 1.22675ZM9.84662 6.13205H13.8834V4.28542C13.8834 3.79519 13.883 3.46108 13.8619 3.20265C13.8413 2.95072 13.8039 2.82025 13.7571 2.72834C13.6459 2.51017 13.4685 2.33279 13.2503 2.22162C13.1584 2.17479 13.028 2.13737 12.776 2.11679C12.5176 2.09568 12.1835 2.09524 11.6933 2.09524H9.84662V6.13205Z"
    fill="currentColor"
  />
</svg>
