<svg
  width="15"
  height="14"
  viewBox="0 0 15 14"
  fill="none"
  xmlns="http://www.w3.org/2000/svg"
>
  <path
    fill-rule="evenodd"
    clip-rule="evenodd"
    d="M8.71362 0.0719795C8.43748 0.0719795 8.21362 0.295837 8.21362 0.57198V5.7144C8.21362 5.99054 8.43748 6.2144 8.71362 6.2144H13.856C14.1322 6.2144 14.356 5.99054 14.356 5.7144V2.03509C14.356 1.51444 14.1492 1.01512 13.7811 0.646961C13.4129 0.278807 12.9136 0.0719795 12.3929 0.0719795H8.71362ZM9.21362 5.2144V1.07198H12.3929C12.6484 1.07198 12.8933 1.17345 13.074 1.35407C13.2546 1.53469 13.356 1.77966 13.356 2.03509V5.2144H9.21362ZM2.14276 3.64319C1.78777 3.64319 1.5 3.93096 1.5 4.28595V7.7856H5.64242V3.64319H2.14276ZM5.64242 8.7856H1.5V12.2853C1.5 12.6402 1.78777 12.928 2.14276 12.928H5.64242V8.7856ZM10.1421 12.928H6.64242V8.7856H10.7848V12.2853C10.7848 12.6402 10.4971 12.928 10.1421 12.928ZM11.7747 8.18484C11.7281 7.957 11.5265 7.7856 11.2848 7.7856L6.64242 7.7856V3.14319C6.64242 2.86705 6.41856 2.64319 6.14242 2.64319H2.14276C1.23549 2.64319 0.5 3.37868 0.5 4.28595V8.2856V12.2853C0.5 13.1925 1.23549 13.928 2.14276 13.928H10.1421C11.0493 13.928 11.7848 13.1925 11.7848 12.2853V8.2856C11.7848 8.25109 11.7813 8.21739 11.7747 8.18484Z"
    fill="currentColor"
  />
</svg>
