<svg width="16" height="16" viewBox="0 0 16 16" xmlns="http://www.w3.org/2000/svg">
<path fill-rule="evenodd" clip-rule="evenodd" d="M5.17304 1.3501L5.99998 1.3501C6.35896 1.3501 6.64998 1.64111 6.64998 2.0001C6.64998 2.35908 6.35896 2.6501 5.99998 2.6501H5.19998C4.6292 2.6501 4.24021 2.6506 3.93931 2.67519C3.646 2.69915 3.4941 2.74272 3.38709 2.79724C3.13307 2.92667 2.92655 3.13319 2.79712 3.38721C2.74259 3.49422 2.69903 3.64613 2.67507 3.93943C2.65048 4.24033 2.64998 4.62932 2.64998 5.2001V10.8001C2.64998 11.3709 2.65048 11.7599 2.67507 12.0608C2.69903 12.3541 2.74259 12.506 2.79712 12.613C2.92655 12.867 3.13307 13.0735 3.38709 13.203C3.4941 13.2575 3.646 13.301 3.93931 13.325C4.24021 13.3496 4.6292 13.3501 5.19998 13.3501H10.8C11.3708 13.3501 11.7597 13.3496 12.0606 13.325C12.3539 13.301 12.5059 13.2575 12.6129 13.203C12.8669 13.0735 13.0734 12.867 13.2028 12.613C13.2574 12.506 13.3009 12.3541 13.3249 12.0608C13.3495 11.7599 13.35 11.3709 13.35 10.8001V10.0001C13.35 9.64111 13.641 9.3501 14 9.3501C14.359 9.3501 14.65 9.64111 14.65 10.0001V10.827C14.65 11.3642 14.65 11.8065 14.6206 12.1666C14.59 12.5403 14.5246 12.8824 14.3611 13.2032C14.1071 13.7018 13.7017 14.1072 13.2031 14.3613C12.8822 14.5247 12.5402 14.5902 12.1665 14.6207C11.8064 14.6501 11.3641 14.6501 10.8269 14.6501H5.17304C4.63588 14.6501 4.19356 14.6501 3.83345 14.6207C3.45975 14.5902 3.11772 14.5247 2.7969 14.3613C2.29827 14.1072 1.89287 13.7018 1.63881 13.2032C1.47534 12.8824 1.40992 12.5403 1.37938 12.1666C1.34996 11.8065 1.34997 11.3642 1.34998 10.827V5.17316C1.34997 4.636 1.34996 4.19368 1.37938 3.83357C1.40992 3.45987 1.47534 3.11784 1.63881 2.79702C1.89287 2.29839 2.29827 1.893 2.7969 1.63893C3.11772 1.47547 3.45975 1.41004 3.83345 1.37951C4.19356 1.35008 4.63588 1.35009 5.17304 1.3501ZM9.34996 2.0001C9.34996 1.64112 9.64098 1.3501 9.99996 1.3501H14C14.3589 1.3501 14.65 1.64112 14.65 2.0001L14.65 6.0001C14.65 6.35909 14.3589 6.6501 14 6.6501C13.641 6.6501 13.35 6.35909 13.35 6.00011L13.35 3.56934L8.4596 8.45972C8.20576 8.71356 7.7942 8.71356 7.54036 8.45972C7.28652 8.20588 7.28652 7.79432 7.54036 7.54048L12.4307 2.6501H9.99996C9.64098 2.6501 9.34996 2.35909 9.34996 2.0001Z" />
</svg>
