<svg
  width="16"
  height="16"
  viewBox="0 0 16 16"
  fill="none"
  xmlns="http://www.w3.org/2000/svg"
>
  <path
    d="M1.37468 8.232C1.31912 8.08232 1.31912 7.91768 1.37468 7.768C1.91581 6.4559 2.83435 5.33403 4.01386 4.5446C5.19336 3.75517 6.58071 3.33374 8.00001 3.33374C9.41932 3.33374 10.8067 3.75517 11.9862 4.5446C13.1657 5.33403 14.0842 6.4559 14.6253 7.768C14.6809 7.91768 14.6809 8.08232 14.6253 8.232C14.0842 9.5441 13.1657 10.666 11.9862 11.4554C10.8067 12.2448 9.41932 12.6663 8.00001 12.6663C6.58071 12.6663 5.19336 12.2448 4.01386 11.4554C2.83435 10.666 1.91581 9.5441 1.37468 8.232Z"
    stroke="currentColor"
    stroke-linecap="round"
    stroke-linejoin="round"
  />
  <path
    d="M8 10C9.10457 10 10 9.10457 10 8C10 6.89543 9.10457 6 8 6C6.89543 6 6 6.89543 6 8C6 9.10457 6.89543 10 8 10Z"
    stroke="currentColor"
    stroke-linecap="round"
    stroke-linejoin="round"
  />
</svg>
