<svg width="16" height="16" viewBox="0 0 16 16" xmlns="http://www.w3.org/2000/svg">
<path d="M2.20857 7.59368C2.46615 7.43269 2.80548 7.511 2.96647 7.76858C3.33441 8.35728 3.78294 8.87716 4.29825 9.30763C4.30779 9.31504 4.31715 9.3228 4.3263 9.33092C5.33321 10.1618 6.59176 10.6531 8.0003 10.6531C10.1462 10.6531 11.9439 9.51288 13.0341 7.76858C13.1951 7.511 13.5344 7.43269 13.792 7.59369C14.0496 7.75468 14.1279 8.094 13.9669 8.35158C13.6441 8.86811 13.2652 9.34224 12.8372 9.76205L13.6685 10.5933C13.8833 10.8081 13.8833 11.1563 13.6685 11.3711C13.4537 11.5859 13.1054 11.5859 12.8907 11.3711L11.9925 10.473C11.4209 10.883 10.7874 11.2076 10.1035 11.4274L10.4173 12.5986C10.4959 12.892 10.3218 13.1936 10.0284 13.2722C9.735 13.3508 9.43342 13.1767 9.35481 12.8833L9.0317 11.6773C8.69687 11.7272 8.3527 11.7531 8.0003 11.7531C7.64809 11.7531 7.3041 11.7272 6.96944 11.6774L6.64637 12.8833C6.56776 13.1767 6.26619 13.3509 5.97278 13.2722C5.67937 13.1936 5.50524 12.8921 5.58384 12.5987L5.89759 11.4275C5.21371 11.2079 4.58023 10.8833 4.00863 10.4734L3.11059 11.3715C2.8958 11.5862 2.54756 11.5862 2.33277 11.3715C2.11799 11.1567 2.11799 10.8084 2.33277 10.5936L3.16387 9.76254C2.73571 9.34261 2.35663 8.86831 2.03367 8.35158C1.87268 8.094 1.95099 7.75468 2.20857 7.59368Z" />
</svg>
