<svg width="16" height="16" viewBox="0 0 16 16" xmlns="http://www.w3.org/2000/svg">
<path d="M8.00047 9.84861C9.0214 9.84861 9.84903 9.02098 9.84903 8.00005C9.84903 6.97912 9.0214 6.15149 8.00047 6.15149C6.97954 6.15149 6.15192 6.97912 6.15192 8.00005C6.15192 9.02098 6.97954 9.84861 8.00047 9.84861Z" />
<path fill-rule="evenodd" clip-rule="evenodd" d="M2.13224 8.45751C1.95584 8.17777 1.95584 7.82228 2.13224 7.54254C3.35968 5.596 5.5289 4.30286 8.00016 4.30286C10.4714 4.30286 12.6406 5.596 13.8681 7.54254C14.0445 7.82228 14.0445 8.17777 13.8681 8.45751C12.6406 10.404 10.4714 11.6972 8.00016 11.6972C5.5289 11.6972 3.35968 10.404 2.13224 8.45751ZM8.00016 10.6972C5.91871 10.6972 4.08677 9.62587 3.02678 8.00002C4.08677 6.37418 5.91871 5.30286 8.00016 5.30286C10.0816 5.30286 11.9135 6.37418 12.9735 8.00002C11.9135 9.62587 10.0816 10.6972 8.00016 10.6972Z" />
</svg>
