<svg
  width="16"
  height="16"
  viewBox="0 0 16 16"
  fill="none"
  xmlns="http://www.w3.org/2000/svg"
>
  <path
    fill-rule="evenodd"
    clip-rule="evenodd"
    d="M10.7241 2.00202C11.6282 1.09796 13.0939 1.09796 13.998 2.00202C14.9021 2.90609 14.9021 4.37186 13.998 5.27593L11.3934 7.88058L11.8777 8.36494C12.1315 8.61878 12.1315 9.03034 11.8777 9.28418C11.6239 9.53802 11.2123 9.53802 10.9585 9.28418L10.2342 8.5599L4.79762 13.9965C4.02521 14.7689 2.77287 14.7689 2.00045 13.9965C1.22804 13.2241 1.22804 11.9717 2.00045 11.1993L7.43703 5.76273L6.71583 5.04154C6.46199 4.78769 6.46199 4.37614 6.71583 4.1223C6.96967 3.86846 7.38123 3.86846 7.63507 4.1223L8.11945 4.60668L10.7241 2.00202ZM8.35627 6.68197L2.91969 12.1185C2.65496 12.3833 2.65496 12.8125 2.91969 13.0772C3.18443 13.342 3.61365 13.342 3.87838 13.0772L9.31496 7.64066L8.35627 6.68197Z"
  />
</svg>
