<svg
  width="16"
  height="16"
  viewBox="0 0 16 16"
  fill="none"
  xmlns="http://www.w3.org/2000/svg"
>
  <path
    d="M1.50244 14.4976L2.15151 13.8485H4.09871L9.94032 8.00689"
    stroke="currentColor"
    stroke-linecap="round"
    stroke-linejoin="round"
  />
  <path
    d="M2.15149 13.8486V11.9014L7.99309 6.05975"
    stroke="currentColor"
    stroke-linecap="round"
    stroke-linejoin="round"
  />
  <path
    d="M9.94031 4.11255L12.1471 1.90572C12.4054 1.64751 12.7556 1.50244 13.1207 1.50244C13.4859 1.50244 13.8361 1.64751 14.0943 1.90572C14.3526 2.16394 14.4976 2.51415 14.4976 2.87932C14.4976 3.24449 14.3526 3.59471 14.0943 3.85292L11.8875 6.05975L12.1471 6.31938C12.275 6.44723 12.3764 6.59902 12.4456 6.76607C12.5148 6.93312 12.5504 7.11216 12.5504 7.29298C12.5504 7.47379 12.5148 7.65284 12.4456 7.81989C12.3764 7.98694 12.275 8.13872 12.1471 8.26658C12.0193 8.39443 11.8675 8.49585 11.7004 8.56505C11.5334 8.63424 11.3543 8.66986 11.1735 8.66986C10.9927 8.66986 10.8137 8.63424 10.6466 8.56505C10.4796 8.49585 10.3278 8.39443 10.1999 8.26658L7.73348 5.80012C7.60562 5.67227 7.5042 5.52048 7.43501 5.35343C7.36581 5.18638 7.3302 5.00734 7.3302 4.82652C7.3302 4.64571 7.36581 4.46666 7.43501 4.29961C7.5042 4.13256 7.60562 3.98078 7.73348 3.85292C7.86133 3.72507 8.01312 3.62365 8.18017 3.55445C8.34722 3.48526 8.52627 3.44964 8.70708 3.44964C8.88789 3.44964 9.06694 3.48526 9.23399 3.55445C9.40104 3.62365 9.55283 3.72507 9.68068 3.85292L9.94031 4.11255Z"
    stroke="currentColor"
    stroke-linecap="round"
    stroke-linejoin="round"
  />
</svg>
