<svg
  width="16"
  height="16"
  viewBox="0 0 16 16"
  fill="none"
  xmlns="http://www.w3.org/2000/svg"
>
  <path
    d="M6.30892 14.8197V10.1648H4.86575V8.02567H6.30892V7.104C6.30892 4.72108 7.38692 3.61683 9.72608 3.61683C9.96 3.61683 10.2832 3.64133 10.5824 3.67692C10.8066 3.69998 11.0289 3.73798 11.248 3.79067V5.73025C11.1213 5.71844 10.9943 5.71143 10.8671 5.70925C10.7246 5.70555 10.582 5.7038 10.4395 5.704C10.0271 5.704 9.70508 5.76 9.46242 5.88425C9.29928 5.9661 9.16214 6.09173 9.06633 6.24708C8.91583 6.49208 8.84817 6.8275 8.84817 7.26908V8.02567H11.1342L10.9091 9.25242L10.7417 10.1648H8.84817V14.9743C12.3143 14.5555 15 11.6044 15 8.02567C15 4.15992 11.8657 1.02567 8 1.02567C4.13425 1.02567 1 4.15992 1 8.02567C1 11.3087 3.25983 14.0632 6.30892 14.8197Z"
    fill="currentColor"
  />
</svg>
