<svg
  width="16"
  height="16"
  viewBox="0 0 16 16"
  fill="none"
  xmlns="http://www.w3.org/2000/svg"
>
  <path
    fill-rule="evenodd"
    clip-rule="evenodd"
    fill="currentColor"
    d="M6.83774 2.68715C6.77517 2.66557 6.69128 2.65709 6.21341 2.65709H3.92004C3.57328 2.65709 3.35231 2.65759 3.18481 2.67128C3.02491 2.68434 2.97179 2.70611 2.95034 2.71703C2.84686 2.76976 2.76272 2.8539 2.70999 2.95739C2.69906 2.97883 2.6773 3.03195 2.66423 3.19186C2.65055 3.35935 2.65004 3.58033 2.65004 3.92709V4.026H7.6334C7.51738 3.7456 7.40506 3.47969 7.34124 3.34233C7.16025 2.9528 7.09224 2.86214 7.04324 2.81416C6.985 2.75711 6.9148 2.71373 6.83774 2.68715ZM9.03835 4.026C9.00603 3.94654 8.97066 3.85981 8.93384 3.76996C8.79056 3.42032 8.61715 3.00322 8.52019 2.79454C8.34379 2.4149 8.19128 2.11891 7.95288 1.88541C7.75697 1.69354 7.52086 1.54761 7.26163 1.4582C6.96533 1.356 6.64369 1.35648 6.29053 1.35701C6.26499 1.35705 6.23929 1.35709 6.21341 1.35709L3.8954 1.35709C3.58043 1.35707 3.30577 1.35706 3.07895 1.37559C2.83865 1.39523 2.59541 1.43886 2.36016 1.55872C2.01206 1.73609 1.72904 2.0191 1.55168 2.3672C1.43181 2.60245 1.38818 2.8457 1.36855 3.086C1.35002 3.31281 1.35003 3.58747 1.35004 3.90245L1.35004 10.4797C1.35003 10.9612 1.35002 11.3615 1.37672 11.6883C1.40453 12.0287 1.46451 12.346 1.61707 12.6454C1.85196 13.1064 2.22676 13.4812 2.68776 13.7161C2.98718 13.8687 3.30452 13.9287 3.64487 13.9565C3.97165 13.9832 4.37203 13.9832 4.85351 13.9831H11.1466C11.628 13.9832 12.0284 13.9832 12.3552 13.9565C12.6955 13.9287 13.0129 13.8687 13.3123 13.7161C13.7733 13.4812 14.1481 13.1064 14.383 12.6454C14.5356 12.346 14.5955 12.0287 14.6233 11.6883C14.65 11.3615 14.65 10.9612 14.65 10.4797L14.65 7.52948C14.65 7.048 14.6501 6.64762 14.6234 6.32084C14.5955 5.98049 14.5356 5.66315 14.383 5.36373C14.1481 4.90273 13.7733 4.52793 13.3123 4.29304C13.0129 4.14047 12.6956 4.08049 12.3552 4.05269C12.0284 4.02599 11.628 4.02599 11.1466 4.026L9.03835 4.026ZM8.5853 5.326C8.59524 5.32623 8.6052 5.32623 8.61518 5.326H11.12C11.6348 5.326 11.9818 5.32651 12.2493 5.34837C12.5093 5.36961 12.6365 5.40772 12.7221 5.45135C12.9385 5.5616 13.1144 5.73753 13.2247 5.95391C13.2683 6.03953 13.3064 6.16674 13.3277 6.4267C13.3495 6.69424 13.35 7.04123 13.35 7.556L13.35 10.4531C13.35 10.9679 13.3495 11.3149 13.3277 11.5825C13.3064 11.8424 13.2683 11.9696 13.2247 12.0552C13.1144 12.2716 12.9385 12.4476 12.7221 12.5578C12.6365 12.6014 12.5093 12.6395 12.2493 12.6608C11.9818 12.6826 11.6348 12.6831 11.12 12.6831H4.88004C4.36526 12.6831 4.01828 12.6826 3.75073 12.6608C3.49077 12.6395 3.36356 12.6014 3.27795 12.5578C3.06156 12.4476 2.88563 12.2716 2.77538 12.0552C2.73176 11.9696 2.69364 11.8424 2.6724 11.5825C2.65054 11.3149 2.65004 10.9679 2.65004 10.4532L2.65004 5.326H8.5853Z"
  />
</svg>
