<svg
  width="16"
  height="16"
  viewBox="0 0 16 16"
  fill="none"
  xmlns="http://www.w3.org/2000/svg"
>
  <path
    d="M13.1841 5.5H13.9154C14.3296 5.5 14.6652 5.16421 14.6652 4.75V4V3.25C14.6652 2.83579 14.3294 2.5 13.9152 2.5H12.9741H11.2831L7.90094 2.5H4.61807H2.97664H2.0852C1.67099 2.5 1.33521 2.83579 1.33521 3.25V4V4.75C1.33521 5.16421 1.67076 5.5 2.08498 5.5H2.81632H13.1841Z"
    stroke="currentColor"
    stroke-linecap="round"
    stroke-linejoin="round"
  />
  <path
    d="M13.1841 10.5H13.9155C14.3297 10.5 14.6653 10.1642 14.6653 9.75V9V8.25C14.6653 7.83579 14.3295 7.5 13.9153 7.5H12.9742H11.2831L7.90085 7.5H4.61791H2.97643H2.08496C1.67075 7.5 1.33496 7.83579 1.33496 8.25V9V9.75C1.33496 10.1642 1.67052 10.5 2.08473 10.5H2.81611H13.1841Z"
    stroke="currentColor"
    stroke-linecap="round"
    stroke-linejoin="round"
  />
  <path
    d="M6.61296 14.5H6.83527C7.11141 14.5 7.33521 14.2761 7.33521 14V13.5V13C7.33521 12.7239 7.11135 12.5 6.83521 12.5H6.51057H5.68594H4.03668H2.43582H1.63539H1.33496C1.05882 12.5 0.834961 12.7239 0.834961 13V13.5V14C0.834961 14.2761 1.05876 14.5 1.3349 14.5H1.55721H6.61296Z"
    fill="currentColor"
  />
</svg>
