<svg
  width="16"
  height="16"
  viewBox="0 0 16 16"
  fill="none"
  xmlns="http://www.w3.org/2000/svg"
>
  <path
    d="M3.33337 2.66666H4.00004C4.53047 2.66666 5.03918 2.87738 5.41425 3.25245C5.78933 3.62752 6.00004 4.13623 6.00004 4.66666C6.00004 4.13623 6.21075 3.62752 6.58583 3.25245C6.9609 2.87738 7.46961 2.66666 8.00004 2.66666H8.66671"
    stroke="currentColor"
    stroke-linecap="round"
    stroke-linejoin="round"
  />
  <path
    d="M8.66671 13.3333H8.00004C7.46961 13.3333 6.9609 13.1226 6.58583 12.7475C6.21075 12.3725 6.00004 11.8638 6.00004 11.3333C6.00004 11.8638 5.78933 12.3725 5.41425 12.7475C5.03918 13.1226 4.53047 13.3333 4.00004 13.3333H3.33337"
    stroke="currentColor"
    stroke-linecap="round"
    stroke-linejoin="round"
  />
  <path
    d="M3.33337 10.6667H2.66671C2.31309 10.6667 1.97395 10.5262 1.7239 10.2761C1.47385 10.0261 1.33337 9.68696 1.33337 9.33334V6.66667C1.33337 6.31305 1.47385 5.97391 1.7239 5.72386C1.97395 5.47381 2.31309 5.33334 2.66671 5.33334H3.33337"
    stroke="currentColor"
    stroke-linecap="round"
    stroke-linejoin="round"
  />
  <path
    d="M8.66663 5.33334H13.3333C13.6869 5.33334 14.0261 5.47381 14.2761 5.72386C14.5262 5.97391 14.6666 6.31305 14.6666 6.66667V9.33334C14.6666 9.68696 14.5262 10.0261 14.2761 10.2761C14.0261 10.5262 13.6869 10.6667 13.3333 10.6667H8.66663"
    stroke="currentColor"
    stroke-linecap="round"
    stroke-linejoin="round"
  />
  <path
    d="M6 4.66666V11.3333"
    stroke="currentColor"
    stroke-linecap="round"
    stroke-linejoin="round"
  />
</svg>
