<svg width="16" height="16" viewBox="0 0 16 16" xmlns="http://www.w3.org/2000/svg">
<path fill-rule="evenodd" clip-rule="evenodd" d="M3.3 3.3V4.7H12.7V3.3H3.3ZM13.6201 5.78456C13.8515 5.60141 14 5.31804 14 5V3C14 2.44772 13.5523 2 13 2H3C2.44772 2 2 2.44772 2 3V5C2 5.31804 2.14847 5.60141 2.37989 5.78456C2.55033 5.91946 2.76576 6 3 6H13C13.2342 6 13.4497 5.91946 13.6201 5.78456ZM13.6201 7.21544C13.4497 7.08054 13.2342 7 13 7H3C2.76576 7 2.55033 7.08054 2.37989 7.21544C2.14847 7.39859 2 7.68196 2 8V10C2 10.318 2.14848 10.6014 2.37989 10.7846C2.55033 10.9195 2.76576 11 3 11H13C13.5523 11 14 10.5523 14 10V8C14 7.68196 13.8515 7.39859 13.6201 7.21544ZM8.71414 12.3C8.53265 12.1149 8.27974 12 8 12H3C2.76576 12 2.55033 12.0805 2.37989 12.2154C2.14848 12.3986 2 12.682 2 13C2 13.5523 2.44772 14 3 14H8C8.55228 14 9 13.5523 9 13C9 12.7275 8.89097 12.4804 8.71414 12.3ZM3.3 8.3V9.7H12.7V8.3H3.3Z" />
</svg>
