<svg width="16" height="16" viewBox="0 0 16 16" xmlns="http://www.w3.org/2000/svg">
<path fill-rule="evenodd" clip-rule="evenodd" d="M1.34998 4.6601C1.34998 3.9366 1.93648 3.3501 2.65998 3.3501H13.3399C14.0634 3.3501 14.6499 3.9366 14.6499 4.6601V11.34C14.6499 12.0635 14.0634 12.65 13.3399 12.65H2.65998C1.93648 12.65 1.34998 12.0635 1.34998 11.34V4.6601ZM2.65048 4.65644C2.65034 4.65676 2.64998 4.65762 2.64998 4.6601V11.34C2.64998 11.3425 2.65034 11.3434 2.65048 11.3437L2.65049 11.3437C2.6508 11.3444 2.65153 11.3457 2.6529 11.3471C2.65428 11.3485 2.65556 11.3492 2.65628 11.3495C2.65658 11.3496 2.6574 11.35 2.65998 11.35H13.3399C13.3425 11.35 13.3433 11.3496 13.3436 11.3495C13.3444 11.3492 13.3456 11.3485 13.347 11.3471C13.3484 11.3457 13.3491 11.3444 13.3494 11.3437L13.3494 11.3437C13.3496 11.3434 13.3499 11.3425 13.3499 11.34V4.6601C13.3499 4.65752 13.3495 4.6567 13.3494 4.6564C13.3491 4.65568 13.3484 4.6544 13.347 4.65303C13.3456 4.65165 13.3444 4.65092 13.3436 4.65062L13.3436 4.6506C13.3433 4.65046 13.3424 4.6501 13.3399 4.6501H2.65998C2.65749 4.6501 2.65664 4.65046 2.65632 4.6506L2.65628 4.65062C2.65556 4.65092 2.65428 4.65165 2.6529 4.65303C2.65153 4.6544 2.6508 4.65568 2.65049 4.6564L2.65048 4.65644ZM4.66743 6.01518C5.02641 6.01518 5.31743 6.30619 5.31743 6.66518V9.33518C5.31743 9.69416 5.02641 9.98518 4.66743 9.98518C4.30844 9.98518 4.01743 9.69416 4.01743 9.33518V6.66518C4.01743 6.30619 4.30844 6.01518 4.66743 6.01518Z" />
</svg>
