<svg width="16" height="16" viewBox="0 0 16 16" xmlns="http://www.w3.org/2000/svg">
<path fill-rule="evenodd" clip-rule="evenodd" d="M1.34998 3.32501C1.34998 2.60152 1.93648 2.01501 2.65998 2.01501H13.3399C14.0634 2.01501 14.6499 2.60152 14.6499 3.32501V9.33267C14.6499 9.33304 14.6499 9.33341 14.6499 9.33379V12.675C14.6499 13.3985 14.0634 13.985 13.3399 13.985H2.65998C1.93648 13.985 1.34998 13.3985 1.34998 12.675V3.32501ZM13.3499 9.06399V3.32501C13.3499 3.32243 13.3495 3.32161 13.3494 3.32132C13.3491 3.3206 13.3484 3.31932 13.347 3.31794C13.3456 3.31657 13.3444 3.31584 13.3436 3.31553L13.3436 3.31552C13.3433 3.31538 13.3424 3.31501 13.3399 3.31501H2.65998C2.65749 3.31501 2.65664 3.31538 2.65632 3.31552L2.65628 3.31553C2.65556 3.31584 2.65428 3.31657 2.6529 3.31794C2.65153 3.31932 2.6508 3.3206 2.65049 3.32132L2.65048 3.32136C2.65034 3.32168 2.64998 3.32253 2.64998 3.32501V12.675C2.64998 12.6776 2.65037 12.6784 2.65049 12.6787C2.6508 12.6794 2.65153 12.6807 2.6529 12.6821C2.65428 12.6835 2.65556 12.6842 2.65628 12.6845L2.65632 12.6845C2.65664 12.6846 2.65749 12.685 2.65998 12.685H9.72892L13.3499 9.06399ZM11.5674 12.685L13.3499 10.9025V12.675C13.3499 12.6776 13.3495 12.6784 13.3494 12.6787C13.3491 12.6794 13.3484 12.6807 13.347 12.6821C13.3456 12.6835 13.3444 12.6842 13.3436 12.6845C13.3436 12.6845 13.3434 12.6846 13.3432 12.6847C13.3427 12.6848 13.3417 12.685 13.3399 12.685H11.5674ZM4.66743 4.67363C5.02641 4.67363 5.31743 4.96464 5.31743 5.32363V7.99363C5.31743 8.35261 5.02641 8.64363 4.66743 8.64363C4.30844 8.64363 4.01743 8.35261 4.01743 7.99363V5.32363C4.01743 4.96464 4.30844 4.67363 4.66743 4.67363Z" />
</svg>
