<svg width="16" height="16" viewBox="0 0 16 16" xmlns="http://www.w3.org/2000/svg">
<path d="M12.67 14.6501H12.14C11.32 14.6501 10.86 14.6501 10.44 14.4301C10.06 14.2401 9.76 13.9401 9.57 13.5601C9.35 13.1401 9.35 12.6801 9.35 11.8601V4.13009C9.35 3.31009 9.35 2.85009 9.57 2.43009C9.76 2.05009 10.06 1.75009 10.44 1.56009C10.86 1.34009 11.32 1.34009 12.14 1.34009H12.67C13.03 1.34009 13.32 1.63009 13.32 1.99009C13.32 2.35009 13.03 2.64009 12.67 2.64009H12.14C11.56 2.64009 11.18 2.64009 11.03 2.71009C10.9 2.78009 10.8 2.88009 10.73 3.01009C10.66 3.16009 10.66 3.54009 10.66 4.12009V11.8501C10.66 12.4301 10.66 12.8101 10.73 12.9601C10.79 13.0901 10.9 13.1901 11.03 13.2601C11.18 13.3301 11.56 13.3301 12.14 13.3301H12.67C13.03 13.3301 13.32 13.6201 13.32 13.9801C13.32 14.3401 13.03 14.6301 12.67 14.6301V14.6501ZM3.87 14.6501H3.34C2.98 14.6501 2.69 14.3601 2.69 14.0001C2.69 13.6401 2.98 13.3501 3.34 13.3501H3.87C4.45 13.3501 4.83 13.3501 4.98 13.2801C5.11 13.2101 5.21 13.1101 5.28 12.9801C5.35 12.8301 5.35 12.4501 5.35 11.8701V4.13009C5.35 3.55009 5.35 3.17009 5.28 3.02009C5.21 2.89009 5.11 2.79009 4.98 2.72009C4.83 2.65009 4.45 2.65009 3.87 2.65009H3.34C2.98 2.65009 2.69 2.36009 2.69 2.00009C2.69 1.64009 2.98 1.35009 3.34 1.35009H3.87C4.69 1.35009 5.15 1.35009 5.57 1.57009C5.95 1.76009 6.24 2.06009 6.44 2.44009C6.66 2.86009 6.66 3.32009 6.66 4.14009V11.8701C6.66 12.6901 6.66 13.1501 6.44 13.5701C6.25 13.9401 5.95 14.2401 5.57 14.4401C5.15 14.6601 4.69 14.6601 3.87 14.6601V14.6501Z"/>
</svg>
