<svg width="16" height="16" viewBox="0 0 16 16" xmlns="http://www.w3.org/2000/svg">
<path d="M14.65 3.33506V3.86506C14.65 4.68506 14.65 5.14506 14.43 5.56506C14.24 5.94506 13.94 6.24506 13.56 6.43506C13.14 6.65506 12.68 6.65506 11.86 6.65506L4.12997 6.65506C3.30997 6.65506 2.84997 6.65506 2.42997 6.43506C2.04997 6.24506 1.74997 5.94506 1.55997 5.56506C1.33997 5.14506 1.33997 4.68506 1.33997 3.86506L1.33997 3.33506C1.33997 2.97506 1.62997 2.68506 1.98997 2.68506C2.34997 2.68506 2.63997 2.97506 2.63997 3.33506V3.86506C2.63997 4.44506 2.63997 4.82506 2.70997 4.97506C2.77997 5.10506 2.87997 5.20506 3.00997 5.27506C3.15997 5.34506 3.53997 5.34506 4.11997 5.34506L11.85 5.34506C12.43 5.34506 12.81 5.34506 12.96 5.27506C13.09 5.21506 13.19 5.10506 13.26 4.97506C13.33 4.82506 13.33 4.44506 13.33 3.86506V3.33506C13.33 2.97506 13.62 2.68506 13.98 2.68506C14.34 2.68506 14.63 2.97506 14.63 3.33506H14.65ZM14.65 12.1351V12.6651C14.65 13.0251 14.36 13.3151 14 13.3151C13.64 13.3151 13.35 13.0251 13.35 12.6651V12.1351C13.35 11.5551 13.35 11.1751 13.28 11.0251C13.21 10.8951 13.11 10.7951 12.98 10.7251C12.83 10.6551 12.45 10.6551 11.87 10.6551H4.12997C3.54997 10.6551 3.16997 10.6551 3.01997 10.7251C2.88997 10.7951 2.78997 10.8951 2.71997 11.0251C2.64997 11.1751 2.64997 11.5551 2.64997 12.1351V12.6651C2.64997 13.0251 2.35997 13.3151 1.99997 13.3151C1.63997 13.3151 1.34997 13.0251 1.34997 12.6651L1.34997 12.1351C1.34997 11.3151 1.34997 10.8551 1.56997 10.4351C1.75997 10.0551 2.05997 9.76506 2.43997 9.56506C2.85997 9.34506 3.31997 9.34506 4.13997 9.34506H11.87C12.69 9.34506 13.15 9.34506 13.57 9.56506C13.94 9.75506 14.24 10.0551 14.44 10.4351C14.66 10.8551 14.66 11.3151 14.66 12.1351H14.65Z"/>
</svg>
