<svg
  width="16"
  height="16"
  viewBox="0 0 16 16"
  fill="none"
  xmlns="http://www.w3.org/2000/svg"
>
  <path
    d="M8.14667 1.33333H7.85333C7.49971 1.33333 7.16057 1.47381 6.91053 1.72386C6.66048 1.9739 6.52 2.31304 6.52 2.66667V2.78667C6.51976 3.02048 6.45804 3.25013 6.34103 3.45256C6.22401 3.65499 6.05583 3.82309 5.85333 3.94L5.56667 4.10667C5.36398 4.22369 5.13405 4.2853 4.9 4.2853C4.66595 4.2853 4.43603 4.22369 4.23333 4.10667L4.13333 4.05333C3.82738 3.87684 3.46389 3.82896 3.12267 3.9202C2.78145 4.01145 2.49037 4.23436 2.31333 4.54L2.16667 4.79333C1.99018 5.09929 1.9423 5.46277 2.03354 5.804C2.12478 6.14522 2.34769 6.4363 2.65333 6.61333L2.75333 6.68C2.95485 6.79634 3.12241 6.96339 3.23937 7.16455C3.35632 7.36571 3.4186 7.59398 3.42 7.82666V8.16666C3.42093 8.40161 3.35977 8.63263 3.2427 8.83634C3.12563 9.04004 2.95681 9.20919 2.75333 9.32666L2.65333 9.38666C2.34769 9.5637 2.12478 9.85478 2.03354 10.196C1.9423 10.5372 1.99018 10.9007 2.16667 11.2067L2.31333 11.46C2.49037 11.7656 2.78145 11.9885 3.12267 12.0798C3.46389 12.171 3.82738 12.1232 4.13333 11.9467L4.23333 11.8933C4.43603 11.7763 4.66595 11.7147 4.9 11.7147C5.13405 11.7147 5.36398 11.7763 5.56667 11.8933L5.85333 12.06C6.05583 12.1769 6.22401 12.345 6.34103 12.5474C6.45804 12.7499 6.51976 12.9795 6.52 13.2133V13.3333C6.52 13.687 6.66048 14.0261 6.91053 14.2761C7.16057 14.5262 7.49971 14.6667 7.85333 14.6667H8.14667C8.50029 14.6667 8.83943 14.5262 9.08948 14.2761C9.33953 14.0261 9.48 13.687 9.48 13.3333V13.2133C9.48024 12.9795 9.54196 12.7499 9.65898 12.5474C9.77599 12.345 9.94418 12.1769 10.1467 12.06L10.4333 11.8933C10.636 11.7763 10.866 11.7147 11.1 11.7147C11.3341 11.7147 11.564 11.7763 11.7667 11.8933L11.8667 11.9467C12.1726 12.1232 12.5361 12.171 12.8773 12.0798C13.2186 11.9885 13.5096 11.7656 13.6867 11.46L13.8333 11.2C14.0098 10.894 14.0577 10.5306 13.9665 10.1893C13.8752 9.84811 13.6523 9.55703 13.3467 9.38L13.2467 9.32666C13.0432 9.20919 12.8744 9.04004 12.7573 8.83634C12.6402 8.63263 12.5791 8.40161 12.58 8.16666V7.83333C12.5791 7.59839 12.6402 7.36736 12.7573 7.16366C12.8744 6.95996 13.0432 6.7908 13.2467 6.67333L13.3467 6.61333C13.6523 6.4363 13.8752 6.14522 13.9665 5.804C14.0577 5.46277 14.0098 5.09929 13.8333 4.79333L13.6867 4.54C13.5096 4.23436 13.2186 4.01145 12.8773 3.9202C12.5361 3.82896 12.1726 3.87684 11.8667 4.05333L11.7667 4.10667C11.564 4.22369 11.3341 4.2853 11.1 4.2853C10.866 4.2853 10.636 4.22369 10.4333 4.10667L10.1467 3.94C9.94418 3.82309 9.77599 3.65499 9.65898 3.45256C9.54196 3.25013 9.48024 3.02048 9.48 2.78667V2.66667C9.48 2.31304 9.33953 1.9739 9.08948 1.72386C8.83943 1.47381 8.50029 1.33333 8.14667 1.33333Z"
    stroke="currentColor"
    stroke-linecap="round"
    stroke-linejoin="round"
  />
  <path
    d="M8 10C9.10457 10 10 9.10457 10 8C10 6.89543 9.10457 6 8 6C6.89543 6 6 6.89543 6 8C6 9.10457 6.89543 10 8 10Z"
    stroke="currentColor"
    stroke-linecap="round"
    stroke-linejoin="round"
  />
</svg>
