<svg width="22" height="22" viewBox="0 0 22 22" fill="none" xmlns="http://www.w3.org/2000/svg">
  <path fill-rule="evenodd" clip-rule="evenodd" d="M11 1C5.475 1 1 5.475 1 11C1 15.425 3.8625 19.1625 7.8375 20.4875C8.3375 20.575 8.525 20.275 8.525 20.0125C8.525 19.775 8.5125 18.9875 8.5125 18.15C6 18.6125 5.35 17.5375 5.15 16.975C5.0375 16.6875 4.55 15.8 4.125 15.5625C3.775 15.375 3.275 14.9125 4.1125 14.9C4.9 14.8875 5.4625 15.625 5.65 15.925C6.55 17.4375 7.9875 17.0125 8.5625 16.75C8.65 16.1 8.9125 15.6625 9.2 15.4125C6.975 15.1625 4.65 14.3 4.65 10.475C4.65 9.3875 5.0375 8.4875 5.675 7.7875C5.575 7.5375 5.225 6.5125 5.775 5.1375C5.775 5.1375 6.6125 4.875 8.525 6.1625C9.325 5.9375 10.175 5.825 11.025 5.825C11.875 5.825 12.725 5.9375 13.525 6.1625C15.4375 4.8625 16.275 5.1375 16.275 5.1375C16.825 6.5125 16.475 7.5375 16.375 7.7875C17.0125 8.4875 17.4 9.375 17.4 10.475C17.4 14.3125 15.0625 15.1625 12.8375 15.4125C13.2 15.725 13.5125 16.325 13.5125 17.2625C13.5125 18.6 13.5 19.675 13.5 20.0125C13.5 20.275 13.6875 20.5875 14.1875 20.4875C16.1727 19.8173 17.8977 18.5415 19.1198 16.8395C20.3419 15.1376 20.9995 13.0953 21 11C21 5.475 16.525 1 11 1Z" fill="#11181C"/>
</svg>
  