<svg
  width="16"
  height="16"
  viewBox="0 0 16 16"
  fill="none"
  xmlns="http://www.w3.org/2000/svg"
>
  <path
    d="M14.7199 8.1591C14.7199 7.66274 14.6753 7.18546 14.5926 6.72728H7.99988V9.43819H11.7672C11.6017 10.31 11.1053 11.0482 10.3608 11.5446V13.3073H12.6326C13.9562 12.0855 14.7199 10.2909 14.7199 8.1591Z"
    fill="currentColor"
  />
  <path
    d="M7.99995 15C9.88995 15 11.4745 14.3764 12.6327 13.3073L10.3609 11.5446C9.73722 11.9646 8.94176 12.2191 7.99995 12.2191C6.17995 12.2191 4.63358 10.9909 4.07995 9.33637H1.75085V11.1436C2.90267 13.4282 5.26358 15 7.99995 15Z"
    fill="currentColor"
  />
  <path
    d="M4.08 9.33001C3.94 8.91001 3.85727 8.46455 3.85727 8.00001C3.85727 7.53546 3.94 7.09001 4.08 6.67001V4.86274H1.75091C1.27364 5.80455 1 6.86728 1 8.00001C1 9.13274 1.27364 10.1955 1.75091 11.1373L3.56455 9.72455L4.08 9.33001Z"
    fill="currentColor"
  />
  <path
    d="M7.99995 3.78728C9.03085 3.78728 9.94722 4.14365 10.679 4.83092L12.6836 2.82637C11.4681 1.69365 9.88995 1.00001 7.99995 1.00001C5.26358 1.00001 2.90267 2.57183 1.75085 4.86274L4.07995 6.67001C4.63358 5.01547 6.17995 3.78728 7.99995 3.78728Z"
    fill="currentColor"
  />
</svg>
