<svg width="22" height="22" viewBox="0 0 22 22" xmlns="http://www.w3.org/2000/svg">
  <path d="M11 9.18195V13.0547H16.3818C16.1455 14.3001 15.4363 15.3547 14.3727 16.0638L17.6181 18.582C19.509 16.8366 20.5999 14.2729 20.5999 11.2275C20.5999 10.5184 20.5363 9.83654 20.4181 9.18205L11 9.18195Z" fill="#4285F4"/>
  <path d="M5.39555 12.9035L4.66358 13.4638L2.07263 15.4819C3.71808 18.7455 7.09056 21.0001 10.9996 21.0001C13.6996 21.0001 15.9632 20.1092 17.6177 18.582L14.3723 16.0638C13.4814 16.6638 12.345 17.0274 10.9996 17.0274C8.39963 17.0274 6.19061 15.2729 5.39964 12.9092L5.39555 12.9035Z" fill="#34A853"/>
  <path d="M2.07265 6.51837C1.39087 7.86377 1 9.38197 1 11.0001C1 12.6183 1.39087 14.1365 2.07265 15.4819C2.07265 15.4909 5.39998 12.9001 5.39998 12.9001C5.19998 12.3001 5.08177 11.6637 5.08177 11C5.08177 10.3363 5.19998 9.69998 5.39998 9.09998L2.07265 6.51837Z" fill="#FBBC05"/>
  <path d="M10.9998 4.98182C12.4726 4.98182 13.7816 5.49089 14.8271 6.47272L17.6907 3.60912C15.9543 1.99097 13.6999 1 10.9998 1C7.09076 1 3.71808 3.24545 2.07263 6.51819L5.39986 9.10001C6.19072 6.73635 8.39984 4.98182 10.9998 4.98182Z" fill="#EA4335"/>
</svg>
