<svg
  width="16"
  height="16"
  viewBox="0 0 16 16"
  fill="none"
  xmlns="http://www.w3.org/2000/svg"
>
  <g clip-path="url(#paint0_angular_9413_9319_clip_path)">
    <g fill="#11181C">
      <path d="M8 8 L8 0 A8 8 0 0 1 12 1.072 Z" fill-opacity="1" />
      <path d="M8 8 L12 1.072 A8 8 0 0 1 14.928 4 Z" fill-opacity="0.909" />
      <path d="M8 8 L14.928 4 A8 8 0 0 1 16 8 Z" fill-opacity="0.818" />
      <path d="M8 8 L16 8 A8 8 0 0 1 14.928 12 Z" fill-opacity="0.727" />
      <path d="M8 8 L14.928 12 A8 8 0 0 1 12 14.928 Z" fill-opacity="0.636" />
      <path d="M8 8 L12 14.928 A8 8 0 0 1 8 16 Z" fill-opacity="0.545" />
      <path d="M8 8 L8 16 A8 8 0 0 1 4 14.928 Z" fill-opacity="0.455" />
      <path d="M8 8 L4 14.928 A8 8 0 0 1 1.072 12 Z" fill-opacity="0.364" />
      <path d="M8 8 L1.072 12 A8 8 0 0 1 0 8 Z" fill-opacity="0.273" />
      <path d="M8 8 L0 8 A8 8 0 0 1 1.072 4 Z" fill-opacity="0.182" />
      <path d="M8 8 L1.072 4 A8 8 0 0 1 4 1.072 Z" fill-opacity="0.091" />
      <path d="M8 8 L4 1.072 A8 8 0 0 1 8 0 Z" fill-opacity="0" />
    </g>
  </g>
  <defs>
    <clipPath id="paint0_angular_9413_9319_clip_path">
      <path
        d="M2 5.2C2 4.07989 2 3.51984 2.21799 3.09202C2.40973 2.71569 2.71569 2.40973 3.09202 2.21799C3.51984 2 4.0799 2 5.2 2H10.8C11.9201 2 12.4802 2 12.908 2.21799C13.2843 2.40973 13.5903 2.71569 13.782 3.09202C14 3.51984 14 4.0799 14 5.2V10.8C14 11.9201 14 12.4802 13.782 12.908C13.5903 13.2843 13.2843 13.5903 12.908 13.782C12.4802 14 11.9201 14 10.8 14H5.2C4.07989 14 3.51984 14 3.09202 13.782C2.71569 13.5903 2.40973 13.2843 2.21799 12.908C2 12.4802 2 11.9201 2 10.8V5.2Z"
      />
    </clipPath>
  </defs>
</svg>
