<svg width="16" height="16" viewBox="0 0 16 16" xmlns="http://www.w3.org/2000/svg">
<path fill-rule="evenodd" clip-rule="evenodd" d="M1.49998 1.8501C1.85896 1.8501 2.14998 2.14111 2.14998 2.5001V13.5001C2.14998 13.8591 1.85896 14.1501 1.49998 14.1501C1.14099 14.1501 0.849976 13.8591 0.849976 13.5001V2.5001C0.849976 2.14111 1.14099 1.8501 1.49998 1.8501ZM14.5 1.8501C14.859 1.8501 15.15 2.14111 15.15 2.5001V13.5001C15.15 13.8591 14.859 14.1501 14.5 14.1501C14.141 14.1501 13.85 13.8591 13.85 13.5001V2.5001C13.85 2.14111 14.141 1.8501 14.5 1.8501ZM6.15588 5.54048C6.40972 5.79432 6.40972 6.20588 6.15588 6.45972L5.2655 7.3501H10.7342L9.84382 6.45972C9.58998 6.20588 9.58998 5.79432 9.84382 5.54048C10.0977 5.28664 10.5092 5.28664 10.7631 5.54048L12.7631 7.54048C13.0169 7.79432 13.0169 8.20588 12.7631 8.45972L10.7631 10.4597C10.5092 10.7136 10.0977 10.7136 9.84382 10.4597C9.58998 10.2059 9.58998 9.79432 9.84382 9.54048L10.7342 8.6501H5.2655L6.15588 9.54048C6.40972 9.79432 6.40972 10.2059 6.15588 10.4597C5.90204 10.7136 5.49049 10.7136 5.23665 10.4597L3.23665 8.45972C2.9828 8.20588 2.9828 7.79432 3.23665 7.54048L5.23665 5.54048C5.49049 5.28664 5.90204 5.28664 6.15588 5.54048Z"/>
</svg>
