<svg width="22" height="22" viewBox="0 0 22 22"  xmlns="http://www.w3.org/2000/svg">
  <path fill-rule="evenodd" clip-rule="evenodd" d="M2 5.99805C2 5.58383 2.33579 5.24805 2.75 5.24805H19.25C19.6642 5.24805 20 5.58383 20 5.99805C20 6.41226 19.6642 6.74805 19.25 6.74805H2.75C2.33579 6.74805 2 6.41226 2 5.99805ZM2 11.498C2 11.0838 2.33579 10.748 2.75 10.748H19.25C19.6642 10.748 20 11.0838 20 11.498C20 11.9123 19.6642 12.248 19.25 12.248H2.75C2.33579 12.248 2 11.9123 2 11.498ZM2 16.998C2 16.5838 2.33579 16.248 2.75 16.248H19.25C19.6642 16.248 20 16.5838 20 16.998C20 17.4123 19.6642 17.748 19.25 17.748H2.75C2.33579 17.748 2 17.4123 2 16.998Z"/>
</svg>
  