<svg width="16" height="16" viewBox="0 0 16 16"  xmlns="http://www.w3.org/2000/svg">
  <path fill-rule="evenodd" clip-rule="evenodd" d="M2.01666 2.6666C2.01666 2.30762 2.30768 2.0166 2.66666 2.0166H5.33333C5.69231 2.0166 5.98333 2.30762 5.98333 2.6666C5.98333 3.02559 5.69231 3.3166 5.33333 3.3166H4.65V7.34993L11.35 7.34994V3.3166H10.6667C10.3077 3.3166 10.0167 3.02559 10.0167 2.6666C10.0167 2.30762 10.3077 2.0166 10.6667 2.0166H13.3333C13.6923 2.0166 13.9833 2.30762 13.9833 2.6666C13.9833 3.02559 13.6923 3.3166 13.3333 3.3166H12.65V12.6833H13.3333C13.6923 12.6833 13.9833 12.9743 13.9833 13.3333C13.9833 13.6923 13.6923 13.9833 13.3333 13.9833H10.6667C10.3077 13.9833 10.0167 13.6923 10.0167 13.3333C10.0167 12.9743 10.3077 12.6833 10.6667 12.6833H11.35V8.64994L4.65 8.64993V12.6833H5.33333C5.69231 12.6833 5.98333 12.9743 5.98333 13.3333C5.98333 13.6923 5.69231 13.9833 5.33333 13.9833H2.66666C2.30768 13.9833 2.01666 13.6923 2.01666 13.3333C2.01666 12.9743 2.30768 12.6833 2.66666 12.6833H3.35V3.3166H2.66666C2.30768 3.3166 2.01666 3.02559 2.01666 2.6666Z" />
</svg>
