<svg width="22" height="22" viewBox="0 0 22 22"  xmlns="http://www.w3.org/2000/svg">
<path fill-rule="evenodd" clip-rule="evenodd" d="M7.11821 2H14.8818C15.6249 1.99999 16.228 1.99999 16.7173 2.03996C17.2222 2.08121 17.6715 2.16876 18.089 2.38148C18.7475 2.71703 19.283 3.25247 19.6185 3.91103C19.8312 4.32851 19.9188 4.77778 19.96 5.28273C20 5.77196 20 6.37511 20 7.11819V14.8818C20 15.6249 20 16.228 19.96 16.7173C19.9188 17.2222 19.8312 17.6715 19.6185 18.089C19.283 18.7475 18.7475 19.283 18.089 19.6185C17.6715 19.8312 17.2222 19.9188 16.7173 19.96C16.228 20 15.6249 20 14.8818 20H7.11819C6.37511 20 5.77196 20 5.28273 19.96C4.77778 19.9188 4.32851 19.8312 3.91103 19.6185C3.25247 19.283 2.71703 18.7475 2.38148 18.089C2.16876 17.6715 2.08121 17.2222 2.03996 16.7173C1.99999 16.228 1.99999 15.6249 2 14.8818V7.11821C1.99999 6.37512 1.99999 5.77197 2.03996 5.28273C2.08121 4.77778 2.16876 4.32851 2.38148 3.91103C2.71703 3.25247 3.25247 2.71703 3.91103 2.38148C4.32851 2.16876 4.77778 2.08121 5.28273 2.03996C5.77197 1.99999 6.37512 1.99999 7.11821 2ZM5.40488 3.53498C4.99269 3.56865 4.7628 3.63097 4.59202 3.71799C4.2157 3.90973 3.90973 4.2157 3.71799 4.59202C3.63097 4.7628 3.56865 4.99269 3.53498 5.40488C3.50058 5.82582 3.5 6.36755 3.5 7.15V14.85C3.5 15.6324 3.50058 16.1742 3.53498 16.5951C3.56865 17.0073 3.63097 17.2372 3.71799 17.408C3.90973 17.7843 4.2157 18.0903 4.59202 18.282C4.7628 18.369 4.99269 18.4313 5.40488 18.465C5.82582 18.4994 6.36755 18.5 7.15 18.5H14.85C15.6324 18.5 16.1742 18.4994 16.5951 18.465C17.0073 18.4313 17.2372 18.369 17.408 18.282C17.7843 18.0903 18.0903 17.7843 18.282 17.408C18.369 17.2372 18.4313 17.0073 18.465 16.5951C18.4994 16.1742 18.5 15.6324 18.5 14.85V7.15C18.5 6.36755 18.4994 5.82582 18.465 5.40488C18.4313 4.99269 18.369 4.7628 18.282 4.59202C18.0903 4.2157 17.7843 3.90973 17.408 3.71799C17.2372 3.63097 17.0073 3.56865 16.5951 3.53498C16.1742 3.50058 15.6324 3.5 14.85 3.5H7.15C6.36755 3.5 5.82582 3.50058 5.40488 3.53498Z" />
<path fill-rule="evenodd" clip-rule="evenodd" d="M4.75 6.41686C4.75 6.00265 5.08579 5.66686 5.5 5.66686L16.5 5.66686C16.9142 5.66686 17.25 6.00265 17.25 6.41686C17.25 6.83107 16.9142 7.16686 16.5 7.16686L5.5 7.16686C5.08579 7.16686 4.75 6.83107 4.75 6.41686Z" />
</svg>
