<svg width="16" height="16" viewBox="0 0 16 16" fill="currentColor" xmlns="http://www.w3.org/2000/svg">
  <path d="M7.99998 14.6501C4.32998 14.6501 1.34998 11.6701 1.34998 8.0001C1.34998 4.3301 4.32998 1.3501 7.99998 1.3501C11.67 1.3501 14.65 4.3301 14.65 8.0001C14.65 11.6701 11.67 14.6501 7.99998 14.6501ZM7.99998 2.6501C5.04998 2.6501 2.64998 5.0501 2.64998 8.0001C2.64998 10.9501 5.04998 13.3501 7.99998 13.3501C10.95 13.3501 13.35 10.9501 13.35 8.0001C13.35 5.0501 10.95 2.6501 7.99998 2.6501Z"/>
  <path d="M8.00998 11.8901C7.56998 11.8901 7.20998 11.5301 7.20998 11.0901C7.20998 10.6501 7.55998 10.2901 8.00998 10.2901C8.44998 10.2901 8.80998 10.6501 8.80998 11.0901C8.80998 11.5301 8.44998 11.8901 8.00998 11.8901Z"/>
  <path d="M7.94998 9.1701C7.67998 9.1701 7.42998 9.0001 7.32998 8.7301C7.21998 8.3901 7.39998 8.0201 7.73998 7.9101C8.17998 7.7601 9.09998 7.2701 9.09998 6.7301C9.09998 6.4601 9.00998 6.1901 8.82998 5.9901C8.65998 5.7801 8.40998 5.6401 8.13998 5.6001C7.86998 5.5501 7.59998 5.6001 7.35998 5.7401C7.11998 5.8801 6.94998 6.0901 6.85998 6.3501C6.73998 6.6901 6.36998 6.8701 6.02998 6.7501C5.68998 6.6301 5.50998 6.2601 5.62998 5.9201C5.81998 5.3701 6.19998 4.9101 6.69998 4.6201C7.19998 4.3301 7.78998 4.2201 8.34998 4.3201C8.91998 4.4201 9.43998 4.7101 9.80998 5.1601C10.18 5.6001 10.39 6.1701 10.39 6.7401C10.39 8.3601 8.37998 9.0801 8.14998 9.1601C8.07998 9.1801 8.00998 9.1901 7.93998 9.1901L7.94998 9.1701Z"/>
</svg>
  