<svg width="22" height="22" viewBox="0 0 22 22" xmlns="http://www.w3.org/2000/svg">
  <path d="M11 20C6.04 20 2 15.96 2 11C2 6.04 6.04 2 11 2C15.96 2 20 6.04 20 11C20 15.96 15.96 20 11 20ZM11 3.5C6.86 3.5 3.5 6.86 3.5 11C3.5 15.14 6.86 18.5 11 18.5C15.14 18.5 18.5 15.14 18.5 11C18.5 6.86 15.14 3.5 11 3.5Z" fill="#707375"/>
  <path d="M11.01 16.14C10.51 16.14 10.1 15.74 10.1 15.24C10.1 14.74 10.5 14.34 10.99 14.34H11C11.5 14.34 11.9 14.74 11.9 15.24C11.9 15.74 11.5 16.14 11 16.14H11.01Z" fill="#707375"/>
  <path d="M10.93 12.46C10.62 12.46 10.33 12.26 10.22 11.95C10.09 11.56 10.3 11.13 10.69 11C11.2 10.83 12.65 10.13 12.65 9.24C12.65 8.83 12.51 8.44 12.24 8.12C11.98 7.81 11.61 7.6 11.21 7.53C10.81 7.46 10.39 7.53 10.04 7.74C9.69 7.95 9.42 8.27 9.29 8.66C9.15 9.05 8.72 9.25 8.33 9.12C7.94 8.98 7.73 8.55 7.87 8.16C8.12 7.44 8.62 6.84 9.28 6.45C9.94 6.06 10.71 5.92 11.46 6.05C12.21 6.18 12.89 6.57 13.38 7.15C13.87 7.73 14.14 8.47 14.14 9.23C14.14 11.39 11.27 12.37 11.15 12.42C11.07 12.45 10.99 12.46 10.91 12.46H10.93Z" fill="#707375"/>
</svg>
