<svg
  width="16"
  height="16"
  viewBox="0 0 16 16"
  fill="none"
  xmlns="http://www.w3.org/2000/svg"
>
  <path
    d="M12.6667 2H3.33333C2.59695 2 2 2.59695 2 3.33333V12.6667C2 13.403 2.59695 14 3.33333 14H12.6667C13.403 14 14 13.403 14 12.6667V3.33333C14 2.59695 13.403 2 12.6667 2Z"
    stroke="currentColor"
    stroke-linecap="round"
    stroke-linejoin="round"
  />
  <path
    d="M6.00002 7.33333C6.7364 7.33333 7.33335 6.73638 7.33335 6C7.33335 5.26362 6.7364 4.66667 6.00002 4.66667C5.26364 4.66667 4.66669 5.26362 4.66669 6C4.66669 6.73638 5.26364 7.33333 6.00002 7.33333Z"
    stroke="currentColor"
    stroke-linecap="round"
    stroke-linejoin="round"
  />
  <path
    d="M14 10L11.9427 7.94267C11.6926 7.6927 11.3536 7.55228 11 7.55228C10.6464 7.55228 10.3074 7.6927 10.0573 7.94267L4 14"
    stroke="currentColor"
    stroke-linecap="round"
    stroke-linejoin="round"
  />
</svg>
