<svg width="16" height="16" viewBox="0 0 16 16" xmlns="http://www.w3.org/2000/svg">
<path fill-rule="evenodd" clip-rule="evenodd" d="M10.827 1.3501H5.17308C4.63593 1.35009 4.19361 1.35008 3.8335 1.37951C3.4598 1.41004 3.11777 1.47547 2.79695 1.63893C2.29832 1.893 1.89292 2.29839 1.63886 2.79702C1.47539 3.11784 1.40996 3.45987 1.37943 3.83357C1.35001 4.19368 1.35002 4.636 1.35002 5.17316V10.827C1.35002 11.3642 1.35001 11.8065 1.37943 12.1666C1.40996 12.5403 1.47539 12.8824 1.63886 13.2032C1.89292 13.7018 2.29832 14.1072 2.79695 14.3613C3.11776 14.5247 3.4598 14.5902 3.8335 14.6207C4.19361 14.6501 4.63593 14.6501 5.17309 14.6501H10.827C10.8428 14.6501 10.8586 14.6501 10.8742 14.6501L11.4036 14.6501C11.5842 14.6501 11.7607 14.6502 11.9025 14.6376C11.908 14.6371 11.9136 14.6366 11.9195 14.636C12.0058 14.6321 12.0881 14.6271 12.1666 14.6207C12.5403 14.5902 12.8823 14.5247 13.2031 14.3613C13.7017 14.1072 14.1071 13.7018 14.3612 13.2032C14.5247 12.8824 14.5901 12.5403 14.6206 12.1666C14.65 11.8065 14.65 11.3642 14.65 10.827V5.17316C14.65 4.636 14.65 4.19368 14.6206 3.83357C14.5901 3.45987 14.5247 3.11784 14.3612 2.79702C14.1071 2.29839 13.7017 1.893 13.2031 1.63893C12.8823 1.47547 12.5403 1.41004 12.1666 1.37951C11.8064 1.35008 11.3641 1.35009 10.827 1.3501ZM11.0973 13.3499C11.0039 13.3501 10.9051 13.3501 10.8 13.3501H5.20002C4.62925 13.3501 4.24025 13.3496 3.93936 13.325C3.64605 13.301 3.49414 13.2575 3.38714 13.203C3.13312 13.0735 2.92659 12.867 2.79716 12.613C2.74264 12.506 2.69908 12.3541 2.67511 12.0608C2.65053 11.7599 2.65002 11.3709 2.65002 10.8001V10.2693L5.03873 7.88063C5.17832 7.74104 5.25573 7.66435 5.31581 7.61334C5.32254 7.60763 5.32838 7.60285 5.33336 7.59887C5.33834 7.60285 5.34418 7.60763 5.3509 7.61334C5.41099 7.66435 5.4884 7.74104 5.62798 7.88063L11.0973 13.3499ZM2.65002 8.43086L4.13428 6.9466C4.25346 6.82739 4.36887 6.71195 4.47448 6.6223C4.59026 6.52401 4.73627 6.41916 4.92648 6.35735C5.19093 6.27143 5.47579 6.27143 5.74023 6.35735C5.93045 6.41916 6.07646 6.52401 6.19223 6.6223C6.29784 6.71195 6.41325 6.82739 6.53243 6.94659L12.2332 12.6473C12.3609 12.775 12.4857 12.8998 12.5771 13.009C12.6076 13.0454 12.649 13.0963 12.6902 13.1603C12.9088 13.0303 13.0868 12.8407 13.2029 12.613C13.2574 12.506 13.301 12.3541 13.3249 12.0608C13.3495 11.7599 13.35 11.3709 13.35 10.8001V5.2001C13.35 4.62932 13.3495 4.24033 13.3249 3.93943C13.301 3.64613 13.2574 3.49422 13.2029 3.38721C13.0735 3.13319 12.8669 2.92667 12.6129 2.79724C12.5059 2.74272 12.354 2.69915 12.0607 2.67519C11.7598 2.6506 11.3708 2.6501 10.8 2.6501H5.20002C4.62925 2.6501 4.24025 2.6506 3.93936 2.67519C3.64605 2.69915 3.49414 2.74272 3.38714 2.79724C3.13312 2.92667 2.92659 3.13319 2.79716 3.38721C2.74264 3.49422 2.69908 3.64613 2.67511 3.93943C2.65053 4.24033 2.65002 4.62932 2.65002 5.2001V8.43086ZM10.3334 4.98343C10.7108 4.98343 11.0167 5.28937 11.0167 5.66676C11.0167 6.04416 10.7108 6.3501 10.3334 6.3501C9.95596 6.3501 9.65002 6.04416 9.65002 5.66676C9.65002 5.28937 9.95596 4.98343 10.3334 4.98343ZM12.3167 5.66676C12.3167 4.5714 11.4287 3.68343 10.3334 3.68343C9.23799 3.68343 8.35002 4.5714 8.35002 5.66676C8.35002 6.76213 9.23799 7.6501 10.3334 7.6501C11.4287 7.6501 12.3167 6.76213 12.3167 5.66676Z" />
</svg>
