<svg
  width="16"
  height="16"
  viewBox="0 0 16 16"
  fill="none"
  xmlns="http://www.w3.org/2000/svg"
>
  <path
    fill-rule="evenodd"
    clip-rule="evenodd"
    d="M7.99997 13.35C10.9547 13.35 13.35 10.9548 13.35 8.00004C13.35 5.04531 10.9547 2.65004 7.99998 2.65004C5.04525 2.65004 2.64998 5.04531 2.64998 8.00004C2.64998 10.9548 5.04525 13.35 7.99997 13.35ZM14.65 8.00004C14.65 11.6727 11.6727 14.65 7.99997 14.65C4.32728 14.65 1.34998 11.6727 1.34998 8.00004C1.34998 4.32734 4.32728 1.35004 7.99998 1.35004C11.6727 1.35004 14.65 4.32734 14.65 8.00004Z"
  />
  <path
    fill-rule="evenodd"
    clip-rule="evenodd"
    d="M8.79997 4.9133C8.79997 5.35512 8.44179 5.7133 7.99997 5.7133H7.99139C7.54956 5.7133 7.19139 5.35512 7.19139 4.9133C7.19139 4.47147 7.54956 4.1133 7.99139 4.1133H7.99997C8.44179 4.1133 8.79997 4.47147 8.79997 4.9133Z"
  />
  <path
    fill-rule="evenodd"
    clip-rule="evenodd"
    d="M7.99996 11.7367C7.64098 11.7367 7.34996 11.4457 7.34996 11.0867L7.34997 7.65688C7.34997 7.2979 7.64098 7.00688 7.99996 7.00688C8.35895 7.00688 8.64996 7.2979 8.64996 7.65688L8.64996 11.0867C8.64996 11.4457 8.35895 11.7367 7.99996 11.7367Z"
  />
</svg>
