<svg width="16" height="16" viewBox="0 0 16 16" xmlns="http://www.w3.org/2000/svg">
<path fill-rule="evenodd" clip-rule="evenodd" d="M8.0001 2.64985C5.04537 2.64985 2.6501 5.04513 2.6501 7.99985C2.6501 10.9546 5.04537 13.3499 8.0001 13.3499C10.9548 13.3499 13.3501 10.9546 13.3501 7.99985C13.3501 5.04513 10.9548 2.64985 8.0001 2.64985ZM1.3501 7.99985C1.3501 4.32716 4.3274 1.34985 8.0001 1.34985C11.6728 1.34985 14.6501 4.32716 14.6501 7.99985C14.6501 11.6725 11.6728 14.6499 8.0001 14.6499C4.3274 14.6499 1.3501 11.6725 1.3501 7.99985Z" fill="#707375"/>
<path fill-rule="evenodd" clip-rule="evenodd" d="M7.20011 11.0866C7.20011 10.6448 7.55828 10.2866 8.00011 10.2866H8.00868C8.45051 10.2866 8.80868 10.6448 8.80868 11.0866C8.80868 11.5284 8.45051 11.8866 8.00868 11.8866H8.00011C7.55828 11.8866 7.20011 11.5284 7.20011 11.0866Z" fill="#707375"/>
<path fill-rule="evenodd" clip-rule="evenodd" d="M8.00011 4.26321C8.35909 4.26321 8.65011 4.55423 8.65011 4.91321V8.34301C8.65011 8.70199 8.35909 8.99301 8.00011 8.99301C7.64112 8.99301 7.35011 8.70199 7.35011 8.34301V4.91321C7.35011 4.55423 7.64112 4.26321 8.00011 4.26321Z" fill="#707375"/>
</svg>
