<svg width="16" height="16" viewBox="0 0 16 16" xmlns="http://www.w3.org/2000/svg">
  <path d="M8.76075 5.62758C8.76075 5.21336 8.42496 4.87758 8.01075 4.87758C7.59653 4.87758 7.26075 5.21336 7.26075 5.62758V8.45629C7.26075 8.87051 7.59653 9.20629 8.01075 9.20629C8.42496 9.20629 8.76075 8.8705 8.76075 8.45629V5.62758Z" />
  <path d="M8.00001 9.62614C7.58579 9.62614 7.25001 9.96193 7.25001 10.3761C7.25001 10.7904 7.58579 11.1261 8.00001 11.1261H8.00672C8.42094 11.1261 8.75672 10.7904 8.75672 10.3761C8.75672 9.96193 8.42094 9.62614 8.00672 9.62614H8.00001Z" />
  <path fill-rule="evenodd" clip-rule="evenodd" d="M8.00001 2.35001C6.50153 2.35001 5.06443 2.94527 4.00485 4.00485C2.94527 5.06443 2.35001 6.50153 2.35001 8.00001C2.35001 8.74197 2.49615 9.47668 2.78009 10.1622C3.06403 10.8477 3.4802 11.4705 4.00485 11.9952C4.5295 12.5198 5.15235 12.936 5.83784 13.2199C6.52333 13.5039 7.25804 13.65 8.00001 13.65C8.74197 13.65 9.47668 13.5039 10.1622 13.2199C10.8477 12.936 11.4705 12.5198 11.9952 11.9952C12.5198 11.4705 12.936 10.8477 13.2199 10.1622C13.5039 9.47668 13.65 8.74197 13.65 8.00001C13.65 6.50153 13.0547 5.06443 11.9952 4.00485C10.9356 2.94527 9.49848 2.35001 8.00001 2.35001ZM4.92409 4.92409C5.73987 4.10831 6.84631 3.65001 8.00001 3.65001C9.1537 3.65001 10.2601 4.10831 11.0759 4.92409C11.8917 5.73987 12.35 6.84631 12.35 8.00001C12.35 8.57126 12.2375 9.13691 12.0189 9.66468C11.8003 10.1924 11.4799 10.672 11.0759 11.0759C10.672 11.4799 10.1924 11.8003 9.66468 12.0189C9.13691 12.2375 8.57126 12.35 8.00001 12.35C7.42876 12.35 6.8631 12.2375 6.33533 12.0189C5.80757 11.8003 5.32803 11.4799 4.92409 11.0759C4.52016 10.672 4.19974 10.1924 3.98113 9.66468C3.76252 9.13691 3.65001 8.57126 3.65001 8.00001C3.65001 6.84631 4.10831 5.73987 4.92409 4.92409Z" />
</svg>
  