<svg width="16" height="16" viewBox="0 0 16 16" xmlns="http://www.w3.org/2000/svg">
<path fill-rule="evenodd" clip-rule="evenodd" d="M2.19996 1.5C2.64179 1.5 2.99996 1.84393 2.99996 2.26818L2.99996 13.7318C2.99996 14.1561 2.64179 14.5 2.19996 14.5C1.75814 14.5 1.39996 14.1561 1.39996 13.7318L1.39996 2.26818C1.39996 1.84393 1.75814 1.5 2.19996 1.5Z"/>
<path d="M3.99996 4.8C3.99996 4.35817 4.35814 4 4.79997 4L6.19997 4C6.64179 4 6.99997 4.35817 6.99997 4.8L6.99996 11.2C6.99996 11.6418 6.64179 12 6.19996 12H4.79996C4.35814 12 3.99996 11.6418 3.99996 11.2L3.99996 4.8Z"/>
<path d="M7.99997 4.8C7.99997 4.35817 8.35814 4 8.79997 4L10.2 4C10.6418 4 11 4.35817 11 4.8L11 11.2C11 11.6418 10.6418 12 10.2 12H8.79997C8.35814 12 7.99997 11.6418 7.99997 11.2L7.99997 4.8Z"/>
</svg>
