<svg width="16" height="16" viewBox="0 0 16 16" xmlns="http://www.w3.org/2000/svg">
<path d="M3.10004 4.8C3.10004 4.35817 3.45821 4 3.90004 4L5.30004 4C5.74187 4 6.10004 4.35817 6.10004 4.8L6.10004 11.2C6.10004 11.6418 5.74186 12 5.30004 12H3.90004C3.45821 12 3.10004 11.6418 3.10004 11.2L3.10004 4.8Z"/>
<path fill-rule="evenodd" clip-rule="evenodd" d="M8.00004 1.5C8.44187 1.5 8.80004 1.84393 8.80004 2.26818L8.80004 13.7318C8.80004 14.1561 8.44187 14.5 8.00004 14.5C7.55821 14.5 7.20004 14.1561 7.20004 13.7318L7.20004 2.26818C7.20004 1.84393 7.55821 1.5 8.00004 1.5Z"/>
<path d="M9.90004 4.8C9.90004 4.35817 10.2582 4 10.7 4L12.1 4C12.5419 4 12.9 4.35817 12.9 4.8L12.9 11.2C12.9 11.6418 12.5419 12 12.1 12H10.7C10.2582 12 9.90004 11.6418 9.90004 11.2L9.90004 4.8Z"/>
</svg>
