<svg width="16" height="16" viewBox="0 0 16 16" xmlns="http://www.w3.org/2000/svg">
<path fill-rule="evenodd" clip-rule="evenodd" d="M13.8 14.5C13.3582 14.5 13 14.1561 13 13.7318L13 2.26818C13 1.84393 13.3582 1.5 13.8 1.5C14.2418 1.5 14.6 1.84393 14.6 2.26818L14.6 13.7318C14.6 14.1561 14.2418 14.5 13.8 14.5Z"/>
<path d="M12 11.2C12 11.6418 11.6418 12 11.2 12H9.8C9.35817 12 9 11.6418 9 11.2L9 4.8C9 4.35817 9.35818 4 9.8 4L11.2 4C11.6418 4 12 4.35817 12 4.8L12 11.2Z"/>
<path d="M8 11.2C8 11.6418 7.64183 12 7.2 12L5.8 12C5.35817 12 5 11.6418 5 11.2L5 4.8C5 4.35817 5.35817 4 5.8 4L7.2 4C7.64183 4 8 4.35817 8 4.8L8 11.2Z"/>
</svg>
