<svg width="16" height="16" viewBox="0 0 16 16" xmlns="http://www.w3.org/2000/svg">
<path fill-rule="evenodd" clip-rule="evenodd" d="M2.20002 1.5C2.64185 1.5 3.00002 1.84393 3.00002 2.26818L3.00002 13.7318C3.00002 14.1561 2.64185 14.5 2.20002 14.5C1.7582 14.5 1.40002 14.1561 1.40002 13.7318L1.40002 2.26818C1.40002 1.84393 1.7582 1.5 2.20002 1.5Z"/>
<path d="M4.00003 4.8C4.00003 4.35817 4.3582 4 4.80003 4L6.20003 4C6.64185 4 7.00003 4.35817 7.00003 4.8L7.00003 11.2C7.00003 11.6418 6.64185 12 6.20003 12H4.80002C4.3582 12 4.00003 11.6418 4.00003 11.2L4.00003 4.8Z"/>
<path d="M9.00002 4.8C9.00002 4.35817 9.3582 4 9.80002 4L11.2 4C11.6419 4 12 4.35817 12 4.8L12 11.2C12 11.6418 11.6419 12 11.2 12H9.80002C9.3582 12 9.00002 11.6418 9.00002 11.2L9.00002 4.8Z"/>
<path fill-rule="evenodd" clip-rule="evenodd" d="M13.8 1.5C14.2419 1.5 14.6 1.84393 14.6 2.26818V13.7318C14.6 14.1561 14.2419 14.5 13.8 14.5C13.3582 14.5 13 14.1561 13 13.7318L13 2.26818C13 1.84393 13.3582 1.5 13.8 1.5Z"/>
</svg>
