<svg width="16" height="16" viewBox="0 0 16 16" xmlns="http://www.w3.org/2000/svg">
<path fill-rule="evenodd" clip-rule="evenodd" d="M1.70002 1.5C2.14185 1.5 2.50002 1.84393 2.50002 2.26818L2.50002 13.7318C2.50002 14.1561 2.14185 14.5 1.70002 14.5C1.2582 14.5 0.900024 14.1561 0.900024 13.7318L0.900025 2.26818C0.900025 1.84393 1.2582 1.5 1.70002 1.5Z"/>
<path d="M4.50003 4.8C4.50003 4.35817 4.8582 4 5.30003 4L6.70003 4C7.14185 4 7.50003 4.35817 7.50003 4.8L7.50003 11.2C7.50003 11.6418 7.14185 12 6.70003 12H5.30003C4.8582 12 4.50003 11.6418 4.50003 11.2L4.50003 4.8Z"/>
<path d="M8.50003 4.8C8.50003 4.35817 8.8582 4 9.30003 4L10.7 4C11.1419 4 11.5 4.35817 11.5 4.8L11.5 11.2C11.5 11.6418 11.1419 12 10.7 12H9.30003C8.8582 12 8.50003 11.6418 8.50003 11.2L8.50003 4.8Z"/>
<path fill-rule="evenodd" clip-rule="evenodd" d="M14.3 1.5C14.7419 1.5 15.1 1.84393 15.1 2.26818L15.1 13.7318C15.1 14.1561 14.7419 14.5 14.3 14.5C13.8582 14.5 13.5 14.1561 13.5 13.7318V2.26818C13.5 1.84393 13.8582 1.5 14.3 1.5Z"/>
</svg>
