<svg width="16" height="16" viewBox="0 0 16 16" fill="none" xmlns="http://www.w3.org/2000/svg">
  <g clip-path="url(#clip0_2784_9619)">
    <path d="M-0.00219727 10.394V5.30313H1.07415V9.50661H2.25668V10.394H-0.00219727Z" fill="black"/>
    <path d="M3.92895 10.4661C3.68535 10.4661 3.46825 10.4239 3.27768 10.3394C3.0871 10.2532 2.93629 10.1264 2.82526 9.95903C2.71589 9.79 2.6612 9.57953 2.6612 9.32764C2.6612 9.11552 2.70014 8.93737 2.77803 8.79319C2.85592 8.64902 2.96198 8.53301 3.09621 8.44518C3.23045 8.35735 3.38291 8.29106 3.5536 8.24632C3.72595 8.20157 3.90658 8.17009 4.0955 8.15186C4.31757 8.12866 4.49654 8.10711 4.63243 8.08723C4.76832 8.06568 4.86693 8.0342 4.92824 7.99277C4.98956 7.95134 5.02022 7.89002 5.02022 7.80882V7.7939C5.02022 7.63647 4.9705 7.51466 4.87107 7.42849C4.7733 7.34232 4.63409 7.29923 4.45346 7.29923C4.26288 7.29923 4.11125 7.34149 3.99856 7.426C3.88587 7.50886 3.81129 7.61327 3.77484 7.73921L2.79543 7.65967C2.84515 7.42766 2.94292 7.22714 3.08876 7.05811C3.23459 6.88742 3.42268 6.7565 3.65303 6.66535C3.88504 6.57255 4.1535 6.52615 4.45843 6.52615C4.67055 6.52615 4.87356 6.551 5.06745 6.60072C5.263 6.65044 5.43618 6.7275 5.58698 6.8319C5.73944 6.9363 5.85959 7.07054 5.94742 7.2346C6.03525 7.397 6.07917 7.59172 6.07917 7.81876V10.394H5.07491V9.86457H5.04508C4.98376 9.98389 4.90173 10.0891 4.79898 10.1803C4.69624 10.2698 4.57278 10.3402 4.4286 10.3916C4.28442 10.4413 4.11788 10.4661 3.92895 10.4661ZM4.23222 9.73531C4.388 9.73531 4.52555 9.70465 4.64486 9.64333C4.76418 9.58036 4.85781 9.49584 4.92576 9.38978C4.9937 9.28372 5.02768 9.16358 5.02768 9.02934V8.62416C4.99453 8.6457 4.94896 8.66559 4.89096 8.68382C4.83461 8.70039 4.77081 8.71613 4.69955 8.73105C4.62829 8.7443 4.55703 8.75673 4.48577 8.76833C4.41451 8.77828 4.34988 8.78739 4.29188 8.79568C4.16759 8.81391 4.05904 8.84291 3.96624 8.88268C3.87344 8.92245 3.80135 8.97631 3.74998 9.04426C3.6986 9.11055 3.67292 9.19341 3.67292 9.29284C3.67292 9.43701 3.72512 9.54722 3.82952 9.62345C3.93558 9.69802 4.06982 9.73531 4.23222 9.73531Z" fill="black"/>
    <path d="M6.72733 10.394V5.30313H7.78628V7.2172H7.8186C7.865 7.11445 7.93211 7.01005 8.01995 6.90399C8.10944 6.79627 8.22544 6.70678 8.36796 6.63552C8.51213 6.5626 8.69111 6.52615 8.90489 6.52615C9.1833 6.52615 9.44016 6.59906 9.67549 6.7449C9.91081 6.88907 10.0989 7.10699 10.2398 7.39866C10.3806 7.68867 10.4511 8.05242 10.4511 8.48992C10.4511 8.91582 10.3823 9.27544 10.2447 9.56876C10.1088 9.86043 9.92324 10.0817 9.68791 10.2325C9.45425 10.3816 9.19241 10.4562 8.9024 10.4562C8.69691 10.4562 8.52208 10.4222 8.3779 10.3543C8.23538 10.2863 8.11855 10.201 8.0274 10.0982C7.93626 9.99383 7.86666 9.8886 7.8186 9.78254H7.77137V10.394H6.72733ZM7.76391 8.48495C7.76391 8.71199 7.7954 8.91002 7.85837 9.07906C7.92134 9.24809 8.01249 9.37984 8.13181 9.4743C8.25112 9.5671 8.39613 9.6135 8.56682 9.6135C8.73917 9.6135 8.885 9.56627 9.00432 9.47181C9.12364 9.3757 9.21396 9.24312 9.27527 9.07409C9.33825 8.9034 9.36973 8.70702 9.36973 8.48495C9.36973 8.26455 9.33908 8.07065 9.27776 7.90328C9.21644 7.7359 9.12612 7.60498 9.00681 7.51052C8.88749 7.41606 8.74083 7.36883 8.56682 7.36883C8.39447 7.36883 8.24864 7.4144 8.12932 7.50555C8.01166 7.5967 7.92134 7.72596 7.85837 7.89333C7.7954 8.06071 7.76391 8.25792 7.76391 8.48495Z" fill="black"/>
    <path d="M12.7101 10.4686C12.3173 10.4686 11.9793 10.3891 11.6959 10.23C11.4142 10.0692 11.1971 9.8422 11.0446 9.54887C10.8921 9.25389 10.8159 8.90505 10.8159 8.50235C10.8159 8.1096 10.8921 7.7649 11.0446 7.46826C11.1971 7.17162 11.4117 6.94045 11.6884 6.77473C11.9668 6.60901 12.2933 6.52615 12.6678 6.52615C12.9197 6.52615 13.1542 6.56675 13.3713 6.64795C13.5901 6.7275 13.7806 6.84764 13.943 7.00839C14.1071 7.16914 14.2347 7.37132 14.3258 7.61492C14.417 7.85688 14.4626 8.14026 14.4626 8.46507V8.7559H11.2385V8.09965H13.4658C13.4658 7.94719 13.4326 7.81213 13.3663 7.69447C13.3 7.57681 13.2081 7.48483 13.0904 7.41855C12.9744 7.3506 12.8393 7.31663 12.6852 7.31663C12.5245 7.31663 12.382 7.35392 12.2577 7.42849C12.135 7.50141 12.0389 7.60001 11.9693 7.7243C11.8997 7.84693 11.8641 7.98365 11.8624 8.13446V8.75839C11.8624 8.94731 11.8972 9.11055 11.9668 9.24809C12.0381 9.38564 12.1383 9.4917 12.2676 9.56627C12.3969 9.64085 12.5502 9.67813 12.7275 9.67813C12.8451 9.67813 12.9529 9.66156 13.0506 9.62842C13.1484 9.59527 13.2321 9.54556 13.3017 9.47927C13.3713 9.41298 13.4243 9.33178 13.4608 9.23566L14.4402 9.30029C14.3905 9.53562 14.2886 9.74111 14.1344 9.91677C13.982 10.0908 13.7848 10.2267 13.5428 10.3244C13.3025 10.4206 13.025 10.4686 12.7101 10.4686Z" fill="black"/>
    <path d="M15.9984 5.30313V10.394H14.9394V5.30313H15.9984Z" fill="black"/>
  </g>
  <defs>
    <clipPath id="clip0_2784_9619">
      <rect width="16" height="16" fill="white"/>
    </clipPath>
  </defs>
</svg>
