<svg width="16" height="16" viewBox="0 0 16 16" xmlns="http://www.w3.org/2000/svg">
<path fill-rule="evenodd" clip-rule="evenodd" d="M13.5657 2.43433C13.8781 2.74675 13.8781 3.25328 13.5657 3.5657L9.13137 8.00003L13.5657 12.4343C13.8781 12.7467 13.8781 13.2533 13.5657 13.5657C13.2533 13.8781 12.7467 13.8781 12.4343 13.5657L8 9.1314L3.5657 13.5657C3.25328 13.8781 2.74675 13.8781 2.43433 13.5657C2.12191 13.2533 2.12191 12.7467 2.43433 12.4343L6.86862 8.00003L2.43433 3.56578C2.12191 3.25336 2.12191 2.74683 2.43432 2.43441C2.74674 2.12199 3.25327 2.12198 3.5657 2.4344L7.99999 6.86866L12.4343 2.43433C12.7467 2.12191 13.2533 2.12191 13.5657 2.43433Z" />
</svg>
