<svg width="16" height="16" viewBox="0 0 16 16" xmlns="http://www.w3.org/2000/svg">
<path fill-rule="evenodd" clip-rule="evenodd" d="M11.9408 4.05884C11.228 3.346 9.86428 3.34937 8.88611 4.32754L8.07868 5.13497C7.82484 5.38881 7.41328 5.38881 7.15944 5.13497C6.9056 4.88113 6.9056 4.46957 7.15944 4.21573L7.96687 3.4083C9.33184 2.04333 11.5265 1.8061 12.8601 3.1396C14.1936 4.47311 13.9563 6.66781 12.5914 8.03278L11.7839 8.84021C11.5301 9.09405 11.1185 9.09405 10.8647 8.84021C10.6108 8.58637 10.6108 8.17481 10.8647 7.92097L11.6721 7.11355C12.6503 6.13537 12.6537 4.77168 11.9408 4.05884ZM9.92064 6.07918C10.1745 6.33302 10.1745 6.74458 9.92064 6.99842L6.99782 9.92124C6.74398 10.1751 6.33242 10.1751 6.07858 9.92124C5.82474 9.6674 5.82474 9.25584 6.07858 9.002L9.0014 6.07918C9.25525 5.82534 9.6668 5.82534 9.92064 6.07918ZM5.13451 7.16023C5.38835 7.41407 5.38835 7.82563 5.13451 8.07947L4.32708 8.8869C3.34891 9.86507 3.34554 11.2288 4.05838 11.9416C4.77123 12.6544 6.13492 12.6511 7.11309 11.6729L7.92052 10.8655C8.17436 10.6116 8.58592 10.6116 8.83976 10.8655C9.0936 11.1193 9.0936 11.5309 8.83976 11.7847L8.03233 12.5921C6.66735 13.9571 4.47265 14.1943 3.13914 12.8608C1.80564 11.5273 2.04287 9.33263 3.40784 7.96766L4.21527 7.16023C4.46911 6.90639 4.88067 6.90639 5.13451 7.16023Z"/>
</svg>
