<svg
  width="16"
  height="16"
  viewBox="0 0 16 16"
  fill="none"
  xmlns="http://www.w3.org/2000/svg"
>
  <path
    d="M13.4443 1C14.3034 1 15 1.69655 15 2.55566V13.4443C15 14.3034 14.3034 15 13.4443 15H2.55566C1.69655 15 1 14.3034 1 13.4443V2.55566C1 1.69655 1.69655 1 2.55566 1H13.4443ZM3.14551 13.0557H5.2334V6.31445H3.14551V13.0557ZM10.6025 6.1084C9.17211 6.1084 8.56934 7.22266 8.56934 7.22266V6.31445H6.56738V13.0557H8.56934V9.5166C8.56948 8.56878 9.00659 8.00488 9.8418 8.00488C10.6094 8.00501 10.9784 8.54686 10.9785 9.5166V13.0557H13.0557V8.78809C13.0557 6.98249 12.0321 6.10855 10.6025 6.1084ZM4.17871 2.94434C3.49689 2.94451 2.94434 3.50168 2.94434 4.18848C2.94443 4.87519 3.49694 5.43244 4.17871 5.43262C4.86063 5.43262 5.41299 4.8753 5.41309 4.18848C5.41309 3.50157 4.86068 2.94434 4.17871 2.94434Z"
    fill="currentColor"
  />
</svg>
