<svg width="16" height="16" viewBox="0 0 16 16" xmlns="http://www.w3.org/2000/svg">
<path fill-rule="evenodd" clip-rule="evenodd" d="M13.5734 7.99999C13.5734 6.99187 12.6068 6.02998 11.2234 6.02998L10.0816 6.02998C9.72257 6.02998 9.43156 5.73897 9.43156 5.37998C9.43156 5.021 9.72257 4.72998 10.0816 4.72998L11.2234 4.72998C13.1538 4.72998 14.8734 6.11412 14.8734 7.99999C14.8734 9.88585 13.1538 11.27 11.2234 11.27L10.0816 11.27C9.72257 11.27 9.43156 10.979 9.43156 10.62C9.43156 10.261 9.72257 9.96999 10.0816 9.96999L11.2234 9.96999C12.6068 9.96999 13.5734 9.0081 13.5734 7.99999ZM6.56764 5.38022C6.56764 5.7392 6.27662 6.03022 5.91764 6.03022H4.77576C3.39242 6.03022 2.42576 6.99211 2.42576 8.00022C2.42576 9.00833 3.39242 9.97022 4.77576 9.97022L5.91764 9.97023C6.27662 9.97022 6.56764 10.2612 6.56764 10.6202C6.56764 10.9792 6.27662 11.2702 5.91764 11.2702L4.77576 11.2702C2.8454 11.2702 1.12576 9.88608 1.12576 8.00022C1.12576 6.11435 2.8454 4.73022 4.77576 4.73022L5.91764 4.73022C6.27662 4.73022 6.56764 5.02123 6.56764 5.38022Z"/>
</svg>
