<svg width="16" height="16" viewBox="0 0 16 16"  xmlns="http://www.w3.org/2000/svg">
  <path fill-rule="evenodd" clip-rule="evenodd" d="M5.17304 1.35001H10.8269C11.3641 1.35 11.8064 1.34999 12.1665 1.37941C12.5402 1.40995 12.8822 1.47538 13.2031 1.63884C13.7017 1.8929 14.1071 2.2983 14.3611 2.79693C14.5246 3.11775 14.59 3.45978 14.6206 3.83348C14.65 4.19359 14.65 4.63591 14.65 5.17307V10.8269C14.65 11.3641 14.65 11.8064 14.6206 12.1665C14.59 12.5402 14.5246 12.8823 14.3611 13.2031C14.1071 13.7017 13.7017 14.1071 13.2031 14.3612C12.8822 14.5246 12.5402 14.5901 12.1665 14.6206C11.8064 14.65 11.3641 14.65 10.8269 14.65H5.17304C4.63588 14.65 4.19356 14.65 3.83345 14.6206C3.45975 14.5901 3.11772 14.5246 2.7969 14.3612C2.29827 14.1071 1.89287 13.7017 1.63881 13.2031C1.47534 12.8823 1.40992 12.5402 1.37938 12.1665C1.34996 11.8064 1.34997 11.3641 1.34998 10.8269V5.17307C1.34997 4.63591 1.34996 4.19359 1.37938 3.83348C1.40992 3.45978 1.47534 3.11775 1.63881 2.79693C1.89287 2.2983 2.29827 1.8929 2.7969 1.63884C3.11772 1.47538 3.45975 1.40995 3.83345 1.37941C4.19356 1.34999 4.63588 1.35 5.17304 1.35001ZM3.93931 2.6751C3.646 2.69906 3.4941 2.74262 3.38709 2.79715C3.13307 2.92658 2.92655 3.1331 2.79712 3.38712C2.74259 3.49413 2.69903 3.64603 2.67507 3.93934C2.65048 4.24024 2.64998 4.62923 2.64998 5.20001V10.8C2.64998 11.3708 2.65048 11.7598 2.67507 12.0607C2.69903 12.354 2.74259 12.5059 2.79712 12.6129C2.92655 12.8669 3.13307 13.0734 3.38709 13.2029C3.4941 13.2574 3.646 13.301 3.93931 13.3249C4.24021 13.3495 4.6292 13.35 5.19998 13.35H10.8C11.3708 13.35 11.7597 13.3495 12.0606 13.3249C12.3539 13.301 12.5059 13.2574 12.6129 13.2029C12.8669 13.0734 13.0734 12.8669 13.2028 12.6129C13.2574 12.5059 13.3009 12.354 13.3249 12.0607C13.3495 11.7598 13.35 11.3708 13.35 10.8V5.20001C13.35 4.62923 13.3495 4.24024 13.3249 3.93934C13.3009 3.64603 13.2574 3.49413 13.2028 3.38712C13.0734 3.1331 12.8669 2.92658 12.6129 2.79715C12.5059 2.74262 12.3539 2.69906 12.0606 2.6751C11.7597 2.65051 11.3708 2.65001 10.8 2.65001H5.19998C4.6292 2.65001 4.24021 2.65051 3.93931 2.6751ZM10.4204 5.57966C10.0612 5.2204 9.31228 5.1822 8.73896 5.7555L8.21054 6.2839C7.9567 6.53773 7.54514 6.53773 7.29131 6.28388C7.03747 6.03004 7.03748 5.61848 7.29132 5.36464L7.81973 4.83625C8.77986 3.87615 10.3597 3.68051 11.3397 4.66041C12.3196 5.64033 12.1239 7.22018 11.1638 8.18028L10.6354 8.70867C10.3816 8.96251 9.97 8.9625 9.71616 8.70866C9.46232 8.45481 9.46233 8.04325 9.71618 7.78942L10.2446 7.26102C10.8179 6.68773 10.7797 5.93891 10.4204 5.57966ZM9.41601 6.58413C9.66985 6.83797 9.66984 7.24953 9.416 7.50337L7.50319 9.41611C7.24934 9.66995 6.83779 9.66994 6.58395 9.4161C6.33011 9.16225 6.33012 8.7507 6.58396 8.49686L8.49677 6.58412C8.75062 6.33028 9.16217 6.33029 9.41601 6.58413ZM6.28378 7.29159C6.53762 7.54544 6.53761 7.95699 6.28377 8.21083L5.75535 8.73922C5.18204 9.31252 5.22025 10.0613 5.57951 10.4206C5.93878 10.7799 6.68766 10.8181 7.26099 10.2447L7.7894 9.71635C8.04324 9.46251 8.4548 9.46252 8.70864 9.71637C8.96247 9.97021 8.96247 10.3818 8.70862 10.6356L8.18021 11.164C7.22009 12.1241 5.64022 12.3197 4.66028 11.3398C3.68033 10.3599 3.876 8.78007 4.83613 7.81997L5.36454 7.29158C5.61839 7.03774 6.02995 7.03775 6.28378 7.29159Z" fill="black"/>
</svg>
