<svg width="16" height="16" viewBox="0 0 16 16" fill="none" xmlns="http://www.w3.org/2000/svg">
<path fill-rule="evenodd" clip-rule="evenodd" d="M11.2233 6.08011L10.0814 6.08011C9.69485 6.08011 9.38145 5.76671 9.38145 5.38011C9.38145 4.99352 9.69485 4.68011 10.0814 4.68011L11.2233 4.68011C13.1747 4.68012 14.9233 6.0805 14.9233 8.00012C14.9233 9.91975 13.1747 11.3201 11.2233 11.3201L10.0814 11.3201C9.69485 11.3201 9.38145 11.0067 9.38145 10.6201C9.38145 10.2335 9.69485 9.92012 10.0814 9.92012L11.2233 9.92012C12.5856 9.92012 13.5233 8.97447 13.5233 8.00012C13.5233 7.02577 12.5856 6.08011 11.2233 6.08011ZM4.77565 6.08035C3.41335 6.08035 2.47565 7.026 2.47565 8.00035C2.47565 8.97471 3.41335 9.92036 4.77565 9.92036L5.91753 9.92036C6.30413 9.92036 6.61753 10.2338 6.61753 10.6204C6.61753 11.007 6.30413 11.3204 5.91753 11.3204L4.77565 11.3204C2.82425 11.3204 1.07565 9.91998 1.07565 8.00035C1.07565 6.08073 2.82425 4.68035 4.77565 4.68035L5.91753 4.68035C6.30413 4.68035 6.61753 4.99375 6.61753 5.38035C6.61753 5.76695 6.30413 6.08035 5.91753 6.08035H4.77565ZM5.23276 8.00024C5.23276 7.61364 5.54616 7.30024 5.93276 7.30024H10.0663C10.4529 7.30024 10.7663 7.61364 10.7663 8.00024C10.7663 8.38684 10.4529 8.70024 10.0663 8.70024H5.93276C5.54616 8.70024 5.23276 8.38684 5.23276 8.00024Z" fill="#11181C"/>
</svg>
