<svg width="16" height="16" viewBox="0 0 16 16" xmlns="http://www.w3.org/2000/svg">
  <path d="M3.7 4.35C3.7 4.81944 3.31944 5.2 2.85 5.2C2.38056 5.2 2 4.81944 2 4.35C2 3.88056 2.38056 3.5 2.85 3.5C3.31944 3.5 3.7 3.88056 3.7 4.35Z"/>
  <path fill-rule="evenodd" clip-rule="evenodd" d="M5 4.34949C5 4.00432 5.27982 3.72449 5.625 3.72449H13.375C13.7202 3.72449 14 4.00432 14 4.34949C14 4.69467 13.7202 4.97449 13.375 4.97449H5.625C5.27982 4.97449 5 4.69467 5 4.34949Z"/>
  <path d="M3.7 8.00002C3.7 8.46946 3.31944 8.85002 2.85 8.85002C2.38056 8.85002 2 8.46946 2 8.00002C2 7.53058 2.38056 7.15002 2.85 7.15002C3.31944 7.15002 3.7 7.53058 3.7 8.00002Z"/>
  <path fill-rule="evenodd" clip-rule="evenodd" d="M5 8C5 7.65482 5.27982 7.375 5.625 7.375H13.375C13.7202 7.375 14 7.65482 14 8C14 8.34518 13.7202 8.625 13.375 8.625H5.625C5.27982 8.625 5 8.34518 5 8Z"/>
  <path d="M3.7 11.65C3.7 12.1194 3.31944 12.5 2.85 12.5C2.38056 12.5 2 12.1194 2 11.65C2 11.1806 2.38056 10.8 2.85 10.8C3.31944 10.8 3.7 11.1806 3.7 11.65Z"/>
  <path fill-rule="evenodd" clip-rule="evenodd" d="M5 11.6495C5 11.3043 5.27982 11.0245 5.625 11.0245H13.375C13.7202 11.0245 14 11.3043 14 11.6495C14 11.9947 13.7202 12.2745 13.375 12.2745H5.625C5.27982 12.2745 5 11.9947 5 11.6495Z"/>
</svg>
  