<svg
  width="16"
  height="16"
  viewBox="0 0 16 16"
  fill="none"
  xmlns="http://www.w3.org/2000/svg"
>
  <path
    fill-rule="evenodd"
    clip-rule="evenodd"
    d="M8 7.23009C7.57479 7.23009 7.23009 7.57479 7.23009 8C7.23009 8.42521 7.57479 8.76991 8 8.76991C8.42521 8.76991 8.76991 8.42521 8.76991 8C8.76991 7.57479 8.42521 7.23009 8 7.23009ZM7 8C7 7.44772 7.44772 7 8 7C8.55228 7 9 7.44772 9 8C9 8.55228 8.55228 9 8 9C7.44772 9 7 8.55228 7 8Z"
    stroke="currentColor"
    stroke-width="2"
    stroke-linecap="round"
    stroke-linejoin="round"
  />
  <path
    fill-rule="evenodd"
    clip-rule="evenodd"
    d="M7.99998 3.65C5.59754 3.65 3.64998 5.59756 3.64998 8C3.64998 10.4024 5.59754 12.35 7.99998 12.35C10.4024 12.35 12.35 10.4024 12.35 8C12.35 5.59756 10.4024 3.65 7.99998 3.65ZM2.34998 8C2.34998 4.87959 4.87957 2.35 7.99998 2.35C11.1204 2.35 13.65 4.87959 13.65 8C13.65 11.1204 11.1204 13.65 7.99998 13.65C4.87957 13.65 2.34998 11.1204 2.34998 8Z"
  />
</svg>
