<svg width="16" height="16" viewBox="0 0 16 16" fill="none" xmlns="http://www.w3.org/2000/svg">
<path fill-rule="evenodd" clip-rule="evenodd" d="M4.50791 7.3125V5.9375C4.50791 5.02582 4.87582 4.15148 5.53071 3.50682C6.1856 2.86216 7.07382 2.5 7.99997 2.5C8.92613 2.5 9.81435 2.86216 10.4692 3.50682C11.1241 4.15148 11.492 5.02582 11.492 5.9375V7.3125C11.8625 7.3125 12.2178 7.45737 12.4797 7.71523C12.7417 7.97309 12.8889 8.32283 12.8889 8.6875V12.125C12.8889 12.4897 12.7417 12.8394 12.4797 13.0973C12.2178 13.3551 11.8625 13.5 11.492 13.5H4.50791C4.13745 13.5 3.78216 13.3551 3.5202 13.0973C3.25825 12.8394 3.11108 12.4897 3.11108 12.125V8.6875C3.11108 8.32283 3.25825 7.97309 3.5202 7.71523C3.78216 7.45737 4.13745 7.3125 4.50791 7.3125ZM10.0952 5.9375V7.3125H5.90473V5.9375C5.90473 5.39049 6.12548 4.86589 6.51842 4.47909C6.91135 4.0923 7.44428 3.875 7.99997 3.875C8.55566 3.875 9.0886 4.0923 9.48153 4.47909C9.87446 4.86589 10.0952 5.39049 10.0952 5.9375Z" fill="#11181C"/>
</svg>
