<svg
    width="16"
    height="16"
    viewBox="0 0 16 16"
    fill="none"
    xmlns="http://www.w3.org/2000/svg"
>
<path
    d="M4.66667 7.33334V4.66668C4.66667 3.78262 5.01786 2.93478 5.64298 2.30965C6.2681 1.68453 7.11594 1.33334 8 1.33334C8.88406 1.33334 9.7319 1.68453 10.357 2.30965C10.9821 2.93478 11.3333 3.78262 11.3333 4.66668V7.33334M3.33333 7.33334H12.6667C13.403 7.33334 14 7.9303 14 8.66668V13.3333C14 14.0697 13.403 14.6667 12.6667 14.6667H3.33333C2.59695 14.6667 2 14.0697 2 13.3333V8.66668C2 7.9303 2.59695 7.33334 3.33333 7.33334Z"
    stroke="currentColor"
    stroke-linecap="round"
    stroke-linejoin="round"
/>
</svg>
