<svg width="16" height="16" viewBox="0 0 16 16" xmlns="http://www.w3.org/2000/svg">
<path fill-rule="evenodd" clip-rule="evenodd" d="M5.82306 0.5H10.1436C10.6808 0.499992 11.1231 0.499985 11.4832 0.529408C11.8569 0.55994 12.1989 0.625369 12.5197 0.788833C13.0184 1.0429 13.4238 1.4483 13.6778 1.94693C13.8413 2.26774 13.9067 2.60977 13.9373 2.98347C13.9667 3.34358 13.9667 3.78591 13.9667 4.32306V8.15C13.9667 8.50899 13.6757 8.8 13.3167 8.8C12.9577 8.8 12.6667 8.50899 12.6667 8.15V4.35C12.6667 3.77922 12.6662 3.39023 12.6416 3.08934C12.6176 2.79603 12.574 2.64412 12.5195 2.53711C12.3901 2.28309 12.1836 2.07657 11.9296 1.94714C11.8225 1.89262 11.6706 1.84905 11.3773 1.82509C11.0764 1.80051 10.6874 1.8 10.1167 1.8H5.85C5.27922 1.8 4.89023 1.80051 4.58934 1.82509C4.29603 1.84905 4.14412 1.89262 4.03711 1.94714C3.78309 2.07657 3.57657 2.28309 3.44714 2.53711C3.39262 2.64412 3.34905 2.79603 3.32509 3.08934C3.30051 3.39023 3.3 3.77922 3.3 4.35V11.2833C3.3 11.8541 3.30051 12.2431 3.32509 12.544C3.34905 12.8373 3.39262 12.9892 3.44714 13.0962C3.57657 13.3502 3.78309 13.5568 4.03711 13.6862C4.14412 13.7407 4.29603 13.7843 4.58934 13.8082C4.89023 13.8328 5.27922 13.8333 5.85 13.8333H7.98333C8.34232 13.8333 8.63333 14.1243 8.63333 14.4833C8.63333 14.8423 8.34232 15.1333 7.98333 15.1333H5.82306C5.28591 15.1333 4.84358 15.1333 4.48347 15.1039C4.10977 15.0734 3.76774 15.008 3.44693 14.8445C2.9483 14.5904 2.5429 14.185 2.28883 13.6864C2.12537 13.3656 2.05994 13.0236 2.02941 12.6499C1.99999 12.2898 1.99999 11.8474 2 11.3103V4.32306C1.99999 3.78591 1.99999 3.34358 2.02941 2.98347C2.05994 2.60977 2.12537 2.26774 2.28883 1.94693C2.5429 1.4483 2.9483 1.0429 3.44693 0.788833C3.76774 0.625369 4.10977 0.55994 4.48347 0.529408C4.84358 0.499985 5.28591 0.499992 5.82306 0.5ZM4.66667 4.48333C4.66667 4.12435 4.95768 3.83333 5.31667 3.83333H10.65C11.009 3.83333 11.3 4.12435 11.3 4.48333C11.3 4.84232 11.009 5.13333 10.65 5.13333H5.31667C4.95768 5.13333 4.66667 4.84232 4.66667 4.48333ZM4.66667 7.15C4.66667 6.79102 4.95768 6.5 5.31667 6.5H9.31667C9.67565 6.5 9.96667 6.79102 9.96667 7.15C9.96667 7.50899 9.67565 7.8 9.31667 7.8H5.31667C4.95768 7.8 4.66667 7.50899 4.66667 7.15Z" />
<path d="M6.03002 13.6495V9.14951H7.19131L8.3526 10.8039L9.51389 9.14951H10.6752V13.6495H9.51389V11.0686L8.3526 12.723L7.19131 11.0686V13.6495H6.03002ZM13.2881 13.6495L11.5461 11.4657H12.7074V9.14951H13.8687V11.4657H15.03L13.2881 13.6495Z" />
</svg>
