<svg
  width="16"
  height="16"
  viewBox="0 0 16 16"
  fill="none"
  xmlns="http://www.w3.org/2000/svg"
>
  <path
    d="M3.6665 8.3489L3.6665 4.3489L5.6665 6.37996L7.6665 4.3489L7.6665 8.3489"
    stroke="currentColor"
    stroke-linecap="round"
    stroke-linejoin="round"
  />
  <path
    d="M9.98193 14H4.31714H2.81714H2.62964C1.90476 14 1.31714 13.4124 1.31714 12.6875V12.6875V11.375V8.75V3.5C1.31714 3.10218 1.47517 2.72064 1.75648 2.43934C2.03778 2.15804 2.41931 2 2.81714 2H11.8171C12.215 2 12.5965 2.15804 12.8778 2.43934C13.1591 2.72064 13.3171 3.10218 13.3171 3.5V11.375V14M13.3171 14L11.3081 11.9909M13.3171 14L15.3262 11.9909"
    stroke="currentColor"
    stroke-linecap="round"
    stroke-linejoin="round"
  />
  <path
    d="M3.6665 10.0088H7.6665"
    stroke="currentColor"
    stroke-linecap="round"
    stroke-linejoin="round"
  />
  <path
    d="M3.6665 12.0063H9.66553"
    stroke="currentColor"
    stroke-linecap="round"
    stroke-linejoin="round"
  />
</svg>
