<svg
  width="16"
  height="16"
  viewBox="0 0 16 16"
  fill="none"
  xmlns="http://www.w3.org/2000/svg"
>
  <path
    fill-rule="evenodd"
    clip-rule="evenodd"
    d="M10.3333 3.64998C9.97435 3.64998 9.68334 3.35896 9.68334 2.99998C9.68334 2.64099 9.97435 2.34998 10.3333 2.34998H14C14.359 2.34998 14.65 2.64099 14.65 2.99998V6.66664C14.65 7.02563 14.359 7.31664 14 7.31664C13.641 7.31664 13.35 7.02563 13.35 6.66664V4.56921L10.1818 7.73737C9.92801 7.99121 9.51645 7.99121 9.26261 7.73737C9.00877 7.48353 9.00877 7.07197 9.26261 6.81813L12.4308 3.64998H10.3333ZM7.7374 9.26258C7.99124 9.51642 7.99124 9.92798 7.7374 10.1818L4.56924 13.35H6.66667C7.02566 13.35 7.31667 13.641 7.31667 14C7.31667 14.359 7.02566 14.65 6.66667 14.65H3.00001C2.82762 14.65 2.66229 14.5815 2.54039 14.4596C2.41849 14.3377 2.35001 14.1724 2.35001 14L2.35001 10.3333C2.35001 9.97432 2.64102 9.68331 3.00001 9.68331C3.35899 9.68331 3.65001 9.97432 3.65001 10.3333L3.65001 12.4307L6.81816 9.26258C7.072 9.00874 7.48356 9.00874 7.7374 9.26258Z"
  />
</svg>
