<svg xmlns="http://www.w3.org/2000/svg" width="16" height="16" viewBox="0 0 16 16">
  <path fill-rule="evenodd" clip-rule="evenodd" d="M0.87373 0.8737C1.12757 0.619859 1.53913 0.619859 1.79297 0.8737L6.45915 5.53988C6.45902 5.53975 6.45927 5.54 6.45915 5.53988L9.87459 8.95361C9.88413 8.96314 9.89331 8.9729 9.90214 8.98287L11.2626 10.3434C11.7372 9.68382 12.0167 8.87454 12.0167 7.99999V6.66665C12.0167 6.30767 12.3077 6.01665 12.6667 6.01665C13.0257 6.01665 13.3167 6.30767 13.3167 6.66665V7.99999C13.3167 9.23389 12.8963 10.3696 12.1911 11.2718L15.1263 14.207C15.3801 14.4609 15.3801 14.8724 15.1263 15.1263C14.8725 15.3801 14.4609 15.3801 14.2071 15.1263L11.2718 12.191C10.5305 12.7705 9.63156 13.1577 8.65002 13.2773V14.0167H10.6667C11.0257 14.0167 11.3167 14.3077 11.3167 14.6667C11.3167 15.0256 11.0257 15.3167 10.6667 15.3167H5.33335C4.97436 15.3167 4.68335 15.0256 4.68335 14.6667C4.68335 14.3077 4.97436 14.0167 5.33335 14.0167H7.35002V13.2773C4.72031 12.9568 2.68335 10.7163 2.68335 7.99999V6.66665C2.68335 6.30767 2.97436 6.01665 3.33335 6.01665C3.69233 6.01665 3.98335 6.30767 3.98335 6.66665V7.99999C3.98335 10.2183 5.78167 12.0167 8.00002 12.0167C8.87457 12.0167 9.68385 11.7371 10.3434 11.2626L9.35719 10.2764C8.96026 10.5134 8.4958 10.65 8.00002 10.65C6.53646 10.65 5.35002 9.46354 5.35002 7.99999V6.26922L0.87373 1.79294C0.619889 1.5391 0.619889 1.12754 0.87373 0.8737ZM6.65002 7.56922V7.99999C6.65002 8.74557 7.25443 9.34999 8.00002 9.34999C8.13112 9.34999 8.25773 9.3314 8.37745 9.29666L6.65002 7.56922ZM5.62615 2.15451C6.05912 1.28387 6.95884 0.683319 8.00002 0.683319C9.46357 0.683319 10.65 1.86976 10.65 3.33332V6.26665C10.65 6.62564 10.359 6.91665 10 6.91665C9.64103 6.91665 9.35002 6.62564 9.35002 6.26665V3.33332C9.35002 2.58773 8.7456 1.98332 8.00002 1.98332C7.47104 1.98332 7.01191 2.28746 6.79016 2.73337C6.63031 3.0548 6.24015 3.18579 5.91872 3.02595C5.59729 2.8661 5.4663 2.47594 5.62615 2.15451Z" />
</svg>