<svg xmlns="http://www.w3.org/2000/svg" width="16" height="16" viewBox="0 0 16 16" >
  <path fill-rule="evenodd" clip-rule="evenodd" d="M5.35002 3.33333C5.35002 1.86978 6.53646 0.683334 8.00002 0.683334C9.46357 0.683334 10.65 1.86978 10.65 3.33333V8C10.65 9.46355 9.46357 10.65 8.00002 10.65C6.53646 10.65 5.35002 9.46355 5.35002 8V3.33333ZM8.00002 1.98333C7.25443 1.98333 6.65002 2.58775 6.65002 3.33333V8C6.65002 8.74558 7.25443 9.35 8.00002 9.35C8.7456 9.35 9.35002 8.74558 9.35002 8V3.33333C9.35002 2.58775 8.7456 1.98333 8.00002 1.98333ZM3.33335 6.01667C3.69233 6.01667 3.98335 6.30768 3.98335 6.66667V8C3.98335 10.2183 5.78167 12.0167 8.00002 12.0167C10.2184 12.0167 12.0167 10.2183 12.0167 8V6.66667C12.0167 6.30768 12.3077 6.01667 12.6667 6.01667C13.0257 6.01667 13.3167 6.30768 13.3167 6.66667V8C13.3167 10.7163 11.2797 12.9568 8.65002 13.2773V14.0167H10.6667C11.0257 14.0167 11.3167 14.3077 11.3167 14.6667C11.3167 15.0257 11.0257 15.3167 10.6667 15.3167H5.33335C4.97436 15.3167 4.68335 15.0257 4.68335 14.6667C4.68335 14.3077 4.97436 14.0167 5.33335 14.0167H7.35002V13.2773C4.72031 12.9568 2.68335 10.7163 2.68335 8V6.66667C2.68335 6.30768 2.97436 6.01667 3.33335 6.01667Z"/>
</svg>