<svg
  width="16"
  height="16"
  viewBox="0 0 16 16"
  fill="none"
  xmlns="http://www.w3.org/2000/svg"
>
  <path
    d="M8 1.33333C7.46957 1.33333 6.96086 1.54405 6.58579 1.91912C6.21071 2.29419 6 2.8029 6 3.33333V8C6 8.53043 6.21071 9.03914 6.58579 9.41421C6.96086 9.78929 7.46957 10 8 10C8.53043 10 9.03914 9.78929 9.41421 9.41421C9.78929 9.03914 10 8.53043 10 8V3.33333C10 2.8029 9.78929 2.29419 9.41421 1.91912C9.03914 1.54405 8.53043 1.33333 8 1.33333Z"
    stroke="currentColor"
    stroke-linecap="round"
    stroke-linejoin="round"
  />
  <path
    d="M12.6666 6.66667V8C12.6666 9.23768 12.1749 10.4247 11.2997 11.2998C10.4246 12.175 9.2376 12.6667 7.99992 12.6667C6.76224 12.6667 5.57526 12.175 4.70009 11.2998C3.82492 10.4247 3.33325 9.23768 3.33325 8V6.66667"
    stroke="currentColor"
    stroke-linecap="round"
    stroke-linejoin="round"
  />
  <path
    d="M8 12.6667V14.6667"
    stroke="currentColor"
    stroke-linecap="round"
    stroke-linejoin="round"
  />
</svg>
