<svg
  width="16"
  height="16"
  viewBox="0 0 16 16"
  fill="none"
  xmlns="http://www.w3.org/2000/svg"
>
  <path
    fill-rule="evenodd"
    clip-rule="evenodd"
    d="M14.4596 2.54036C14.7135 2.7942 14.7135 3.20575 14.4596 3.45959L11.2915 6.62775H13.3889C13.7479 6.62775 14.0389 6.91877 14.0389 7.27775C14.0389 7.63674 13.7479 7.92775 13.3889 7.92775H9.72223C9.36324 7.92775 9.07223 7.63674 9.07223 7.27775V3.61109C9.07223 3.2521 9.36324 2.96109 9.72223 2.96109C10.0812 2.96109 10.3722 3.2521 10.3722 3.61109V5.70851L13.5404 2.54036C13.7942 2.28652 14.2058 2.28652 14.4596 2.54036ZM2.96112 9.7222C2.96112 9.36321 3.25213 9.0722 3.61112 9.0722H7.27778C7.63677 9.0722 7.92778 9.36321 7.92778 9.7222V13.3889C7.92778 13.7478 7.63677 14.0389 7.27778 14.0389C6.9188 14.0389 6.62778 13.7478 6.62778 13.3889V11.2914L3.45963 14.4596C3.20578 14.7134 2.79423 14.7134 2.54039 14.4596C2.28655 14.2058 2.28655 13.7942 2.54039 13.5404L5.70855 10.3722H3.61112C3.25213 10.3722 2.96112 10.0812 2.96112 9.7222Z"
  />
</svg>
