<svg width="22" height="22" viewBox="0 0 22 22"  xmlns="http://www.w3.org/2000/svg">
<path fill-rule="evenodd" clip-rule="evenodd" d="M10.9621 2.8323C10.9547 2.83592 10.9357 2.8461 10.9007 2.86948C10.8256 2.91962 10.7294 2.99388 10.56 3.12568L4.34286 7.96121C3.89374 8.31052 3.7864 8.40227 3.71231 8.50244C3.63395 8.60838 3.57558 8.72773 3.54006 8.85463C3.50648 8.9746 3.49996 9.11566 3.49996 9.68463V16.3167C3.49996 16.8424 3.50054 17.1916 3.52245 17.4597C3.54364 17.719 3.58098 17.8357 3.61804 17.9085C3.7219 18.1123 3.88763 18.278 4.09147 18.3819C4.16421 18.419 4.28091 18.4563 4.54024 18.4775C4.80833 18.4994 5.15754 18.5 5.68329 18.5H7.49996L7.49996 12.4411C7.49994 12.2064 7.49992 11.9873 7.51494 11.8035C7.53122 11.6043 7.56881 11.3814 7.68162 11.16C7.84141 10.8464 8.09637 10.5914 8.40998 10.4316C8.63137 10.3188 8.85425 10.2812 9.05349 10.265C9.23731 10.2499 9.45639 10.25 9.69106 10.25H12.3089C12.5435 10.25 12.7626 10.2499 12.9464 10.265C13.1457 10.2812 13.3686 10.3188 13.5899 10.4316C13.9036 10.5914 14.1585 10.8464 14.3183 11.16C14.4311 11.3814 14.4687 11.6043 14.485 11.8035C14.5 11.9873 14.5 12.2064 14.5 12.4411L14.5 18.5H16.3166C16.8424 18.5 17.1916 18.4994 17.4597 18.4775C17.719 18.4563 17.8357 18.419 17.9085 18.3819C18.1123 18.278 18.278 18.1123 18.3819 17.9085C18.4189 17.8357 18.4563 17.719 18.4775 17.4597C18.4994 17.1916 18.5 16.8424 18.5 16.3167V9.68463C18.5 9.11566 18.4934 8.9746 18.4599 8.85463C18.4243 8.72773 18.366 8.60838 18.2876 8.50244C18.2135 8.40227 18.1062 8.31053 17.6571 7.96121L11.44 3.12568C11.2705 2.99388 11.1743 2.91962 11.0992 2.86948C11.0642 2.8461 11.0452 2.83592 11.0378 2.8323C11.0129 2.82649 10.987 2.82649 10.9621 2.8323ZM11.0342 2.83062C11.0341 2.8306 11.0345 2.83074 11.0352 2.83107L11.0342 2.83062ZM10.9647 2.83107C10.9654 2.83074 10.9658 2.8306 10.9658 2.83062L10.9647 2.83107ZM10.5644 1.38587C10.8496 1.30863 11.1503 1.30863 11.4355 1.38587C11.765 1.47507 12.0442 1.69376 12.2946 1.88989C12.3169 1.90736 12.339 1.92465 12.3609 1.94165L18.578 6.77718C18.5998 6.79419 18.6215 6.81097 18.6428 6.82757C18.995 7.10107 19.2812 7.32326 19.4936 7.61047C19.6804 7.8631 19.8196 8.14771 19.9043 8.4503C20.0006 8.7943 20.0004 9.15658 20 9.60251C20 9.62957 20 9.65694 20 9.68463V16.3467C20 16.8345 20 17.2454 19.9725 17.5819C19.9437 17.9339 19.8812 18.27 19.7184 18.5895C19.4707 19.0755 19.0755 19.4707 18.5894 19.7184C18.27 19.8812 17.9339 19.9438 17.5818 19.9725C17.2454 20 16.8345 20 16.3466 20L14.4639 20C14.3528 20 14.2289 20.0001 14.1212 19.9913C13.9984 19.9812 13.8321 19.9561 13.6597 19.8683C13.4324 19.7524 13.2475 19.5676 13.1317 19.3402C13.0438 19.1679 13.0187 19.0016 13.0087 18.8788C12.9999 18.771 12.9999 18.6472 13 18.536L13 12.4667C13 12.1976 12.9994 12.0409 12.99 11.9257C12.9855 11.8715 12.9802 11.844 12.9777 11.8334C12.963 11.808 12.942 11.7869 12.9166 11.7723C12.906 11.7698 12.8784 11.7644 12.8243 11.76C12.7091 11.7506 12.5524 11.75 12.2833 11.75H9.71663C9.44756 11.75 9.29087 11.7506 9.17564 11.76C9.12149 11.7644 9.09397 11.7698 9.08333 11.7723C9.05797 11.7869 9.03691 11.808 9.02227 11.8334C9.01976 11.844 9.01438 11.8715 9.00996 11.9257C9.00054 12.0409 8.99996 12.1976 8.99996 12.4667L8.99997 18.536C9 18.6472 9.00003 18.771 8.99123 18.8788C8.98119 19.0016 8.95609 19.1679 8.86826 19.3402C8.75241 19.5676 8.56756 19.7524 8.3402 19.8683C8.16783 19.9561 8.00154 19.9812 7.87873 19.9913C7.77099 20.0001 7.64715 20 7.536 20L5.65327 20C5.16545 20 4.75455 20 4.41809 19.9725C4.066 19.9438 3.72992 19.8812 3.41049 19.7184C2.9244 19.4707 2.5292 19.0755 2.28153 18.5895C2.11877 18.27 2.0562 17.9339 2.02743 17.5819C1.99994 17.2454 1.99995 16.8345 1.99996 16.3467L1.99996 9.68463C1.99996 9.65694 1.99994 9.62957 1.99992 9.60252C1.99957 9.15658 1.99929 8.79431 2.09558 8.4503C2.18028 8.14771 2.31948 7.8631 2.50633 7.61047C2.71875 7.32326 3.00489 7.10107 3.3571 6.82756C3.37848 6.81097 3.40009 6.79418 3.42195 6.77718L9.63906 1.94165C9.66092 1.92465 9.683 1.90736 9.7053 1.88989C9.9557 1.69376 10.2349 1.47507 10.5644 1.38587ZM12.922 11.7737C12.922 11.7737 12.9225 11.7739 12.922 11.7737V11.7737Z" />
</svg>
