<svg width="16" height="16" viewBox="0 0 16 16"  xmlns="http://www.w3.org/2000/svg">
<path fill-rule="evenodd" clip-rule="evenodd" d="M7.6559 0.906997C7.88124 0.845983 8.11876 0.845983 8.34411 0.906997C8.60553 0.977779 8.82581 1.15066 9.00433 1.29077C9.02124 1.30405 9.03777 1.31702 9.05393 1.32959L13.5755 4.84634C13.5927 4.85974 13.6098 4.87299 13.6267 4.88614C13.8784 5.0815 14.0978 5.25178 14.2612 5.47272C14.4047 5.66668 14.5116 5.88518 14.5766 6.1175C14.6507 6.38213 14.6504 6.65986 14.65 6.97851C14.65 6.99994 14.65 7.02156 14.65 7.04337V11.8918C14.65 12.2437 14.65 12.5463 14.6297 12.7953C14.6082 13.0579 14.561 13.3176 14.4338 13.5671C14.2437 13.9403 13.9403 14.2437 13.5671 14.4338C13.3176 14.561 13.0579 14.6082 12.7953 14.6297C12.5463 14.65 12.2437 14.65 11.8918 14.65L10.5181 14.65C10.4385 14.65 10.3443 14.6501 10.2615 14.6433C10.1657 14.6355 10.0295 14.6155 9.88691 14.5428C9.70189 14.4485 9.55146 14.2981 9.45718 14.1131C9.38454 13.9705 9.36453 13.8343 9.3567 13.7385C9.34994 13.6557 9.34997 13.5615 9.35 13.4819L9.35 9.06666C9.35 8.86925 9.3495 8.76029 9.34308 8.68173C9.34236 8.67294 9.34162 8.66543 9.34091 8.65909C9.33457 8.65838 9.32706 8.65764 9.31827 8.65692C9.23971 8.6505 9.13075 8.64999 8.93334 8.64999H7.06667C6.86926 8.64999 6.76029 8.6505 6.68174 8.65692C6.67294 8.65764 6.66544 8.65838 6.6591 8.65909C6.65839 8.66543 6.65765 8.67294 6.65693 8.68173C6.65051 8.76029 6.65 8.86925 6.65 9.06666L6.65001 13.4819C6.65004 13.5615 6.65007 13.6557 6.6433 13.7385C6.63548 13.8343 6.61546 13.9705 6.54283 14.1131C6.44855 14.2981 6.29812 14.4485 6.11309 14.5428C5.97054 14.6155 5.83431 14.6355 5.73853 14.6433C5.6557 14.6501 5.56152 14.65 5.48193 14.65L4.10816 14.65C3.75628 14.65 3.4537 14.65 3.20467 14.6297C2.94214 14.6082 2.68243 14.561 2.43292 14.4338C2.05973 14.2437 1.75632 13.9403 1.56617 13.5671C1.43904 13.3176 1.39178 13.0579 1.37033 12.7953C1.34998 12.5463 1.34999 12.2437 1.35 11.8918L1.35 7.04337C1.35 7.02156 1.34998 6.99994 1.34996 6.9785C1.34963 6.65986 1.34934 6.38213 1.42341 6.1175C1.48844 5.88518 1.59531 5.66668 1.73876 5.47272C1.90218 5.25178 2.12158 5.0815 2.3733 4.88613C2.39024 4.87299 2.40732 4.85974 2.42453 4.84634L6.94607 1.32959C6.96223 1.31702 6.97877 1.30405 6.99568 1.29077C7.1742 1.15066 7.39448 0.977779 7.6559 0.906997ZM8 2.16464C8.00399 2.16716 8.00869 2.1702 8.01413 2.17383C8.06485 2.20772 8.13139 2.25898 8.25581 2.35575L12.7773 5.8725C13.1087 6.13018 13.1727 6.18717 13.2161 6.24576C13.2655 6.31259 13.3023 6.38787 13.3247 6.46791C13.3444 6.5381 13.35 6.62366 13.35 7.04337V11.8667C13.35 12.2508 13.3495 12.4997 13.334 12.6895C13.3191 12.8716 13.2937 12.9412 13.2755 12.9769C13.21 13.1055 13.1055 13.21 12.9769 13.2755C12.9412 13.2937 12.8716 13.3191 12.6895 13.334C12.4997 13.3495 12.2508 13.35 11.8667 13.35H10.65L10.65 9.04575C10.65 8.87717 10.65 8.71394 10.6388 8.57587C10.6264 8.4245 10.5973 8.24712 10.5065 8.06891C10.3803 7.82116 10.1788 7.61974 9.93109 7.4935C9.75288 7.4027 9.5755 7.3736 9.42413 7.36124C9.28606 7.34996 9.12282 7.34997 8.95425 7.34999H7.04575C6.87718 7.34997 6.71395 7.34996 6.57587 7.36124C6.42451 7.3736 6.24712 7.4027 6.06892 7.4935C5.82117 7.61974 5.61974 7.82116 5.49351 8.06891C5.40271 8.24712 5.37361 8.4245 5.36124 8.57587C5.34996 8.71394 5.34998 8.87717 5.35 9.04574L5.35 13.35H4.13334C3.74924 13.35 3.50026 13.3495 3.31054 13.334C3.1284 13.3191 3.05881 13.2937 3.02311 13.2755C2.89453 13.21 2.79 13.1055 2.72448 12.9769C2.70629 12.9412 2.68089 12.8716 2.66601 12.6895C2.65051 12.4997 2.65 12.2508 2.65 11.8667V7.04337C2.65 6.62366 2.65565 6.5381 2.6753 6.46791C2.6977 6.38787 2.73452 6.31259 2.78395 6.24576C2.82729 6.18717 2.89135 6.13018 3.22266 5.8725L7.74419 2.35575C7.86861 2.25898 7.93516 2.20772 7.98588 2.17383C7.99132 2.1702 7.99601 2.16716 8 2.16464Z" />
</svg>
