<svg width="16" height="16" viewBox="0 0 16 16" xmlns="http://www.w3.org/2000/svg">
<path d="M10.8269 1.3501H5.17301C4.63586 1.35009 4.19353 1.35008 3.83343 1.37951C3.45973 1.41004 3.11769 1.47547 2.79688 1.63893C2.29825 1.893 1.89285 2.29839 1.63879 2.79702C1.45773 3.15237 1.39629 3.53566 1.37035 3.96048C1.35942 4.13942 1.42289 4.31492 1.54572 4.44549C1.66856 4.57606 1.83987 4.6501 2.01914 4.6501H13.9808C14.16 4.6501 14.3313 4.57606 14.4542 4.44549C14.577 4.31492 14.6405 4.13942 14.6296 3.96048C14.6036 3.53566 14.5422 3.15237 14.3611 2.79702C14.1071 2.29839 13.7017 1.893 13.203 1.63893C12.8822 1.47547 12.5402 1.41004 12.1665 1.37951C11.8064 1.35008 11.364 1.35009 10.8269 1.3501Z"/>
<path d="M1.99998 6.02002C2.35896 6.02002 2.64998 6.31103 2.64998 6.67002V10.8001C2.64998 11.3709 2.65048 11.7599 2.67507 12.0608C2.69903 12.3541 2.74259 12.506 2.79712 12.613C2.92655 12.867 3.13307 13.0735 3.38709 13.203C3.4941 13.2575 3.646 13.301 3.93931 13.325C4.24021 13.3496 4.6292 13.3501 5.19998 13.3501H10.8C11.3708 13.3501 11.7597 13.3496 12.0606 13.325C12.3539 13.301 12.5059 13.2575 12.6129 13.203C12.8669 13.0735 13.0734 12.867 13.2028 12.613C13.2574 12.506 13.3009 12.3541 13.3249 12.0608C13.3495 11.7599 13.35 11.3709 13.35 10.8001V6.6701C13.35 6.31111 13.641 6.0201 14 6.0201C14.359 6.0201 14.65 6.31111 14.65 6.6701V10.827C14.65 11.3642 14.65 11.8065 14.6206 12.1666C14.59 12.5403 14.5246 12.8824 14.3611 13.2032C14.1071 13.7018 13.7017 14.1072 13.2031 14.3613C12.8822 14.5247 12.5402 14.5902 12.1665 14.6207C11.8064 14.6501 11.3641 14.6501 10.8269 14.6501H5.17304C4.63588 14.6501 4.19356 14.6501 3.83345 14.6207C3.45975 14.5902 3.11772 14.5247 2.7969 14.3613C2.29827 14.1072 1.89287 13.7018 1.63881 13.2032C1.47535 12.8824 1.40992 12.5403 1.37938 12.1666C1.34996 11.8065 1.34997 11.3642 1.34998 10.827V6.67002C1.34998 6.31103 1.64099 6.02002 1.99998 6.02002Z" />
</svg>
