<svg width="16" height="16" viewBox="0 0 16 16" xmlns="http://www.w3.org/2000/svg">
<path d="M4.00005 5.01489C4.54129 5.01489 4.98005 5.45365 4.98005 5.99489L4.98005 10.0049C4.98005 10.5461 4.54129 10.9849 4.00005 10.9849L2.66005 10.9849C2.11882 10.9849 1.68005 10.5461 1.68005 10.0049V5.99489C1.68005 5.45365 2.11882 5.01489 2.66005 5.01489H4.00005Z"/>
<path d="M8.67004 5.01489C9.21128 5.01489 9.65004 5.45365 9.65004 5.99489L9.65004 10.0049C9.65004 10.5461 9.21128 10.9849 8.67004 10.9849L7.33004 10.9849C6.7888 10.9849 6.35004 10.5461 6.35004 10.0049L6.35004 5.99489C6.35004 5.45365 6.7888 5.01489 7.33004 5.01489H8.67004Z"/>
<path d="M13.34 5.01489C13.8813 5.01489 14.32 5.45365 14.32 5.99489L14.32 10.0049C14.32 10.5461 13.8813 10.9849 13.34 10.9849L12 10.9849C11.4588 10.9849 11.02 10.5461 11.02 10.0049L11.02 5.99489C11.02 5.45365 11.4588 5.01489 12 5.01489H13.34Z"/>
</svg>
