<svg
  width="16"
  height="16"
  viewBox="0 0 16 16"
  xmlns="http://www.w3.org/2000/svg"
>
  <path
    fill-rule="evenodd"
    clip-rule="evenodd"
    d="M2.49998 2.14998C2.40715 2.14998 2.31813 2.18685 2.25249 2.25249C2.18685 2.31813 2.14998 2.40715 2.14998 2.49998V13.5C2.14998 13.5928 2.18685 13.6818 2.25249 13.7475C2.31813 13.8131 2.40715 13.85 2.49998 13.85H3.84998V2.14998H2.49998ZM2.49998 0.849976C2.06237 0.849976 1.64268 1.02381 1.33325 1.33325C1.02381 1.64268 0.849976 2.06237 0.849976 2.49998V13.5C0.849976 13.9376 1.02381 14.3573 1.33325 14.6667C1.64268 14.9761 2.06237 15.15 2.49998 15.15H8.99998C9.35896 15.15 9.64997 14.859 9.64997 14.5C9.64997 14.141 9.35896 13.85 8.99998 13.85H5.14998V2.14998H9.99998C10.359 2.14998 10.65 1.85896 10.65 1.49998C10.65 1.14099 10.359 0.849976 9.99998 0.849976H2.49998ZM13 0.849976C13.2462 0.849976 13.4712 0.989077 13.5814 1.20929L15.0814 4.20929C15.1265 4.29954 15.15 4.39907 15.15 4.49998V13C15.15 13.5702 14.9235 14.1171 14.5203 14.5203C14.1171 14.9235 13.5702 15.15 13 15.15C12.4298 15.15 11.8829 14.9235 11.4797 14.5203C11.0765 14.1171 10.85 13.5702 10.85 13V4.49998C10.85 4.39907 10.8735 4.29954 10.9186 4.20929L12.4186 1.20929C12.5287 0.989077 12.7538 0.849976 13 0.849976ZM12.15 11.15V13C12.15 13.2254 12.2395 13.4416 12.3989 13.601C12.5583 13.7604 12.7745 13.85 13 13.85C13.2254 13.85 13.4416 13.7604 13.601 13.601C13.7604 13.4416 13.85 13.2254 13.85 13V11.15H12.15ZM13.85 9.84998H12.15V4.65342L13 2.95342L13.85 4.65342V9.84998ZM6.34998 4.99998C6.34998 4.64099 6.64099 4.34998 6.99998 4.34998H8.99998C9.35896 4.34998 9.64997 4.64099 9.64997 4.99998C9.64997 5.35896 9.35896 5.64998 8.99998 5.64998H6.99998C6.64099 5.64998 6.34998 5.35896 6.34998 4.99998Z"
    fill="currentColor"
  />
</svg>
