<svg
  width="16"
  height="16"
  viewBox="0 0 16 16"
  fill="none"
  xmlns="http://www.w3.org/2000/svg"
>
  <path
    d="M8.93329 1.50005H3.99996C3.64634 1.50005 3.3072 1.63701 3.05715 1.88081C2.8071 2.12461 2.66663 2.45527 2.66663 2.80005V13.2C2.66663 13.5448 2.8071 13.8755 3.05715 14.1193C3.3072 14.3631 3.64634 14.5 3.99996 14.5H12C12.3536 14.5 12.6927 14.3631 12.9428 14.1193C13.1928 13.8755 13.3333 13.5448 13.3333 13.2V8.39005"
    stroke="currentColor"
    stroke-linecap="round"
    stroke-linejoin="round"
  />
  <path
    d="M1.33337 4.16672H4.00004"
    stroke="currentColor"
    stroke-linecap="round"
    stroke-linejoin="round"
  />
  <path
    d="M1.33337 6.83339H4.00004"
    stroke="currentColor"
    stroke-linecap="round"
    stroke-linejoin="round"
  />
  <path
    d="M1.33337 9.50005H4.00004"
    stroke="currentColor"
    stroke-linecap="round"
    stroke-linejoin="round"
  />
  <path
    d="M1.33337 12.1667H4.00004"
    stroke="currentColor"
    stroke-linecap="round"
    stroke-linejoin="round"
  />
  <path
    d="M14.2519 3.91738C14.5175 3.65181 14.6667 3.29162 14.6667 2.91605C14.6667 2.54048 14.5175 2.18029 14.2519 1.91472C13.9864 1.64915 13.6262 1.49995 13.2506 1.49995C12.875 1.49995 12.5148 1.64915 12.2493 1.91472L8.90928 5.25605C8.75078 5.41446 8.63476 5.61027 8.57194 5.82538L8.01394 7.73872C7.99721 7.79608 7.99621 7.85689 8.01104 7.91478C8.02587 7.97266 8.05599 8.0255 8.09824 8.06775C8.1405 8.11 8.19333 8.14012 8.25122 8.15495C8.3091 8.16978 8.36991 8.16878 8.42728 8.15205L10.3406 7.59405C10.5557 7.53124 10.7515 7.41522 10.9099 7.25672L14.2519 3.91738Z"
    stroke="currentColor"
    stroke-linecap="round"
    stroke-linejoin="round"
  />
</svg>
