<svg
  width="16"
  height="16"
  viewBox="0 0 16 16"
  fill="none"
  xmlns="http://www.w3.org/2000/svg"
>
  <path
    fill-rule="evenodd"
    clip-rule="evenodd"
    d="M1.81749 1.68534C2.09414 1.40868 2.54268 1.40868 2.81934 1.68533L5.36301 4.229C5.38034 4.24471 5.39673 4.26112 5.41216 4.27814L12.957 11.823C12.9875 11.8487 13.0159 11.877 13.0419 11.9079L14.4468 13.3128C14.7235 13.5894 14.7235 14.038 14.4468 14.3146C14.1702 14.5913 13.7217 14.5913 13.445 14.3146L12.2753 13.145C12.0666 13.1817 11.8521 13.2008 11.6336 13.2008H4.36638C2.33321 13.2008 0.684998 11.5526 0.684998 9.51943C0.684998 7.78398 1.88542 6.32957 3.50158 5.94033C3.61116 5.55053 3.76996 5.18148 3.97069 4.84037L1.81749 2.68718C1.54084 2.41053 1.54084 1.96199 1.81749 1.68534ZM5.02129 5.89097C4.91212 6.13759 4.83281 6.40017 4.78776 6.67418C4.73547 6.99226 4.47503 7.23493 4.15406 7.26466C3.0033 7.37124 2.10183 8.34047 2.10183 9.51943C2.10183 10.7701 3.1157 11.784 4.36638 11.784H10.9143L5.02129 5.89097ZM6.98797 2.64481C7.31448 2.57266 7.65323 2.53476 8 2.53476C10.1418 2.53476 11.946 3.97528 12.4984 5.94033C14.1146 6.32957 15.315 7.78398 15.315 9.51943C15.315 9.98475 15.2283 10.4315 15.0696 10.8432C14.9289 11.2083 14.5189 11.3902 14.1538 11.2494C13.7887 11.1087 13.6069 10.6987 13.7476 10.3336C13.8446 10.0819 13.8982 9.80775 13.8982 9.51943C13.8982 8.34047 12.9967 7.37124 11.8459 7.26466C11.525 7.23493 11.2645 6.99226 11.2122 6.67418C10.9584 5.12986 9.61609 3.95159 8 3.95159C7.75671 3.95159 7.52046 3.97815 7.29369 4.02826C6.91166 4.11268 6.53353 3.87142 6.4491 3.48939C6.36468 3.10736 6.60594 2.72923 6.98797 2.64481Z"
  />
</svg>
