<svg
  width="16"
  height="16"
  viewBox="0 0 16 16"
  fill="none"
  xmlns="http://www.w3.org/2000/svg"
>
  <path
    d="M3.52392 3.94658C1.82986 4.79194 1.4284 6.72846 1.35247 7.59055C1.27654 8.45263 1.44183 9.31885 1.82986 10.0924C2.21789 10.866 2.81338 11.5164 3.54979 11.971C4.28621 12.4256 5.13452 12.6664 5.99994 12.6667H12.2299M13.7879 11.788C14.3505 11.2254 14.6666 10.4623 14.6666 9.66667C14.6666 8.87102 14.3505 8.10796 13.7879 7.54535C13.2253 6.98274 12.4623 6.66667 11.6666 6.66667H10.4733C10.226 5.83732 9.753 5.09306 9.1071 4.51707C8.78778 4.23232 8.43243 3.99423 8.05176 3.80801C7.27216 3.42666 6.37926 3.40498 5.51139 3.40498V3.40498"
    stroke="currentColor"
    stroke-linecap="round"
    stroke-linejoin="round"
  />
  <path
    d="M1.63184 1.9974L13.5833 13.9489"
    stroke="currentColor"
    stroke-linecap="round"
  />
</svg>
