<svg width="22" height="22" viewBox="0 0 22 22" xmlns="http://www.w3.org/2000/svg">
  <path fill-rule="evenodd" clip-rule="evenodd" d="M3.30146 3.13965C3.59436 2.84676 4.06923 2.84676 4.36212 3.13965C9.25195 8.02945 14.1418 12.9192 19.0316 17.8091C19.3245 18.102 19.3245 18.5768 19.0316 18.8697C18.7387 19.1626 18.2639 19.1626 17.971 18.8697L16.4418 17.3406C16.1637 17.3943 15.8769 17.4224 15.584 17.4224H6.41554C3.92985 17.4224 1.91479 15.4074 1.91479 12.9217C1.91479 10.7706 3.42331 8.97265 5.44054 8.52693C5.58547 7.98034 5.80876 7.46584 6.09743 6.99627L3.30147 4.20031C3.00857 3.90742 3.00857 3.43255 3.30146 3.13965ZM7.19907 8.0979C7.01033 8.47331 6.87576 8.88029 6.80533 9.30872C6.74997 9.64547 6.47424 9.90238 6.13442 9.93386C4.60935 10.0751 3.41479 11.3593 3.41479 12.9217C3.41479 14.5789 4.75828 15.9224 6.41554 15.9224H15.0236L7.19907 8.0979ZM9.75402 4.38886C10.1558 4.30007 10.5728 4.25341 10.9998 4.25341C13.6656 4.25341 15.9067 6.06656 16.5591 8.52694C18.5763 8.97265 20.0848 10.7706 20.0848 12.9217C20.0848 13.4908 19.9788 14.0369 19.7848 14.5401C19.6358 14.9266 19.2017 15.1191 18.8153 14.9701C18.4288 14.8212 18.2362 14.3871 18.3852 14.0006C18.5139 13.6667 18.5848 13.3034 18.5848 12.9217C18.5848 11.3593 17.3902 10.0751 15.8652 9.93386C15.5253 9.90238 15.2496 9.64547 15.1943 9.30872C14.8627 7.29204 13.1102 5.75341 10.9998 5.75341C10.6824 5.75341 10.3739 5.78807 10.0777 5.85353C9.67323 5.94291 9.2729 5.68748 9.18352 5.28303C9.09414 4.87857 9.34957 4.47824 9.75402 4.38886Z" />
</svg>
