<svg width="16" height="16" viewBox="0 0 16 16" xmlns="http://www.w3.org/2000/svg">
<path d="M2.32363 3.3501C1.78239 3.3501 1.34363 3.78886 1.34363 4.3301V11.6701C1.34363 12.2113 1.78239 12.6501 2.32363 12.6501H3.66363C4.20487 12.6501 4.64363 12.2113 4.64363 11.6701L4.64363 4.3301C4.64363 3.78886 4.20487 3.3501 3.66363 3.3501H2.32363Z"/>
<path fill-rule="evenodd" clip-rule="evenodd" d="M6.65679 4.01587C6.11555 4.01587 5.67679 4.45463 5.67679 4.99587L5.67679 11.0043C5.67679 11.5456 6.11555 11.9843 6.65679 11.9843L8.66679 11.9843C9.20803 11.9843 9.64679 11.5456 9.64679 11.0043L9.64679 4.99587C9.64679 4.45463 9.20803 4.01587 8.66679 4.01587L6.65679 4.01587ZM6.97679 10.6843L6.97679 5.31587L8.34679 5.31587L8.34679 10.6843L6.97679 10.6843Z"/>
<path fill-rule="evenodd" clip-rule="evenodd" d="M11.66 4.01587C11.1187 4.01587 10.68 4.45463 10.68 4.99587L10.68 11.0043C10.68 11.5456 11.1187 11.9843 11.66 11.9843L13.67 11.9843C14.2112 11.9843 14.65 11.5456 14.65 11.0043L14.65 4.99587C14.65 4.45463 14.2112 4.01587 13.67 4.01587L11.66 4.01587ZM11.98 10.6843L11.98 5.31587L13.35 5.31587L13.35 10.6843L11.98 10.6843Z"/>
</svg>
