<svg
  width="16"
  height="16"
  viewBox="0 0 16 16"
  fill="none"
  xmlns="http://www.w3.org/2000/svg"
>
  <path
    d="M3.54689 3.66666H2.56562C2.02368 3.66666 1.58435 4.06961 1.58435 4.56666V11.7667C1.58435 12.2637 2.02368 12.6667 2.56562 12.6667H3.54689C4.08883 12.6667 4.52816 12.2637 4.52816 11.7667V4.56666C4.52816 4.06961 4.08883 3.66666 3.54689 3.66666Z"
    stroke="currentColor"
    stroke-linecap="round"
    stroke-linejoin="round"
  />
  <path
    d="M8.49074 3.66666H7.50947C6.96753 3.66666 6.5282 4.06961 6.5282 4.56666V11.7667C6.5282 12.2637 6.96753 12.6667 7.50947 12.6667H8.49074C9.03268 12.6667 9.47201 12.2637 9.47201 11.7667V4.56666C9.47201 4.06961 9.03268 3.66666 8.49074 3.66666Z"
    stroke="currentColor"
    stroke-linecap="round"
    stroke-linejoin="round"
  />
  <path
    d="M13.4345 3.66666H12.4532C11.9113 3.66666 11.4719 4.06961 11.4719 4.56666V11.7667C11.4719 12.2637 11.9113 12.6667 12.4532 12.6667H13.4345C13.9764 12.6667 14.4157 12.2637 14.4157 11.7667V4.56666C14.4157 4.06961 13.9764 3.66666 13.4345 3.66666Z"
    fill="currentColor"
    stroke="currentColor"
    stroke-linecap="round"
    stroke-linejoin="round"
  />
</svg>
