<svg width="16" height="16" viewBox="0 0 16 16" xmlns="http://www.w3.org/2000/svg">
<path d="M13.6701 3.3501C14.2113 3.3501 14.6501 3.78886 14.6501 4.3301L14.6501 11.6701C14.6501 12.2113 14.2113 12.6501 13.6701 12.6501H12.3301C11.7888 12.6501 11.3501 12.2113 11.3501 11.6701L11.3501 4.3301C11.3501 3.78886 11.7888 3.3501 12.3301 3.3501H13.6701Z"/>
<path fill-rule="evenodd" clip-rule="evenodd" d="M4.33369 4.01587C4.87493 4.01587 5.31369 4.45463 5.31369 4.99587L5.31369 11.0043C5.31369 11.5456 4.87493 11.9843 4.33369 11.9843H2.32369C1.78245 11.9843 1.34369 11.5456 1.34369 11.0043V4.99587C1.34369 4.45463 1.78245 4.01587 2.32369 4.01587L4.33369 4.01587ZM4.01369 10.6843L4.01369 5.31587L2.64369 5.31587L2.64369 10.6843L4.01369 10.6843Z"/>
<path fill-rule="evenodd" clip-rule="evenodd" d="M9.33686 4.01587C9.8781 4.01587 10.3169 4.45463 10.3169 4.99587L10.3169 11.0043C10.3169 11.5456 9.8781 11.9843 9.33686 11.9843H7.32686C6.78563 11.9843 6.34686 11.5456 6.34686 11.0043L6.34686 4.99587C6.34686 4.45463 6.78562 4.01587 7.32686 4.01587L9.33686 4.01587ZM9.01686 10.6843L9.01686 5.31587L7.64686 5.31587L7.64686 10.6843L9.01686 10.6843Z"/>
</svg>
