<svg width="16" height="16" viewBox="0 0 16 16"  xmlns="http://www.w3.org/2000/svg">
<path opacity="0.3" d="M10.8269 1.3501H5.17304C4.63589 1.35009 4.19356 1.35008 3.83345 1.37951C3.45975 1.41004 3.11772 1.47547 2.7969 1.63893C2.29827 1.893 1.89287 2.29839 1.63881 2.79702C1.47535 3.11784 1.40992 3.45987 1.37938 3.83357C1.34996 4.19368 1.34997 4.636 1.34998 5.17315V10.827C1.34997 11.3642 1.34996 11.8065 1.37938 12.1666C1.40992 12.5403 1.47535 12.8824 1.63881 13.2032C1.89287 13.7018 2.29827 14.1072 2.7969 14.3613C3.11772 14.5247 3.45975 14.5902 3.83345 14.6207C4.19356 14.6501 4.63588 14.6501 5.17304 14.6501H10.8269C11.3641 14.6501 11.8064 14.6501 12.1665 14.6207C12.5402 14.5902 12.8822 14.5247 13.2031 14.3613C13.7017 14.1072 14.1071 13.7018 14.3611 13.2032C14.5246 12.8824 14.59 12.5403 14.6206 12.1666C14.65 11.8065 14.65 11.3642 14.65 10.827V5.17316C14.65 4.636 14.65 4.19368 14.6206 3.83357C14.59 3.45987 14.5246 3.11784 14.3611 2.79702C14.1071 2.29839 13.7017 1.893 13.2031 1.63893C12.8822 1.47547 12.5402 1.41004 12.1665 1.37951C11.8064 1.35008 11.3641 1.35009 10.8269 1.3501Z" />
</svg>
