<svg width="22" height="22" viewBox="0 0 22 22"  xmlns="http://www.w3.org/2000/svg">
<path opacity="0.3" d="M14.8818 2H7.11821C6.37513 1.99999 5.77197 1.99999 5.28273 2.03996C4.77778 2.08121 4.32851 2.16876 3.91103 2.38148C3.25247 2.71703 2.71703 3.25247 2.38148 3.91103C2.16876 4.32851 2.08121 4.77778 2.03996 5.28273C1.99999 5.77197 1.99999 6.37512 2 7.1182V14.8818C1.99999 15.6249 1.99999 16.228 2.03996 16.7173C2.08121 17.2222 2.16876 17.6715 2.38148 18.089C2.71703 18.7475 3.25247 19.283 3.91103 19.6185C4.32851 19.8312 4.77778 19.9188 5.28273 19.96C5.77195 20 6.37507 20 7.11811 20H14.8818C15.6248 20 16.2281 20 16.7173 19.96C17.2222 19.9188 17.6715 19.8312 18.089 19.6185C18.7475 19.283 19.283 18.7475 19.6185 18.089C19.8312 17.6715 19.9188 17.2222 19.96 16.7173C20 16.2281 20 15.6249 20 14.8819V7.11819C20 6.37515 20 5.77195 19.96 5.28273C19.9188 4.77778 19.8312 4.32851 19.6185 3.91103C19.283 3.25247 18.7475 2.71703 18.089 2.38148C17.6715 2.16876 17.2222 2.08121 16.7173 2.03996C16.228 1.99999 15.6249 1.99999 14.8818 2Z" />
</svg>
