<svg width="16" height="16" viewBox="0 0 16 16" xmlns="http://www.w3.org/2000/svg">
<path fill-rule="evenodd" clip-rule="evenodd" d="M8.54999 2.65822C8.44266 2.65145 8.28373 2.65001 8.00705 2.65001H6.07999C5.56522 2.65001 5.21823 2.65051 4.95068 2.67237C4.69073 2.69361 4.56352 2.73172 4.4779 2.77535C4.26151 2.8856 4.08559 3.06153 3.97533 3.27792C3.93171 3.36353 3.89359 3.49074 3.87235 3.7507C3.85049 4.01825 3.84999 4.36523 3.84999 4.88001V11.12C3.84999 11.6348 3.85049 11.9818 3.87235 12.2493C3.89359 12.5093 3.93171 12.6365 3.97533 12.7221C4.08559 12.9385 4.26151 13.1144 4.4779 13.2247C4.56352 13.2683 4.69073 13.3064 4.95068 13.3276C5.21823 13.3495 5.56522 13.35 6.07999 13.35H9.91999C10.4348 13.35 10.7817 13.3495 11.0493 13.3276C11.3093 13.3064 11.4365 13.2683 11.5221 13.2247C11.7385 13.1144 11.9144 12.9385 12.0246 12.7221C12.0683 12.6365 12.1064 12.5093 12.1276 12.2493C12.1495 11.9818 12.15 11.6348 12.15 11.12V6.79294C12.15 6.51626 12.1485 6.35734 12.1418 6.25001L10.1399 6.25001C9.98934 6.25003 9.83998 6.25005 9.71298 6.23967C9.57273 6.22821 9.40358 6.20093 9.2325 6.11376C8.9973 5.99392 8.80607 5.8027 8.68623 5.56749C8.59906 5.39642 8.57178 5.22726 8.56032 5.08702C8.54995 4.96002 8.54997 4.81066 8.54999 4.66014L8.54999 2.65822ZM9.4535 1.56297C9.31609 1.50161 9.17311 1.45294 9.02635 1.4177C8.74276 1.34962 8.44909 1.34978 8.07097 1.34998C8.04993 1.34999 8.02863 1.35001 8.00705 1.35001L6.05346 1.35001C5.57198 1.35 5.1716 1.34999 4.84482 1.37669C4.50447 1.4045 4.18714 1.46448 3.88771 1.61704C3.42671 1.85193 3.05191 2.22673 2.81702 2.68773C2.66446 2.98715 2.60448 3.30449 2.57667 3.64484C2.54997 3.97162 2.54998 4.372 2.54999 4.85347V11.1465C2.54998 11.628 2.54997 12.0284 2.57667 12.3552C2.60448 12.6955 2.66446 13.0129 2.81702 13.3123C3.05191 13.7733 3.42671 14.1481 3.88771 14.383C4.18714 14.5355 4.50447 14.5955 4.84482 14.6233C5.1716 14.65 5.57198 14.65 6.05346 14.65H9.94652C10.428 14.65 10.8284 14.65 11.1552 14.6233C11.4955 14.5955 11.8128 14.5355 12.1123 14.383C12.5733 14.1481 12.9481 13.7733 13.183 13.3123C13.3355 13.0129 13.3955 12.6955 13.4233 12.3552C13.45 12.0284 13.45 11.628 13.45 11.1465V6.79294C13.45 6.77136 13.45 6.75006 13.45 6.72902C13.4502 6.3509 13.4504 6.05723 13.3823 5.77365C13.3471 5.62687 13.2984 5.48388 13.237 5.34646C13.2327 5.3362 13.228 5.32607 13.2232 5.31608C13.1834 5.23014 13.1386 5.14645 13.089 5.06547C12.9366 4.8168 12.7288 4.60925 12.4613 4.34202C12.4464 4.32716 12.4313 4.31211 12.4161 4.29685L10.5031 2.38392C10.4879 2.36866 10.4728 2.35359 10.458 2.33871C10.1907 2.07119 9.98319 1.86342 9.73453 1.71104C9.65355 1.66142 9.56988 1.61662 9.48395 1.57682C9.47394 1.57195 9.46379 1.56734 9.4535 1.56297ZM9.84999 3.56924V4.64001C9.84999 4.79002 9.85034 4.88103 9.85372 4.94627C9.91896 4.94965 10.01 4.95001 10.16 4.95001H11.2308L9.84999 3.56924Z"/>
</svg>
