<svg
  width="16"
  height="16"
  viewBox="0 0 16 16"
  fill="none"
  xmlns="http://www.w3.org/2000/svg"
>
  <path
    d="M9.83333 2H4.33334C3.97971 2 3.64058 2.14048 3.39053 2.39052C3.14048 2.64057 3 2.97971 3 3.33333V13.3333C3 13.687 3.14048 14.0261 3.39053 14.2761C3.64058 14.5262 3.97971 14.6667 4.33334 14.6667H11.8333C12.187 14.6667 12.5261 14.5262 12.7761 14.2761C13.0262 14.0261 13.1667 13.687 13.1667 13.3333V5.33333L9.83333 2Z"
    stroke="currentColor"
    stroke-linecap="round"
    stroke-linejoin="round"
  />
  <path
    d="M9.16669 2.5V4.16667C9.16669 4.52029 9.30716 4.85943 9.55721 5.10948C9.80726 5.35952 10.1464 5.5 10.5 5.5H13.1667"
    stroke="currentColor"
    stroke-linecap="round"
    stroke-linejoin="round"
  />
</svg>
