<svg
  width="16"
  height="16"
  viewBox="0 0 16 16"
  fill="none"
  xmlns="http://www.w3.org/2000/svg"
>
  <path
    fill-rule="evenodd"
    clip-rule="evenodd"
    d="M4.33333 1.5C3.8471 1.5 3.38079 1.69315 3.03697 2.03697C2.69315 2.38079 2.5 2.8471 2.5 3.33333V13.3333C2.5 13.8196 2.69315 14.2859 3.03697 14.6297C3.38079 14.9735 3.8471 15.1667 4.33333 15.1667H11.8333C12.3196 15.1667 12.7859 14.9735 13.1297 14.6297C13.4735 14.2859 13.6667 13.8196 13.6667 13.3333V5.50441C13.6667 5.50294 13.6667 5.50147 13.6667 5.5C13.6667 5.49853 13.6667 5.49706 13.6667 5.49559V5.33333C13.6667 5.20073 13.614 5.07355 13.5202 4.97978L10.1869 1.64645C10.0931 1.55268 9.96594 1.5 9.83333 1.5H4.33333ZM12.1262 5L9.66668 2.54046V4.16667C9.66668 4.38768 9.75448 4.59964 9.91076 4.75592C10.067 4.9122 10.279 5 10.5 5H12.1262ZM8.66668 2.5H4.33333C4.11232 2.5 3.90036 2.5878 3.74408 2.74408C3.5878 2.90036 3.5 3.11232 3.5 3.33333V13.3333C3.5 13.5543 3.5878 13.7663 3.74408 13.9226C3.90036 14.0789 4.11232 14.1667 4.33333 14.1667H11.8333C12.0543 14.1667 12.2663 14.0789 12.4226 13.9226C12.5789 13.7663 12.6667 13.5543 12.6667 13.3333V6H10.5C10.0138 6 9.54747 5.80685 9.20366 5.46303C8.85984 5.11921 8.66668 4.6529 8.66668 4.16667V2.5Z"
    fill="currentColor"
  />
</svg>
