<svg width="16" height="16" viewBox="0 0 16 16" xmlns="http://www.w3.org/2000/svg">
<path clip-rule="evenodd" d="M11.391 1.87287C12.1463 1.17351 13.3249 1.16288 14.0814 1.91941C14.8336 2.67154 14.8399 3.85201 14.1333 4.61517C13.8033 4.9715 13.2935 5.53127 12.7019 6.18077C12.0328 6.91541 11.2591 7.76485 10.5229 8.56454C9.83527 9.31154 9.18473 10.0103 8.69961 10.5125C8.45845 10.7622 8.25081 10.971 8.09729 11.1142C8.0238 11.1828 7.9463 11.2519 7.87659 11.3039C7.84911 11.3244 7.78313 11.3729 7.69853 11.4094C7.66398 11.4243 7.55417 11.4702 7.40765 11.4659C7.32543 11.4634 7.21007 11.4443 7.09216 11.3747C6.96812 11.3015 6.881 11.1956 6.82955 11.0839C6.46693 10.2969 5.70295 9.53629 4.9223 9.17658C4.81066 9.12513 4.70473 9.038 4.63149 8.91397C4.56187 8.79606 4.54282 8.6807 4.54036 8.59848C4.53597 8.45196 4.58193 8.34215 4.59684 8.30759C4.63335 8.223 4.68184 8.15702 4.70233 8.12954C4.75434 8.05982 4.82342 7.98233 4.892 7.90884C5.03526 7.75532 5.24404 7.54768 5.4937 7.30652C5.99594 6.8214 6.69467 6.17086 7.44167 5.4832C8.24136 4.74704 9.0908 3.97335 9.82544 3.30423C10.4749 2.71265 11.0347 2.2028 11.391 1.87287ZM13.1622 2.83865C12.915 2.59142 12.5331 2.58708 12.2743 2.82676C11.922 3.15292 11.3542 3.67011 10.6977 4.26815C9.95808 4.94188 9.1058 5.71823 8.32213 6.43964C7.57614 7.12638 6.88714 7.76799 6.39687 8.24156C6.32956 8.30657 6.26656 8.36788 6.20812 8.42525C6.73355 8.79333 7.21164 9.27075 7.58095 9.79802C7.6383 9.7396 7.69958 9.67663 7.76457 9.60934C8.23814 9.11907 8.87975 8.43007 9.56648 7.68407C10.2879 6.90041 11.0642 6.04815 11.738 5.30852C12.336 4.65198 12.8532 4.0842 13.1794 3.73194C13.4177 3.47452 13.4138 3.0903 13.1622 2.83865Z" />
<path clip-rule="evenodd" d="M3.99764 10.0018C2.89138 10.0018 1.99837 10.8948 1.99837 12.001C1.99837 12.6846 1.52447 13.1148 1.05008 13.2694C0.896977 13.3193 0.808209 13.5153 0.920612 13.6306C1.5452 14.2712 2.45342 14.6667 3.33122 14.6667C4.80402 14.6667 5.99692 13.4738 5.99692 12.001C5.99692 10.8948 5.10391 10.0018 3.99764 10.0018Z" />
</svg>
