<svg
  width="16"
  height="16"
  viewBox="0 0 16 16"
  fill="none"
  xmlns="http://www.w3.org/2000/svg"
>
  <path
    d="M6.04004 7.93333L11.42 2.56C11.5954 2.37896 11.8051 2.23463 12.0368 2.13541C12.2685 2.03618 12.5176 1.98405 12.7696 1.98205C13.0217 1.98005 13.2716 2.02822 13.5048 2.12375C13.7381 2.21928 13.95 2.36026 14.1282 2.53849C14.3064 2.71672 14.4474 2.92862 14.543 3.16187C14.6385 3.39512 14.6867 3.64504 14.6847 3.89708C14.6827 4.14913 14.6305 4.39825 14.5313 4.62995C14.4321 4.86165 14.2877 5.07129 14.1067 5.24667L8.73337 10.6333"
    stroke="currentColor"
    stroke-linecap="round"
    stroke-linejoin="round"
  />
  <path
    d="M4.71335 9.96C3.60668 9.96 2.71335 10.86 2.71335 11.9733C2.71335 12.86 1.04668 12.9867 1.38001 13.32C2.10001 14.0533 3.04001 14.6667 4.04668 14.6667C5.51335 14.6667 6.71335 13.4667 6.71335 11.9733C6.71422 11.7098 6.66319 11.4487 6.56315 11.2049C6.46312 10.9611 6.31604 10.7394 6.13033 10.5524C5.94461 10.3655 5.72389 10.2169 5.48076 10.1153C5.23764 10.0136 4.97687 9.96087 4.71335 9.96Z"
    stroke="currentColor"
    stroke-linecap="round"
    stroke-linejoin="round"
  />
</svg>
