<svg
  width="16"
  height="16"
  viewBox="0 0 16 16"
  fill="none"
  xmlns="http://www.w3.org/2000/svg"
>
  <path
    d="M14.4996 11.2394V13.2003C14.5003 13.3824 14.463 13.5626 14.3901 13.7293C14.3172 13.8961 14.2102 14.0459 14.0761 14.1689C13.942 14.292 13.7836 14.3857 13.6111 14.444C13.4387 14.5023 13.256 14.524 13.0747 14.5076C11.0633 14.2891 9.13128 13.6018 7.43379 12.5009C5.85449 11.4974 4.51552 10.1584 3.51197 8.57912C2.40731 6.87391 1.71986 4.93248 1.50531 2.91209C1.48897 2.73134 1.51045 2.54916 1.56838 2.37717C1.62631 2.20517 1.71942 2.04713 1.84178 1.91309C1.96413 1.77905 2.11306 1.67195 2.27907 1.59862C2.44509 1.52529 2.62455 1.48733 2.80604 1.48716H4.76695C5.08416 1.48404 5.39169 1.59637 5.63221 1.80322C5.87273 2.01006 6.02983 2.29731 6.07422 2.61142C6.15699 3.23895 6.31048 3.85511 6.53177 4.44814C6.61971 4.68209 6.63874 4.93635 6.58661 5.18078C6.53448 5.42522 6.41337 5.64959 6.23763 5.82731L5.40751 6.65743C6.338 8.29384 7.69292 9.64876 9.32933 10.5792L10.1595 9.74913C10.3372 9.57339 10.5615 9.45228 10.806 9.40015C11.0504 9.34802 11.3047 9.36705 11.5386 9.45499C12.1317 9.67628 12.7478 9.82977 13.3753 9.91254C13.6929 9.95733 13.9828 10.1173 14.1901 10.3619C14.3974 10.6066 14.5076 10.9189 14.4996 11.2394Z"
    stroke="currentColor"
    stroke-linecap="round"
    stroke-linejoin="round"
  />
</svg>
