<svg width="16" height="16" viewBox="0 0 16 16" xmlns="http://www.w3.org/2000/svg">
<path fill-rule="evenodd" clip-rule="evenodd" d="M4.56168 2.71897C4.38008 2.62711 4.16561 2.62711 3.98401 2.71897C3.91607 2.75333 3.83094 2.82691 3.45204 3.2058L3.35037 3.30747C2.98889 3.66895 2.89207 3.77294 2.81463 3.9108C2.72481 4.07068 2.64943 4.36055 2.64998 4.54393C2.65046 4.70709 2.67445 4.80518 2.78107 5.1808C3.30688 7.03337 4.2988 8.78164 5.75861 10.2414C7.21841 11.7012 8.96668 12.6932 10.8192 13.219C11.1949 13.3256 11.293 13.3496 11.4561 13.3501C11.6395 13.3506 11.9294 13.2752 12.0892 13.1854C12.2271 13.108 12.3311 13.0112 12.6926 12.6497L12.7942 12.548C13.1731 12.1691 13.2467 12.084 13.2811 12.016C13.3729 11.8344 13.3729 11.62 13.2811 11.4384C13.2467 11.3704 13.1731 11.2853 12.7942 10.9064L12.6686 10.7807C12.4196 10.5318 12.3641 10.4813 12.3223 10.4541C12.1102 10.3162 11.8367 10.3162 11.6246 10.4541C11.5828 10.4813 11.5273 10.5318 11.2783 10.7807C11.2734 10.7856 11.2684 10.7907 11.2632 10.7959C11.2054 10.8539 11.1318 10.9278 11.0434 10.991C10.7281 11.2168 10.2995 11.2899 9.92712 11.1814C9.82326 11.1511 9.73777 11.1099 9.67156 11.078C9.66631 11.0754 9.66118 11.073 9.65618 11.0706C8.65599 10.5903 7.71923 9.93596 6.89166 9.10839C6.06409 8.28082 5.4097 7.34406 4.92949 6.34387C4.92709 6.33886 4.92461 6.33373 4.92208 6.32848C4.89017 6.26228 4.84895 6.17678 4.81868 6.07293C4.71013 5.70057 4.78322 5.27196 5.00902 4.95661C5.07229 4.86825 5.14613 4.79468 5.20417 4.73685C5.20936 4.73168 5.21442 4.72664 5.21933 4.72173C5.46829 4.47277 5.51874 4.41728 5.54595 4.37544C5.68385 4.16333 5.68386 3.88989 5.54595 3.67778C5.51874 3.63594 5.46829 3.58044 5.21933 3.33149L5.09365 3.2058C4.71476 2.82691 4.62962 2.75333 4.56168 2.71897ZM3.39726 1.55891C3.94778 1.28046 4.59792 1.28046 5.14843 1.55891C5.4282 1.70042 5.671 1.94384 5.95096 2.22453C6.02702 2.30079 6.1032 2.37696 6.17943 2.45306C6.36416 2.63747 6.5238 2.79684 6.63584 2.96916C7.05389 3.61215 7.05389 4.44107 6.63584 5.08405C6.5238 5.25637 6.36416 5.41574 6.17943 5.60015C6.14349 5.63603 6.106 5.67246 6.07032 5.71003L6.06997 5.7119L6.06963 5.71412C6.07985 5.73666 6.09075 5.75888 6.10141 5.7812C6.519 6.65095 7.0885 7.46675 7.8109 8.18915C8.5333 8.91155 9.3491 9.48105 10.2188 9.89863C10.2412 9.9093 10.2634 9.9202 10.2859 9.93042L10.2881 9.93008L10.29 9.92973C10.3276 9.89406 10.364 9.85656 10.3999 9.82062C10.5843 9.63589 10.7437 9.47625 10.916 9.36421C11.559 8.94616 12.3879 8.94616 13.0309 9.36421C13.2032 9.47625 13.3626 9.63589 13.547 9.82062C13.6231 9.89685 13.6993 9.97302 13.7755 10.0491C14.0562 10.329 14.2996 10.5718 14.4411 10.8516C14.7196 11.4021 14.7196 12.0523 14.4411 12.6028C14.2996 12.8826 14.0562 13.1254 13.7755 13.4053C13.7063 13.4744 13.6371 13.5436 13.568 13.6128C13.2681 13.913 13.0375 14.1438 12.7259 14.3188C12.3705 14.5185 11.86 14.6513 11.4523 14.6501C11.0956 14.649 10.8354 14.5751 10.5008 14.48C10.4887 14.4765 10.4766 14.4731 10.4643 14.4696C8.40395 13.8848 6.45993 12.7812 4.83937 11.1607C3.21881 9.54012 2.11525 7.5961 1.53047 5.53576C1.52698 5.52349 1.52353 5.51132 1.5201 5.49925C1.42499 5.16464 1.35104 4.90445 1.34998 4.5478C1.34877 4.1401 1.48154 3.62957 1.68121 3.27411C1.85622 2.96257 2.08705 2.73198 2.38724 2.4321C2.45665 2.36276 2.52677 2.29267 2.59474 2.22453C2.87469 1.94385 3.11749 1.70042 3.39726 1.55891Z" />
</svg>
