<svg
  width="16"
  height="16"
  viewBox="0 0 16 16"
  xmlns="http://www.w3.org/2000/svg"
>
  <path
    fill-rule="evenodd"
    clip-rule="evenodd"
    d="M5.32662 1.78295C5.33546 1.78884 5.34432 1.79475 5.3532 1.80067L12.3861 6.48929C12.5875 6.62351 12.7797 6.75158 12.9283 6.87141C13.0841 6.99708 13.2781 7.17924 13.3905 7.4502C13.5365 7.80221 13.5365 8.19783 13.3905 8.54985C13.2781 8.82081 13.0841 9.00297 12.9283 9.12864C12.7797 9.24846 12.5875 9.37652 12.3862 9.51074L5.32663 14.2171C5.0803 14.3813 4.85321 14.5328 4.65926 14.6379C4.4652 14.743 4.18349 14.8723 3.84977 14.8524C3.43084 14.8274 3.04384 14.6202 2.79064 14.2855C2.58894 14.0189 2.54022 13.7128 2.52008 13.493C2.49995 13.2733 2.49998 13.0004 2.5 12.7043L2.5 3.32765C2.5 3.31698 2.5 3.30633 2.5 3.29571C2.49998 2.99964 2.49995 2.7267 2.52008 2.50702C2.54022 2.28722 2.58894 1.98113 2.79064 1.71451C3.04383 1.37981 3.43083 1.17269 3.84977 1.14768C4.18349 1.12775 4.4652 1.257 4.65926 1.36217C4.85321 1.46728 5.0803 1.6187 5.32662 1.78295ZM4.04306 2.78176C4.03804 2.91163 4.03764 3.08391 4.03764 3.32765V12.6724C4.03764 12.9161 4.03804 13.0884 4.04306 13.2183C4.1539 13.1504 4.29747 13.0552 4.50027 12.92L11.5088 8.24762C11.6745 8.13719 11.789 8.0604 11.8727 8.00002C11.789 7.93965 11.6745 7.86286 11.5088 7.75243L4.50027 3.08006C4.29747 2.94485 4.1539 2.84962 4.04306 2.78176Z"
    fill="currentColor"
  />
</svg>
