<svg width="22" height="22" viewBox="0 0 22 22" xmlns="http://www.w3.org/2000/svg">
  <path d="M4.76624 5.7651C4.76624 5.03991 4.76624 4.67731 4.94406 4.47743C5.09897 4.3033 5.33575 4.19555 5.59206 4.18254C5.88628 4.1676 6.24109 4.36873 6.95069 4.771L16.1851 10.0058C16.7714 10.3382 17.0646 10.5044 17.1668 10.7139C17.2561 10.897 17.2561 11.1029 17.1668 11.286C17.0646 11.4955 16.7714 11.6617 16.1851 11.994L6.95069 17.2289C6.24108 17.6312 5.88628 17.8323 5.59206 17.8174C5.33575 17.8043 5.09897 17.6966 4.94406 17.5225C4.76624 17.3226 4.76624 16.96 4.76624 16.2348V5.7651Z"/>
</svg>
  