<svg
  width="16"
  height="16"
  viewBox="0 0 16 16"
  fill="currentColor"
  xmlns="http://www.w3.org/2000/svg"
>
  <path
    fill-rule="evenodd"
    clip-rule="evenodd"
    d="M4.68656 2.66667C4.68656 1.38721 5.72377 0.349998 7.00323 0.349998C8.28269 0.349998 9.3199 1.38721 9.3199 2.66667V3.01666H9.35891C9.80586 3.01666 10.174 3.01665 10.4751 3.0372C10.7871 3.05849 11.0745 3.10399 11.3507 3.21838C12 3.48734 12.5159 4.00323 12.7848 4.65255C12.8992 4.92873 12.9447 5.2161 12.966 5.52811C12.976 5.67465 12.9812 5.83705 12.9838 6.01666H13.3366C14.616 6.01666 15.6532 7.05387 15.6532 8.33333C15.6532 9.61279 14.616 10.65 13.3366 10.65H12.9866V11.1603C12.9866 11.6974 12.9866 12.1397 12.9572 12.4999C12.9266 12.8736 12.8612 13.2156 12.6977 13.5364C12.4437 14.035 12.0383 14.4404 11.5396 14.6945C11.2188 14.858 10.8768 14.9234 10.5031 14.9539C10.143 14.9833 9.70066 14.9833 9.1635 14.9833H8.6699C8.31091 14.9833 8.0199 14.6923 8.0199 14.3333V13.1667C8.0199 12.6972 7.63934 12.3167 7.1699 12.3167C6.70046 12.3167 6.3199 12.6972 6.3199 13.1667V14.3333C6.3199 14.6923 6.02888 14.9833 5.6699 14.9833H4.84296C4.3058 14.9833 3.86348 14.9833 3.50337 14.9539C3.12967 14.9234 2.78764 14.858 2.46682 14.6945C1.96819 14.4404 1.5628 14.035 1.30873 13.5364C1.14527 13.2156 1.07984 12.8736 1.04931 12.4999C1.01988 12.1397 1.01989 11.6974 1.0199 11.1603L1.0199 10C1.0199 9.64101 1.31091 9.35 1.6699 9.35H2.6699C3.23139 9.35 3.68656 8.89482 3.68656 8.33333C3.68656 7.77184 3.23139 7.31666 2.6699 7.31666H1.6699C1.31091 7.31666 1.0199 7.02565 1.0199 6.66666L1.0199 6.64431C1.01989 6.19736 1.01989 5.82927 1.04044 5.52811C1.06172 5.2161 1.10722 4.92873 1.22162 4.65255C1.49058 4.00323 2.00646 3.48734 2.65579 3.21838C2.93196 3.10399 3.21933 3.05849 3.53134 3.0372C3.83251 3.01665 4.2006 3.01666 4.64755 3.01666H4.68656V2.66667ZM7.00323 1.65C6.44174 1.65 5.98656 2.10518 5.98656 2.66667V3.66667C5.98656 4.02565 5.69555 4.31666 5.33656 4.31666H4.6699C4.19506 4.31666 3.87149 4.31702 3.61983 4.33419C3.37401 4.35096 3.24464 4.38158 3.15328 4.41943C2.82249 4.55644 2.55968 4.81925 2.42266 5.15004C2.38481 5.24141 2.35419 5.37078 2.33742 5.6166C2.32953 5.73221 2.32519 5.863 2.32281 6.01666H2.6699C3.94936 6.01666 4.98656 7.05387 4.98656 8.33333C4.98656 9.61279 3.94936 10.65 2.6699 10.65H2.3199V11.1333C2.3199 11.7041 2.3204 12.0931 2.34499 12.394C2.36895 12.6873 2.41252 12.8392 2.46704 12.9462C2.59647 13.2002 2.80299 13.4068 3.05701 13.5362C3.16402 13.5907 3.31593 13.6343 3.60923 13.6582C3.91013 13.6828 4.29912 13.6833 4.8699 13.6833H5.0199V13.1667C5.0199 11.9793 5.98249 11.0167 7.1699 11.0167C8.35731 11.0167 9.3199 11.9793 9.3199 13.1667V13.6833C9.79254 13.6829 10.1297 13.6801 10.3972 13.6582C10.6905 13.6343 10.8424 13.5907 10.9495 13.5362C11.2035 13.4068 11.41 13.2002 11.5394 12.9462C11.5939 12.8392 11.6375 12.6873 11.6615 12.394C11.6861 12.0931 11.6866 11.7041 11.6866 11.1333V10C11.6866 9.64101 11.9776 9.35 12.3366 9.35H13.3366C13.8981 9.35 14.3532 8.89482 14.3532 8.33333C14.3532 7.77184 13.8981 7.31666 13.3366 7.31666H12.3366C11.9776 7.31666 11.6866 7.02565 11.6866 6.66666C11.6866 6.19183 11.6862 5.86826 11.669 5.6166C11.6523 5.37078 11.6216 5.24141 11.5838 5.15004C11.4468 4.81925 11.184 4.55644 10.8532 4.41943C10.7618 4.38158 10.6324 4.35096 10.3866 4.33419C10.135 4.31702 9.8114 4.31666 9.33656 4.31666H8.6699C8.31091 4.31666 8.0199 4.02565 8.0199 3.66667V2.66667C8.0199 2.10518 7.56472 1.65 7.00323 1.65Z"
  />
</svg>
