<svg
  width="16"
  height="16"
  viewBox="0 0 16 16"
  fill="none"
  xmlns="http://www.w3.org/2000/svg"
>
  <path
    d="M13.9999 6V4C13.9999 3.64638 13.8594 3.30724 13.6094 3.05719C13.3593 2.80714 13.0202 2.66667 12.6666 2.66667H2.66659C2.31296 2.66667 1.97382 2.80714 1.72378 3.05719C1.47373 3.30724 1.33325 3.64638 1.33325 4V10.6667C1.33325 11.4 1.93325 12 2.66659 12H5.33325"
    stroke="currentColor"
    stroke-linecap="round"
    stroke-linejoin="round"
  />
  <path
    d="M13.3333 8.66667H9.33333C8.59695 8.66667 8 9.26362 8 10V12C8 12.7364 8.59695 13.3333 9.33333 13.3333H13.3333C14.0697 13.3333 14.6667 12.7364 14.6667 12V10C14.6667 9.26362 14.0697 8.66667 13.3333 8.66667Z"
    stroke="currentColor"
    stroke-linecap="round"
    stroke-linejoin="round"
  />
</svg>
