<svg width="22" height="22" viewBox="0 0 22 22"  xmlns="http://www.w3.org/2000/svg">
<path fill-rule="evenodd" clip-rule="evenodd" d="M6.26948 18.4525C6.84328 18.4994 7.57753 18.5 8.61666 18.5L15.125 18.5C15.5392 18.5 15.875 18.8358 15.875 19.25C15.875 19.6642 15.5392 20 15.125 20L8.58391 20C7.58491 20 6.78938 20 6.14733 19.9476C5.48953 19.8938 4.92706 19.7813 4.41154 19.5186C3.58049 19.0952 2.90483 18.4195 2.48139 17.5885C2.21872 17.0729 2.10619 16.5105 2.05245 15.8527C1.99999 15.2106 1.99999 14.4151 2 13.4161L2 6.875C2 6.46079 2.33579 6.125 2.75 6.125C3.16421 6.125 3.5 6.46079 3.5 6.875L3.5 13.3833C3.5 14.4225 3.50058 15.1567 3.54746 15.7305C3.59363 16.2956 3.68093 16.6387 3.8179 16.9075C4.09753 17.4563 4.54372 17.9025 5.09253 18.1821C5.36135 18.3191 5.70444 18.4064 6.26948 18.4525ZM16.3467 16.7917L8.86165 16.7917C8.37383 16.7917 7.96292 16.7917 7.62646 16.7642C7.27437 16.7354 6.93829 16.6729 6.61886 16.5101C6.13277 16.2624 5.73757 15.8672 5.4899 15.3811C5.32714 15.0617 5.26457 14.7256 5.2358 14.3735C5.20831 14.0371 5.20832 13.6262 5.20833 13.1384L5.20833 5.65331C5.20832 5.16549 5.20831 4.75459 5.2358 4.41813C5.26457 4.06604 5.32714 3.72996 5.4899 3.41052C5.73757 2.92444 6.13277 2.52924 6.61885 2.28157C6.93829 2.11881 7.27437 2.05624 7.62646 2.02747C7.96292 1.99998 8.37382 1.99999 8.86164 2L16.3467 2C16.8345 1.99999 17.2454 1.99998 17.5819 2.02747C17.934 2.05624 18.27 2.11881 18.5895 2.28157C19.0756 2.52924 19.4708 2.92443 19.7184 3.41052C19.8812 3.72996 19.9438 4.06604 19.9725 4.41813C20 4.75459 20 5.1655 20 5.65333L20 13.1383C20 13.6262 20 14.0371 19.9725 14.3735C19.9438 14.7256 19.8812 15.0617 19.7184 15.3811C19.4708 15.8672 19.0756 16.2624 18.5895 16.5101C18.27 16.6729 17.934 16.7354 17.5819 16.7642C17.2454 16.7917 16.8345 16.7917 16.3467 16.7917ZM17.4597 15.2692C17.7191 15.248 17.8358 15.2107 17.9085 15.1736C18.1123 15.0697 18.2781 14.904 18.3819 14.7002C18.419 14.6274 18.4563 14.5107 18.4775 14.2514C18.4994 13.9833 18.5 13.6341 18.5 13.1083L18.5 5.68333C18.5 5.15758 18.4994 4.80836 18.4775 4.54028C18.4563 4.28094 18.419 4.16424 18.3819 4.09151C18.2781 3.88767 18.1123 3.72194 17.9085 3.61808C17.8358 3.58102 17.7191 3.54367 17.4597 3.52249C17.1916 3.50058 16.8424 3.5 16.3167 3.5L8.89166 3.5C8.36591 3.5 8.0167 3.50058 7.74861 3.52249C7.48928 3.54368 7.37258 3.58102 7.29984 3.61808C7.096 3.72194 6.93027 3.88767 6.82641 4.09151C6.78935 4.16424 6.75201 4.28095 6.73082 4.54028C6.70891 4.80837 6.70833 5.15758 6.70833 5.68333L6.70833 13.1083C6.70833 13.6341 6.70892 13.9833 6.73082 14.2514C6.75201 14.5107 6.78935 14.6274 6.82641 14.7002C6.93027 14.904 7.096 15.0697 7.29984 15.1736C7.37258 15.2107 7.48928 15.248 7.74861 15.2692C8.0167 15.2911 8.36591 15.2917 8.89167 15.2917L16.3167 15.2917C16.8424 15.2917 17.1916 15.2911 17.4597 15.2692Z" />
</svg>
