<svg width="16" height="16" viewBox="0 0 16 16"  xmlns="http://www.w3.org/2000/svg">
<path fill-rule="evenodd" clip-rule="evenodd" d="M4.5681 13.3158C4.98016 13.3495 5.50917 13.35 6.26663 13.35L11 13.35C11.3589 13.35 11.65 13.641 11.65 14C11.65 14.359 11.3589 14.65 11 14.65L6.23873 14.65C5.51566 14.65 4.93347 14.65 4.46224 14.6115C3.97737 14.5719 3.55301 14.4883 3.16089 14.2885C2.53682 13.9705 2.02944 13.4631 1.71146 12.8391C1.51166 12.4469 1.42807 12.0226 1.38845 11.5377C1.34995 11.0665 1.34995 10.4843 1.34996 9.76122L1.34996 4.99999C1.34996 4.64101 1.64098 4.34999 1.99996 4.34999C2.35895 4.34999 2.64996 4.64101 2.64996 4.99999L2.64996 9.73333C2.64996 10.4908 2.65047 11.0198 2.68413 11.4319C2.71718 11.8363 2.77891 12.0706 2.86977 12.2489C3.06311 12.6283 3.37162 12.9368 3.75108 13.1302C3.92939 13.221 4.16362 13.2828 4.5681 13.3158ZM11.8918 12.3167L6.44145 12.3167C6.08957 12.3167 5.78699 12.3167 5.53797 12.2963C5.27543 12.2749 5.01573 12.2276 4.76621 12.1005C4.39303 11.9103 4.08961 11.6069 3.89947 11.2337C3.77233 10.9842 3.72507 10.7245 3.70362 10.462C3.68327 10.213 3.68328 9.91038 3.6833 9.5585L3.6833 4.10815C3.68328 3.75627 3.68327 3.45369 3.70362 3.20466C3.72507 2.94213 3.77233 2.68242 3.89947 2.43291C4.08962 2.05972 4.39303 1.75631 4.76621 1.56616C5.01573 1.43903 5.27543 1.39177 5.53797 1.37032C5.78699 1.34997 6.08957 1.34998 6.44145 1.34999L11.8918 1.34999C12.2437 1.34998 12.5463 1.34997 12.7953 1.37032C13.0578 1.39177 13.3175 1.43903 13.567 1.56616C13.9402 1.75631 14.2436 2.05972 14.4338 2.43291C14.5609 2.68242 14.6082 2.94213 14.6296 3.20466C14.65 3.45369 14.65 3.75627 14.65 4.10815L14.65 9.55851C14.65 9.91039 14.65 10.213 14.6296 10.462C14.6082 10.7245 14.5609 10.9842 14.4338 11.2337C14.2436 11.6069 13.9402 11.9103 13.567 12.1005C13.3175 12.2276 13.0578 12.2749 12.7953 12.2963C12.5463 12.3167 12.2437 12.3167 11.8918 12.3167ZM12.6894 11.0007C12.8716 10.9858 12.9412 10.9604 12.9769 10.9422C13.1054 10.8767 13.21 10.7721 13.2755 10.6436C13.2937 10.6078 13.3191 10.5383 13.334 10.3561C13.3495 10.1664 13.35 9.91742 13.35 9.53333L13.35 4.13333C13.35 3.74923 13.3495 3.50025 13.334 3.31053C13.3191 3.12839 13.2937 3.0588 13.2755 3.0231C13.21 2.89452 13.1054 2.78999 12.9769 2.72447C12.9412 2.70628 12.8716 2.68088 12.6894 2.666C12.4997 2.6505 12.2507 2.64999 11.8666 2.64999L6.46663 2.64999C6.08254 2.64999 5.83356 2.6505 5.64383 2.666C5.46169 2.68088 5.39211 2.70628 5.3564 2.72447C5.22782 2.78998 5.12329 2.89452 5.05777 3.0231C5.03958 3.0588 5.01418 3.12839 4.9993 3.31053C4.9838 3.50025 4.9833 3.74923 4.9833 4.13333L4.98329 9.53333C4.98329 9.91742 4.9838 10.1664 4.9993 10.3561C5.01418 10.5383 5.03958 10.6078 5.05777 10.6436C5.12329 10.7721 5.22782 10.8767 5.3564 10.9422C5.39211 10.9604 5.46169 10.9858 5.64383 11.0007C5.83356 11.0162 6.08254 11.0167 6.46663 11.0167L11.8666 11.0167C12.2507 11.0167 12.4997 11.0162 12.6894 11.0007Z" />
</svg>
