<svg width="16" height="16" viewBox="0 0 16 16"  xmlns="http://www.w3.org/2000/svg">
  <path d="M7.99999 5.35002C6.53643 5.35002 5.34999 6.53646 5.34999 8.00002C5.34999 9.46357 6.53643 10.65 7.99999 10.65C9.46354 10.65 10.65 9.46357 10.65 8.00002C10.65 6.53646 9.46354 5.35002 7.99999 5.35002Z" />
  <path fill-rule="evenodd" clip-rule="evenodd" d="M7.99998 1.3501C4.32728 1.3501 1.34998 4.3274 1.34998 8.0001C1.34998 11.6728 4.32728 14.6501 7.99998 14.6501C11.6727 14.6501 14.65 11.6728 14.65 8.0001C14.65 4.3274 11.6727 1.3501 7.99998 1.3501ZM2.64998 8.0001C2.64998 5.04537 5.04525 2.6501 7.99998 2.6501C10.9547 2.6501 13.35 5.04537 13.35 8.0001C13.35 10.9548 10.9547 13.3501 7.99998 13.3501C5.04525 13.3501 2.64998 10.9548 2.64998 8.0001Z" />
</svg>
