<svg
  width="16"
  height="16"
  viewBox="0 0 16 16"
  fill="none"
  xmlns="http://www.w3.org/2000/svg"
>
  <path
    d="M8.83895 8C8.83895 9.00522 8.02406 9.82011 7.01884 9.82011C6.01362 9.82011 5.19873 9.00522 5.19873 8C5.19873 6.99478 6.01362 6.17989 7.01884 6.17989C8.02406 6.17989 8.83895 6.99478 8.83895 8Z"
    fill="black"
    stroke="black"
    stroke-linecap="round"
    stroke-linejoin="round"
  />
  <path
    d="M7.01885 13.0269C9.79513 13.0269 12.0458 10.7763 12.0458 8C12.0458 5.22372 9.79513 2.9731 7.01885 2.9731C4.24257 2.9731 1.99194 5.22372 1.99194 8C1.99194 10.7763 4.24257 13.0269 7.01885 13.0269Z"
    stroke="black"
    stroke-linecap="round"
    stroke-linejoin="round"
  />
  <path
    d="M12.6287 12.0769V12.0769C14.5853 9.51231 14.442 5.91604 12.2917 3.51154V3.51154"
    stroke="black"
    stroke-linecap="round"
  />
</svg>
