<svg
  width="16"
  height="16"
  viewBox="0 0 16 16"
  fill="none"
  xmlns="http://www.w3.org/2000/svg"
>
  <path
    fill-rule="evenodd"
    clip-rule="evenodd"
    d="M16 8.27C16 7.02 14.98 6 13.73 6c-.58 0-1.1.22-1.5.58C10.92 5.93 9.53 5.57 8 5.54l.74-3.47 2.4.51A1.5 1.5 0 1 0 13 1a1.5 1.5 0 0 0-1.43 1.05l-2.68-.57a.27.27 0 0 0-.32.2L7.7 5.54c-1.55.03-2.95.39-4.24 1.04A2.27 2.27 0 0 0 2.27 6C1.02 6 0 7.02 0 8.27c0 .9.53 1.68 1.3 2.04A3.7 3.7 0 0 0 1.27 11C1.27 13.21 4.32 15 8 15s6.73-1.79 6.73-4a3.7 3.7 0 0 0-.03-.69A2.27 2.27 0 0 0 16 8.27ZM5.5 10a1 1 0 1 1 2 0 1 1 0 0 1-2 0Zm5.5 2.5c-.7.7-2.83.72-3 .72s-2.3-.02-3-.72a.27.27 0 0 1 .38-.38c.48.48 1.96.6 2.62.6s2.14-.12 2.62-.6a.27.27 0 0 1 .38.38ZM10.5 11a1 1 0 1 1 0-2 1 1 0 0 1 0 2Z"
    fill="currentColor"
  />
</svg>
