<svg
  width="16"
  height="16"
  viewBox="0 0 16 16"
  fill="none"
  xmlns="http://www.w3.org/2000/svg"
>
  <path
    fill-rule="evenodd"
    clip-rule="evenodd"
    d="M8 1.5L7.99812 1.5C6.19173 1.5068 4.45789 2.21165 3.15914 3.46718L3.1591 3.46713L3.15311 3.47311L2.5 4.12623V2C2.5 1.72386 2.27614 1.5 2 1.5C1.72386 1.5 1.5 1.72386 1.5 2V5.33325V5.33333C1.5 5.40113 1.51349 5.46577 1.53794 5.52472C1.56198 5.58283 1.59744 5.63732 1.64433 5.68476L1.64857 5.689C1.69602 5.73589 1.75051 5.77135 1.80861 5.79539C1.86756 5.81984 1.93221 5.83333 2 5.83333H5.35667C5.63282 5.83333 5.85667 5.60948 5.85667 5.33333C5.85667 5.05719 5.63282 4.83333 5.35667 4.83333H3.20711L3.85717 4.18327C4.96982 3.10912 6.45432 2.50606 8.00094 2.5C9.45929 2.50025 10.8579 3.07968 11.8891 4.11091C12.9205 5.14236 13.5 6.54131 13.5 8C13.5 8.27614 13.7239 8.5 14 8.5C14.2761 8.5 14.5 8.27614 14.5 8C14.5 6.27609 13.8152 4.62279 12.5962 3.40381C11.3772 2.18482 9.72391 1.5 8 1.5ZM2 7.5C2.27614 7.5 2.5 7.72386 2.5 8C2.5 9.45869 3.07946 10.8576 4.11091 11.8891C5.14216 12.9203 6.54075 13.4998 7.99913 13.5C9.54572 13.4939 11.0302 12.8909 12.1428 11.8167L12.9018 11.0577H10.6667C10.3905 11.0577 10.1667 10.8339 10.1667 10.5577C10.1667 10.2816 10.3905 10.0577 10.6667 10.0577H14C14.2761 10.0577 14.5 10.2816 14.5 10.5577V10.6662C14.5 10.6665 14.5 10.6668 14.5 10.6672V13.8911C14.5 14.1672 14.2761 14.3911 14 14.3911C13.7239 14.3911 13.5 14.1672 13.5 13.8911V11.8738L12.8469 12.5269L12.8409 12.5329L12.8409 12.5328C11.5421 13.7883 9.80828 14.4932 8.00188 14.5L8 14.5C6.27609 14.5 4.62279 13.8152 3.40381 12.5962C2.18482 11.3772 1.5 9.72391 1.5 8C1.5 7.72386 1.72386 7.5 2 7.5Z"
    fill="currentColor"
  />
</svg>
