<svg width="16" height="16" viewBox="0 0 16 16" xmlns="http://www.w3.org/2000/svg">
<path fill-rule="evenodd" clip-rule="evenodd" d="M11.8116 4.73693C10.2718 2.934 7.61888 2.42709 5.49157 3.65529C4.04778 4.48886 3.17469 5.93121 3.01053 7.47343C2.97253 7.8304 2.65235 8.08898 2.29538 8.05098C1.93842 8.01298 1.67984 7.6928 1.71783 7.33583C1.92408 5.39819 3.02271 3.57958 4.84157 2.52946C7.59674 0.93876 11.0521 1.65955 12.9622 4.09012L13.0432 3.78774C13.1362 3.44098 13.4926 3.2352 13.8393 3.32812C14.1861 3.42103 14.3919 3.77745 14.2989 4.1242L13.8109 5.94557C13.7663 6.11208 13.6574 6.25406 13.5081 6.34025C13.3588 6.42645 13.1813 6.4498 13.0148 6.40519L11.1935 5.91715C10.8467 5.82424 10.6409 5.46782 10.7338 5.12107C10.8268 4.77432 11.1832 4.56854 11.5299 4.66145L11.8116 4.73693ZM13.7042 7.94898C14.0612 7.98697 14.3198 8.30716 14.2818 8.66412C14.0755 10.6018 12.9769 12.4204 11.158 13.4705C8.40299 15.0611 4.94779 14.3405 3.03766 11.9102L2.95672 12.2122C2.86381 12.559 2.50739 12.7648 2.16064 12.6719C1.81389 12.5789 1.60811 12.2225 1.70102 11.8758L2.18905 10.0544C2.28197 9.70765 2.63839 9.50187 2.98514 9.59478L4.80651 10.0828C5.15326 10.1757 5.35904 10.5321 5.26612 10.8789C5.17321 11.2257 4.81679 11.4314 4.47004 11.3385L4.18787 11.2629C5.72766 13.0659 8.38067 13.5729 10.508 12.3447C11.9518 11.5111 12.8249 10.0687 12.9891 8.52653C13.0271 8.16956 13.3472 7.91098 13.7042 7.94898Z"/>
</svg>
