<svg width="16" height="16" viewBox="0 0 16 16" xmlns="http://www.w3.org/2000/svg">
<path d="M1.3335 2.00301C1.3335 1.63298 1.63347 1.33301 2.0035 1.33301H3.9935C4.36353 1.33301 4.6635 1.63298 4.6635 2.00301V3.99301C4.6635 4.36304 4.36353 4.66301 3.9935 4.66301H2.0035C1.63347 4.66301 1.3335 4.36304 1.3335 3.99301V2.00301Z" />
<path d="M1.3335 7.00496C1.3335 6.63493 1.63347 6.33496 2.0035 6.33496H3.9935C4.36353 6.33496 4.6635 6.63493 4.6635 7.00496V8.99496C4.6635 9.36499 4.36353 9.66496 3.9935 9.66496H2.0035C1.63347 9.66496 1.3335 9.36499 1.3335 8.99496V7.00496Z" />
<path d="M4.6635 12.0067C4.6635 11.6366 4.36353 11.3367 3.9935 11.3367H2.0035C1.63347 11.3367 1.3335 11.6366 1.3335 12.0067V13.9967C1.3335 14.3667 1.63347 14.6667 2.0035 14.6667H3.9935C4.36353 14.6667 4.6635 14.3667 4.6635 13.9967V12.0067Z" />
<path d="M6.33514 2.00301C6.33514 1.63298 6.63511 1.33301 7.00514 1.33301H8.99514C9.36517 1.33301 9.66514 1.63298 9.66514 2.00301V3.99301C9.66514 4.36304 9.36518 4.66301 8.99514 4.66301H7.00514C6.63511 4.66301 6.33514 4.36304 6.33514 3.99301V2.00301Z" />
<path d="M9.66514 7.00496C9.66514 6.63493 9.36518 6.33496 8.99514 6.33496H7.00514C6.63511 6.33496 6.33514 6.63493 6.33514 7.00496V8.99496C6.33514 9.36499 6.63511 9.66496 7.00514 9.66496H8.99514C9.36517 9.66496 9.66514 9.36499 9.66514 8.99496V7.00496Z" />
<path d="M6.33514 12.0067C6.33514 11.6366 6.63511 11.3367 7.00514 11.3367H8.99514C9.36517 11.3367 9.66514 11.6366 9.66514 12.0067V13.9967C9.66514 14.3667 9.36518 14.6667 8.99514 14.6667H7.00514C6.63511 14.6667 6.33514 14.3667 6.33514 13.9967V12.0067Z" />
<path d="M14.6668 2.00301C14.6668 1.63298 14.3668 1.33301 13.9968 1.33301H12.0068C11.6368 1.33301 11.3368 1.63298 11.3368 2.00301V3.99301C11.3368 4.36304 11.6368 4.66301 12.0068 4.66301H13.9968C14.3668 4.66301 14.6668 4.36304 14.6668 3.99301V2.00301Z" />
<path d="M11.3368 7.00496C11.3368 6.63493 11.6368 6.33496 12.0068 6.33496H13.9968C14.3668 6.33496 14.6668 6.63493 14.6668 7.00496V8.99496C14.6668 9.36499 14.3668 9.66496 13.9968 9.66496H12.0068C11.6368 9.66496 11.3368 9.36499 11.3368 8.99496V7.00496Z" />
<path d="M14.6668 12.0067C14.6668 11.6366 14.3668 11.3367 13.9968 11.3367H12.0068C11.6368 11.3367 11.3368 11.6366 11.3368 12.0067V13.9967C11.3368 14.3667 11.6368 14.6667 12.0068 14.6667H13.9968C14.3668 14.6667 14.6668 14.3667 14.6668 13.9967V12.0067Z" />
</svg>
