<svg width="16" height="16" viewBox="0 0 16 16" xmlns="http://www.w3.org/2000/svg">
<path d="M1.3335 7.00496C1.3335 6.63493 1.63347 6.33496 2.0035 6.33496H3.9935C4.36353 6.33496 4.6635 6.63493 4.6635 7.00496V8.99496C4.6635 9.36499 4.36353 9.66496 3.9935 9.66496H2.0035C1.63347 9.66496 1.3335 9.36499 1.3335 8.99496V7.00496Z" />
<path d="M6.33514 7.00496C6.33514 6.63493 6.63511 6.33496 7.00514 6.33496H8.99514C9.36518 6.33496 9.66514 6.63493 9.66514 7.00496V8.99496C9.66514 9.36499 9.36517 9.66496 8.99514 9.66496H7.00514C6.63511 9.66496 6.33514 9.36499 6.33514 8.99496V7.00496Z" />
<path d="M12.0068 6.33496C11.6368 6.33496 11.3368 6.63493 11.3368 7.00496V8.99496C11.3368 9.36499 11.6368 9.66496 12.0068 9.66496H13.9968C14.3668 9.66496 14.6668 9.36499 14.6668 8.99496V7.00496C14.6668 6.63493 14.3668 6.33496 13.9968 6.33496H12.0068Z" />
</svg>
