<svg width="16" height="16" viewBox="0 0 16 16" fill="none" xmlns="http://www.w3.org/2000/svg">
<path d="M6.33496 2.00301C6.33496 1.63298 6.63493 1.33301 7.00496 1.33301H8.99496C9.36499 1.33301 9.66496 1.63298 9.66496 2.00301V3.99301C9.66496 4.36304 9.36499 4.66301 8.99496 4.66301H7.00496C6.63493 4.66301 6.33496 4.36304 6.33496 3.99301V2.00301Z" fill="#11181C"/>
<path d="M6.33496 7.00496C6.33496 6.63493 6.63493 6.33496 7.00496 6.33496H8.99496C9.36499 6.33496 9.66496 6.63493 9.66496 7.00496V8.99496C9.66496 9.36499 9.36499 9.66496 8.99496 9.66496H7.00496C6.63493 9.66496 6.33496 9.36499 6.33496 8.99496V7.00496Z" fill="#11181C"/>
<path d="M7.00496 11.3369C6.63493 11.3369 6.33496 11.6369 6.33496 12.0069V13.9969C6.33496 14.3669 6.63493 14.6669 7.00496 14.6669H8.99496C9.36499 14.6669 9.66496 14.3669 9.66496 13.9969V12.0069C9.66496 11.6369 9.36499 11.3369 8.99496 11.3369H7.00496Z" fill="#11181C"/>
</svg>
