<svg
  width="16"
  height="16"
  viewBox="0 0 16 16"
  xmlns="http://www.w3.org/2000/svg"
>
  <path
    fill-rule="evenodd"
    clip-rule="evenodd"
    d="M6.32208 1.77936C6.60824 2.10329 6.57763 2.59786 6.25371 2.88403L4.85054 4.12363H9.30435C11.8977 4.12363 14 6.22595 14 8.81928C14 11.505 11.7991 13.1699 9.30435 13.1699H7.67391C7.24169 13.1699 6.8913 12.8195 6.8913 12.3873C6.8913 11.9551 7.24169 11.6047 7.67391 11.6047H9.30435C11.1318 11.6047 12.4348 10.4558 12.4348 8.81928C12.4348 7.09039 11.0332 5.68885 9.30435 5.68885H4.85058L6.2537 6.92838C6.57763 7.21454 6.60825 7.70911 6.32209 8.03304C6.03593 8.35697 5.54135 8.38759 5.21743 8.10143L2.26447 5.49276C2.09631 5.34421 2 5.13062 2 4.90625C2 4.68187 2.0963 4.46828 2.26446 4.31972L5.21742 1.71099C5.54134 1.42483 6.03592 1.45544 6.32208 1.77936Z"
  />
</svg>
