<svg width="16" height="16" viewBox="0 0 16 16" xmlns="http://www.w3.org/2000/svg">
<path fill-rule="evenodd" clip-rule="evenodd" d="M8.55003 2.65821C8.4427 2.65144 8.28378 2.65 8.0071 2.65H6.08003C5.56526 2.65 5.21827 2.6505 4.95073 2.67236C4.69077 2.6936 4.56356 2.73172 4.47794 2.77534C4.26156 2.88559 4.08563 3.06152 3.97537 3.27791C3.93175 3.36353 3.89364 3.49074 3.8724 3.75069C3.85054 4.01824 3.85003 4.36522 3.85003 4.88V6C3.85003 6.35898 3.55902 6.65 3.20003 6.65C2.84105 6.65 2.55003 6.35898 2.55003 6L2.55003 4.85347C2.55002 4.37199 2.55002 3.97161 2.57671 3.64483C2.60452 3.30448 2.6645 2.98715 2.81707 2.68772C3.05196 2.22672 3.42676 1.85192 3.88776 1.61703C4.18718 1.46447 4.50451 1.40449 4.84486 1.37668C5.17164 1.34998 5.57202 1.34999 6.0535 1.35C6.726 1.35 7.39851 1.35034 8.07101 1.34997C8.44913 1.34977 8.7428 1.34961 9.02639 1.41769C9.17877 1.45427 9.32706 1.50534 9.46927 1.57006C9.56037 1.61152 9.64898 1.65858 9.73457 1.71103C9.98323 1.86341 10.1908 2.07118 10.458 2.3387C11.1254 3.00684 11.7932 3.67461 12.4613 4.34203C12.7289 4.60925 12.9366 4.8168 13.089 5.06546C13.1386 5.14645 13.1834 5.23013 13.2232 5.31608C13.2281 5.32606 13.2327 5.33619 13.237 5.34645C13.2984 5.48387 13.3471 5.62686 13.3823 5.77364C13.4504 6.05722 13.4503 6.35089 13.4501 6.72901C13.4493 8.20151 13.4499 9.67402 13.4498 11.1465C13.4498 11.628 13.4498 12.0284 13.4231 12.3552C13.3953 12.6955 13.3354 13.0128 13.1828 13.3123C12.9479 13.7733 12.5731 14.1481 12.1121 14.383C11.8127 14.5355 11.4953 14.5955 11.155 14.6233C10.8282 14.65 10.4278 14.65 9.94635 14.65H6.0533C5.57182 14.65 5.17144 14.65 4.84466 14.6233C4.50431 14.5955 4.18697 14.5355 3.88755 14.383C3.42655 14.1481 3.05175 13.7733 2.81686 13.3123C2.74444 13.1701 2.69255 13.0235 2.65508 12.8706C2.56961 12.522 2.78296 12.17 3.13162 12.0846C3.48028 11.9991 3.83222 12.2124 3.91769 12.5611C3.93451 12.6297 3.95392 12.6804 3.97517 12.7221C4.08542 12.9385 4.26135 13.1144 4.47774 13.2247C4.56335 13.2683 4.69056 13.3064 4.95052 13.3276C5.21807 13.3495 5.56505 13.35 6.07983 13.35H9.91982C10.4346 13.35 10.7816 13.3495 11.0491 13.3276C11.3091 13.3064 11.4363 13.2683 11.5219 13.2247C11.7383 13.1144 11.9142 12.9385 12.0245 12.7221C12.0681 12.6365 12.1062 12.5093 12.1275 12.2493C12.1493 11.9818 12.1498 11.6348 12.1498 11.12L12.15 6.79293C12.15 6.51627 12.1486 6.35733 12.1418 6.25L10.1399 6.25C9.98938 6.25002 9.84002 6.25004 9.71302 6.23966C9.57277 6.22821 9.40362 6.20092 9.23254 6.11376C8.99734 5.99391 8.80612 5.80269 8.68627 5.56749C8.59911 5.39641 8.57182 5.22726 8.56037 5.08701C8.54999 4.96001 8.55001 4.81065 8.55003 4.66013L8.55003 2.65821ZM9.85003 3.56924V4.64C9.85003 4.79002 9.85039 4.88102 9.85376 4.94627C9.91901 4.94964 10.01 4.95 10.16 4.95H11.2308L9.85003 3.56924ZM2.02002 9.33325C2.02002 8.97427 2.31103 8.68325 2.67002 8.68325H8.67002C9.029 8.68325 9.32002 8.97427 9.32002 9.33325C9.32002 9.69223 9.029 9.98325 8.67002 9.98325H2.67002C2.31103 9.98325 2.02002 9.69223 2.02002 9.33325Z" />
</svg>
