<svg width="16" height="16" viewBox="0 0 16 16"  xmlns="http://www.w3.org/2000/svg">
<path d="M9.12906 6.70787C8.87522 6.45403 8.46366 6.45403 8.20982 6.70787C7.95598 6.96171 7.95598 7.37327 8.20982 7.62711L9.87513 9.29242C10.129 9.54626 10.5405 9.54626 10.7944 9.29242L12.4597 7.62711C12.7135 7.37327 12.7135 6.96171 12.4597 6.70787C12.2058 6.45403 11.7943 6.45403 11.5404 6.70787L10.3348 7.91356L9.12906 6.70787Z" />
<path fill-rule="evenodd" clip-rule="evenodd" d="M4.8616 3.3461C4.26252 3.34609 3.77359 3.34609 3.37644 3.37853C2.96569 3.41209 2.59622 3.48358 2.25163 3.65915C1.71119 3.93452 1.2718 4.37391 0.996433 4.91435C0.820859 5.25894 0.749375 5.62841 0.715815 6.03916C0.683367 6.43631 0.683373 6.92524 0.68338 7.52431L0.683385 8.47179C0.683378 9.07087 0.683372 9.5598 0.71582 9.95695C0.74938 10.3677 0.820864 10.7372 0.996438 11.0818C1.27181 11.6222 1.7112 12.0616 2.25164 12.337C2.59622 12.5125 2.96569 12.584 3.37645 12.6176C3.77358 12.65 4.2625 12.65 4.86156 12.65H11.1385C11.7375 12.65 12.2264 12.65 12.6236 12.6176C13.0343 12.584 13.4038 12.5125 13.7484 12.337C14.2888 12.0616 14.7282 11.6222 15.0036 11.0818C15.1792 10.7372 15.2506 10.3677 15.2842 9.95695C15.3167 9.55981 15.3166 9.0709 15.3166 8.47184L15.3166 7.52427C15.3166 6.92522 15.3166 6.4363 15.2842 6.03916C15.2506 5.62841 15.1792 5.25894 15.0036 4.91435C14.7282 4.37391 14.2888 3.93452 13.7484 3.65915C13.4038 3.48358 13.0343 3.41209 12.6236 3.37853C12.2264 3.34609 11.7375 3.34609 11.1384 3.3461H4.8616ZM2.84182 4.81746C2.9726 4.75083 3.15194 4.70121 3.4823 4.67422C3.82025 4.64661 4.25591 4.6461 4.88891 4.6461H11.1111C11.7441 4.6461 12.1798 4.64661 12.5177 4.67422C12.8481 4.70121 13.0274 4.75083 13.1582 4.81746C13.454 4.96819 13.6945 5.20871 13.8453 5.50454C13.9119 5.63532 13.9615 5.81466 13.9885 6.14502C14.0161 6.48297 14.0166 6.91863 14.0166 7.55163L14.0166 8.44448C14.0166 9.07748 14.0161 9.51314 13.9885 9.85109C13.9615 10.1814 13.9119 10.3608 13.8453 10.4916C13.6945 10.7874 13.454 11.0279 13.1582 11.1786C13.0274 11.2453 12.8481 11.2949 12.5177 11.3219C12.1798 11.3495 11.7441 11.35 11.1111 11.35H4.88892C4.25592 11.35 3.82026 11.3495 3.48231 11.3219C3.15195 11.2949 2.9726 11.2453 2.84183 11.1786C2.546 11.0279 2.30548 10.7874 2.15475 10.4916C2.08811 10.3608 2.03849 10.1814 2.0115 9.85109C1.98389 9.51314 1.98339 9.07748 1.98339 8.44447L1.98338 7.55163C1.98338 6.91863 1.98389 6.48297 2.0115 6.14502C2.03849 5.81466 2.08811 5.63532 2.15474 5.50454C2.30547 5.20871 2.54599 4.96819 2.84182 4.81746Z" />
</svg>
