<svg width="22" height="22" viewBox="0 0 22 22"  xmlns="http://www.w3.org/2000/svg">
<path fill-rule="evenodd" clip-rule="evenodd" d="M6.69007 4.74469H15.3099C16.1382 4.74468 16.8055 4.74468 17.3457 4.78881C17.9016 4.83423 18.3886 4.9301 18.8387 5.15947C19.5548 5.52432 20.137 6.10649 20.5018 6.82255C20.7312 7.27271 20.8271 7.75971 20.8725 8.31561C20.9166 8.85577 20.9166 9.52303 20.9166 10.3514L20.9166 11.6434C20.9166 12.4717 20.9166 13.139 20.8725 13.6792C20.8271 14.235 20.7312 14.722 20.5018 15.1722C20.137 15.8883 19.5548 16.4704 18.8387 16.8353C18.3886 17.0647 17.9016 17.1605 17.3457 17.2059C16.8055 17.2501 16.1383 17.2501 15.3099 17.2501H6.69005C5.86172 17.2501 5.19446 17.2501 4.6543 17.2059C4.0984 17.1605 3.6114 17.0647 3.16124 16.8353C2.44518 16.4704 1.86301 15.8883 1.49816 15.1722C1.26879 14.722 1.17292 14.235 1.1275 13.6791C1.08337 13.139 1.08337 12.4717 1.08338 11.6434L1.08337 10.3514C1.08337 9.52304 1.08336 8.85577 1.12749 8.31561C1.17291 7.75971 1.26879 7.27271 1.49815 6.82255C1.863 6.10649 2.44518 5.52432 3.16123 5.15947C3.61139 4.9301 4.09839 4.83423 4.65429 4.78881C5.19446 4.74468 5.86173 4.74468 6.69007 4.74469ZM4.77644 6.28383C4.3133 6.32167 4.04568 6.39231 3.84222 6.49598C3.40841 6.71702 3.0557 7.06972 2.83466 7.50354C2.731 7.70699 2.66035 7.97462 2.62251 8.43775C2.58396 8.90965 2.58337 9.51554 2.58337 10.3835L2.58338 11.6112C2.58338 12.4792 2.58396 13.0851 2.62252 13.557C2.66036 14.0201 2.731 14.2878 2.83467 14.4912C3.05571 14.925 3.40841 15.2777 3.84223 15.4988C4.04568 15.6024 4.31331 15.6731 4.77644 15.7109C5.24834 15.7495 5.85423 15.7501 6.72224 15.7501H15.2777C16.1458 15.7501 16.7517 15.7495 17.2235 15.7109C17.6867 15.6731 17.9543 15.6024 18.1578 15.4988C18.5916 15.2777 18.9443 14.925 19.1653 14.4912C19.269 14.2878 19.3396 14.0201 19.3775 13.557C19.416 13.0851 19.4166 12.4792 19.4166 11.6112L19.4166 10.3836C19.4166 9.51554 19.416 8.90965 19.3775 8.43775C19.3396 7.97462 19.269 7.70699 19.1653 7.50354C18.9443 7.06972 18.5916 6.71702 18.1578 6.49598C17.9543 6.39231 17.6867 6.32167 17.2235 6.28383C16.7516 6.24527 16.1457 6.24469 15.2777 6.24469H6.72223C5.85423 6.24469 5.24833 6.24527 4.77644 6.28383Z" />
<path fill-rule="evenodd" clip-rule="evenodd" d="M11.3901 9.32493C11.6829 9.03204 12.1578 9.03204 12.4507 9.32493L14.2102 11.0844L15.9697 9.32493C16.2626 9.03204 16.7374 9.03204 17.0303 9.32493C17.3232 9.61782 17.3232 10.0927 17.0303 10.3856L14.7405 12.6754C14.4476 12.9683 13.9728 12.9683 13.6799 12.6754L11.3901 10.3856C11.0972 10.0927 11.0972 9.61782 11.3901 9.32493Z" />
</svg>
