<svg
  width="16"
  height="16"
  viewBox="0 0 16 16"
  fill="none"
  xmlns="http://www.w3.org/2000/svg"
>
  <path
    d="M2 5.33333L10 5.33333M10 5.33333C10 6.4379 10.8954 7.33333 12 7.33333C13.1046 7.33333 14 6.4379 14 5.33333C14 4.22876 13.1046 3.33333 12 3.33333C10.8954 3.33333 10 4.22876 10 5.33333ZM6 10.6667L14 10.6667M6 10.6667C6 11.7712 5.10457 12.6667 4 12.6667C2.89543 12.6667 2 11.7712 2 10.6667C2 9.56209 2.89543 8.66666 4 8.66666C5.10457 8.66666 6 9.56209 6 10.6667Z"
    stroke="currentColor"
    stroke-width="1.3"
    stroke-linecap="round"
    stroke-linejoin="round"
  />
</svg>
