<svg width="12" height="14" viewBox="0 0 12 14" fill="none" xmlns="http://www.w3.org/2000/svg">
<path fill-rule="evenodd" clip-rule="evenodd" d="M1.98502 5.66498C1.98502 3.44755 3.78259 1.64998 6.00002 1.64998C8.21744 1.64998 10.015 3.44755 10.015 5.66498C10.015 7.8824 8.21744 9.67997 6.00002 9.67997C3.78259 9.67997 1.98502 7.8824 1.98502 5.66498ZM6.00002 0.349976C3.06462 0.349976 0.685017 2.72958 0.685017 5.66498C0.685017 8.60037 3.06462 10.98 6.00002 10.98C8.93541 10.98 11.315 8.60037 11.315 5.66498C11.315 2.72958 8.93541 0.349976 6.00002 0.349976ZM11.6406 11.3074C11.8944 11.0536 11.8944 10.642 11.6406 10.3882C11.3867 10.1343 10.9752 10.1343 10.7213 10.3882C8.1102 12.9993 3.87997 13.0008 1.27283 10.3937C1.01899 10.1398 0.607429 10.1398 0.353589 10.3937C0.0997479 10.6475 0.0997477 11.0591 0.353589 11.3129C3.46934 14.4287 8.52269 14.4253 11.6406 11.3074Z" fill="currentColor"/>
</svg>
