<svg width="16" height="16" viewBox="0 0 16 16" xmlns="http://www.w3.org/2000/svg">
<path fill-rule="evenodd" clip-rule="evenodd" d="M7.94968 1.8501C8.30867 1.8501 8.59968 2.14111 8.59968 2.5001V13.5001C8.59968 13.8591 8.30867 14.1501 7.94968 14.1501C7.5907 14.1501 7.29968 13.8591 7.29968 13.5001V2.5001C7.29968 2.14111 7.5907 1.8501 7.94968 1.8501ZM3.15894 5.51961C3.42431 5.27784 3.83542 5.29698 4.07719 5.56234L5.89931 7.56234C6.12533 7.81042 6.12533 8.18978 5.89931 8.43785L4.07719 10.4379C3.83542 10.7032 3.42431 10.7224 3.15894 10.4806C2.89358 10.2388 2.87444 9.82771 3.11621 9.56234L3.94732 8.6501L1.31882 8.6501C0.959838 8.6501 0.668823 8.35908 0.668823 8.0001C0.668823 7.64111 0.959838 7.3501 1.31882 7.3501L3.94732 7.3501L3.11621 6.43785C2.87444 6.17249 2.89358 5.76137 3.15894 5.51961ZM12.7914 5.52492C13.0538 5.76987 13.068 6.18119 12.8231 6.44362L11.977 7.3501L14.6811 7.3501C15.0401 7.3501 15.3311 7.64111 15.3311 8.0001C15.3311 8.35908 15.0401 8.6501 14.6811 8.6501L11.977 8.6501L12.8231 9.55658C13.068 9.81901 13.0538 10.2303 12.7914 10.4753C12.529 10.7202 12.1177 10.706 11.8727 10.4436L10.006 8.44362C9.77285 8.19388 9.77285 7.80632 10.006 7.55658L11.8727 5.55658C12.1177 5.29415 12.529 5.27997 12.7914 5.52492Z"/>
</svg>
