<svg
  width="16"
  height="16"
  viewBox="0 0 16 16"
  fill="none"
  xmlns="http://www.w3.org/2000/svg"
>
  <path
    fill-rule="evenodd"
    clip-rule="evenodd"
    d="M8 1C8.27614 1 8.5 1.22386 8.5 1.5V2.5C8.5 2.77614 8.27614 3 8 3C7.72386 3 7.5 2.77614 7.5 2.5V1.5C7.5 1.22386 7.72386 1 8 1ZM1.33325 7.5C1.05711 7.5 0.833252 7.72386 0.833252 8C0.833252 8.27614 1.05711 8.5 1.33325 8.5H4.12615L2.9797 9.64645C2.78444 9.84171 2.78444 10.1583 2.9797 10.3536C3.17496 10.5488 3.49154 10.5488 3.68681 10.3536L5.68681 8.35355C5.73474 8.30561 5.77091 8.25036 5.79531 8.19139C5.8194 8.13331 5.83285 8.0697 5.83324 8.003C5.83325 8.002 5.83325 8.001 5.83325 8C5.83325 7.999 5.83325 7.998 5.83324 7.997C5.83249 7.87004 5.78367 7.74331 5.68681 7.64645L3.68681 5.64645C3.49154 5.45118 3.17496 5.45118 2.9797 5.64645C2.78444 5.84171 2.78444 6.15829 2.9797 6.35355L4.12615 7.5H1.33325ZM10.1668 8.003C10.1671 8.0697 10.1806 8.13331 10.2047 8.19139C10.2291 8.25036 10.2653 8.30561 10.3132 8.35355L12.3132 10.3536C12.5085 10.5488 12.825 10.5488 13.0203 10.3536C13.2156 10.1583 13.2156 9.84171 13.0203 9.64645L11.8739 8.5H14.6667C14.9429 8.5 15.1667 8.27614 15.1667 8C15.1667 7.72386 14.9429 7.5 14.6667 7.5H11.8739L13.0203 6.35355C13.2156 6.15829 13.2156 5.84171 13.0203 5.64645C12.825 5.45118 12.5085 5.45118 12.3132 5.64645L10.3132 7.64645C10.2163 7.74331 10.1675 7.87004 10.1668 7.997L10.1667 8L10.1668 8.003ZM8.5 5.5C8.5 5.22386 8.27614 5 8 5C7.72386 5 7.5 5.22386 7.5 5.5V6.5C7.5 6.77614 7.72386 7 8 7C8.27614 7 8.5 6.77614 8.5 6.5V5.5ZM8 9C8.27614 9 8.5 9.22386 8.5 9.5V10.5C8.5 10.7761 8.27614 11 8 11C7.72386 11 7.5 10.7761 7.5 10.5V9.5C7.5 9.22386 7.72386 9 8 9ZM8.5 13.5C8.5 13.2239 8.27614 13 8 13C7.72386 13 7.5 13.2239 7.5 13.5V14.5C7.5 14.7761 7.72386 15 8 15C8.27614 15 8.5 14.7761 8.5 14.5V13.5Z"
    fill="currentColor"
  />
</svg>
