<svg width="22" height="22" viewBox="0 0 22 22"  xmlns="http://www.w3.org/2000/svg">
<path fill-rule="evenodd" clip-rule="evenodd" d="M4.86683 11.9001H2.7501C2.25304 11.9001 1.8501 11.4972 1.8501 11.0001C1.8501 10.503 2.25304 10.1001 2.7501 10.1001H4.86677C5.2639 8.60318 6.62812 7.5 8.25 7.5C9.87188 7.5 11.2361 8.60318 11.6332 10.1001H19.2501C19.7471 10.1001 20.1501 10.503 20.1501 11.0001C20.1501 11.4972 19.7471 11.9001 19.2501 11.9001H11.6332C11.236 13.3969 9.87181 14.5 8.25 14.5C6.62819 14.5 5.26402 13.3969 4.86683 11.9001ZM6.25 11C6.25 9.89543 7.14543 9 8.25 9C9.35457 9 10.25 9.89543 10.25 11C10.25 12.1046 9.35457 13 8.25 13C7.14543 13 6.25 12.1046 6.25 11Z" />
</svg>
