<svg width="16" height="16" viewBox="0 0 16 16"  xmlns="http://www.w3.org/2000/svg">
<path fill-rule="evenodd" clip-rule="evenodd" d="M3.47285 8.79995H2.0001C1.55828 8.79995 1.2001 8.44178 1.2001 7.99995C1.2001 7.55812 1.55828 7.19995 2.0001 7.19995H3.47295C3.81221 6.12748 4.81532 5.3501 6.00001 5.3501C7.18469 5.3501 8.1878 6.12748 8.52707 7.19995H14.0001C14.4419 7.19995 14.8001 7.55812 14.8001 7.99995C14.8001 8.44178 14.4419 8.79995 14.0001 8.79995H8.52716C8.18798 9.87258 7.18479 10.6501 6.00001 10.6501C4.81522 10.6501 3.81203 9.87258 3.47285 8.79995ZM4.65001 8.0001C4.65001 7.25451 5.25442 6.6501 6.00001 6.6501C6.74559 6.6501 7.35001 7.25451 7.35001 8.0001C7.35001 8.74568 6.74559 9.3501 6.00001 9.3501C5.25442 9.3501 4.65001 8.74568 4.65001 8.0001Z" />
</svg>
