<svg width="22" height="22" viewBox="0 0 22 22"  xmlns="http://www.w3.org/2000/svg">
<path d="M5.95996 2.00783C5.71293 2.01348 5.4878 2.02322 5.28265 2.03999C4.77828 2.08122 4.32966 2.16861 3.91232 2.38031C3.24896 2.7126 2.71257 3.24901 2.38029 3.91237C2.16861 4.3297 2.08122 4.7783 2.03999 5.28265C2.02322 5.4878 2.01348 5.71293 2.00783 5.95996H3.50819C3.5133 5.75181 3.52158 5.56916 3.53501 5.40485C3.5687 4.99263 3.63107 4.76195 3.71854 4.58994L3.72082 4.58541C3.90825 4.21056 4.21056 3.90825 4.58541 3.72082L4.58994 3.71854C4.76195 3.63107 4.99263 3.5687 5.40485 3.53501C5.56916 3.52158 5.75181 3.5133 5.95996 3.50819V2.00783Z" />
<path d="M13.29 3.5H8.70996V2H13.29V3.5Z" />
<path d="M18.4918 5.95996C18.4867 5.75181 18.4784 5.56916 18.465 5.40485C18.4313 4.99263 18.3689 4.76195 18.2815 4.58994L18.2792 4.58542C18.0917 4.21056 17.7894 3.90825 17.4146 3.72082L17.4101 3.71855C17.238 3.63109 17.0074 3.5687 16.5951 3.53501C16.4308 3.52158 16.2482 3.5133 16.04 3.50819V2.00783C16.2871 2.01348 16.5122 2.02322 16.7174 2.03999C17.2217 2.08122 17.6703 2.16861 18.0877 2.3803C18.751 2.71258 19.2874 3.24897 19.6197 3.91232C19.8314 4.32966 19.9188 4.77828 19.96 5.28265C19.9768 5.4878 19.9865 5.71293 19.9922 5.95996H18.4918Z" />
<path d="M18.5 13.29V8.70996H20V13.29H18.5Z" />
<path d="M16.04 18.4918C16.2482 18.4867 16.4308 18.4784 16.5951 18.465C17.0074 18.4313 17.238 18.3689 17.4101 18.2815L17.4146 18.2792C17.7894 18.0917 18.0918 17.7894 18.2792 17.4146L18.2814 17.4101C18.3689 17.238 18.4313 17.0074 18.465 16.5951C18.4784 16.4308 18.4867 16.2482 18.4918 16.04H19.9922C19.9865 16.2871 19.9768 16.5122 19.96 16.7174C19.9188 17.2217 19.8314 17.6704 19.6197 18.0877C19.2874 18.751 18.751 19.2874 18.0877 19.6197C17.6703 19.8314 17.2217 19.9188 16.7174 19.96C16.5122 19.9768 16.2871 19.9865 16.04 19.9922V18.4918Z" />
<path d="M8.70996 18.5H13.29V20H8.70996V18.5Z" />
<path d="M3.50819 16.04C3.5133 16.2482 3.52158 16.4308 3.53501 16.5951C3.5687 17.0074 3.63107 17.238 3.71854 17.4101L3.72084 17.4146C3.90826 17.7894 4.21056 18.0918 4.58541 18.2792L4.58994 18.2814C4.76196 18.3689 4.99263 18.4313 5.40485 18.465C5.56916 18.4784 5.75181 18.4867 5.95996 18.4918V19.9922C5.71293 19.9865 5.4878 19.9768 5.28265 19.96C4.77827 19.9188 4.32966 19.8314 3.91232 19.6197C3.24898 19.2874 2.71259 18.751 2.38031 18.0877C2.16861 17.6703 2.08122 17.2217 2.03999 16.7174C2.02322 16.5122 2.01348 16.2871 2.00783 16.04H3.50819Z" />
<path d="M3.5 8.70996V13.29H2V8.70996H3.5Z" />
</svg>
