<svg
  width="16"
  height="16"
  viewBox="0 0 16 16"
  fill="none"
  xmlns="http://www.w3.org/2000/svg"
>
  <path
    fill-rule="evenodd"
    clip-rule="evenodd"
    d="M3.33333 1.5C2.8471 1.5 2.38079 1.69315 2.03697 2.03697C1.69315 2.38079 1.5 2.8471 1.5 3.33333C1.5 3.60948 1.72386 3.83333 2 3.83333C2.27614 3.83333 2.5 3.60948 2.5 3.33333C2.5 3.11232 2.5878 2.90036 2.74408 2.74408C2.90036 2.5878 3.11232 2.5 3.33333 2.5C3.60948 2.5 3.83333 2.27614 3.83333 2C3.83333 1.72386 3.60948 1.5 3.33333 1.5ZM12.6667 1.5C12.3905 1.5 12.1667 1.72386 12.1667 2C12.1667 2.27614 12.3905 2.5 12.6667 2.5C12.8877 2.5 13.0996 2.5878 13.2559 2.74408C13.4122 2.90036 13.5 3.11232 13.5 3.33333C13.5 3.60948 13.7239 3.83333 14 3.83333C14.2761 3.83333 14.5 3.60948 14.5 3.33333C14.5 2.8471 14.3068 2.38079 13.963 2.03697C13.6192 1.69315 13.1529 1.5 12.6667 1.5ZM14 12.1667C14.2761 12.1667 14.5 12.3905 14.5 12.6667C14.5 13.1529 14.3068 13.6192 13.963 13.963C13.6192 14.3068 13.1529 14.5 12.6667 14.5C12.3905 14.5 12.1667 14.2761 12.1667 14C12.1667 13.7239 12.3905 13.5 12.6667 13.5C12.8877 13.5 13.0996 13.4122 13.2559 13.2559C13.4122 13.0996 13.5 12.8877 13.5 12.6667C13.5 12.3905 13.7239 12.1667 14 12.1667ZM2.5 12.6667C2.5 12.3905 2.27614 12.1667 2 12.1667C1.72386 12.1667 1.5 12.3905 1.5 12.6667C1.5 13.1529 1.69315 13.6192 2.03697 13.963C2.38079 14.3068 2.8471 14.5 3.33333 14.5C3.60948 14.5 3.83333 14.2761 3.83333 14C3.83333 13.7239 3.60948 13.5 3.33333 13.5C3.11232 13.5 2.90036 13.4122 2.74408 13.2559C2.5878 13.0996 2.5 12.8877 2.5 12.6667ZM5.5 2C5.5 1.72386 5.72386 1.5 6 1.5H6.66667C6.94281 1.5 7.16667 1.72386 7.16667 2C7.16667 2.27614 6.94281 2.5 6.66667 2.5H6C5.72386 2.5 5.5 2.27614 5.5 2ZM6 13.5C5.72386 13.5 5.5 13.7239 5.5 14C5.5 14.2761 5.72386 14.5 6 14.5H6.66667C6.94281 14.5 7.16667 14.2761 7.16667 14C7.16667 13.7239 6.94281 13.5 6.66667 13.5H6ZM8.83333 2C8.83333 1.72386 9.05719 1.5 9.33333 1.5H10C10.2761 1.5 10.5 1.72386 10.5 2C10.5 2.27614 10.2761 2.5 10 2.5H9.33333C9.05719 2.5 8.83333 2.27614 8.83333 2ZM9.33333 13.5C9.05719 13.5 8.83333 13.7239 8.83333 14C8.83333 14.2761 9.05719 14.5 9.33333 14.5H10C10.2761 14.5 10.5 14.2761 10.5 14C10.5 13.7239 10.2761 13.5 10 13.5H9.33333ZM2 5.5C2.27614 5.5 2.5 5.72386 2.5 6V6.66667C2.5 6.94281 2.27614 7.16667 2 7.16667C1.72386 7.16667 1.5 6.94281 1.5 6.66667V6C1.5 5.72386 1.72386 5.5 2 5.5ZM14.5 6C14.5 5.72386 14.2761 5.5 14 5.5C13.7239 5.5 13.5 5.72386 13.5 6V6.66667C13.5 6.94281 13.7239 7.16667 14 7.16667C14.2761 7.16667 14.5 6.94281 14.5 6.66667V6ZM2 8.83333C2.27614 8.83333 2.5 9.05719 2.5 9.33333V10C2.5 10.2761 2.27614 10.5 2 10.5C1.72386 10.5 1.5 10.2761 1.5 10V9.33333C1.5 9.05719 1.72386 8.83333 2 8.83333ZM14.5 9.33333C14.5 9.05719 14.2761 8.83333 14 8.83333C13.7239 8.83333 13.5 9.05719 13.5 9.33333V10C13.5 10.2761 13.7239 10.5 14 10.5C14.2761 10.5 14.5 10.2761 14.5 10V9.33333Z"
    fill="currentColor"
  />
</svg>
