<svg width="16" height="16" viewBox="0 0 16 16"  xmlns="http://www.w3.org/2000/svg">
  <path d="M4.33005 1.35592C4.14935 1.36012 3.98395 1.36735 3.83291 1.37979C3.45835 1.41066 3.11577 1.4768 2.79398 1.64144C2.30975 1.89009 1.89577 2.28665 1.63997 2.79678C1.47636 3.11778 1.41051 3.45948 1.37973 3.83297C1.36729 3.98402 1.36005 4.14945 1.35585 4.33018H2.65618C2.65989 4.18354 2.66583 4.05517 2.67534 3.93972C2.69948 3.64678 2.74334 3.49436 2.7987 3.38616L2.80141 3.38079C2.92564 3.13233 3.13177 2.92948 3.3865 2.79855C3.49468 2.74329 3.64709 2.69951 3.93966 2.6754C4.05509 2.66589 4.18345 2.65995 4.33005 2.65625V1.35592Z" />
  <path d="M9.67002 2.6501H6.33005V1.3501H9.67002V2.6501Z" />
  <path d="M13.3439 4.33018C13.3402 4.18354 13.3342 4.05517 13.3247 3.93972C13.3006 3.64722 13.2569 3.49481 13.2016 3.38664C13.0707 3.13187 12.8678 2.92572 12.6193 2.80148L12.614 2.79878C12.5058 2.74342 12.3534 2.69954 12.0604 2.6754C11.945 2.66589 11.8166 2.65995 11.67 2.65625V1.35592C11.8507 1.36012 12.0161 1.36735 12.1672 1.37979C12.5407 1.41057 12.8824 1.47643 13.2034 1.64006C13.7135 1.89586 14.1096 2.30896 14.3583 2.79317C14.5229 3.11497 14.5895 3.45841 14.6203 3.83297C14.6328 3.98402 14.64 4.14945 14.6442 4.33018H13.3439Z" />
  <path d="M13.35 9.67002V6.33018H14.65V9.67002H13.35Z" />
  <path d="M11.67 13.3439C11.8166 13.3402 11.945 13.3343 12.0604 13.3248C12.353 13.3007 12.5054 13.2569 12.6136 13.2016C12.8683 13.0707 13.0744 12.8679 13.1987 12.6194L13.2014 12.614C13.2567 12.5058 13.3006 12.3534 13.3247 12.0605C13.3342 11.945 13.3402 11.8167 13.3439 11.67H14.6442C14.64 11.8507 14.6328 12.0162 14.6203 12.1672C14.5896 12.5407 14.5237 12.8824 14.3601 13.2034C14.1043 13.7135 13.6912 14.1097 13.207 14.3583C12.8852 14.523 12.5417 14.5895 12.1672 14.6204C12.0161 14.6328 11.8507 14.6401 11.67 14.6443V13.3439Z" />
  <path d="M6.33005 13.3501H9.67002V14.6501H6.33005V13.3501Z" />
  <path d="M2.65618 11.67C2.65989 11.8167 2.66583 11.945 2.67534 12.0605C2.69946 12.3532 2.74326 12.5056 2.79855 12.6137C2.92948 12.8684 3.13231 13.0745 3.38073 13.1987L3.38611 13.2014C3.49431 13.2568 3.64672 13.3007 3.93966 13.3248C4.05509 13.3343 4.18345 13.3402 4.33005 13.3439V14.6443C4.14935 14.6401 3.98395 14.6328 3.83291 14.6204C3.45944 14.5896 3.11777 14.5238 2.7968 14.3602C2.28663 14.1044 1.89049 13.6913 1.64182 13.207C1.47718 12.8852 1.41059 12.5418 1.37973 12.1672C1.36729 12.0162 1.36005 11.8507 1.35585 11.67H2.65618Z" />
  <path d="M2.65004 6.33018V9.67002H1.35004V6.33018H2.65004Z" />
</svg>
