<svg width="16" height="16" viewBox="0 0 16 16" xmlns="http://www.w3.org/2000/svg">
<path fill-rule="evenodd" clip-rule="evenodd" d="M11.495 4.50501C11.7683 4.77838 11.7683 5.2216 11.495 5.49496L8.98994 8L11.495 10.505C11.7683 10.7784 11.7683 11.2216 11.495 11.495C11.2216 11.7683 10.7784 11.7683 10.505 11.495L7.99999 8.98995L5.49498 11.495C5.22161 11.7683 4.7784 11.7683 4.50503 11.495C4.23166 11.2216 4.23166 10.7784 4.50503 10.505L7.01004 8L4.50503 5.49501C4.23166 5.22164 4.23166 4.77843 4.50503 4.50506C4.77839 4.23169 5.22161 4.23169 5.49498 4.50506L7.99999 7.01005L10.505 4.50501C10.7784 4.23165 11.2216 4.23165 11.495 4.50501Z"/>
</svg>
