<svg width="16" height="16" viewBox="0 0 16 16" xmlns="http://www.w3.org/2000/svg">
<path fill-rule="evenodd" clip-rule="evenodd" d="M11.495 4.50503C11.7683 4.7784 11.7683 5.22161 11.495 5.49498L8.98993 8.00001L11.495 10.505C11.7683 10.7784 11.7683 11.2216 11.495 11.495C11.2216 11.7683 10.7784 11.7683 10.505 11.495L7.99998 8.98996L5.49496 11.495C5.2216 11.7683 4.77838 11.7683 4.50501 11.495C4.23165 11.2216 4.23165 10.7784 4.50501 10.505L7.01003 8.00002L4.50501 5.49503C4.23165 5.22166 4.23165 4.77844 4.50501 4.50508C4.77838 4.23171 5.22159 4.23171 5.49496 4.50507L7.99997 7.01007L10.505 4.50503C10.7784 4.23166 11.2216 4.23166 11.495 4.50503Z"/>
</svg>
