<svg
  width="16"
  height="16"
  viewBox="0 0 16 16"
  fill="none"
  xmlns="http://www.w3.org/2000/svg"
>
  <path
    d="M5.33329 1.33333H3.99996C3.26358 1.33333 2.66663 1.93028 2.66663 2.66666V13.3333C2.66663 14.0697 3.26358 14.6667 3.99996 14.6667H5.33329C6.06967 14.6667 6.66663 14.0697 6.66663 13.3333V2.66666C6.66663 1.93028 6.06967 1.33333 5.33329 1.33333Z"
    stroke="currentColor"
    stroke-linecap="round"
    stroke-linejoin="round"
  />
  <path
    d="M12 1.33333H10.6667C9.93033 1.33333 9.33337 1.93028 9.33337 2.66666V13.3333C9.33337 14.0697 9.93033 14.6667 10.6667 14.6667H12C12.7364 14.6667 13.3334 14.0697 13.3334 13.3333V2.66666C13.3334 1.93028 12.7364 1.33333 12 1.33333Z"
    stroke="currentColor"
    stroke-linecap="round"
    stroke-linejoin="round"
  />
</svg>
