<svg width="16" height="16" viewBox="0 0 16 16" xmlns="http://www.w3.org/2000/svg">
<path fill-rule="evenodd" clip-rule="evenodd" d="M8.39303 12.3694L7.30888 9.51702H3.87958L2.79544 12.3694C2.65808 12.7307 2.25378 12.9123 1.8924 12.775C1.53103 12.6376 1.34942 12.2333 1.48678 11.8719L4.44585 4.08677C4.51798 3.89696 4.58649 3.71665 4.65255 3.57756C4.70854 3.45965 4.83144 3.21018 5.08638 3.06001C5.40183 2.8742 5.78664 2.8742 6.10208 3.06001C6.35703 3.21018 6.47992 3.45965 6.53592 3.57756C6.60198 3.71665 6.67049 3.89697 6.74262 4.08679L9.70169 11.8719C9.83904 12.2333 9.65744 12.6376 9.29606 12.775C8.93469 12.9123 8.53038 12.7307 8.39303 12.3694ZM4.41171 8.11702L5.59423 5.00587L6.77675 8.11702H4.41171Z" />
<path d="M10.24 10.2607C10.2216 10.6192 10.4973 10.9247 10.8559 10.9431C11.2144 10.9615 11.5199 10.6858 11.5383 10.3272C11.5446 10.2047 11.6182 10.077 11.7511 9.97122C11.8159 9.91968 12.0431 9.83181 12.3486 9.84552C12.6508 9.85907 12.8201 9.96102 12.8792 10.0404C12.9962 10.1976 13.0195 10.3493 13.016 10.4675C13.0141 10.5287 13.0048 10.579 12.9969 10.611C12.9941 10.6224 12.9917 10.6308 12.9901 10.6359L12.9832 10.6508C12.9727 10.6731 12.9536 10.7112 12.9245 10.7619C12.8663 10.8633 12.7684 11.0144 12.6187 11.1893C12.4535 11.3823 11.9125 11.9589 11.3949 12.5053C11.14 12.7744 10.8961 13.0306 10.7159 13.2196L10.4196 13.5299C10.2964 13.6586 10.2365 13.8248 10.2393 13.99C10.2437 14.3439 10.5313 14.6301 10.8865 14.6315L13.8567 14.6436C14.2157 14.6451 14.5079 14.3553 14.5093 13.9963C14.5108 13.6373 14.221 13.3451 13.862 13.3437L12.397 13.3377C12.8867 12.8204 13.4215 12.2506 13.6064 12.0345C13.8143 11.7916 13.958 11.5728 14.0521 11.4088C14.0992 11.3268 14.1339 11.2583 14.1582 11.2071C14.1703 11.1815 14.1798 11.1602 14.1869 11.1436L14.1958 11.1224L14.1989 11.1149L14.1994 11.1137L14.2004 11.1111L14.2028 11.1051L14.2085 11.09C14.2126 11.0787 14.2176 11.0648 14.223 11.0484C14.2338 11.0156 14.2467 10.9726 14.2595 10.9208C14.2847 10.8178 14.3102 10.6757 14.3154 10.5069C14.3257 10.1653 14.2515 9.70713 13.9223 9.26454C13.5352 8.74412 12.9061 8.56922 12.4069 8.54682C11.9111 8.52458 11.3343 8.64164 10.9418 8.95385C10.6198 9.21003 10.2712 9.65214 10.24 10.2607Z" />
</svg>
