<svg width="16" height="16" viewBox="0 0 16 16" xmlns="http://www.w3.org/2000/svg">
<path d="M9.48366 3.0463C9.46527 3.40481 9.74099 3.71035 10.0995 3.72874C10.458 3.74713 10.7636 3.47141 10.782 3.11289C10.7882 2.99038 10.8618 2.86264 10.9948 2.75687C11.0596 2.70533 11.2868 2.61746 11.5923 2.63116C11.8944 2.64472 12.0638 2.74667 12.1229 2.82607C12.2398 2.9833 12.2632 3.13497 12.2596 3.25318C12.2578 3.3143 12.2484 3.36465 12.2406 3.39665C12.2378 3.408 12.2353 3.41644 12.2337 3.42155L12.2269 3.43646C12.2163 3.4587 12.1973 3.49682 12.1682 3.54751C12.11 3.64896 12.012 3.80005 11.8624 3.97492C11.6972 4.168 11.1561 4.74453 10.6386 5.2909C10.3836 5.56003 10.1397 5.81624 9.95953 6.00522L9.66323 6.3155C9.53996 6.4443 9.48013 6.61064 9.48291 6.77586C9.48754 7.12961 9.77502 7.41566 10.1302 7.41711L13.1003 7.42922C13.4593 7.43068 13.7515 7.14085 13.753 6.78187C13.7544 6.42289 13.4646 6.13069 13.1056 6.12923L11.6407 6.12325C12.1304 5.60599 12.6652 5.03625 12.8501 4.82016C13.058 4.57724 13.2017 4.35844 13.2958 4.19445C13.3428 4.11242 13.3776 4.04393 13.4018 3.99274C13.4139 3.96714 13.4235 3.94583 13.4306 3.92929L13.4395 3.90808L13.4425 3.90056L13.443 3.89934L13.4441 3.89671L13.4464 3.8907L13.4521 3.87568C13.4563 3.86437 13.4612 3.85042 13.4666 3.83401C13.4775 3.80126 13.4904 3.75827 13.5031 3.70644C13.5284 3.60348 13.5539 3.46139 13.559 3.29258C13.5694 2.95093 13.4951 2.49278 13.1659 2.05019C12.7788 1.52977 12.1497 1.35487 11.6506 1.33247C11.1548 1.31022 10.578 1.42729 10.1855 1.7395C9.86345 1.99568 9.51487 2.43779 9.48366 3.0463Z" />
<path fill-rule="evenodd" clip-rule="evenodd" d="M8.39303 12.3691L7.30888 9.51679H3.87958L2.79544 12.3691C2.65808 12.7305 2.25378 12.9121 1.8924 12.7747C1.53103 12.6374 1.34942 12.2331 1.48678 11.8717L4.44585 4.08654C4.51798 3.89673 4.58649 3.71642 4.65255 3.57733C4.70854 3.45942 4.83144 3.20995 5.08638 3.05977C5.40183 2.87397 5.78664 2.87397 6.10208 3.05978C6.35703 3.20995 6.47992 3.45942 6.53592 3.57733C6.60198 3.71642 6.67049 3.89674 6.74262 4.08656L9.70169 11.8717C9.83904 12.2331 9.65744 12.6374 9.29606 12.7747C8.93469 12.9121 8.53038 12.7305 8.39303 12.3691ZM4.41171 8.11679L5.59423 5.00563L6.77675 8.11679H4.41171Z" />
</svg>
