<svg width="22" height="22" viewBox="0 0 22 22"  xmlns="http://www.w3.org/2000/svg">
<path fill-rule="evenodd" clip-rule="evenodd" d="M1.08337 11C1.08337 8.0545 3.47119 5.66669 6.41671 5.66669H15.5834C18.5289 5.66669 20.9167 8.0545 20.9167 11C20.9167 13.9455 18.5289 16.3334 15.5834 16.3334H6.41671C3.47119 16.3334 1.08337 13.9455 1.08337 11ZM10.1248 14.8334H15.5834C17.7005 14.8334 19.4167 13.1171 19.4167 11C19.4167 8.88293 17.7005 7.16669 15.5834 7.16669H10.1248C11.127 8.13632 11.75 9.49541 11.75 11C11.75 12.5046 11.127 13.8637 10.1248 14.8334ZM6.41671 7.16669C4.29962 7.16669 2.58337 8.88293 2.58337 11C2.58337 13.1171 4.29962 14.8334 6.41671 14.8334C8.5338 14.8334 10.25 13.1171 10.25 11C10.25 8.88293 8.5338 7.16669 6.41671 7.16669Z" />
</svg>
