<svg width="16" height="16" viewBox="0 0 16 16"  xmlns="http://www.w3.org/2000/svg">
<path fill-rule="evenodd" clip-rule="evenodd" d="M0.683319 8C0.683319 5.80006 2.46672 4.01666 4.66665 4.01666H11.3333C13.5333 4.01666 15.3167 5.80006 15.3167 8C15.3167 10.1999 13.5333 11.9833 11.3333 11.9833H4.66665C2.46672 11.9833 0.683319 10.1999 0.683319 8ZM7.61061 10.6833H11.3333C12.8153 10.6833 14.0167 9.48196 14.0167 8C14.0167 6.51803 12.8153 5.31666 11.3333 5.31666H7.61061C8.25626 6.02462 8.64999 6.96633 8.64999 8C8.64999 9.03366 8.25626 9.97537 7.61061 10.6833ZM4.66665 5.31666C3.18469 5.31666 1.98332 6.51803 1.98332 8C1.98332 9.48196 3.18469 10.6833 4.66665 10.6833C6.14862 10.6833 7.34999 9.48196 7.34999 8C7.34999 6.51803 6.14862 5.31666 4.66665 5.31666Z" />
</svg>
