<svg
  width="16"
  height="16"
  viewBox="0 0 16 16"
  fill="none"
  xmlns="http://www.w3.org/2000/svg"
>
  <path
    d="M9.75 5H12.5H13M9.75 5H8.5H7.5H7.40139C6.83825 5 6.31237 4.71856 6 4.25V4.25L5.5 3.5L5 2.75L4.5 2M9.75 5L8.75 3.5L8.25 2.75L7.75 2M4.5 2H3.75H3V2C2.17157 2 1.5 2.67157 1.5 3.5V3.5V5V8V11V12.5V12.5C1.5 13.3284 2.17157 14 3 14H3.125H4.75H8.5H11.5H13V14C13.8284 14 14.5 13.3284 14.5 12.5V12.5V8.25V6.625V6.5C14.5 5.67157 13.8284 5 13 5V5M4.5 2L5.75 2H6.75H7.75M7.75 2H9.25H10.125V2C10.6717 2 11.1821 2.2732 11.4854 2.72804L11.5 2.75L12 3.5L13 5"
    stroke="currentColor"
    stroke-linecap="round"
    stroke-linejoin="round"
  />
</svg>
