<svg width="22" height="22" viewBox="0 0 22 22"  xmlns="http://www.w3.org/2000/svg">
<path fill-rule="evenodd" clip-rule="evenodd" d="M17.444 6.62C18.136 6.665 18.607 6.762 19.006 6.965C19.664 7.301 20.2 7.836 20.535 8.495C20.871 9.153 20.917 10.01 20.917 11.734V14.85C20.917 16.574 20.871 17.431 20.535 18.089C20.2 18.747 19.664 19.283 19.006 19.619C18.347 19.954 17.49 20 15.767 20H6.23297C4.50997 20 3.65302 19.954 2.99402 19.619C2.33602 19.283 1.80003 18.748 1.46503 18.089C1.17003 17.511 1.099 16.779 1.086 15.442C1.084 15.421 1.08301 15.401 1.08301 15.38V5.68301C1.08301 4.47301 1.12899 3.873 1.36499 3.41C1.48499 3.174 1.64097 2.959 1.82397 2.772C2.01797 2.575 2.24402 2.40901 2.49402 2.28201C2.97802 2.03501 3.54502 2 4.30902 2H11.951C13.065 2 13.62 2.02201 14.112 2.19101C14.602 2.36001 15.049 2.637 15.42 3C15.791 3.364 16.059 3.84998 16.557 4.84698L17.444 6.62ZM7.72498 3.5C7.93398 3.817 8.15301 4.23598 8.45801 4.84698L9.32599 6.58401H11.722L11.189 5.51801C10.804 4.74801 10.631 4.35201 10.344 4.07101C10.132 3.86401 9.87701 3.70601 9.59601 3.60901C9.35801 3.52701 9.10003 3.505 8.72803 3.5C8.48303 3.498 8.21901 3.5 7.92401 3.5H7.72498ZM15.767 8.08401H8.86298C8.57898 8.08401 8.31902 7.92301 8.19202 7.66901L7.11603 5.51801C6.73203 4.74801 6.558 4.35201 6.271 4.07101C6.059 3.86401 5.80399 3.70601 5.52399 3.60901C5.16099 3.48401 5.13002 3.5 4.30902 3.5C3.83502 3.5 3.47499 3.46501 3.17499 3.61801C3.06999 3.67101 2.97498 3.74101 2.89398 3.82401C2.81698 3.90201 2.75199 3.99201 2.70099 4.09201C2.53699 4.41401 2.58301 4.84001 2.58301 5.68301V15.38C2.58301 15.399 2.58299 15.417 2.58099 15.435C2.57599 16.415 2.57803 16.97 2.80103 17.408C2.99303 17.784 3.29899 18.09 3.67499 18.282C4.19399 18.546 4.87597 18.5 6.23297 18.5H15.767C17.124 18.5 17.806 18.546 18.325 18.282C18.701 18.09 19.007 17.784 19.199 17.408C19.463 16.89 19.417 16.207 19.417 14.85V11.734C19.417 10.377 19.463 9.69399 19.199 9.17599C19.007 8.799 18.701 8.493 18.325 8.302C18.009 8.14 17.631 8.09502 17.077 8.08401C16.997 8.09601 16.917 8.09399 16.839 8.08099C16.535 8.07899 16.182 8.08401 15.767 8.08401ZM15.748 6.58401L15.216 5.51801C14.831 4.74801 14.657 4.35201 14.37 4.07101C14.158 3.86401 13.903 3.70601 13.623 3.60901C13.243 3.47801 12.811 3.5 11.951 3.5H11.798C12.007 3.817 12.225 4.23598 12.531 4.84698L13.399 6.58401H15.748Z" fill="black"/>
</svg>
