<svg width="16" height="16" viewBox="0 0 16 16"  xmlns="http://www.w3.org/2000/svg">
<path fill-rule="evenodd" clip-rule="evenodd" d="M12.754 4.716C13.244 4.752 13.582 4.82598 13.87 4.97198C14.368 5.22598 14.774 5.632 15.028 6.13C15.277 6.619 15.317 7.25402 15.317 8.53302V10.8C15.317 12.079 15.277 12.715 15.028 13.203C14.774 13.702 14.368 14.107 13.87 14.361C13.381 14.61 12.746 14.65 11.467 14.65H4.53302C3.25402 14.65 2.619 14.61 2.13 14.361C1.632 14.107 1.22598 13.702 0.971985 13.203C0.752985 12.774 0.695998 12.231 0.684998 11.238C0.683998 11.22 0.682983 11.203 0.682983 11.186V4.133C0.682983 3.227 0.723024 2.77898 0.900024 2.43298C0.992024 2.25098 1.11101 2.08599 1.25201 1.94299C1.40101 1.79099 1.57499 1.66398 1.76599 1.56598C2.13099 1.37998 2.55797 1.34998 3.13397 1.34998H8.69098C9.51898 1.34998 9.932 1.369 10.297 1.495C10.669 1.623 11.007 1.83199 11.287 2.10699C11.564 2.37699 11.765 2.73803 12.135 3.47803L12.754 4.716ZM5.80603 2.65002C5.93203 2.86102 6.06899 3.12703 6.245 3.47803L6.84698 4.68298H8.35602L8.04401 4.06C7.77201 3.516 7.65197 3.23401 7.44897 3.03601C7.30697 2.89601 7.13401 2.789 6.94501 2.724C6.79301 2.671 6.62903 2.65502 6.40503 2.65002C6.22403 2.64802 6.02703 2.65002 5.80603 2.65002ZM12.439 5.98199C12.368 5.99299 6.44598 5.98297 6.44598 5.98297C6.19898 5.98297 5.97401 5.84402 5.86401 5.62402L5.08197 4.05902C4.80997 3.51602 4.69 3.23401 4.487 3.03601C4.345 2.89601 4.17197 2.789 3.98297 2.724C3.72997 2.636 3.70797 2.65002 3.13397 2.65002C2.80897 2.65002 2.56202 2.62 2.35602 2.724C2.29002 2.758 2.23102 2.802 2.17902 2.854C2.13102 2.904 2.08998 2.96101 2.05798 3.02301C1.94298 3.24801 1.98297 3.545 1.98297 4.133V11.186C1.98297 11.203 1.98302 11.22 1.98102 11.238C1.97602 11.918 1.974 12.306 2.13 12.613C2.26 12.867 2.46597 13.073 2.71997 13.203C3.08797 13.39 3.57202 13.35 4.53302 13.35H11.467C12.428 13.35 12.912 13.39 13.28 13.203C13.534 13.073 13.74 12.867 13.87 12.613C14.057 12.246 14.017 11.761 14.017 10.8V8.53302C14.017 7.57202 14.057 7.08801 13.87 6.72101C13.74 6.46701 13.534 6.25998 13.28 6.13098C13.064 6.02098 12.808 5.98899 12.439 5.98199ZM11.284 4.68298L10.972 4.06C10.7 3.516 10.581 3.23401 10.378 3.03601C10.235 2.89601 10.062 2.789 9.87299 2.724C9.61599 2.635 9.326 2.64902 8.76801 2.65002C8.89301 2.86102 9.03097 3.12703 9.20697 3.47803L9.80902 4.68298H11.284Z" fill="black"/>
</svg>
