<svg
  width="16"
  height="16"
  viewBox="0 0 16 16"
  fill="none"
  xmlns="http://www.w3.org/2000/svg"
>
  <path
    fill-rule="evenodd"
    clip-rule="evenodd"
    d="M2 3.5C1.72386 3.5 1.5 3.72386 1.5 4C1.5 4.27614 1.72386 4.5 2 4.5H14C14.2761 4.5 14.5 4.27614 14.5 4C14.5 3.72386 14.2761 3.5 14 3.5H2ZM4.16663 8C4.16663 7.72386 4.39048 7.5 4.66663 7.5H11.3333C11.6094 7.5 11.8333 7.72386 11.8333 8C11.8333 8.27614 11.6094 8.5 11.3333 8.5H4.66663C4.39048 8.5 4.16663 8.27614 4.16663 8ZM2.83337 12C2.83337 11.7239 3.05723 11.5 3.33337 11.5H12.6667C12.9428 11.5 13.1667 11.7239 13.1667 12C13.1667 12.2761 12.9428 12.5 12.6667 12.5H3.33337C3.05723 12.5 2.83337 12.2761 2.83337 12Z"
    fill="currentColor"
  />
</svg>
