<svg width="16" height="16" viewBox="0 0 16 16" xmlns="http://www.w3.org/2000/svg">
<path clip-rule="evenodd" d="M9.98504 2.01678H6.66668C6.3077 2.01678 6.01668 2.30779 6.01668 2.66678C6.01668 3.02576 6.3077 3.31678 6.66668 3.31678H9.06207L5.54957 12.6834H3.33335C2.97436 12.6834 2.68335 12.9745 2.68335 13.3334C2.68335 13.6924 2.97436 13.9834 3.33335 13.9834H5.98482C5.99491 13.9837 6.00498 13.9837 6.01502 13.9834H9.33335C9.69234 13.9834 9.98335 13.6924 9.98335 13.3334C9.98335 12.9745 9.69234 12.6834 9.33335 12.6834H6.93797L10.4505 3.31678H12.6667C13.0257 3.31678 13.3167 3.02576 13.3167 2.66678C13.3167 2.30779 13.0257 2.01678 12.6667 2.01678H10.0152C10.0051 2.01654 9.99506 2.01654 9.98504 2.01678Z" />
</svg>
