<svg
  width="16"
  height="16"
  viewBox="0 0 16 16"
  fill="none"
  xmlns="http://www.w3.org/2000/svg"
>
  <path
    d="M4.66663 10C5.7712 10 6.66663 9.10457 6.66663 8C6.66663 6.89543 5.7712 6 4.66663 6C3.56206 6 2.66663 6.89543 2.66663 8C2.66663 9.10457 3.56206 10 4.66663 10Z"
    stroke="currentColor"
    stroke-linecap="round"
    stroke-linejoin="round"
  />
  <path
    d="M6.66663 6V10"
    stroke="currentColor"
    stroke-linecap="round"
    stroke-linejoin="round"
  />
  <path
    d="M11.3334 10C12.4379 10 13.3334 9.10457 13.3334 8C13.3334 6.89543 12.4379 6 11.3334 6C10.2288 6 9.33337 6.89543 9.33337 8C9.33337 9.10457 10.2288 10 11.3334 10Z"
    stroke="currentColor"
    stroke-linecap="round"
    stroke-linejoin="round"
  />
  <path
    d="M9.33337 4.66667V10"
    stroke="currentColor"
    stroke-linecap="round"
    stroke-linejoin="round"
  />
</svg>
