<svg
  width="16"
  height="16"
  viewBox="0 0 16 16"
  fill="none"
  xmlns="http://www.w3.org/2000/svg"
>
  <path
    fill-rule="evenodd"
    clip-rule="evenodd"
    d="M2 3.5C1.72386 3.5 1.5 3.72386 1.5 4C1.5 4.27614 1.72386 4.5 2 4.5H14C14.2761 4.5 14.5 4.27614 14.5 4C14.5 3.72386 14.2761 3.5 14 3.5H2ZM5.5 8C5.5 7.72386 5.72386 7.5 6 7.5H14C14.2761 7.5 14.5 7.72386 14.5 8C14.5 8.27614 14.2761 8.5 14 8.5H6C5.72386 8.5 5.5 8.27614 5.5 8ZM4.16663 12C4.16663 11.7239 4.39048 11.5 4.66663 11.5H14C14.2761 11.5 14.5 11.7239 14.5 12C14.5 12.2761 14.2761 12.5 14 12.5H4.66663C4.39048 12.5 4.16663 12.2761 4.16663 12Z"
    fill="currentColor"
  />
</svg>
