<svg width="16" height="16" viewBox="0 0 16 16"  xmlns="http://www.w3.org/2000/svg">
  <path fill-rule="evenodd" clip-rule="evenodd" d="M1.84998 4.00083C1.84998 3.64184 2.14099 3.35083 2.49998 3.35083L14.5 3.35083C14.859 3.35083 15.15 3.64185 15.15 4.00083C15.15 4.35982 14.859 4.65083 14.5 4.65083L2.49998 4.65083C2.14099 4.65083 1.84998 4.35982 1.84998 4.00083ZM1.84998 8.00034C1.84998 7.64136 2.14099 7.35034 2.49998 7.35034L8.49998 7.35034C8.85896 7.35034 9.14998 7.64136 9.14998 8.00034C9.14998 8.35933 8.85896 8.65034 8.49998 8.65034L2.49998 8.65034C2.14099 8.65034 1.84998 8.35933 1.84998 8.00034ZM1.84998 12.0001C1.84998 11.6411 2.14099 11.3501 2.49998 11.3501L10.5 11.3501C10.859 11.3501 11.15 11.6411 11.15 12.0001C11.15 12.3591 10.859 12.6501 10.5 12.6501L2.49998 12.6501C2.14099 12.6501 1.84998 12.3591 1.84998 12.0001Z" />
</svg>
