<svg width="22" height="22" viewBox="0 0 22 22"  xmlns="http://www.w3.org/2000/svg">
<path fill-rule="evenodd" clip-rule="evenodd" d="M5.39816 3.53135C4.97959 3.56177 4.73999 3.61864 4.5611 3.69971C4.17635 3.87406 3.88014 4.1447 3.7005 4.45826C3.62547 4.58924 3.56683 4.77162 3.53432 5.1255C3.50074 5.4911 3.5 5.9645 3.5 6.66329V13.5115C3.5 14.2103 3.50074 14.6837 3.53432 15.0493C3.56683 15.4032 3.62547 15.5856 3.7005 15.7166C3.88014 16.0301 4.17635 16.3008 4.5611 16.4751C4.73999 16.5562 4.97959 16.6131 5.39816 16.6435C5.82323 16.6744 6.36891 16.6748 7.15 16.6748H8.25797C8.45689 16.6748 8.64765 16.7539 8.7883 16.8945L11 19.1062L13.2116 16.8945C13.3523 16.7539 13.543 16.6748 13.742 16.6748H14.85C15.6311 16.6748 16.1768 16.6744 16.6018 16.6435C17.0204 16.6131 17.26 16.5562 17.4389 16.4751C17.8236 16.3008 18.1199 16.0301 18.2995 15.7166C18.3745 15.5856 18.4332 15.4032 18.4657 15.0493C18.4993 14.6837 18.5 14.2103 18.5 13.5115V6.66329C18.5 5.9645 18.4993 5.4911 18.4657 5.1255C18.4332 4.77162 18.3745 4.58924 18.2995 4.45826C18.1199 4.1447 17.8236 3.87406 17.4389 3.69971C17.26 3.61864 17.0204 3.56177 16.6018 3.53135C16.1768 3.50046 15.6311 3.5 14.85 3.5H7.15C6.36891 3.5 5.82323 3.50046 5.39816 3.53135ZM7.12132 2H14.8787C15.6244 1.99999 16.2247 1.99999 16.7106 2.03529C17.2091 2.07152 17.6487 2.14794 18.058 2.33345C18.7082 2.62807 19.2534 3.10575 19.601 3.71261C19.8257 4.10482 19.917 4.52647 19.9594 4.98828C20 5.43061 20 5.97322 20 6.62868V13.5462C20 14.2016 20 14.7442 19.9594 15.1866C19.917 15.6484 19.8257 16.07 19.601 16.4622C19.2534 17.0691 18.7082 17.5468 18.058 17.8414C17.6487 18.0269 17.2091 18.1033 16.7106 18.1395C16.2247 18.1748 15.6244 18.1748 14.8787 18.1748H14.0526L11.5303 20.6972C11.2374 20.99 10.7625 20.99 10.4696 20.6972L7.94731 18.1748H7.12134C6.37559 18.1748 5.77531 18.1748 5.28945 18.1395C4.79088 18.1033 4.35132 18.0269 3.94196 17.8414C3.29181 17.5468 2.74663 17.0691 2.39896 16.4622C2.17427 16.07 2.08304 15.6484 2.04061 15.1866C1.99998 14.7442 1.99999 14.2016 2 13.5461V6.62869C1.99999 5.97323 1.99998 5.43061 2.04061 4.98828C2.08304 4.52647 2.17427 4.10482 2.39896 3.71261C2.74663 3.10575 3.29181 2.62807 3.94196 2.33345C4.35132 2.14794 4.79088 2.07152 5.28945 2.03529C5.77531 1.99999 6.37558 1.99999 7.12132 2Z" />
</svg>
