<svg width="16" height="16" viewBox="0 0 16 16"  xmlns="http://www.w3.org/2000/svg">
<path fill-rule="evenodd" clip-rule="evenodd" d="M3.93349 2.67253C3.63465 2.69425 3.47433 2.73425 3.36029 2.78593C3.09897 2.90435 2.9009 3.08674 2.78196 3.29435C2.73782 3.3714 2.69745 3.48736 2.6745 3.73721C2.65061 3.99721 2.64998 4.33589 2.64998 4.84604V9.82659C2.64998 10.3367 2.65061 10.6754 2.6745 10.9354C2.69745 11.1853 2.73782 11.3012 2.78196 11.3783C2.9009 11.5859 3.09897 11.7683 3.36029 11.8867C3.47433 11.9384 3.63465 11.9784 3.93349 12.0001C4.23796 12.0222 4.63037 12.0226 5.19998 12.0226H6.00578C6.17817 12.0226 6.3435 12.0911 6.46539 12.213L7.99995 13.7476L9.53451 12.213C9.65641 12.0911 9.82174 12.0226 9.99413 12.0226H10.8C11.3696 12.0226 11.762 12.0222 12.0665 12.0001C12.3653 11.9784 12.5256 11.9384 12.6397 11.8867C12.901 11.7683 13.0991 11.5859 13.218 11.3783C13.2621 11.3012 13.3025 11.1853 13.3255 10.9354C13.3493 10.6754 13.35 10.3367 13.35 9.82659V4.84604C13.35 4.33589 13.3493 3.99721 13.3255 3.73721C13.3025 3.48736 13.2621 3.3714 13.218 3.29435C13.0991 3.08674 12.901 2.90435 12.6397 2.78593C12.5256 2.73425 12.3653 2.69425 12.0665 2.67253C11.762 2.65041 11.3696 2.65001 10.8 2.65001H5.19998C4.63037 2.65001 4.23796 2.65041 3.93349 2.67253ZM5.17562 1.35001H10.8243C11.3637 1.35 11.8035 1.35 12.1607 1.37595C12.5289 1.4027 12.8625 1.45964 13.1763 1.60183C13.6676 1.82449 14.0814 2.18632 14.346 2.64812C14.5198 2.95157 14.5885 3.2749 14.62 3.61828C14.65 3.94482 14.65 4.34361 14.65 4.81686V9.85576C14.65 10.329 14.65 10.7278 14.62 11.0543C14.5885 11.3977 14.5198 11.7211 14.346 12.0245C14.0814 12.4863 13.6676 12.8481 13.1763 13.0708C12.8625 13.213 12.5289 13.2699 12.1607 13.2967C11.8035 13.3226 11.3637 13.3226 10.8243 13.3226H10.2634L8.45957 15.1264C8.33767 15.2483 8.17234 15.3168 7.99995 15.3168C7.82756 15.3168 7.66223 15.2483 7.54033 15.1264L5.73654 13.3226H5.17561C4.63624 13.3226 4.19645 13.3226 3.83927 13.2967C3.4711 13.2699 3.13748 13.213 2.8237 13.0708C2.33237 12.8481 1.91852 12.4863 1.65396 12.0245C1.48012 11.7211 1.4115 11.3977 1.37995 11.0543C1.34995 10.7278 1.34996 10.329 1.34998 9.85576V4.81687C1.34996 4.34361 1.34995 3.94482 1.37995 3.61828C1.4115 3.2749 1.48012 2.95157 1.65396 2.64812C1.91852 2.18632 2.33237 1.82449 2.8237 1.60183C3.13748 1.45964 3.4711 1.4027 3.83927 1.37595C4.19645 1.35 4.63625 1.35 5.17562 1.35001Z" />
</svg>
