<svg width="16" height="16" viewBox="0 0 16 16"  xmlns="http://www.w3.org/2000/svg">
<path fill-rule="evenodd" clip-rule="evenodd" d="M5.73335 1.98085C5.45422 1.98085 5.25002 2.19937 5.25002 2.44196V9.4815C5.25002 9.84048 4.959 10.1315 4.60002 10.1315C4.24103 10.1315 3.95002 9.84048 3.95002 9.4815V7.62965C3.95002 7.38705 3.74581 7.16853 3.46668 7.16853C3.18755 7.16853 2.98335 7.38705 2.98335 7.62965V9.11113C2.98335 11.8083 5.21719 14.0167 8.00002 14.0167C10.7828 14.0167 13.0167 11.8083 13.0167 9.11113V7.03453C13.0167 6.79193 12.8125 6.57341 12.5333 6.57341C12.2542 6.57341 12.05 6.79193 12.05 7.03453V7.25297C12.05 7.61195 11.759 7.90297 11.4 7.90297C11.041 7.90297 10.75 7.61195 10.75 7.25297V6.40215C10.75 6.13353 10.5198 5.90616 10.2667 5.90616C10.0135 5.90616 9.78335 6.13353 9.78335 6.40215V7.25297C9.78335 7.61195 9.49233 7.90297 9.13335 7.90297C8.77436 7.90297 8.48335 7.61195 8.48335 7.25297V5.70001C8.48335 5.45742 8.27915 5.2389 8.00002 5.2389C7.72088 5.2389 7.51668 5.45742 7.51668 5.70001V7.25297C7.51668 7.61195 7.22567 7.90297 6.86668 7.90297C6.5077 7.90297 6.21668 7.61195 6.21668 7.25297V2.44196C6.21668 2.19937 6.01248 1.98085 5.73335 1.98085ZM7.51668 2.44196V4.00467C7.67083 3.96178 7.83303 3.9389 8.00002 3.9389C8.63533 3.9389 9.20149 4.2701 9.51782 4.77422C9.74451 4.66683 9.99784 4.60616 10.2667 4.60616C10.9041 4.60616 11.4544 4.94728 11.769 5.44336C12.0016 5.33421 12.2611 5.27341 12.5333 5.27341C13.5061 5.27341 14.3167 6.04982 14.3167 7.03453V9.11113C14.3167 12.5504 11.4764 15.3167 8.00002 15.3167C4.52361 15.3167 1.68335 12.5504 1.68335 9.11113V7.62965C1.68335 6.64494 2.49397 5.86853 3.46668 5.86853C3.63366 5.86853 3.79587 5.89141 3.95002 5.9343V2.44196C3.95002 1.45725 4.76064 0.680847 5.73335 0.680847C6.70606 0.680847 7.51668 1.45725 7.51668 2.44196Z" />
</svg>
