<svg
  width="16"
  height="16"
  viewBox="0 0 16 16"
  fill="none"
  xmlns="http://www.w3.org/2000/svg"
>
  <path
    d="M11.9153 7.35386V6.70695C11.9153 6.3638 11.779 6.03471 11.5363 5.79207C11.2937 5.54943 10.9646 5.41312 10.6215 5.41312C10.2783 5.41312 9.94923 5.54943 9.70659 5.79207C9.46395 6.03471 9.32764 6.3638 9.32764 6.70695"
    stroke="currentColor"
    stroke-linecap="round"
    stroke-linejoin="round"
  />
  <path
    d="M9.32838 6.70714V6.06023C9.32838 5.71708 9.19207 5.38799 8.94943 5.14535C8.70679 4.90271 8.3777 4.7664 8.03455 4.7664C7.69141 4.7664 7.36232 4.90271 7.11968 5.14535C6.87704 5.38799 6.74072 5.71708 6.74072 6.06023V6.70714"
    stroke="currentColor"
    stroke-linecap="round"
    stroke-linejoin="round"
  />
  <path
    d="M6.74069 6.3832V2.82624C6.74069 2.48319 6.60442 2.1542 6.36185 1.91164C6.11928 1.66907 5.79029 1.53279 5.44725 1.53279C5.10421 1.53279 4.77522 1.66907 4.53265 1.91164C4.29008 2.1542 4.15381 2.48319 4.15381 2.82624V9.29344"
    stroke="currentColor"
    stroke-linecap="round"
    stroke-linejoin="round"
  />
  <path
    d="M11.9143 7.35328C11.9143 7.01024 12.0506 6.68125 12.2932 6.43868C12.5357 6.19611 12.8647 6.05984 13.2078 6.05984C13.5508 6.05984 13.8798 6.19611 14.1224 6.43868C14.3649 6.68125 14.5012 7.01024 14.5012 7.35328V9.29344C14.5012 10.6656 13.9561 11.9816 12.9859 12.9518C12.0156 13.9221 10.6996 14.4672 9.32746 14.4672H8.03402C6.2232 14.4672 5.12377 13.911 4.16016 12.9539L1.83197 10.6257C1.60945 10.3792 1.49023 10.0567 1.49899 9.72477C1.50774 9.39285 1.6438 9.07702 1.879 8.84265C2.11419 8.60829 2.43051 8.47335 2.76245 8.46577C3.09439 8.45819 3.41654 8.57855 3.66218 8.80193L4.80041 9.94016"
    stroke="currentColor"
    stroke-linecap="round"
    stroke-linejoin="round"
  />
</svg>
