<svg width="22" height="22" viewBox="0 0 22 22"  xmlns="http://www.w3.org/2000/svg">
<path fill-rule="evenodd" clip-rule="evenodd" d="M7.88337 2.5799C7.42287 2.5799 7.07504 2.94205 7.07504 3.35767V13.037C7.07504 13.4513 6.73925 13.787 6.32504 13.787C5.91083 13.787 5.57504 13.4513 5.57504 13.037V10.4907C5.57504 10.0751 5.22721 9.71296 4.76671 9.71296C4.30621 9.71296 3.95837 10.0751 3.95837 10.4907V12.5278C3.95837 16.3185 7.09696 19.4167 11 19.4167C14.9031 19.4167 18.0417 16.3185 18.0417 12.5278V9.67245C18.0417 9.25683 17.6939 8.89467 17.2334 8.89467C16.7729 8.89467 16.425 9.25683 16.425 9.67245V9.97281C16.425 10.387 16.0893 10.7228 15.675 10.7228C15.2608 10.7228 14.925 10.387 14.925 9.97281V8.80294C14.925 8.35728 14.5472 7.9772 14.1167 7.9772C13.6862 7.9772 13.3084 8.35728 13.3084 8.80294V9.97281C13.3084 10.387 12.9726 10.7228 12.5584 10.7228C12.1442 10.7228 11.8084 10.387 11.8084 9.97281V7.8375C11.8084 7.42188 11.4605 7.05972 11 7.05972C10.5395 7.05972 10.1917 7.42188 10.1917 7.8375V9.97281C10.1917 10.387 9.85592 10.7228 9.44171 10.7228C9.02749 10.7228 8.69171 10.387 8.69171 9.97281V3.35767C8.69171 2.94205 8.34387 2.5799 7.88337 2.5799ZM10.1917 3.35767V5.70376C10.4441 5.61054 10.7167 5.55972 11 5.55972C11.8703 5.55972 12.639 6.03897 13.0317 6.75415C13.3537 6.57831 13.7225 6.4772 14.1167 6.4772C14.9876 6.4772 15.7341 6.9706 16.1276 7.67304C16.4573 7.49526 16.8347 7.39467 17.2334 7.39467C18.4942 7.39467 19.5417 8.40054 19.5417 9.67245V12.5278C19.5417 17.1748 15.7034 20.9167 11 20.9167C6.29668 20.9167 2.45837 17.1748 2.45837 12.5278V10.4907C2.45837 9.21883 3.50592 8.21296 4.76671 8.21296C5.05008 8.21296 5.32268 8.26378 5.57504 8.357V3.35767C5.57504 2.08576 6.62259 1.0799 7.88337 1.0799C9.14416 1.0799 10.1917 2.08576 10.1917 3.35767Z" />
</svg>
