<svg width="16" height="16" viewBox="0 0 16 16" fill="currentColor" xmlns="http://www.w3.org/2000/svg">
  <path d="M13.5665 5.14369C13.5726 5.26695 13.5749 5.39174 13.5749 5.515C13.5749 9.31174 10.6859 13.6883 5.40315 13.6883C3.78022 13.6883 2.27141 13.2127 1 12.3971C1.22522 12.4237 1.45348 12.4374 1.68478 12.4374C3.03152 12.4374 4.26946 11.9778 5.25174 11.2086C3.99554 11.185 2.93413 10.3556 2.56891 9.21435C2.74391 9.24706 2.92424 9.26456 3.10913 9.26456C3.37163 9.26456 3.62576 9.23032 3.8662 9.16489C2.55217 8.90011 1.56228 7.73978 1.56228 6.34739C1.56228 6.33522 1.56228 6.3238 1.56228 6.31163C1.94957 6.52695 2.39315 6.6563 2.86337 6.67152C2.09261 6.15565 1.58511 5.27761 1.58511 4.28011C1.58511 3.75435 1.72663 3.26054 1.97467 2.83598C3.39065 4.57456 5.50815 5.71739 7.895 5.83761C7.8463 5.62685 7.8212 5.40848 7.8212 5.1825C7.8212 3.59685 9.1063 2.31174 10.6927 2.31174C11.519 2.31174 12.2654 2.65945 12.7897 3.21793C13.4433 3.08858 14.058 2.84967 14.6135 2.52098C14.3989 3.1913 13.9432 3.75435 13.3504 4.10967C13.9317 4.03967 14.4841 3.88674 15 3.65772C14.615 4.23445 14.128 4.73967 13.5665 5.14369Z"/>
</svg>
  