<svg width="16" height="16" viewBox="0 0 16 16" fill="none" xmlns="http://www.w3.org/2000/svg">
<path d="M4.50791 5.9375V7.3125C4.13745 7.3125 3.78216 7.45737 3.5202 7.71523C3.25825 7.97309 3.11108 8.32283 3.11108 8.6875V12.125C3.11108 12.4897 3.25825 12.8394 3.5202 13.0973C3.78216 13.3551 4.13745 13.5 4.50791 13.5H11.492C11.8625 13.5 12.2178 13.3551 12.4797 13.0973C12.7417 12.8394 12.8889 12.4897 12.8889 12.125V8.6875C12.8889 8.32283 12.7417 7.97309 12.4797 7.71523C12.2178 7.45737 11.8625 7.3125 11.492 7.3125H5.90474V5.9375C5.90474 5.39049 6.12548 4.86589 6.51842 4.47909C6.91135 4.0923 7.44428 3.875 7.99997 3.875C8.55567 3.875 9.0886 4.0923 9.48153 4.47909C9.54947 4.54597 9.56656 4.55762 9.66967 4.6915C10.158 5.27387 11.153 4.66696 10.8915 4.07485C10.768 3.79508 10.6919 3.72601 10.4692 3.50682C9.81435 2.86216 8.92613 2.5 7.99997 2.5C7.07382 2.5 6.1856 2.86216 5.53071 3.50682C4.87582 4.15148 4.50791 5.02582 4.50791 5.9375Z" fill="#11181C"/>
</svg>
