<svg
  width="16"
  height="16"
  viewBox="0 0 16 16"
  fill="none"
  xmlns="http://www.w3.org/2000/svg"
>
  <path
    fill-rule="evenodd"
    clip-rule="evenodd"
    d="M3.31487 4.64217C3.86909 2.57327 5.75611 1.04999 8.00001 1.04999C10.2439 1.04999 12.1309 2.57327 12.6851 4.64217C14.3823 5.02294 15.65 6.5381 15.65 8.34999C15.65 9.66812 14.9783 10.8291 13.9616 11.5097C13.6633 11.7094 13.2595 11.6294 13.0598 11.3311C12.8602 11.0328 12.9401 10.6291 13.2384 10.4294C13.9101 9.97982 14.35 9.21615 14.35 8.34999C14.35 7.04837 13.3548 5.97845 12.0842 5.86078C11.7897 5.8335 11.5508 5.61084 11.5028 5.31899C11.2259 3.63488 9.76239 2.34999 8.00001 2.34999C6.23762 2.34999 4.77408 3.63488 4.49722 5.31899C4.44924 5.61084 4.21028 5.8335 3.91577 5.86078C2.64522 5.97845 1.65001 7.04837 1.65001 8.34999C1.65001 9.21615 2.08995 9.97982 2.76157 10.4294C3.05989 10.6291 3.13985 11.0328 2.94016 11.3311C2.74047 11.6294 2.33676 11.7094 2.03844 11.5097C1.02169 10.8291 0.350006 9.66812 0.350006 8.34999C0.350006 6.5381 1.6177 5.02293 3.31487 4.64217ZM7.35001 9.56923L5.65963 11.2596C5.40578 11.5134 4.99423 11.5134 4.74039 11.2596C4.48655 11.0058 4.48655 10.5942 4.74039 10.3404L7.54039 7.54037C7.79423 7.28653 8.20578 7.28653 8.45963 7.54037L11.2596 10.3404C11.5135 10.5942 11.5135 11.0058 11.2596 11.2596C11.0058 11.5134 10.5942 11.5134 10.3404 11.2596L8.65001 9.56923V14.3C8.65001 14.659 8.35899 14.95 8.00001 14.95C7.64102 14.95 7.35001 14.659 7.35001 14.3V9.56923Z"
    fill="currentColor"
  />
</svg>
