<svg
  width="16"
  height="16"
  viewBox="0 0 16 16"
  fill="none"
  xmlns="http://www.w3.org/2000/svg"
>
  <path
    d="M8 8.66667V14"
    stroke="currentColor"
    stroke-linecap="round"
    stroke-linejoin="round"
  />
  <path
    d="M2.66669 9.93267C2.17138 9.42661 1.79773 8.81448 1.57405 8.14263C1.35036 7.47078 1.28249 6.75683 1.3756 6.05487C1.4687 5.3529 1.72033 4.68133 2.11142 4.09102C2.50251 3.50071 3.02281 3.00714 3.63291 2.6477C4.24301 2.28826 4.92691 2.07237 5.6328 2.01639C6.33869 1.9604 7.04807 2.06579 7.7072 2.32457C8.36633 2.58336 8.95793 2.98874 9.43718 3.51003C9.91643 4.03131 10.2708 4.65482 10.4734 5.33333H11.6667C12.3104 5.33326 12.937 5.54022 13.454 5.92363C13.971 6.30704 14.351 6.84658 14.5379 7.46254C14.7247 8.0785 14.7085 8.73822 14.4916 9.34425C14.2747 9.95028 13.8686 10.4705 13.3334 10.828"
    stroke="currentColor"
    stroke-linecap="round"
    stroke-linejoin="round"
  />
  <path
    d="M5.33337 11.3333L8.00004 8.66667L10.6667 11.3333"
    stroke="currentColor"
    stroke-linecap="round"
    stroke-linejoin="round"
  />
</svg>
