<svg xmlns="http://www.w3.org/2000/svg" width="16" height="16" viewBox="0 0 16 16" fill="currentColor">
  <path fill-rule="evenodd" clip-rule="evenodd" d="M8.0001 2.6501C5.04537 2.6501 2.6501 5.04537 2.6501 8.0001C2.6501 10.9548 5.04537 13.3501 8.0001 13.3501C10.9548 13.3501 13.3501 10.9548 13.3501 8.0001C13.3501 5.04537 10.9548 2.6501 8.0001 2.6501ZM1.3501 8.0001C1.3501 4.3274 4.3274 1.3501 8.0001 1.3501C11.6728 1.3501 14.6501 4.3274 14.6501 8.0001C14.6501 11.6728 11.6728 14.6501 8.0001 14.6501C4.3274 14.6501 1.3501 11.6728 1.3501 8.0001Z" />
  <path fill-rule="evenodd" clip-rule="evenodd" d="M7.5405 4.87365C7.79434 4.61981 8.2059 4.61981 8.45974 4.87365L11.1264 7.54032C11.3802 7.79416 11.3802 8.20571 11.1264 8.45955C10.8726 8.7134 10.461 8.7134 10.2072 8.45955L8.65012 6.90251V10.6666C8.65012 11.0256 8.3591 11.3166 8.00012 11.3166C7.64113 11.3166 7.35012 11.0256 7.35012 10.6666V6.90251L5.79307 8.45955C5.53923 8.7134 5.12767 8.7134 4.87383 8.45955C4.61999 8.20571 4.61999 7.79416 4.87383 7.54032L7.5405 4.87365Z"/>
</svg>