<svg
  width="16"
  height="16"
  viewBox="0 0 16 16"
  fill="none"
  xmlns="http://www.w3.org/2000/svg"
>
  <path
    fill-rule="evenodd"
    clip-rule="evenodd"
    d="M1.83325 5.33333C1.83325 4.8731 2.20635 4.5 2.66659 4.5H9.33325C9.79349 4.5 10.1666 4.8731 10.1666 5.33333V10.6667C10.1666 11.1269 9.79349 11.5 9.33325 11.5H2.66659C2.20635 11.5 1.83325 11.1269 1.83325 10.6667V5.33333ZM2.66659 3.5C1.65406 3.5 0.833252 4.32081 0.833252 5.33333V10.6667C0.833252 11.6792 1.65406 12.5 2.66659 12.5H9.33325C10.3458 12.5 11.1666 11.6792 11.1666 10.6667V9.60082L13.8714 11.404L13.8717 11.4043C13.9972 11.4878 14.143 11.5357 14.2936 11.5429C14.4442 11.5501 14.5939 11.5163 14.7267 11.4452C14.8596 11.374 14.9707 11.2682 15.0482 11.1389C15.1257 11.0096 15.1667 10.8617 15.1667 10.7109V10.7107V5.24681V5.24667C15.1668 5.10009 15.1281 4.9561 15.0547 4.82923C14.9813 4.70231 14.8757 4.59702 14.7485 4.52398C14.6214 4.45094 14.4772 4.41274 14.3306 4.41324C14.184 4.41374 14.0401 4.45291 13.9134 4.5268L13.9134 4.52681L11.1666 6.12948V5.33333C11.1666 4.32081 10.3458 3.5 9.33325 3.5H2.66659ZM11.1666 7.28725V8.39897L14.1667 10.3991V5.53677L11.1666 7.28725Z"
    fill="currentColor"
  />
</svg>
