<svg width="16" height="16" viewBox="0 0 16 16" xmlns="http://www.w3.org/2000/svg">
<path fill-rule="evenodd" clip-rule="evenodd" d="M5.17304 1.35001L5.32998 1.35001C5.68896 1.35001 5.97998 1.64102 5.97998 2.00001C5.97998 2.35899 5.68896 2.65001 5.32998 2.65001H5.19998C4.6292 2.65001 4.24021 2.65051 3.93931 2.6751C3.646 2.69906 3.4941 2.74262 3.38709 2.79715C3.13307 2.92658 2.92655 3.1331 2.79712 3.38712C2.74259 3.49413 2.69903 3.64603 2.67507 3.93934C2.65048 4.24024 2.64998 4.62923 2.64998 5.20001V5.33001C2.64998 5.68899 2.35896 5.98001 1.99998 5.98001C1.64099 5.98001 1.34998 5.68899 1.34998 5.33001L1.34998 5.17307C1.34997 4.63591 1.34996 4.19359 1.37938 3.83348C1.40992 3.45978 1.47534 3.11775 1.63881 2.79693C1.89287 2.2983 2.29827 1.8929 2.7969 1.63884C3.11772 1.47538 3.45975 1.40995 3.83345 1.37941C4.19356 1.34999 4.63588 1.35 5.17304 1.35001ZM12.0606 2.6751C11.7597 2.65051 11.3708 2.65001 10.8 2.65001H10.67C10.311 2.65001 10.02 2.35899 10.02 2.00001C10.02 1.64102 10.311 1.35001 10.67 1.35001L10.8269 1.35001C11.3641 1.35 11.8064 1.34999 12.1665 1.37941C12.5402 1.40995 12.8822 1.47538 13.2031 1.63884C13.7017 1.8929 14.1071 2.2983 14.3611 2.79693C14.5246 3.11775 14.59 3.45978 14.6206 3.83348C14.65 4.19359 14.65 4.63591 14.65 5.17307V5.33001C14.65 5.68899 14.359 5.98001 14 5.98001C13.641 5.98001 13.35 5.68899 13.35 5.33001V5.20001C13.35 4.62923 13.3495 4.24024 13.3249 3.93934C13.3009 3.64603 13.2574 3.49413 13.2028 3.38712C13.0734 3.1331 12.8669 2.92658 12.6129 2.79715C12.5059 2.74262 12.3539 2.69906 12.0606 2.6751ZM1.99998 10.02C2.35896 10.02 2.64998 10.311 2.64998 10.67V10.8C2.64998 11.3708 2.65048 11.7598 2.67507 12.0607C2.69903 12.354 2.74259 12.5059 2.79712 12.6129C2.92655 12.8669 3.13307 13.0734 3.38709 13.2029C3.4941 13.2574 3.646 13.301 3.93931 13.3249C4.24021 13.3495 4.6292 13.35 5.19998 13.35H5.32998C5.68896 13.35 5.97998 13.641 5.97998 14C5.97998 14.359 5.68896 14.65 5.32998 14.65H5.17304C4.63588 14.65 4.19356 14.65 3.83345 14.6206C3.45975 14.5901 3.11772 14.5246 2.7969 14.3612C2.29827 14.1071 1.89287 13.7017 1.63881 13.2031C1.47534 12.8823 1.40992 12.5402 1.37938 12.1665C1.34996 11.8064 1.34997 11.3641 1.34998 10.8269L1.34998 10.67C1.34998 10.311 1.64099 10.02 1.99998 10.02ZM14 10.02C14.359 10.02 14.65 10.311 14.65 10.67V10.8269C14.65 11.3641 14.65 11.8064 14.6206 12.1665C14.59 12.5402 14.5246 12.8823 14.3611 13.2031C14.1071 13.7017 13.7017 14.1071 13.2031 14.3612C12.8822 14.5246 12.5402 14.5901 12.1665 14.6206C11.8064 14.65 11.3641 14.65 10.8269 14.65H10.67C10.311 14.65 10.02 14.359 10.02 14C10.02 13.641 10.311 13.35 10.67 13.35H10.8C11.3708 13.35 11.7597 13.3495 12.0606 13.3249C12.3539 13.301 12.5059 13.2574 12.6129 13.2029C12.8669 13.0734 13.0734 12.8669 13.2028 12.6129C13.2574 12.5059 13.3009 12.354 13.3249 12.0607C13.3495 11.7598 13.35 11.3708 13.35 10.8V10.67C13.35 10.311 13.641 10.02 14 10.02Z" />
<path fill-rule="evenodd" clip-rule="evenodd" d="M7.99998 10.0334C9.12294 10.0334 10.0333 9.12304 10.0333 8.00007C10.0333 6.8771 9.12294 5.96675 7.99998 5.96675C6.87701 5.96675 5.96666 6.8771 5.96666 8.00007C5.96666 9.12304 6.87701 10.0334 7.99998 10.0334ZM7.99998 11.3334C9.84091 11.3334 11.3333 9.84101 11.3333 8.00007C11.3333 6.15913 9.84091 4.66675 7.99998 4.66675C6.15904 4.66675 4.66666 6.15913 4.66666 8.00007C4.66666 9.84101 6.15904 11.3334 7.99998 11.3334Z" />
</svg>
