<svg
  width="22"
  height="22"
  viewBox="0 0 22 22"
  fill="none"
  xmlns="http://www.w3.org/2000/svg"
>
  <path
    d="M20.1578 6.738C20.0765 8.52283 18.8292 10.9678 16.4184 14.0706C13.9263 17.3114 11.8173 18.9324 10.0914 18.9324C9.02331 18.9324 8.11911 17.9456 7.37995 15.971C6.88718 14.1614 6.39323 12.353 5.90045 10.5434C5.35227 8.56999 4.76401 7.58208 4.13449 7.58208C3.99774 7.58208 3.51676 7.87091 2.69508 8.4462L1.83331 7.33452C2.73752 6.53995 3.62993 5.74421 4.5082 4.94728C5.71537 3.90515 6.62075 3.35579 7.22552 3.30039C8.65196 3.16363 9.53023 4.13975 9.86032 6.22755C10.2163 8.48157 10.4627 9.88326 10.6007 10.4314C11.0121 12.3011 11.4648 13.2348 11.9587 13.2348C12.343 13.2348 12.9195 12.6277 13.6881 11.4158C14.4556 10.2027 14.867 9.27967 14.9224 8.64661C15.0321 7.59977 14.6206 7.07516 13.6881 7.07516C13.2484 7.07516 12.7957 7.17537 12.3313 7.37578C13.2319 4.42386 14.9531 2.98916 17.4948 3.0705C19.3786 3.12591 20.2663 4.34841 20.1578 6.738Z"
    fill="#1AB7EA"
  />
</svg>
