<svg
  width="16"
  height="16"
  viewBox="0 0 16 16"
  fill="none"
  xmlns="http://www.w3.org/2000/svg"
>
  <path
    d="M14.9933 4.80117C14.9311 6.16384 13.9793 8.02945 12.138 10.398C10.2347 12.8711 8.62443 14.1079 7.30722 14.1084C6.49091 14.1084 5.80048 13.3551 5.23593 11.8486L4.10623 7.70529C3.68742 6.1995 3.23774 5.44625 2.75719 5.44553C2.36025 5.60965 1.98992 5.8319 1.65836 6.10497L1 5.25671C1.69091 4.6498 2.37177 4.04253 3.04258 3.4349C3.96443 2.63917 4.65606 2.22024 5.11747 2.17812C6.20684 2.0733 6.87741 2.81782 7.12917 4.41168C7.40128 6.13166 7.58998 7.20105 7.69528 7.61985C8.00974 9.04691 8.35556 9.76007 8.73272 9.75936C9.02541 9.75936 9.46551 9.29652 10.053 8.37083C10.6389 7.44539 10.953 6.74084 10.9954 6.25718C11.0791 5.45857 10.765 5.05891 10.053 5.0582C9.69554 5.06338 9.34287 5.14156 9.01667 5.28794C9.70471 3.03452 11.0189 1.9394 12.9593 2.00258C14.3979 2.0447 15.0758 2.97757 14.9933 4.80117Z"
    stroke="currentColor"
    stroke-linecap="round"
    stroke-linejoin="round"
  />
</svg>
