<svg
  width="22"
  height="22"
  viewBox="0 0 22 22"
  xmlns="http://www.w3.org/2000/svg"
>
  <path
    d="M20.1578 6.738C20.0764 8.52283 18.8292 10.9678 16.4184 14.0706C13.9262 17.3114 11.8172 18.9324 10.0913 18.9324C9.02325 18.9324 8.11905 17.9456 7.37989 15.971C6.88712 14.1614 6.39317 12.353 5.90039 10.5434C5.35221 8.56999 4.76395 7.58208 4.13443 7.58208C3.99768 7.58208 3.51669 7.87091 2.69501 8.4462L1.83325 7.33452C2.73745 6.53995 3.62987 5.74421 4.50813 4.94728C5.71531 3.90515 6.62069 3.35579 7.22546 3.30039C8.6519 3.16363 9.53017 4.13975 9.86026 6.22755C10.2163 8.48157 10.4627 9.88326 10.6006 10.4314C11.012 12.3011 11.4647 13.2348 11.9587 13.2348C12.343 13.2348 12.9195 12.6277 13.6881 11.4158C14.4555 10.2027 14.867 9.27967 14.9224 8.64661C15.032 7.59977 14.6206 7.07516 13.6881 7.07516C13.2484 7.07516 12.7957 7.17537 12.3312 7.37578C13.2319 4.42386 14.953 2.98916 17.4947 3.0705C19.3785 3.12591 20.2662 4.34841 20.1578 6.738Z"
  />
</svg>
