<svg
  width="16"
  height="16"
  viewBox="0 0 16 16"
  fill="none"
  xmlns="http://www.w3.org/2000/svg"
>
  <path
    d="M12 11.32H8.00671C7.27337 11.32 6.70671 11.9467 6.35337 12.5867C6.07368 13.1115 5.62657 13.5278 5.08312 13.7693C4.53968 14.0109 3.93108 14.0638 3.35409 13.9197C2.77709 13.7757 2.26481 13.4429 1.89867 12.9743C1.53254 12.5056 1.33356 11.928 1.33337 11.3333C1.34004 10.8667 1.46671 10.4 1.71337 10"
    stroke="currentColor"
    stroke-linecap="round"
    stroke-linejoin="round"
  />
  <path
    d="M4 11.3333L6.08667 7.48C6.44 6.83333 6.15333 6.02666 5.75333 5.41333C5.56454 5.1114 5.43814 4.77471 5.38157 4.42314C5.32501 4.07156 5.33943 3.71222 5.42399 3.36631C5.50855 3.0204 5.66154 2.69493 5.87392 2.4091C6.08631 2.12327 6.35379 1.88287 6.66058 1.70209C6.96737 1.52131 7.30727 1.4038 7.66021 1.35651C8.01315 1.30922 8.37199 1.33309 8.71556 1.42672C9.05912 1.52035 9.38046 1.68185 9.6606 1.90168C9.94074 2.12151 10.174 2.39522 10.3467 2.70666"
    stroke="currentColor"
    stroke-linecap="round"
    stroke-linejoin="round"
  />
  <path
    d="M8 4L10.0867 7.82C10.44 8.46667 11.2667 8.66667 12 8.66667C12.7072 8.66667 13.3855 8.94762 13.8856 9.44772C14.3857 9.94781 14.6667 10.6261 14.6667 11.3333C14.6667 12.0406 14.3857 12.7189 13.8856 13.219C13.3855 13.719 12.7072 14 12 14"
    stroke="currentColor"
    stroke-linecap="round"
    stroke-linejoin="round"
  />
</svg>
