<svg
  width="16"
  height="16"
  viewBox="0 0 16 16"
  fill="none"
  xmlns="http://www.w3.org/2000/svg"
>
  <path
    d="M2.5 3H13.2273C13.5034 3 13.7273 3.22386 13.7273 3.5V5C13.7273 5.27614 13.5034 5.5 13.2273 5.5H2.77274C2.49659 5.5 2.27274 5.72386 2.27274 6V7.5C2.27274 7.77614 2.49659 8 2.77274 8H13.2273C13.5034 8 13.7273 8.22386 13.7273 8.5V10C13.7273 10.2761 13.5034 10.5 13.2273 10.5H2.77274C2.49659 10.5 2.27274 10.7239 2.27274 11V12.5C2.27274 12.7761 2.49659 13 2.77274 13H7.72728"
    stroke="black"
    stroke-width="1.3"
    stroke-linecap="round"
  />
</svg>
