<svg
  width="16"
  height="16"
  viewBox="0 0 16 16"
  fill="none"
  xmlns="http://www.w3.org/2000/svg"
>
  <path
    d="M2.69019 12.6075C2.77549 12.54 2.88238 12.5 3 12.5H8C8.13997 12.5 8.26577 12.5569 8.35709 12.65C8.44601 12.7407 8.5 12.8636 8.5 13C8.5 13.2761 8.27614 13.5 8 13.5H3C2.72386 13.5 2.5 13.2761 2.5 13C2.5 12.8412 2.57344 12.6999 2.69019 12.6075ZM2.69019 12.6075L2.38127 12.2172L2.69019 12.6075Z"
    fill="#11181C"
    stroke="black"
  />
  <path
    d="M3 7.65H13C13.1933 7.65 13.35 7.8067 13.35 8V10C13.35 10.1933 13.1933 10.35 13 10.35H3C2.8067 10.35 2.65 10.1933 2.65 10V8C2.65 7.8067 2.8067 7.65 3 7.65Z"
    stroke="#834DF4"
    stroke-width="1.3"
  />
  <path
    d="M3 2.65H13C13.1933 2.65 13.35 2.8067 13.35 3V5C13.35 5.1933 13.1933 5.35 13 5.35H3C2.8067 5.35 2.65 5.1933 2.65 5V3C2.65 2.8067 2.8067 2.65 3 2.65Z"
    stroke="black"
    stroke-width="1.3"
  />
</svg>
