<svg
  width="16"
  height="16"
  viewBox="0 0 16 16"
  fill="none"
  xmlns="http://www.w3.org/2000/svg"
>
  <path
    d="M11.25 14.175C12.1492 14.175 12.9157 13.858 13.5497 13.2241C14.1837 12.5901 14.5004 11.8237 14.5 10.925C14.5 10.1342 14.2536 9.44345 13.7609 8.85281C13.2682 8.26218 12.6479 7.89125 11.9 7.74001V9.08876C12.2792 9.21876 12.5907 9.45168 12.8347 9.78751C13.0787 10.1233 13.2004 10.5025 13.2 10.925C13.2 11.4667 13.0104 11.9271 12.6312 12.3063C12.2521 12.6854 11.7917 12.875 11.25 12.875C10.7083 12.875 10.2479 12.6854 9.86875 12.3063C9.48958 11.9271 9.3 11.4667 9.3 10.925V10.275H5.48125C5.39458 10.1775 5.28885 10.0989 5.16405 10.0391C5.03925 9.97926 4.90123 9.94958 4.75 9.95001C4.47917 9.95001 4.24885 10.0449 4.05905 10.2347C3.86925 10.4245 3.77457 10.6546 3.775 10.925C3.775 11.1958 3.8699 11.4262 4.0597 11.616C4.2495 11.8058 4.4796 11.9004 4.75 11.9C4.90167 11.9 5.0399 11.8701 5.1647 11.8103C5.2895 11.7505 5.3948 11.6721 5.4806 11.575H8.065C8.21667 12.3225 8.58782 12.9428 9.17845 13.436C9.76908 13.9291 10.4596 14.1754 11.25 14.175ZM4.75 14.175C5.35667 14.175 5.90657 14.0259 6.3997 13.7278C6.89283 13.4297 7.28002 13.0371 7.56125 12.55H5.8225C5.67083 12.6583 5.50292 12.7396 5.31875 12.7938C5.13458 12.8479 4.945 12.875 4.75 12.875C4.20833 12.875 3.74792 12.6854 3.36875 12.3063C2.98958 11.9271 2.8 11.4667 2.8 10.925C2.8 10.3833 2.98958 9.92293 3.36875 9.54376C3.74792 9.1646 4.20833 8.97501 4.75 8.97501C4.96667 8.97501 5.16708 9.00491 5.35125 9.06471C5.53542 9.12451 5.70875 9.21378 5.87125 9.33251L7.85375 6.03376C8.08125 5.99043 8.27083 5.8821 8.4225 5.70876C8.57417 5.53543 8.65 5.32418 8.65 5.07501C8.65 4.80418 8.5551 4.57386 8.3653 4.38406C8.1755 4.19426 7.9454 4.09958 7.675 4.10001C7.40417 4.10001 7.17385 4.19491 6.98405 4.38471C6.79425 4.57451 6.69957 4.80461 6.7 5.07501V5.21346C6.7 5.25116 6.71083 5.2971 6.7325 5.35126L5.31875 7.72376C5.23208 7.7021 5.14 7.68866 5.0425 7.68346C4.945 7.67826 4.8475 7.67545 4.75 7.67501C3.85083 7.67501 3.08427 7.992 2.4503 8.62596C1.81633 9.25993 1.49957 10.0263 1.5 10.925C1.5 11.8242 1.81698 12.5907 2.45095 13.2247C3.08492 13.8587 3.85127 14.1754 4.75 14.175ZM11.25 11.9C11.5208 11.9 11.7512 11.8051 11.9409 11.6153C12.1307 11.4255 12.2254 11.1954 12.225 10.925C12.225 10.6867 12.1492 10.4808 11.9975 10.3075C11.8458 10.1342 11.6617 10.0204 11.445 9.96626L9.9175 7.43126C10.2317 7.13876 10.4782 6.78928 10.6572 6.38281C10.8362 5.97635 10.9254 5.54041 10.925 5.07501C10.925 4.17585 10.608 3.40928 9.97405 2.77531C9.34008 2.14135 8.57373 1.82458 7.675 1.82501C6.77583 1.82501 6.00927 2.142 5.3753 2.77596C4.74133 3.40993 4.42457 4.17628 4.425 5.07501H5.725C5.725 4.53335 5.91458 4.07293 6.29375 3.69376C6.67292 3.3146 7.13333 3.12501 7.675 3.12501C8.21667 3.12501 8.67708 3.3146 9.05625 3.69376C9.43542 4.07293 9.625 4.53335 9.625 5.07501C9.625 5.54085 9.48417 5.94991 9.2025 6.30221C8.92083 6.65451 8.56333 6.8792 8.13 6.97626L10.3238 10.6325C10.3021 10.6867 10.2884 10.7354 10.2828 10.7788C10.2772 10.8221 10.2746 10.8708 10.275 10.925C10.275 11.1958 10.3699 11.4262 10.5597 11.616C10.7495 11.8058 10.9796 11.9004 11.25 11.9Z"
    fill="currentColor"
  />
</svg>
