<svg width="308" height="231" viewBox="0 0 308 231" fill="none" xmlns="http://www.w3.org/2000/svg">
<mask id="mask0_819_8521" style="mask-type:alpha" maskUnits="userSpaceOnUse" x="0" y="0" width="308" height="231">
<path fill-rule="evenodd" clip-rule="evenodd" d="M81.4444 108.661L52.3094 18.9033C47.826 5.01248 32.9544 -2.53448 19.067 1.94995C5.17953 6.43437 -2.36562 21.4189 2.11773 35.2003L59.4171 212.062C59.6098 212.659 59.887 213.2 60.2405 213.687C63.8764 222.807 72.4688 229.51 82.9272 230.218C97.4707 231.202 110.046 220.265 111.03 205.718C111.03 205.718 113.655 166.342 127.433 134.842C130.494 127.842 134.103 121.17 138.696 115.92C142.73 111.121 147.526 107.301 154.059 107.279C160.483 107.301 165.279 111.121 169.423 115.92C173.906 121.279 177.624 127.842 180.686 134.842C194.574 166.342 197.198 205.718 197.198 205.718C198.182 220.265 210.757 231.312 225.301 230.218C237.071 229.421 246.477 220.96 249.116 210.108L305.782 35.2003C310.266 21.3095 302.72 6.43437 288.833 1.94995C275.055 -2.53448 260.074 5.01248 255.591 18.9033L226.62 108.323C211.51 77.1619 187.186 54.4504 154.114 54.4504C120.922 54.4504 96.5421 77.3261 81.4444 108.661ZM154.059 107.279L154.005 107.279H154.114L154.059 107.279Z" fill="black"/>
</mask>
<g mask="url(#mask0_819_8521)">
<path fill-rule="evenodd" clip-rule="evenodd" d="M171.997 241.264L253.591 -10.3008H318.013V32.9028L250.419 241.264H171.997Z" fill="url(#paint0_linear_819_8521)"/>
<path fill-rule="evenodd" clip-rule="evenodd" d="M171.997 241.264L253.591 -10.3008H318.013V32.9028L250.419 241.264H171.997Z" fill="url(#paint1_linear_819_8521)"/>
<path fill-rule="evenodd" clip-rule="evenodd" d="M171.997 241.264L253.591 -10.3008H318.013V32.9028L250.419 241.264H171.997Z" fill="url(#paint2_linear_819_8521)" fill-opacity="0.8"/>
<path fill-rule="evenodd" clip-rule="evenodd" d="M171.997 241.264L253.591 -10.3008H318.013V32.9028L250.419 241.264H171.997Z" fill="url(#paint3_linear_819_8521)"/>
<g style="mix-blend-mode:multiply">
<path fill-rule="evenodd" clip-rule="evenodd" d="M171.997 241.264L253.591 -10.3008L318.013 32.9028L250.419 241.264H171.997Z" fill="url(#paint4_radial_819_8521)"/>
<path fill-rule="evenodd" clip-rule="evenodd" d="M171.997 241.264L253.591 -10.3008L318.013 32.9028L250.419 241.264H171.997Z" fill="url(#paint5_radial_819_8521)"/>
</g>
<path fill-rule="evenodd" clip-rule="evenodd" d="M248.559 241.155H192.341C188.403 207.03 175.934 118.107 154.059 118.107C130.325 118.107 119.278 216.655 116.872 241.155H36.2625C39.7625 198.608 59.0125 43.4033 154.059 43.4033C181.622 43.4033 205.575 56.966 223.731 82.0131L226.684 108.482C226.684 108.482 228.325 111.982 228.981 113.404C246.372 152.779 249.762 201.999 249.762 201.999C249.981 205.499 249.544 208.889 248.559 211.952V241.155Z" fill="#E63CFE"/>
<path fill-rule="evenodd" clip-rule="evenodd" d="M248.559 241.155H192.341C188.403 207.03 175.934 118.107 154.059 118.107C130.325 118.107 119.278 216.655 116.872 241.155H36.2625C39.7625 198.608 59.0125 43.4033 154.059 43.4033C181.622 43.4033 205.575 56.966 223.731 82.0131L226.684 108.482C226.684 108.482 228.325 111.982 228.981 113.404C246.372 152.779 249.762 201.999 249.762 201.999C249.981 205.499 249.544 208.889 248.559 211.952V241.155Z" fill="url(#paint6_radial_819_8521)"/>
<path fill-rule="evenodd" clip-rule="evenodd" d="M248.559 241.155H192.341C188.403 207.03 175.934 118.107 154.059 118.107C130.325 118.107 119.278 216.655 116.872 241.155H36.2625C39.7625 198.608 59.0125 43.4033 154.059 43.4033C181.622 43.4033 205.575 56.966 223.731 82.0131L226.684 108.482C226.684 108.482 228.325 111.982 228.981 113.404C246.372 152.779 249.762 201.999 249.762 201.999C249.981 205.499 249.544 208.889 248.559 211.952V241.155Z" fill="url(#paint7_radial_819_8521)"/>
<path fill-rule="evenodd" clip-rule="evenodd" d="M248.559 241.155H192.341C188.403 207.03 175.934 118.107 154.059 118.107C130.325 118.107 119.278 216.655 116.872 241.155H36.2625C39.7625 198.608 59.0125 43.4033 154.059 43.4033C181.622 43.4033 205.575 56.966 223.731 82.0131L226.684 108.482C226.684 108.482 228.325 111.982 228.981 113.404C246.372 152.779 249.762 201.999 249.762 201.999C249.981 205.499 249.544 208.889 248.559 211.952V241.155Z" fill="url(#paint8_radial_819_8521)"/>
<path fill-rule="evenodd" clip-rule="evenodd" d="M248.559 241.155H192.341C188.403 207.03 175.934 118.107 154.059 118.107C130.325 118.107 119.278 216.655 116.872 241.155H36.2625C39.7625 198.608 59.0125 43.4033 154.059 43.4033C181.622 43.4033 205.575 56.966 223.731 82.0131L226.684 108.482C226.684 108.482 228.325 111.982 228.981 113.404C246.372 152.779 249.762 201.999 249.762 201.999C249.981 205.499 249.544 208.889 248.559 211.952V241.155Z" fill="url(#paint9_radial_819_8521)"/>
<g style="mix-blend-mode:multiply">
<path fill-rule="evenodd" clip-rule="evenodd" d="M154.059 118.107C130.325 118.107 119.278 216.655 116.872 241.155H36.2625C39.7625 198.608 59.0125 43.4033 154.059 43.4033C276.286 43.4033 258.4 118.107 154.059 118.107Z" fill="url(#paint10_radial_819_8521)"/>
<path fill-rule="evenodd" clip-rule="evenodd" d="M154.059 118.107C130.325 118.107 119.278 216.655 116.872 241.155H36.2625C39.7625 198.608 59.0125 43.4033 154.059 43.4033C276.286 43.4033 258.4 118.107 154.059 118.107Z" fill="url(#paint11_radial_819_8521)"/>
</g>
<path fill-rule="evenodd" clip-rule="evenodd" d="M-10.0032 32.9028V-10.3008H54.4187L84.3875 82.1221L81.4343 108.591L109.653 195.764C110.747 199.045 111.075 202.545 110.856 205.827C110.856 205.827 108.778 236.671 96.2 241.374H57.4812L-10.0032 32.9028Z" fill="url(#paint12_linear_819_8521)"/>
<path fill-rule="evenodd" clip-rule="evenodd" d="M-10.0032 32.9028V-10.3008H54.4187L84.3875 82.1221L81.4343 108.591L109.653 195.764C110.747 199.045 111.075 202.545 110.856 205.827C110.856 205.827 108.778 236.671 96.2 241.374H57.4812L-10.0032 32.9028Z" fill="url(#paint13_linear_819_8521)"/>
<path fill-rule="evenodd" clip-rule="evenodd" d="M-10.0032 32.9028V-10.3008H54.4187L84.3875 82.1221L81.4343 108.591L109.653 195.764C110.747 199.045 111.075 202.545 110.856 205.827C110.856 205.827 108.778 236.671 96.2 241.374H57.4812L-10.0032 32.9028Z" fill="url(#paint14_linear_819_8521)"/>
<path fill-rule="evenodd" clip-rule="evenodd" d="M-10.0032 32.9028V-10.3008H54.4187L84.3875 82.1221L81.4343 108.591L109.653 195.764C110.747 199.045 111.075 202.545 110.856 205.827C110.856 205.827 108.778 236.671 96.2 241.374H57.4812L-10.0032 32.9028Z" fill="url(#paint15_linear_819_8521)"/>
<path fill-rule="evenodd" clip-rule="evenodd" d="M-10.0032 32.9028V-10.3008H54.4187L84.3875 82.1221L81.4343 108.591L109.653 195.764C110.747 199.045 111.075 202.545 110.856 205.827C110.856 205.827 108.778 236.671 96.2 241.374H57.4812L-10.0032 32.9028Z" fill="url(#paint16_linear_819_8521)"/>
<path d="M318.012 -10.3008H-10.1125V241.264H318.012V-10.3008Z" fill="url(#paint17_radial_819_8521)"/>
<path d="M318.012 -10.3008H-10.1125V241.264H318.012V-10.3008Z" fill="url(#paint18_radial_819_8521)"/>
<path d="M318.012 -10.3008H-10.1125V241.264H318.012V-10.3008Z" fill="url(#paint19_radial_819_8521)"/>
</g>
<defs>
<linearGradient id="paint0_linear_819_8521" x1="360.109" y1="-110.607" x2="284.573" y2="249.342" gradientUnits="userSpaceOnUse">
<stop stop-color="#4A4EFA"/>
<stop offset="0.625265" stop-color="#E63CFE"/>
</linearGradient>
<linearGradient id="paint1_linear_819_8521" x1="211.919" y1="106.177" x2="271.482" y2="126.612" gradientUnits="userSpaceOnUse">
<stop offset="0.259242" stop-color="#4A4EFA"/>
<stop offset="0.961404" stop-color="#4A4EFA" stop-opacity="0"/>
</linearGradient>
<linearGradient id="paint2_linear_819_8521" x1="222.101" y1="78.7053" x2="266.666" y2="94.7884" gradientUnits="userSpaceOnUse">
<stop offset="0.252262" stop-color="#39FBBB"/>
<stop offset="1" stop-color="#39FBBB" stop-opacity="0"/>
</linearGradient>
<linearGradient id="paint3_linear_819_8521" x1="324.066" y1="-10.3008" x2="313.827" y2="35.0192" gradientUnits="userSpaceOnUse">
<stop stop-color="#4A4EFA"/>
<stop offset="0.933465" stop-color="#4A4EFA" stop-opacity="0"/>
</linearGradient>
<radialGradient id="paint4_radial_819_8521" cx="0" cy="0" r="1" gradientUnits="userSpaceOnUse" gradientTransform="translate(225.549 115.482) rotate(83.4364) scale(170.208 43.4925)">
<stop stop-color="#6F15A9" stop-opacity="0.9"/>
<stop offset="0.613343" stop-color="#6F15A9" stop-opacity="0"/>
</radialGradient>
<radialGradient id="paint5_radial_819_8521" cx="0" cy="0" r="1" gradientUnits="userSpaceOnUse" gradientTransform="translate(238.853 1.70486) rotate(81.2952) scale(178.481 37.9694)">
<stop offset="0.376913" stop-color="white"/>
<stop offset="1" stop-color="white" stop-opacity="0"/>
</radialGradient>
<radialGradient id="paint6_radial_819_8521" cx="0" cy="0" r="1" gradientUnits="userSpaceOnUse" gradientTransform="translate(143.04 161.483) rotate(-82.8232) scale(141.952 109.869)">
<stop stop-color="#39FBBB" stop-opacity="0.5"/>
<stop offset="0.70129" stop-color="#39FBBB"/>
<stop offset="0.948839" stop-color="#39FBBB" stop-opacity="0"/>
</radialGradient>
<radialGradient id="paint7_radial_819_8521" cx="0" cy="0" r="1" gradientUnits="userSpaceOnUse" gradientTransform="translate(325.411 224.31) rotate(-122.414) scale(325.538 78.9215)">
<stop stop-color="#E63CFE"/>
<stop offset="1" stop-color="#E63CFE" stop-opacity="0"/>
</radialGradient>
<radialGradient id="paint8_radial_819_8521" cx="0" cy="0" r="1" gradientUnits="userSpaceOnUse" gradientTransform="translate(150.102 191.588) rotate(-90) scale(126.672 106.298)">
<stop offset="0.63962" stop-color="#4A4EFA"/>
<stop offset="1" stop-color="#4A4EFA" stop-opacity="0"/>
</radialGradient>
<radialGradient id="paint9_radial_819_8521" cx="0" cy="0" r="1" gradientUnits="userSpaceOnUse" gradientTransform="translate(100.979 251.628) rotate(-71.6619) scale(170.588 68.749)">
<stop offset="0.632445" stop-color="#E63CFE"/>
<stop offset="1" stop-color="#E63CFE" stop-opacity="0"/>
</radialGradient>
<radialGradient id="paint10_radial_819_8521" cx="0" cy="0" r="1" gradientUnits="userSpaceOnUse" gradientTransform="translate(78.7481 117.461) rotate(71.8291) scale(82.0457 50.9999)">
<stop stop-color="#6F15A9"/>
<stop offset="1" stop-color="#00127F" stop-opacity="0"/>
</radialGradient>
<radialGradient id="paint11_radial_819_8521" cx="0" cy="0" r="1" gradientUnits="userSpaceOnUse" gradientTransform="translate(169.688 126.863) rotate(175.293) scale(90.7037 122.463)">
<stop offset="0.758087" stop-color="white"/>
<stop offset="1" stop-color="white" stop-opacity="0"/>
</radialGradient>
<linearGradient id="paint12_linear_819_8521" x1="-19.9001" y1="1.79277" x2="61.0499" y2="254.286" gradientUnits="userSpaceOnUse">
<stop offset="0.169527" stop-color="#E63CFE"/>
<stop offset="0.591641" stop-color="#FFAE3C"/>
</linearGradient>
<linearGradient id="paint13_linear_819_8521" x1="70.2844" y1="82.0411" x2="22.9808" y2="97.783" gradientUnits="userSpaceOnUse">
<stop offset="0.321315" stop-color="#4A4EFA"/>
<stop offset="1" stop-color="#4A4EFA" stop-opacity="0"/>
</linearGradient>
<linearGradient id="paint14_linear_819_8521" x1="91.0555" y1="117.484" x2="70.9795" y2="123.484" gradientUnits="userSpaceOnUse">
<stop stop-color="#E63CFE"/>
<stop offset="1" stop-color="#E63CFE" stop-opacity="0"/>
</linearGradient>
<linearGradient id="paint15_linear_819_8521" x1="58.1866" y1="244.736" x2="19.7233" y2="160.444" gradientUnits="userSpaceOnUse">
<stop offset="0.372372" stop-color="#FFAE3C"/>
<stop offset="1" stop-color="#FFAE3C" stop-opacity="0"/>
</linearGradient>
<linearGradient id="paint16_linear_819_8521" x1="23.1583" y1="-10.3008" x2="38.7288" y2="26.1821" gradientUnits="userSpaceOnUse">
<stop stop-color="#E63CFE"/>
<stop offset="1" stop-color="#E63CFE" stop-opacity="0"/>
</linearGradient>
<radialGradient id="paint17_radial_819_8521" cx="0" cy="0" r="1" gradientUnits="userSpaceOnUse" gradientTransform="translate(106.811 240.967) rotate(-90) scale(251.268 181.348)">
<stop offset="0.262321" stop-color="#FFAE3C"/>
<stop offset="0.526813" stop-color="#FFAE3C" stop-opacity="0"/>
</radialGradient>
<radialGradient id="paint18_radial_819_8521" cx="0" cy="0" r="1" gradientUnits="userSpaceOnUse" gradientTransform="translate(266.285 240.967) rotate(-90) scale(141.75 138.377)">
<stop offset="0.283277" stop-color="#E63CFE"/>
<stop offset="0.856787" stop-color="#E63CFE" stop-opacity="0"/>
</radialGradient>
<radialGradient id="paint19_radial_819_8521" cx="0" cy="0" r="1" gradientUnits="userSpaceOnUse" gradientTransform="translate(180.355 240.967) rotate(-97.8199) scale(194.472 75.0801)">
<stop offset="0.25103" stop-color="#FFAE3C"/>
<stop offset="0.656188" stop-color="#FFAE3C" stop-opacity="0"/>
</radialGradient>
</defs>
</svg>