<svg width="16" height="16" viewBox="0 0 16 16" fill="currentColor" xmlns="http://www.w3.org/2000/svg">
  <path fill-rule="evenodd" clip-rule="evenodd" d="M12.3195 12.4156L14.9407 4.33141C15.1464 3.69758 14.7995 3.01544 14.167 2.80966C13.5345 2.60389 12.8537 2.95123 12.6484 3.58506L10.0271 11.6689C9.82148 12.3028 10.1684 12.9849 10.8009 13.1907C11.4334 13.3968 12.1141 13.0494 12.3195 12.4156Z"/>
  <path fill-rule="evenodd" clip-rule="evenodd" d="M7.99964 7.62405C8.29713 7.62405 8.51651 7.79864 8.70355 8.01756C8.91133 8.26125 9.07732 8.56333 9.21828 8.88407C9.85201 10.3239 9.9707 12.1251 9.9707 12.1251C10.0162 12.7901 10.5919 13.2928 11.2556 13.2472C11.9192 13.2017 12.4208 12.6244 12.3753 11.9597C12.3753 11.9597 12.2161 9.70992 11.4237 7.90932C10.7442 6.36526 9.59358 5.20858 7.99995 5.20858C6.40632 5.20858 5.25572 6.36526 4.57622 7.90932C3.78352 9.70992 3.62456 11.9597 3.62456 11.9597C3.57909 12.6247 4.08071 13.2017 4.74434 13.2472C5.40797 13.2928 5.98373 12.7901 6.02919 12.1251C6.02919 12.1251 6.14788 10.3242 6.78161 8.88407C6.92257 8.56364 7.08856 8.26125 7.29634 8.01756C7.48308 7.79864 7.70246 7.62405 7.99964 7.62405Z"/>
  <path fill-rule="evenodd" clip-rule="evenodd" d="M5.97287 11.6689L3.3516 3.58471C3.14626 2.95088 2.46584 2.60323 1.83303 2.80931C1.20052 3.01539 0.853601 3.69723 1.05925 4.33106L3.68052 12.4152C3.88617 13.0491 4.56658 13.3967 5.19909 13.1906C5.8316 12.9846 6.17852 12.3027 5.97287 11.6689Z"/>
</svg>
  