<svg
  width="16"
  height="16"
  viewBox="0 0 16 16"
  fill="none"
  xmlns="http://www.w3.org/2000/svg"
>
  <path
    fill-rule="evenodd"
    clip-rule="evenodd"
    d="M12.3195 12.4157L14.9408 4.33148C15.1464 3.69765 14.7995 3.0155 14.167 2.80973C13.5345 2.60396 12.8538 2.9513 12.6484 3.58513L10.0271 11.669C9.8215 12.3028 10.1684 12.985 10.8009 13.1908C11.4334 13.3968 12.1142 13.0495 12.3195 12.4157Z"
    fill="url(#paint0_linear_5232_4740)"
  />
  <path
    fill-rule="evenodd"
    clip-rule="evenodd"
    d="M12.3195 12.4157L14.9408 4.33148C15.1464 3.69765 14.7995 3.0155 14.167 2.80973C13.5345 2.60396 12.8538 2.9513 12.6484 3.58513L10.0271 11.669C9.8215 12.3028 10.1684 12.985 10.8009 13.1908C11.4334 13.3968 12.1142 13.0495 12.3195 12.4157Z"
    fill="url(#paint1_linear_5232_4740)"
  />
  <path
    fill-rule="evenodd"
    clip-rule="evenodd"
    d="M12.3195 12.4157L14.9408 4.33148C15.1464 3.69765 14.7995 3.0155 14.167 2.80973C13.5345 2.60396 12.8538 2.9513 12.6484 3.58513L10.0271 11.669C9.8215 12.3028 10.1684 12.985 10.8009 13.1908C11.4334 13.3968 12.1142 13.0495 12.3195 12.4157Z"
    fill="url(#paint2_linear_5232_4740)"
    fill-opacity="0.8"
  />
  <path
    fill-rule="evenodd"
    clip-rule="evenodd"
    d="M12.3195 12.4157L14.9408 4.33148C15.1464 3.69765 14.7995 3.0155 14.167 2.80973C13.5345 2.60396 12.8538 2.9513 12.6484 3.58513L10.0271 11.669C9.8215 12.3028 10.1684 12.985 10.8009 13.1908C11.4334 13.3968 12.1142 13.0495 12.3195 12.4157Z"
    fill="url(#paint3_radial_5232_4740)"
  />
  <path
    fill-rule="evenodd"
    clip-rule="evenodd"
    d="M12.3195 12.4157L14.9408 4.33148C15.1464 3.69765 14.7995 3.0155 14.167 2.80973C13.5345 2.60396 12.8538 2.9513 12.6484 3.58513L10.0271 11.669C9.8215 12.3028 10.1684 12.985 10.8009 13.1908C11.4334 13.3968 12.1142 13.0495 12.3195 12.4157Z"
    fill="url(#paint4_radial_5232_4740)"
  />
  <path
    fill-rule="evenodd"
    clip-rule="evenodd"
    d="M12.3195 12.4157L14.9408 4.33148C15.1464 3.69765 14.7995 3.0155 14.167 2.80973C13.5345 2.60396 12.8538 2.9513 12.6484 3.58513L10.0271 11.669C9.8215 12.3028 10.1684 12.985 10.8009 13.1908C11.4334 13.3968 12.1142 13.0495 12.3195 12.4157Z"
    fill="url(#paint5_radial_5232_4740)"
  />
  <path
    fill-rule="evenodd"
    clip-rule="evenodd"
    d="M7.99965 7.62412C8.29714 7.62412 8.51652 7.79871 8.70356 8.01763C8.91134 8.26131 9.07733 8.5634 9.21829 8.88414C9.85202 10.3239 9.97071 12.1252 9.97071 12.1252C10.0162 12.7902 10.5919 13.2928 11.2556 13.2473C11.9192 13.2017 12.4208 12.6245 12.3753 11.9597C12.3753 11.9597 12.2161 9.70999 11.4237 7.90939C10.7442 6.36532 9.59358 5.20865 7.99995 5.20865C6.40632 5.20865 5.25573 6.36532 4.57623 7.90939C3.78353 9.70999 3.62457 11.9597 3.62457 11.9597C3.5791 12.6248 4.08072 13.2017 4.74435 13.2473C5.40798 13.2928 5.98374 12.7902 6.0292 12.1252C6.0292 12.1252 6.14789 10.3242 6.78162 8.88414C6.92258 8.56371 7.08857 8.26131 7.29635 8.01763C7.48308 7.79871 7.70246 7.62412 7.99965 7.62412Z"
    fill="#E63CFE"
  />
  <path
    fill-rule="evenodd"
    clip-rule="evenodd"
    d="M7.99965 7.62412C8.29714 7.62412 8.51652 7.79871 8.70356 8.01763C8.91134 8.26131 9.07733 8.5634 9.21829 8.88414C9.85202 10.3239 9.97071 12.1252 9.97071 12.1252C10.0162 12.7902 10.5919 13.2928 11.2556 13.2473C11.9192 13.2017 12.4208 12.6245 12.3753 11.9597C12.3753 11.9597 12.2161 9.70999 11.4237 7.90939C10.7442 6.36532 9.59358 5.20865 7.99995 5.20865C6.40632 5.20865 5.25573 6.36532 4.57623 7.90939C3.78353 9.70999 3.62457 11.9597 3.62457 11.9597C3.5791 12.6248 4.08072 13.2017 4.74435 13.2473C5.40798 13.2928 5.98374 12.7902 6.0292 12.1252C6.0292 12.1252 6.14789 10.3242 6.78162 8.88414C6.92258 8.56371 7.08857 8.26131 7.29635 8.01763C7.48308 7.79871 7.70246 7.62412 7.99965 7.62412Z"
    fill="url(#paint6_radial_5232_4740)"
  />
  <path
    fill-rule="evenodd"
    clip-rule="evenodd"
    d="M7.99965 7.62412C8.29714 7.62412 8.51652 7.79871 8.70356 8.01763C8.91134 8.26131 9.07733 8.5634 9.21829 8.88414C9.85202 10.3239 9.97071 12.1252 9.97071 12.1252C10.0162 12.7902 10.5919 13.2928 11.2556 13.2473C11.9192 13.2017 12.4208 12.6245 12.3753 11.9597C12.3753 11.9597 12.2161 9.70999 11.4237 7.90939C10.7442 6.36532 9.59358 5.20865 7.99995 5.20865C6.40632 5.20865 5.25573 6.36532 4.57623 7.90939C3.78353 9.70999 3.62457 11.9597 3.62457 11.9597C3.5791 12.6248 4.08072 13.2017 4.74435 13.2473C5.40798 13.2928 5.98374 12.7902 6.0292 12.1252C6.0292 12.1252 6.14789 10.3242 6.78162 8.88414C6.92258 8.56371 7.08857 8.26131 7.29635 8.01763C7.48308 7.79871 7.70246 7.62412 7.99965 7.62412Z"
    fill="url(#paint7_radial_5232_4740)"
  />
  <path
    fill-rule="evenodd"
    clip-rule="evenodd"
    d="M7.99965 7.62412C8.29714 7.62412 8.51652 7.79871 8.70356 8.01763C8.91134 8.26131 9.07733 8.5634 9.21829 8.88414C9.85202 10.3239 9.97071 12.1252 9.97071 12.1252C10.0162 12.7902 10.5919 13.2928 11.2556 13.2473C11.9192 13.2017 12.4208 12.6245 12.3753 11.9597C12.3753 11.9597 12.2161 9.70999 11.4237 7.90939C10.7442 6.36532 9.59358 5.20865 7.99995 5.20865C6.40632 5.20865 5.25573 6.36532 4.57623 7.90939C3.78353 9.70999 3.62457 11.9597 3.62457 11.9597C3.5791 12.6248 4.08072 13.2017 4.74435 13.2473C5.40798 13.2928 5.98374 12.7902 6.0292 12.1252C6.0292 12.1252 6.14789 10.3242 6.78162 8.88414C6.92258 8.56371 7.08857 8.26131 7.29635 8.01763C7.48308 7.79871 7.70246 7.62412 7.99965 7.62412Z"
    fill="url(#paint8_radial_5232_4740)"
  />
  <path
    fill-rule="evenodd"
    clip-rule="evenodd"
    d="M7.99965 7.62412C8.29714 7.62412 8.51652 7.79871 8.70356 8.01763C8.91134 8.26131 9.07733 8.5634 9.21829 8.88414C9.85202 10.3239 9.97071 12.1252 9.97071 12.1252C10.0162 12.7902 10.5919 13.2928 11.2556 13.2473C11.9192 13.2017 12.4208 12.6245 12.3753 11.9597C12.3753 11.9597 12.2161 9.70999 11.4237 7.90939C10.7442 6.36532 9.59358 5.20865 7.99995 5.20865C6.40632 5.20865 5.25573 6.36532 4.57623 7.90939C3.78353 9.70999 3.62457 11.9597 3.62457 11.9597C3.5791 12.6248 4.08072 13.2017 4.74435 13.2473C5.40798 13.2928 5.98374 12.7902 6.0292 12.1252C6.0292 12.1252 6.14789 10.3242 6.78162 8.88414C6.92258 8.56371 7.08857 8.26131 7.29635 8.01763C7.48308 7.79871 7.70246 7.62412 7.99965 7.62412Z"
    fill="url(#paint9_radial_5232_4740)"
  />
  <path
    fill-rule="evenodd"
    clip-rule="evenodd"
    d="M7.99965 7.62412C8.29714 7.62412 8.51652 7.79871 8.70356 8.01763C8.91134 8.26131 9.07733 8.5634 9.21829 8.88414C9.85202 10.3239 9.97071 12.1252 9.97071 12.1252C10.0162 12.7902 10.5919 13.2928 11.2556 13.2473C11.9192 13.2017 12.4208 12.6245 12.3753 11.9597C12.3753 11.9597 12.2161 9.70999 11.4237 7.90939C10.7442 6.36532 9.59358 5.20865 7.99995 5.20865C6.40632 5.20865 5.25573 6.36532 4.57623 7.90939C3.78353 9.70999 3.62457 11.9597 3.62457 11.9597C3.5791 12.6248 4.08072 13.2017 4.74435 13.2473C5.40798 13.2928 5.98374 12.7902 6.0292 12.1252C6.0292 12.1252 6.14789 10.3242 6.78162 8.88414C6.92258 8.56371 7.08857 8.26131 7.29635 8.01763C7.48308 7.79871 7.70246 7.62412 7.99965 7.62412Z"
    fill="url(#paint10_radial_5232_4740)"
  />
  <path
    fill-rule="evenodd"
    clip-rule="evenodd"
    d="M7.99965 7.62412C8.29714 7.62412 8.51652 7.79871 8.70356 8.01763C8.91134 8.26131 9.07733 8.5634 9.21829 8.88414C9.85202 10.3239 9.97071 12.1252 9.97071 12.1252C10.0162 12.7902 10.5919 13.2928 11.2556 13.2473C11.9192 13.2017 12.4208 12.6245 12.3753 11.9597C12.3753 11.9597 12.2161 9.70999 11.4237 7.90939C10.7442 6.36532 9.59358 5.20865 7.99995 5.20865C6.40632 5.20865 5.25573 6.36532 4.57623 7.90939C3.78353 9.70999 3.62457 11.9597 3.62457 11.9597C3.5791 12.6248 4.08072 13.2017 4.74435 13.2473C5.40798 13.2928 5.98374 12.7902 6.0292 12.1252C6.0292 12.1252 6.14789 10.3242 6.78162 8.88414C6.92258 8.56371 7.08857 8.26131 7.29635 8.01763C7.48308 7.79871 7.70246 7.62412 7.99965 7.62412Z"
    fill="url(#paint11_radial_5232_4740)"
  />
  <path
    fill-rule="evenodd"
    clip-rule="evenodd"
    d="M7.99965 7.62412C8.29714 7.62412 8.51652 7.79871 8.70356 8.01763C8.91134 8.26131 9.07733 8.5634 9.21829 8.88414C9.85202 10.3239 9.97071 12.1252 9.97071 12.1252C10.0162 12.7902 10.5919 13.2928 11.2556 13.2473C11.9192 13.2017 12.4208 12.6245 12.3753 11.9597C12.3753 11.9597 12.2161 9.70999 11.4237 7.90939C10.7442 6.36532 9.59358 5.20865 7.99995 5.20865C6.40632 5.20865 5.25573 6.36532 4.57623 7.90939C3.78353 9.70999 3.62457 11.9597 3.62457 11.9597C3.5791 12.6248 4.08072 13.2017 4.74435 13.2473C5.40798 13.2928 5.98374 12.7902 6.0292 12.1252C6.0292 12.1252 6.14789 10.3242 6.78162 8.88414C6.92258 8.56371 7.08857 8.26131 7.29635 8.01763C7.48308 7.79871 7.70246 7.62412 7.99965 7.62412Z"
    fill="url(#paint12_radial_5232_4740)"
  />
  <path
    fill-rule="evenodd"
    clip-rule="evenodd"
    d="M7.99965 7.62412C8.29714 7.62412 8.51652 7.79871 8.70356 8.01763C8.91134 8.26131 9.07733 8.5634 9.21829 8.88414C9.85202 10.3239 9.97071 12.1252 9.97071 12.1252C10.0162 12.7902 10.5919 13.2928 11.2556 13.2473C11.9192 13.2017 12.4208 12.6245 12.3753 11.9597C12.3753 11.9597 12.2161 9.70999 11.4237 7.90939C10.7442 6.36532 9.59358 5.20865 7.99995 5.20865C6.40632 5.20865 5.25573 6.36532 4.57623 7.90939C3.78353 9.70999 3.62457 11.9597 3.62457 11.9597C3.5791 12.6248 4.08072 13.2017 4.74435 13.2473C5.40798 13.2928 5.98374 12.7902 6.0292 12.1252C6.0292 12.1252 6.14789 10.3242 6.78162 8.88414C6.92258 8.56371 7.08857 8.26131 7.29635 8.01763C7.48308 7.79871 7.70246 7.62412 7.99965 7.62412Z"
    fill="url(#paint13_radial_5232_4740)"
  />
  <path
    fill-rule="evenodd"
    clip-rule="evenodd"
    d="M5.97287 11.669L3.3516 3.58477C3.14626 2.95094 2.46584 2.60329 1.83303 2.80937C1.20052 3.01545 0.853601 3.69729 1.05925 4.33112L3.68052 12.4153C3.88617 13.0491 4.56658 13.3968 5.19909 13.1907C5.8316 12.9846 6.17852 12.3028 5.97287 11.669Z"
    fill="url(#paint14_linear_5232_4740)"
  />
  <path
    fill-rule="evenodd"
    clip-rule="evenodd"
    d="M5.97287 11.669L3.3516 3.58477C3.14626 2.95094 2.46584 2.60329 1.83303 2.80937C1.20052 3.01545 0.853601 3.69729 1.05925 4.33112L3.68052 12.4153C3.88617 13.0491 4.56658 13.3968 5.19909 13.1907C5.8316 12.9846 6.17852 12.3028 5.97287 11.669Z"
    fill="url(#paint15_radial_5232_4740)"
  />
  <path
    fill-rule="evenodd"
    clip-rule="evenodd"
    d="M5.97287 11.669L3.3516 3.58477C3.14626 2.95094 2.46584 2.60329 1.83303 2.80937C1.20052 3.01545 0.853601 3.69729 1.05925 4.33112L3.68052 12.4153C3.88617 13.0491 4.56658 13.3968 5.19909 13.1907C5.8316 12.9846 6.17852 12.3028 5.97287 11.669Z"
    fill="url(#paint16_linear_5232_4740)"
  />
  <path
    fill-rule="evenodd"
    clip-rule="evenodd"
    d="M5.97287 11.669L3.3516 3.58477C3.14626 2.95094 2.46584 2.60329 1.83303 2.80937C1.20052 3.01545 0.853601 3.69729 1.05925 4.33112L3.68052 12.4153C3.88617 13.0491 4.56658 13.3968 5.19909 13.1907C5.8316 12.9846 6.17852 12.3028 5.97287 11.669Z"
    fill="url(#paint17_radial_5232_4740)"
  />
  <path
    fill-rule="evenodd"
    clip-rule="evenodd"
    d="M5.97287 11.669L3.3516 3.58477C3.14626 2.95094 2.46584 2.60329 1.83303 2.80937C1.20052 3.01545 0.853601 3.69729 1.05925 4.33112L3.68052 12.4153C3.88617 13.0491 4.56658 13.3968 5.19909 13.1907C5.8316 12.9846 6.17852 12.3028 5.97287 11.669Z"
    fill="url(#paint18_radial_5232_4740)"
  />
  <defs>
    <linearGradient
      id="paint0_linear_5232_4740"
      x1="16.3428"
      y1="0.101865"
      x2="12.4176"
      y2="12.7942"
      gradientUnits="userSpaceOnUse"
    >
      <stop stop-color="#4A4EFA" />
      <stop offset="0.548576" stop-color="#E63CFE" />
    </linearGradient>
    <linearGradient
      id="paint1_linear_5232_4740"
      x1="11.4129"
      y1="7.41861"
      x2="13.6365"
      y2="8.1384"
      gradientUnits="userSpaceOnUse"
    >
      <stop offset="0.160046" stop-color="#4A4EFA" />
      <stop offset="0.946031" stop-color="#4A4EFA" stop-opacity="0" />
    </linearGradient>
    <linearGradient
      id="paint2_linear_5232_4740"
      x1="11.7498"
      y1="6.35139"
      x2="13.147"
      y2="6.79825"
      gradientUnits="userSpaceOnUse"
    >
      <stop stop-color="#39FBBB" />
      <stop offset="1" stop-color="#39FBBB" stop-opacity="0" />
    </linearGradient>
    <radialGradient
      id="paint3_radial_5232_4740"
      cx="0"
      cy="0"
      r="1"
      gradientUnits="userSpaceOnUse"
      gradientTransform="translate(11.2336 9.30762) rotate(-64.165) scale(7.2853)"
    >
      <stop offset="0.832168" stop-color="#4A4EFA" stop-opacity="0" />
      <stop offset="1" stop-color="#4A4EFA" stop-opacity="0.75" />
    </radialGradient>
    <radialGradient
      id="paint4_radial_5232_4740"
      cx="0"
      cy="0"
      r="1"
      gradientUnits="userSpaceOnUse"
      gradientTransform="translate(11.0923 8.82676) scale(1.62424 3.47362)"
    >
      <stop offset="0.169047" stop-color="#11417A" />
      <stop offset="0.926198" stop-color="#4069D4" stop-opacity="0" />
    </radialGradient>
    <radialGradient
      id="paint5_radial_5232_4740"
      cx="0"
      cy="0"
      r="1"
      gradientUnits="userSpaceOnUse"
      gradientTransform="translate(12.9724 13.2501) rotate(-90) scale(5.37233 2.57477)"
    >
      <stop offset="0.34895" stop-color="#E63CFE" />
      <stop offset="1" stop-color="#E63CFE" stop-opacity="0" />
    </radialGradient>
    <radialGradient
      id="paint6_radial_5232_4740"
      cx="0"
      cy="0"
      r="1"
      gradientUnits="userSpaceOnUse"
      gradientTransform="translate(7.59145 9.4488) rotate(-85.7675) scale(5.53509 4.91478)"
    >
      <stop stop-color="#39FBBB" stop-opacity="0.5" />
      <stop offset="0.688731" stop-color="#39FBBB" />
      <stop offset="1" stop-color="#39FBBB" stop-opacity="0" />
    </radialGradient>
    <radialGradient
      id="paint7_radial_5232_4740"
      cx="0"
      cy="0"
      r="1"
      gradientUnits="userSpaceOnUse"
      gradientTransform="translate(15.4778 12.5651) rotate(-122.629) scale(13.2696 3.2283)"
    >
      <stop stop-color="#E63CFE" />
      <stop offset="1" stop-color="#E63CFE" stop-opacity="0" />
    </radialGradient>
    <radialGradient
      id="paint8_radial_5232_4740"
      cx="0"
      cy="0"
      r="1"
      gradientUnits="userSpaceOnUse"
      gradientTransform="translate(7.81141 11.1572) rotate(-85.0198) scale(5.97107 5.13635)"
    >
      <stop offset="0.556793" stop-color="#4A4EFA" />
      <stop offset="0.934777" stop-color="#4A4EFA" stop-opacity="0" />
    </radialGradient>
    <radialGradient
      id="paint9_radial_5232_4740"
      cx="0"
      cy="0"
      r="1"
      gradientUnits="userSpaceOnUse"
      gradientTransform="translate(6.19224 12.9644) rotate(-68.6367) scale(6.23573 3.72131)"
    >
      <stop offset="0.61345" stop-color="#E63CFE" />
      <stop offset="1" stop-color="#E63CFE" stop-opacity="0" />
    </radialGradient>
    <radialGradient
      id="paint10_radial_5232_4740"
      cx="0"
      cy="0"
      r="1"
      gradientUnits="userSpaceOnUse"
      gradientTransform="translate(12.2257 8.7415) rotate(176.233) scale(7.74243 19.5729)"
    >
      <stop offset="0.813918" stop-color="#4A98D0" stop-opacity="0" />
      <stop offset="0.972647" stop-color="#11417A" />
    </radialGradient>
    <radialGradient
      id="paint11_radial_5232_4740"
      cx="0"
      cy="0"
      r="1"
      gradientUnits="userSpaceOnUse"
      gradientTransform="translate(5.72725 13.2501) rotate(-90) scale(5.54893 4.6041)"
    >
      <stop offset="0.457769" stop-color="#FFAE3C" />
      <stop offset="1" stop-color="#FFAE3C" stop-opacity="0" />
    </radialGradient>
    <radialGradient
      id="paint12_radial_5232_4740"
      cx="0"
      cy="0"
      r="1"
      gradientUnits="userSpaceOnUse"
      gradientTransform="translate(12.4559 13.2501) rotate(-90) scale(5.00159)"
    >
      <stop offset="0.191715" stop-color="#E63CFE" />
      <stop offset="1" stop-color="#E63CFE" stop-opacity="0" />
    </radialGradient>
    <radialGradient
      id="paint13_radial_5232_4740"
      cx="0"
      cy="0"
      r="1"
      gradientUnits="userSpaceOnUse"
      gradientTransform="translate(9.52162 13.2501) rotate(-90) scale(3.76368 1.78782)"
    >
      <stop offset="0.173611" stop-color="#FFAE3C" />
      <stop offset="1" stop-color="#FFAE3C" stop-opacity="0" />
    </radialGradient>
    <linearGradient
      id="paint14_linear_5232_4740"
      x1="0.588149"
      y1="3.25455"
      x2="3.97249"
      y2="13.7837"
      gradientUnits="userSpaceOnUse"
    >
      <stop offset="0.169527" stop-color="#E63CFE" />
      <stop offset="0.708644" stop-color="#FFAE3C" />
    </linearGradient>
    <radialGradient
      id="paint15_radial_5232_4740"
      cx="0"
      cy="0"
      r="1"
      gradientUnits="userSpaceOnUse"
      gradientTransform="translate(3.35867 5.95923) rotate(161.042) scale(1.68855 8.24528)"
    >
      <stop offset="0.120383" stop-color="#4A4EFA" />
      <stop offset="1" stop-color="#4A4EFA" stop-opacity="0" />
    </radialGradient>
    <linearGradient
      id="paint16_linear_5232_4740"
      x1="4.84374"
      y1="8.17576"
      x2="4.36979"
      y2="8.3309"
      gradientUnits="userSpaceOnUse"
    >
      <stop stop-color="#E63CFE" stop-opacity="0.33" />
      <stop offset="1" stop-color="#E63CFE" stop-opacity="0" />
    </linearGradient>
    <radialGradient
      id="paint17_radial_5232_4740"
      cx="0"
      cy="0"
      r="1"
      gradientUnits="userSpaceOnUse"
      gradientTransform="translate(6.03209 13.2501) rotate(-90) scale(5.42506 5.92649)"
    >
      <stop offset="0.465389" stop-color="#FFAE3C" />
      <stop offset="0.92565" stop-color="#FFAE3C" stop-opacity="0" />
    </radialGradient>
    <radialGradient
      id="paint18_radial_5232_4740"
      cx="0"
      cy="0"
      r="1"
      gradientUnits="userSpaceOnUse"
      gradientTransform="translate(6.03209 13.2501) rotate(-90) scale(11.8703)"
    >
      <stop offset="0.843756" stop-color="#E63CFE" stop-opacity="0" />
      <stop offset="1" stop-color="#E63CFE" />
    </radialGradient>
  </defs>
</svg>
