<svg width="14" height="12" viewBox="0 0 14 12" fill="none" xmlns="http://www.w3.org/2000/svg">
<path fill-rule="evenodd" clip-rule="evenodd" d="M11.3195 10.4156L13.9407 2.33141C14.1464 1.69758 13.7995 1.01544 13.167 0.809663C12.5345 0.60389 11.8537 0.951228 11.6484 1.58506L9.02713 9.66894C8.82148 10.3028 9.1684 10.9849 9.80091 11.1907C10.4334 11.3968 11.1141 11.0494 11.3195 10.4156Z" fill="#ffffff"/>
<path fill-rule="evenodd" clip-rule="evenodd" d="M6.99964 5.62405C7.29713 5.62405 7.51651 5.79864 7.70355 6.01756C7.91133 6.26125 8.07732 6.56333 8.21828 6.88407C8.85201 8.32388 8.9707 10.1251 8.9707 10.1251C9.01616 10.7901 9.59192 11.2928 10.2556 11.2472C10.9192 11.2017 11.4208 10.6244 11.3753 9.95967C11.3753 9.95967 11.2161 7.70992 10.4237 5.90932C9.74417 4.36526 8.59358 3.20858 6.99995 3.20858C5.40632 3.20858 4.25572 4.36526 3.57622 5.90932C2.78352 7.70992 2.62456 9.95967 2.62456 9.95967C2.57909 10.6247 3.08071 11.2017 3.74434 11.2472C4.40797 11.2928 4.98373 10.7901 5.02919 10.1251C5.02919 10.1251 5.14788 8.32418 5.78161 6.88407C5.92257 6.56364 6.08856 6.26125 6.29634 6.01756C6.48308 5.79864 6.70246 5.62405 6.99964 5.62405Z" fill="#ffffff"/>
<path fill-rule="evenodd" clip-rule="evenodd" d="M4.97287 9.66889L2.3516 1.58471C2.14626 0.950878 1.46584 0.603234 0.833029 0.809313C0.20052 1.01539 -0.146399 1.69723 0.0592504 2.33106L2.68052 10.4152C2.88617 11.0491 3.56658 11.3967 4.19909 11.1906C4.8316 10.9846 5.17852 10.3027 4.97287 9.66889Z" fill="#ffffff"/>
</svg>
