
<svg width="946" height="710" viewBox="0 0 946 710" fill="none" xmlns="http://www.w3.org/2000/svg">
<path fill-rule="evenodd" clip-rule="evenodd" d="M764.555 653.029L941.489 107.351C955.37 64.5673 931.953 18.5231 889.259 4.63345C846.565 -9.25617 800.617 14.189 786.756 56.9724L609.822 602.63C595.941 645.414 619.358 691.458 662.052 705.347C704.746 719.258 750.694 695.812 764.555 653.029Z" fill="url(#paint0_linear_795_3395)"/>
<path fill-rule="evenodd" clip-rule="evenodd" d="M764.555 653.029L941.489 107.351C955.37 64.5673 931.953 18.5231 889.259 4.63345C846.565 -9.25617 800.617 14.189 786.756 56.9724L609.822 602.63C595.941 645.414 619.358 691.458 662.052 705.347C704.746 719.258 750.694 695.812 764.555 653.029Z" fill="url(#paint1_linear_795_3395)"/>
<path fill-rule="evenodd" clip-rule="evenodd" d="M764.555 653.029L941.489 107.351C955.37 64.5673 931.953 18.5231 889.259 4.63345C846.565 -9.25617 800.617 14.189 786.756 56.9724L609.822 602.63C595.941 645.414 619.358 691.458 662.052 705.347C704.746 719.258 750.694 695.812 764.555 653.029Z" fill="url(#paint2_linear_795_3395)" fill-opacity="0.75"/>
<path fill-rule="evenodd" clip-rule="evenodd" d="M764.555 653.029L941.489 107.351C955.37 64.5673 931.953 18.5231 889.259 4.63345C846.565 -9.25617 800.617 14.189 786.756 56.9724L609.822 602.63C595.941 645.414 619.358 691.458 662.052 705.347C704.746 719.258 750.694 695.812 764.555 653.029Z" fill="url(#paint3_linear_795_3395)"/>
<g style="mix-blend-mode:multiply">
<path d="M769.07 111.511L924.708 159.079C885.173 280.985 806.108 524.852 776.294 616.815L620.646 569.245L769.07 111.511Z" fill="url(#paint4_radial_795_3395)"/>
<path d="M769.07 111.511L924.708 159.079C885.173 280.985 806.108 524.852 776.294 616.815L620.646 569.245L769.07 111.511Z" fill="url(#paint5_radial_795_3395)"/>
</g>
<path fill-rule="evenodd" clip-rule="evenodd" d="M472.981 329.605C493.061 329.605 507.869 341.39 520.494 356.167C534.52 372.616 545.724 393.006 555.239 414.656C598.015 511.842 606.027 633.423 606.027 633.423C609.095 678.311 647.959 712.241 692.753 709.166C737.548 706.09 771.407 667.125 768.338 622.257C768.338 622.257 757.587 470.4 704.101 348.861C658.236 244.637 580.571 166.562 473.002 166.562C365.432 166.562 287.767 244.637 241.902 348.861C188.395 470.4 177.665 622.257 177.665 622.257C174.596 667.146 208.455 706.09 253.25 709.166C298.044 712.241 336.908 678.311 339.976 633.423C339.976 633.423 347.988 511.863 390.764 414.656C400.28 393.027 411.483 372.616 425.509 356.167C438.113 341.39 452.942 329.605 473.002 329.605H472.981Z" fill="#E63CFE"/>
<path fill-rule="evenodd" clip-rule="evenodd" d="M472.981 329.605C493.061 329.605 507.869 341.39 520.494 356.167C534.52 372.616 545.724 393.006 555.239 414.656C598.015 511.842 606.027 633.423 606.027 633.423C609.095 678.311 647.959 712.241 692.753 709.166C737.548 706.09 771.407 667.125 768.338 622.257C768.338 622.257 757.587 470.4 704.101 348.861C658.236 244.637 580.571 166.562 473.002 166.562C365.432 166.562 287.767 244.637 241.902 348.861C188.395 470.4 177.665 622.257 177.665 622.257C174.596 667.146 208.455 706.09 253.25 709.166C298.044 712.241 336.908 678.311 339.976 633.423C339.976 633.423 347.988 511.863 390.764 414.656C400.28 393.027 411.483 372.616 425.509 356.167C438.113 341.39 452.942 329.605 473.002 329.605H472.981Z" fill="url(#paint6_radial_795_3395)"/>
<path fill-rule="evenodd" clip-rule="evenodd" d="M472.981 329.605C493.061 329.605 507.869 341.39 520.494 356.167C534.52 372.616 545.724 393.006 555.239 414.656C598.015 511.842 606.027 633.423 606.027 633.423C609.095 678.311 647.959 712.241 692.753 709.166C737.548 706.09 771.407 667.125 768.338 622.257C768.338 622.257 757.587 470.4 704.101 348.861C658.236 244.637 580.571 166.562 473.002 166.562C365.432 166.562 287.767 244.637 241.902 348.861C188.395 470.4 177.665 622.257 177.665 622.257C174.596 667.146 208.455 706.09 253.25 709.166C298.044 712.241 336.908 678.311 339.976 633.423C339.976 633.423 347.988 511.863 390.764 414.656C400.28 393.027 411.483 372.616 425.509 356.167C438.113 341.39 452.942 329.605 473.002 329.605H472.981Z" fill="url(#paint7_radial_795_3395)"/>
<path fill-rule="evenodd" clip-rule="evenodd" d="M472.981 329.605C493.061 329.605 507.869 341.39 520.494 356.167C534.52 372.616 545.724 393.006 555.239 414.656C598.015 511.842 606.027 633.423 606.027 633.423C609.095 678.311 647.959 712.241 692.753 709.166C737.548 706.09 771.407 667.125 768.338 622.257C768.338 622.257 757.587 470.4 704.101 348.861C658.236 244.637 580.571 166.562 473.002 166.562C365.432 166.562 287.767 244.637 241.902 348.861C188.395 470.4 177.665 622.257 177.665 622.257C174.596 667.146 208.455 706.09 253.25 709.166C298.044 712.241 336.908 678.311 339.976 633.423C339.976 633.423 347.988 511.863 390.764 414.656C400.28 393.027 411.483 372.616 425.509 356.167C438.113 341.39 452.942 329.605 473.002 329.605H472.981Z" fill="url(#paint8_radial_795_3395)"/>
<path fill-rule="evenodd" clip-rule="evenodd" d="M472.981 329.605C493.061 329.605 507.869 341.39 520.494 356.167C534.52 372.616 545.724 393.006 555.239 414.656C598.015 511.842 606.027 633.423 606.027 633.423C609.095 678.311 647.959 712.241 692.753 709.166C737.548 706.09 771.407 667.125 768.338 622.257C768.338 622.257 757.587 470.4 704.101 348.861C658.236 244.637 580.571 166.562 473.002 166.562C365.432 166.562 287.767 244.637 241.902 348.861C188.395 470.4 177.665 622.257 177.665 622.257C174.596 667.146 208.455 706.09 253.25 709.166C298.044 712.241 336.908 678.311 339.976 633.423C339.976 633.423 347.988 511.863 390.764 414.656C400.28 393.027 411.483 372.616 425.509 356.167C438.113 341.39 452.942 329.605 473.002 329.605H472.981Z" fill="url(#paint9_radial_795_3395)"/>
<g style="mix-blend-mode:multiply">
<path fill-rule="evenodd" clip-rule="evenodd" d="M473.005 166.562C365.436 166.562 287.771 244.637 241.905 348.861C102.933 664.533 264.194 702.288 390.768 414.656L473.005 166.562Z" fill="url(#paint10_radial_795_3395)"/>
<path fill-rule="evenodd" clip-rule="evenodd" d="M473.005 166.562C365.436 166.562 287.771 244.637 241.905 348.861C102.933 664.533 264.194 702.288 390.768 414.656L473.005 166.562Z" fill="url(#paint11_radial_795_3395)"/>
</g>
<path fill-rule="evenodd" clip-rule="evenodd" d="M336.166 602.651L159.232 56.9724C145.371 14.189 99.4437 -9.27679 56.7291 4.63347C14.035 18.5437 -9.38186 64.5673 4.49937 107.351L181.434 653.029C195.315 695.812 241.242 719.278 283.936 705.368C326.63 691.458 350.047 645.434 336.166 602.651Z" fill="url(#paint12_linear_795_3395)"/>
<path fill-rule="evenodd" clip-rule="evenodd" d="M336.166 602.651L159.232 56.9724C145.371 14.189 99.4437 -9.27679 56.7291 4.63347C14.035 18.5437 -9.38186 64.5673 4.49937 107.351L181.434 653.029C195.315 695.812 241.242 719.278 283.936 705.368C326.63 691.458 350.047 645.434 336.166 602.651Z" fill="url(#paint13_linear_795_3395)"/>
<path fill-rule="evenodd" clip-rule="evenodd" d="M336.166 602.651L159.232 56.9724C145.371 14.189 99.4437 -9.27679 56.7291 4.63347C14.035 18.5437 -9.38186 64.5673 4.49937 107.351L181.434 653.029C195.315 695.812 241.242 719.278 283.936 705.368C326.63 691.458 350.047 645.434 336.166 602.651Z" fill="url(#paint14_linear_795_3395)"/>
<path fill-rule="evenodd" clip-rule="evenodd" d="M336.166 602.651L159.232 56.9724C145.371 14.189 99.4437 -9.27679 56.7291 4.63347C14.035 18.5437 -9.38186 64.5673 4.49937 107.351L181.434 653.029C195.315 695.812 241.242 719.278 283.936 705.368C326.63 691.458 350.047 645.434 336.166 602.651Z" fill="url(#paint15_linear_795_3395)"/>
<path fill-rule="evenodd" clip-rule="evenodd" d="M336.166 602.651L159.232 56.9724C145.371 14.189 99.4437 -9.27679 56.7291 4.63347C14.035 18.5437 -9.38186 64.5673 4.49937 107.351L181.434 653.029C195.315 695.812 241.242 719.278 283.936 705.368C326.63 691.458 350.047 645.434 336.166 602.651Z" fill="url(#paint16_linear_795_3395)"/>
<path fill-rule="evenodd" clip-rule="evenodd" d="M697.071 333.595C650.484 237.131 575.25 166.589 473.015 166.589C370.779 166.589 295.545 237.131 248.958 333.595L159.245 56.979C145.384 14.1956 99.4569 -9.2702 56.7422 4.64006C14.0482 18.5503 -9.36868 64.5739 4.51256 107.357L180.973 651.612C190.55 683.003 218.621 706.778 253.221 709.172C298.016 712.247 336.88 678.318 339.948 633.429C339.948 633.429 347.96 511.869 390.736 414.663C400.251 393.034 411.455 372.622 425.481 356.194C438.085 341.417 452.913 329.633 472.973 329.633C493.033 329.633 507.862 341.417 520.487 356.194C534.512 372.622 545.716 393.034 555.231 414.663C598.007 511.849 606.019 633.429 606.019 633.429C609.108 678.318 647.972 712.247 692.766 709.172C727.366 706.799 755.459 683.003 765.015 651.612L941.496 107.357C955.377 64.5739 931.96 18.5297 889.266 4.64006C846.572 -9.2702 800.624 14.1956 786.763 56.979L697.071 333.595Z" fill="url(#paint17_radial_795_3395)"/>
<path fill-rule="evenodd" clip-rule="evenodd" d="M697.071 333.595C650.484 237.131 575.25 166.589 473.015 166.589C370.779 166.589 295.545 237.131 248.958 333.595L159.245 56.979C145.384 14.1956 99.4569 -9.2702 56.7422 4.64006C14.0482 18.5503 -9.36868 64.5739 4.51256 107.357L180.973 651.612C190.55 683.003 218.621 706.778 253.221 709.172C298.016 712.247 336.88 678.318 339.948 633.429C339.948 633.429 347.96 511.869 390.736 414.663C400.251 393.034 411.455 372.622 425.481 356.194C438.085 341.417 452.913 329.633 472.973 329.633C493.033 329.633 507.862 341.417 520.487 356.194C534.512 372.622 545.716 393.034 555.231 414.663C598.007 511.849 606.019 633.429 606.019 633.429C609.108 678.318 647.972 712.247 692.766 709.172C727.366 706.799 755.459 683.003 765.015 651.612L941.496 107.357C955.377 64.5739 931.96 18.5297 889.266 4.64006C846.572 -9.2702 800.624 14.1956 786.763 56.979L697.071 333.595Z" fill="url(#paint18_radial_795_3395)"/>
<path fill-rule="evenodd" clip-rule="evenodd" d="M697.071 333.595C650.484 237.131 575.25 166.589 473.015 166.589C370.779 166.589 295.545 237.131 248.958 333.595L159.245 56.979C145.384 14.1956 99.4569 -9.2702 56.7422 4.64006C14.0482 18.5503 -9.36868 64.5739 4.51256 107.357L180.973 651.612C190.55 683.003 218.621 706.778 253.221 709.172C298.016 712.247 336.88 678.318 339.948 633.429C339.948 633.429 347.96 511.869 390.736 414.663C400.251 393.034 411.455 372.622 425.481 356.194C438.085 341.417 452.913 329.633 472.973 329.633C493.033 329.633 507.862 341.417 520.487 356.194C534.512 372.622 545.716 393.034 555.231 414.663C598.007 511.849 606.019 633.429 606.019 633.429C609.108 678.318 647.972 712.247 692.766 709.172C727.366 706.799 755.459 683.003 765.015 651.612L941.496 107.357C955.377 64.5739 931.96 18.5297 889.266 4.64006C846.572 -9.2702 800.624 14.1956 786.763 56.979L697.071 333.595Z" fill="url(#paint19_radial_795_3395)"/>
<defs>
<linearGradient id="paint0_linear_795_3395" x1="1150.76" y1="-465.798" x2="773.467" y2="708.067" gradientUnits="userSpaceOnUse">
<stop stop-color="#4A4EFA"/>
<stop offset="0.726726" stop-color="#E63CFE"/>
</linearGradient>
<linearGradient id="paint1_linear_795_3395" x1="698.691" y1="328.78" x2="831.581" y2="370.928" gradientUnits="userSpaceOnUse">
<stop offset="0.320118" stop-color="#4A4EFA"/>
<stop offset="1" stop-color="#4A4EFA" stop-opacity="0"/>
</linearGradient>
<linearGradient id="paint2_linear_795_3395" x1="722.375" y1="251.386" x2="805.824" y2="280.172" gradientUnits="userSpaceOnUse">
<stop stop-color="#39FBBB"/>
<stop offset="1" stop-color="#39FBBB" stop-opacity="0"/>
</linearGradient>
<linearGradient id="paint3_linear_795_3395" x1="991.806" y1="-102.562" x2="929.119" y2="102.717" gradientUnits="userSpaceOnUse">
<stop offset="0.241026" stop-color="#4A4EFA"/>
<stop offset="1" stop-color="#4A4EFA" stop-opacity="0"/>
</linearGradient>
<radialGradient id="paint4_radial_795_3395" cx="0" cy="0" r="1" gradientUnits="userSpaceOnUse" gradientTransform="translate(696.628 333.94) rotate(77.841) scale(371.571 89.9065)">
<stop stop-color="#6F15A9" stop-opacity="0.9"/>
<stop offset="0.559734" stop-color="#6F15A9" stop-opacity="0"/>
</radialGradient>
<radialGradient id="paint5_radial_795_3395" cx="0" cy="0" r="1" gradientUnits="userSpaceOnUse" gradientTransform="translate(759.867 135.626) rotate(80.9808) scale(358.811 78.9996)">
<stop offset="0.376913" stop-color="white"/>
<stop offset="1" stop-color="white" stop-opacity="0"/>
</radialGradient>
<radialGradient id="paint6_radial_795_3395" cx="0" cy="0" r="1" gradientUnits="userSpaceOnUse" gradientTransform="translate(424.767 413.397) rotate(-72.5088) scale(493.367 459.427)">
<stop stop-color="#39FBBB" stop-opacity="0.5"/>
<stop offset="0.445109" stop-color="#39FBBB"/>
<stop offset="0.681799" stop-color="#39FBBB" stop-opacity="0"/>
</radialGradient>
<radialGradient id="paint7_radial_795_3395" cx="0" cy="0" r="1" gradientUnits="userSpaceOnUse" gradientTransform="translate(977.751 663.121) rotate(-122.629) scale(895.694 217.909)">
<stop stop-color="#E63CFE"/>
<stop offset="1" stop-color="#E63CFE" stop-opacity="0"/>
</radialGradient>
<radialGradient id="paint8_radial_795_3395" cx="0" cy="0" r="1" gradientUnits="userSpaceOnUse" gradientTransform="translate(467.37 529.376) rotate(-90) scale(331.875 298.655)">
<stop offset="0.571854" stop-color="#4A4EFA"/>
<stop offset="1" stop-color="#4A4EFA" stop-opacity="0"/>
</radialGradient>
<radialGradient id="paint9_radial_795_3395" cx="0" cy="0" r="1" gradientUnits="userSpaceOnUse" gradientTransform="translate(300.167 708.526) rotate(-66.5604) scale(463.389 172.306)">
<stop offset="0.590589" stop-color="#E63CFE"/>
<stop offset="1" stop-color="#E63CFE" stop-opacity="0"/>
</radialGradient>
<radialGradient id="paint10_radial_795_3395" cx="0" cy="0" r="1" gradientUnits="userSpaceOnUse" gradientTransform="translate(247.997 332.501) rotate(72.0723) scale(201.01 200.674)">
<stop stop-color="#6F15A9"/>
<stop offset="1" stop-color="#6F15A9" stop-opacity="0"/>
</radialGradient>
<radialGradient id="paint11_radial_795_3395" cx="0" cy="0" r="1" gradientUnits="userSpaceOnUse" gradientTransform="translate(472.995 332.501) rotate(170.134) scale(262.631 360.853)">
<stop offset="0.652093" stop-color="white"/>
<stop offset="0.870875" stop-color="white" stop-opacity="0"/>
</radialGradient>
<linearGradient id="paint12_linear_795_3395" x1="-27.2998" y1="34.6828" x2="201.142" y2="745.397" gradientUnits="userSpaceOnUse">
<stop offset="0.169527" stop-color="#E63CFE"/>
<stop offset="0.591641" stop-color="#FFAE3C"/>
</linearGradient>
<linearGradient id="paint13_linear_795_3395" x1="226.022" y1="260.673" x2="70.4684" y2="310.017" gradientUnits="userSpaceOnUse">
<stop offset="0.2694" stop-color="#4A4EFA"/>
<stop offset="1" stop-color="#4A4EFA" stop-opacity="0"/>
</linearGradient>
<linearGradient id="paint14_linear_795_3395" x1="295.017" y1="355.61" x2="206.428" y2="381.308" gradientUnits="userSpaceOnUse">
<stop stop-color="#E63CFE"/>
<stop offset="1" stop-color="#E63CFE" stop-opacity="0"/>
</linearGradient>
<linearGradient id="paint15_linear_795_3395" x1="192.04" y1="718.845" x2="83.5407" y2="481.675" gradientUnits="userSpaceOnUse">
<stop offset="0.372372" stop-color="#FFAE3C"/>
<stop offset="1" stop-color="#FFAE3C" stop-opacity="0"/>
</linearGradient>
<linearGradient id="paint16_linear_795_3395" x1="76.7067" y1="-66.4451" x2="117.02" y2="60.4324" gradientUnits="userSpaceOnUse">
<stop stop-color="#E63CFE"/>
<stop offset="1" stop-color="#E63CFE" stop-opacity="0"/>
</linearGradient>
<radialGradient id="paint17_radial_795_3395" cx="0" cy="0" r="1" gradientUnits="userSpaceOnUse" gradientTransform="translate(337.246 708.528) rotate(-90) scale(707.896 522.273)">
<stop offset="0.262321" stop-color="#FFAE3C"/>
<stop offset="0.526813" stop-color="#FFAE3C" stop-opacity="0"/>
</radialGradient>
<radialGradient id="paint18_radial_795_3395" cx="0" cy="0" r="1" gradientUnits="userSpaceOnUse" gradientTransform="translate(796.522 708.528) rotate(-90) scale(399.352 398.519)">
<stop offset="0.283277" stop-color="#E63CFE"/>
<stop offset="0.856787" stop-color="#E63CFE" stop-opacity="0"/>
</radialGradient>
<radialGradient id="paint19_radial_795_3395" cx="0" cy="0" r="1" gradientUnits="userSpaceOnUse" gradientTransform="translate(549.048 708.528) rotate(-97.9916) scale(548.112 216.137)">
<stop offset="0.25103" stop-color="#FFAE3C"/>
<stop offset="0.656188" stop-color="#FFAE3C" stop-opacity="0"/>
</radialGradient>
</defs>
</svg>
