<svg width="16" height="16" viewBox="0 0 16 16" xmlns="http://www.w3.org/2000/svg">
<path d="M4.98005 2.32985C4.98005 1.78861 4.54129 1.34985 4.00005 1.34985H2.66005C2.11882 1.34985 1.68005 1.78861 1.68005 2.32985V6.33985C1.68005 6.88109 2.11882 7.31985 2.66005 7.31985H4.00005C4.54129 7.31985 4.98005 6.88109 4.98005 6.33985L4.98005 2.32985Z"/>
<path d="M9.65004 2.32985C9.65004 1.78861 9.21128 1.34985 8.67004 1.34985H7.33004C6.7888 1.34985 6.35004 1.78861 6.35004 2.32985L6.35004 6.33985C6.35004 6.88109 6.7888 7.31985 7.33004 7.31985H8.67004C9.21128 7.31985 9.65004 6.88109 9.65004 6.33985L9.65004 2.32985Z"/>
<path d="M4.98005 9.6697C4.98005 9.12846 4.54129 8.6897 4.00005 8.6897L2.66005 8.6897C2.11882 8.6897 1.68005 9.12846 1.68005 9.6697V13.6797C1.68005 14.2209 2.11882 14.6597 2.66005 14.6597H4.00005C4.54129 14.6597 4.98005 14.2209 4.98005 13.6797L4.98005 9.6697Z"/>
<path d="M11.6869 3.90152C11.346 3.7891 10.9785 3.97435 10.866 4.31528C10.7536 4.65621 10.9389 5.02372 11.2798 5.13614C12.4848 5.53346 13.3532 6.66864 13.3532 8.00493C13.3532 9.6728 12.0011 11.0249 10.3332 11.0249H8.57184L9.79951 9.80003C10.0536 9.54648 10.0541 9.13492 9.80056 8.88079C9.54701 8.62666 9.13545 8.62618 8.88132 8.87973L6.54096 11.2147C6.41874 11.3367 6.35005 11.5022 6.35005 11.6749C6.35005 11.8475 6.41874 12.0131 6.54096 12.135L8.88132 14.47C9.13545 14.7236 9.54701 14.7231 9.80056 14.469C10.0541 14.2148 10.0536 13.8033 9.79951 13.5497L8.57184 12.3249H10.3332C12.7191 12.3249 14.6532 10.3908 14.6532 8.00493C14.6532 6.09097 13.4089 4.46932 11.6869 3.90152Z"/>
</svg>
