<svg
  width="16"
  height="16"
  viewBox="0 0 16 16"
  fill="none"
  xmlns="http://www.w3.org/2000/svg"
>
  <path
    d="M3.49074 2.23668H2.50947C1.96753 2.23668 1.5282 2.63962 1.5282 3.13668V6.07001C1.5282 6.56707 1.96753 6.97002 2.50947 6.97002H3.49074C4.03268 6.97002 4.47201 6.56707 4.47201 6.07001V3.13668C4.47201 2.63962 4.03268 2.23668 3.49074 2.23668Z"
    stroke="currentColor"
    stroke-linecap="round"
    stroke-linejoin="round"
  />
  <path
    d="M3.49074 9.02998H2.50947C1.96753 9.02998 1.5282 9.43293 1.5282 9.92998V12.8633C1.5282 13.3604 1.96753 13.7633 2.50947 13.7633H3.49074C4.03268 13.7633 4.47201 13.3604 4.47201 12.8633V9.92998C4.47201 9.43293 4.03268 9.02998 3.49074 9.02998Z"
    stroke="currentColor"
    stroke-linecap="round"
    stroke-linejoin="round"
  />
  <path
    d="M8.49074 2.23668H7.50947C6.96753 2.23668 6.5282 2.63962 6.5282 3.13668V6.07001C6.5282 6.56707 6.96753 6.97002 7.50947 6.97002H8.49074C9.03268 6.97002 9.47201 6.56707 9.47201 6.07001V3.13668C9.47201 2.63962 9.03268 2.23668 8.49074 2.23668Z"
    stroke="currentColor"
    stroke-linecap="round"
    stroke-linejoin="round"
  />
  <path
    d="M7 11.3967H10.7516H12.6275H13.5654H13.6412C14.1173 11.3967 14.5033 11.0107 14.5033 10.5346V10.5346V9.67249V7.94833V6.22416V5.36208V5.36208C14.5033 4.88597 14.1173 4.5 13.6412 4.5H13.2516H12M7 11.3967L9 9.39665M7 11.3967L9 13.3967"
    stroke="currentColor"
    stroke-linecap="round"
    stroke-linejoin="round"
  />
</svg>
