<svg width="16" height="16" viewBox="0 0 16 16" fill="none" xmlns="http://www.w3.org/2000/svg">
<path d="M15.3569 9.2956L12.4541 6.34308C12.2599 6.13661 11.9328 6.13661 11.7284 6.34308C11.5239 6.53923 11.5239 6.86958 11.7284 7.07605L13.7828 9.17171H5.57516V1.01617C5.57516 0.727116 5.35029 0.5 5.06409 0.5C4.7779 0.5 4.55303 0.727116 4.55303 1.01617V9.53304L0.607625 14.6741C0.433864 14.9012 0.474749 15.2213 0.699616 15.3968C0.791608 15.469 0.904042 15.5 1.01648 15.5C1.16979 15.5 1.32311 15.4277 1.42533 15.3039L5.35029 10.1937H13.7419L11.6875 12.2584C11.483 12.4649 11.483 12.7849 11.6875 12.9914C11.7897 13.0946 11.9226 13.1462 12.0452 13.1462C12.1679 13.1462 12.311 13.0946 12.403 12.9914L15.3467 10.0182C15.5511 9.82209 15.5511 9.49174 15.3467 9.28527L15.3569 9.2956Z" fill="#231F20"/>
</svg>
