<svg width="16" height="16" viewBox="0 0 16 16" fill="none" xmlns="http://www.w3.org/2000/svg">
<path d="M6.79632 5.84322C6.85853 5.57418 6.69087 5.30564 6.42182 5.24343C6.15278 5.18121 5.88424 5.34888 5.82203 5.61792L6.79632 5.84322ZM7.46318 2.37161C7.26322 2.56206 7.2555 2.87855 7.44595 3.07851C7.63639 3.27847 7.95288 3.28619 8.15284 3.09574L7.46318 2.37161ZM2.8582 7.52938C2.65666 7.71816 2.64632 8.03457 2.83509 8.23611C3.02387 8.43765 3.34028 8.448 3.54182 8.25922L2.8582 7.52938ZM6.16053 5.12124L6.52747 4.78161C6.43705 4.68391 6.31139 4.62631 6.17835 4.62156C6.04531 4.61682 5.91588 4.66532 5.81872 4.75633L6.16053 5.12124ZM8.55591 8.44533C8.74348 8.64799 9.05983 8.66022 9.26248 8.47264C9.46514 8.28507 9.47737 7.96872 9.2898 7.76607L8.55591 8.44533ZM5.82203 5.61792C5.65188 6.3537 5.56143 7.16263 5.56143 7.99378H6.56143C6.56143 7.23322 6.6444 6.50018 6.79632 5.84322L5.82203 5.61792ZM5.56143 7.99378C5.56143 9.72337 5.95399 11.3125 6.61333 12.4868C7.26367 13.645 8.24023 14.5 9.43072 14.5V13.5C8.76315 13.5 8.05506 13.012 7.48528 11.9972C6.92449 10.9984 6.56143 9.5844 6.56143 7.99378H5.56143ZM9.43072 14.5C10.6212 14.5 11.5978 13.645 12.2481 12.4868C12.9075 11.3125 13.3 9.72337 13.3 7.99378H12.3C12.3 9.5844 11.937 10.9984 11.3762 11.9972C10.8064 13.012 10.0983 13.5 9.43072 13.5V14.5ZM13.3 7.99378C13.3 6.26417 12.9074 4.67792 12.2478 3.50649C11.5969 2.35055 10.6202 1.5 9.43072 1.5V2.5C10.0993 2.5 10.8072 2.98624 11.3765 3.99714C11.937 4.99255 12.3 6.40319 12.3 7.99378H13.3ZM9.43072 1.5C8.68506 1.5 8.0103 1.85054 7.46318 2.37161L8.15284 3.09574C8.57192 2.69661 9.01199 2.5 9.43072 2.5V1.5ZM3.54182 8.25922L6.50234 5.48616L5.81872 4.75633L2.8582 7.52938L3.54182 8.25922ZM5.79358 5.46088L8.55591 8.44533L9.2898 7.76607L6.52747 4.78161L5.79358 5.46088Z" fill="#231F20"/>
</svg>
