<svg width="16" height="16" viewBox="0 0 16 16" fill="none" xmlns="http://www.w3.org/2000/svg">
<path d="M6.54973 5.51226C6.61194 5.24322 6.44427 4.97468 6.17523 4.91247C5.90619 4.85025 5.63765 5.01792 5.57544 5.28696L6.54973 5.51226ZM7.43517 1.60361C7.2352 1.79405 7.22749 2.11054 7.41793 2.31051C7.60838 2.51047 7.92487 2.51818 8.12483 2.32774L7.43517 1.60361ZM2.15819 7.51397C1.95665 7.70274 1.9463 8.01916 2.13508 8.2207C2.32386 8.42224 2.64027 8.43258 2.84181 8.2438L2.15819 7.51397ZM5.89226 4.70142L6.2592 4.36179C6.16878 4.26409 6.04312 4.20649 5.91008 4.20174C5.77704 4.197 5.64761 4.2455 5.55045 4.33651L5.89226 4.70142ZM8.69047 8.46075C8.87805 8.66341 9.19439 8.67563 9.39705 8.48806C9.59971 8.30048 9.61194 7.98414 9.42436 7.78148L8.69047 8.46075ZM5.57544 5.28696C5.38181 6.1243 5.27871 7.04566 5.27871 7.99288H6.27871C6.27871 7.11625 6.37432 6.27078 6.54973 5.51226L5.57544 5.28696ZM5.27871 7.99288C5.27871 9.96456 5.72636 11.7726 6.47467 13.1054C7.21398 14.4221 8.31338 15.375 9.63935 15.375V14.375C8.8363 14.375 8.00537 13.789 7.34662 12.6158C6.69686 11.4586 6.27871 9.82559 6.27871 7.99288H5.27871ZM9.63935 15.375C10.9653 15.375 12.0647 14.4221 12.804 13.1054C13.5523 11.7726 14 9.96456 14 7.99288H13C13 9.82559 12.5818 11.4586 11.9321 12.6158C11.2733 13.789 10.4424 14.375 9.63935 14.375V15.375ZM14 7.99288C14 6.02117 13.5523 4.21639 12.8037 2.88696C12.0639 1.57302 10.9643 0.625 9.63935 0.625V1.625C10.4434 1.625 11.2742 2.20871 11.9324 3.37761C12.5819 4.53102 13 6.16018 13 7.99288H14ZM9.63935 0.625C8.80879 0.625 8.05274 1.01543 7.43517 1.60361L8.12483 2.32774C8.61436 1.86151 9.13572 1.625 9.63935 1.625V0.625ZM2.84181 8.2438L6.23407 5.06634L5.55045 4.33651L2.15819 7.51397L2.84181 8.2438ZM5.52531 5.04106L8.69047 8.46075L9.42436 7.78148L6.2592 4.36179L5.52531 5.04106Z" fill="#231F20"/>
</svg>
