<svg width="16" height="16" viewBox="0 0 16 16" fill="none" xmlns="http://www.w3.org/2000/svg">
<path d="M6.59631 5.84322C6.65852 5.57418 6.49085 5.30564 6.22181 5.24343C5.95277 5.18121 5.68423 5.34888 5.62202 5.61792L6.59631 5.84322ZM7.26317 2.37161C7.0632 2.56206 7.05549 2.87855 7.24593 3.07851C7.43638 3.27847 7.75287 3.28619 7.95283 3.09574L7.26317 2.37161ZM2.65819 7.52938C2.45665 7.71816 2.4463 8.03457 2.63508 8.23611C2.82386 8.43765 3.14027 8.448 3.34181 8.25922L2.65819 7.52938ZM5.96052 5.12124L6.32746 4.78161C6.23704 4.68391 6.11138 4.62631 5.97834 4.62156C5.8453 4.61682 5.71586 4.66532 5.61871 4.75633L5.96052 5.12124ZM8.35589 8.44533C8.54347 8.64799 8.85981 8.66022 9.06247 8.47264C9.26513 8.28507 9.27736 7.96872 9.08978 7.76607L8.35589 8.44533ZM5.62202 5.61792C5.45187 6.3537 5.36142 7.16263 5.36142 7.99378H6.36142C6.36142 7.23322 6.44439 6.50018 6.59631 5.84322L5.62202 5.61792ZM5.36142 7.99378C5.36142 9.72337 5.75398 11.3125 6.41331 12.4868C7.06366 13.645 8.04022 14.5 9.23071 14.5V13.5C8.56314 13.5 7.85505 13.012 7.28527 11.9972C6.72448 10.9984 6.36142 9.5844 6.36142 7.99378H5.36142ZM9.23071 14.5C10.4212 14.5 11.3978 13.645 12.0481 12.4868C12.7074 11.3125 13.1 9.72337 13.1 7.99378H12.1C12.1 9.5844 11.7369 10.9984 11.1762 11.9972C10.6064 13.012 9.89828 13.5 9.23071 13.5V14.5ZM13.1 7.99378C13.1 6.26417 12.7074 4.67792 12.0478 3.50649C11.3969 2.35055 10.4202 1.5 9.23071 1.5V2.5C9.8993 2.5 10.6072 2.98624 11.1765 3.99714C11.737 4.99255 12.1 6.40319 12.1 7.99378H13.1ZM9.23071 1.5C8.48505 1.5 7.81028 1.85054 7.26317 2.37161L7.95283 3.09574C8.37191 2.69661 8.81198 2.5 9.23071 2.5V1.5ZM3.34181 8.25922L6.30233 5.48616L5.61871 4.75633L2.65819 7.52938L3.34181 8.25922ZM5.59357 5.46088L8.35589 8.44533L9.08978 7.76607L6.32746 4.78161L5.59357 5.46088Z" fill="#231F20"/>
</svg>
