<svg
  width="16"
  height="16"
  viewBox="0 0 16 16"
  fill="none"
  xmlns="http://www.w3.org/2000/svg"
>
  <path
    d="M11.4744 8C11.4744 9.28584 11.2707 10.5428 10.8889 11.6119C10.5071 12.6811 9.9645 13.5144 9.32963 14.0065C8.69477 14.4985 7.99618 14.6273 7.32222 14.3764C6.64825 14.1256 6.02917 13.5064 5.54326 12.5971C5.05736 11.6879 4.72646 10.5295 4.5924 9.26835C4.45834 8.00721 4.52714 6.70001 4.79011 5.51204C5.05308 4.32408 5.4984 3.30871 6.06976 2.59433C6.64113 1.87995 7.31287 1.49866 8.00004 1.49866C8.97287 1.49866 9.90324 2.22103 10.602 3.47795L11.4744 5.11051"
    stroke="currentColor"
    stroke-linecap="round"
    stroke-linejoin="round"
  />
  <path
    d="M11.4745 1.49866L11.4745 5.11051L9.54431 5.11051"
    stroke="currentColor"
    stroke-linecap="round"
    stroke-linejoin="round"
  />
</svg>
