<svg width="16" height="16" viewBox="0 0 16 16" fill="none" xmlns="http://www.w3.org/2000/svg">
<path d="M15.8474 9.38197L12.751 6.23262C12.5439 6.01239 12.195 6.01239 11.9769 6.23262C11.7589 6.44184 11.7589 6.79422 11.9769 7.01445L14.1684 9.24983H5.4135V0.550585C5.4135 0.242257 5.17364 0 4.86837 0C4.56309 0 4.32323 0.242257 4.32323 0.550585V9.63524L0.1148 15.1191C-0.0705454 15.3613 -0.0269347 15.7027 0.212924 15.8899C0.311048 15.967 0.430978 16 0.550907 16C0.714447 16 0.877987 15.9229 0.987014 15.7908L5.17364 10.34H14.1247L11.9333 12.5423C11.7152 12.7626 11.7152 13.1039 11.9333 13.3242C12.0423 13.4343 12.1841 13.4893 12.3149 13.4893C12.4457 13.4893 12.5984 13.4343 12.6965 13.3242L15.8365 10.1528C16.0545 9.94357 16.0545 9.59119 15.8365 9.37096L15.8474 9.38197Z" fill="#231F20"/>
</svg>
