<svg width="16" height="16" viewBox="0 0 16 16" fill="none" xmlns="http://www.w3.org/2000/svg">
<g clip-path="url(#clip0_10941_2939)">
<path d="M14.857 8.71166L11.9531 5.78732C11.7588 5.58282 11.4316 5.58282 11.2271 5.78732C11.0226 5.9816 11.0226 6.30879 11.2271 6.51329L13.2823 8.58896H5.07168V0.511247C5.07168 0.224949 4.84673 0 4.56043 0C4.27413 0 4.04918 0.224949 4.04918 0.511247V8.94683L0.102354 14.0389C-0.0714703 14.2638 -0.0305705 14.5808 0.194378 14.7546C0.286403 14.8262 0.398877 14.8569 0.511352 14.8569C0.664726 14.8569 0.8181 14.7853 0.92035 14.6626L4.84673 9.60123H13.2414L11.1862 11.6462C10.9817 11.8507 10.9817 12.1677 11.1862 12.3722C11.2884 12.4744 11.4214 12.5256 11.5441 12.5256C11.6668 12.5256 11.8099 12.4744 11.9019 12.3722L14.8467 9.4274C15.0512 9.23313 15.0512 8.90593 14.8467 8.70143L14.857 8.71166Z" fill="#231F20"/>
</g>
<defs>
<clipPath id="clip0_10941_2939">
<rect width="16" height="16" rx="2" fill="white"/>
</clipPath>
</defs>
</svg>
