<svg
  width="16"
  height="16"
  viewBox="0 0 16 16"
  fill="none"
  xmlns="http://www.w3.org/2000/svg"
>
  <path
    d="M2.66667 8V3.33333C2.66667 2.97971 2.80714 2.64057 3.05719 2.39052C3.30724 2.14048 3.64638 2 4 2H8.66667M8.66667 2L12 5.33333M8.66667 2L8.66667 4.66667C8.66667 4.84348 8.73691 5.01305 8.86193 5.13807C8.98696 5.2631 9.15653 5.33333 9.33334 5.33333L12 5.33333M12 5.33333V8M2 10L4.66667 14M2 14L4.66667 10M12 10V14H14M6.66667 14V10L8.33333 12L10 10V14"
    stroke="currentColor"
    stroke-width="1.3"
    stroke-linecap="round"
    stroke-linejoin="round"
  />
</svg>
