<svg width="16" height="16" viewBox="0 0 16 16" fill="none" xmlns="http://www.w3.org/2000/svg">
<path d="M10.3742 9.87454C10.6431 9.81196 10.8104 9.54319 10.7479 9.27423C10.6853 9.00528 10.4165 8.83798 10.1476 8.90056L10.3742 9.87454ZM12.9084 7.55745C12.716 7.75552 12.7206 8.07207 12.9187 8.26448C13.1168 8.45689 13.4333 8.4523 13.6257 8.25423L12.9084 7.55745ZM7.30496 6.55368C7.07394 6.40241 6.76403 6.46706 6.61276 6.69808C6.46148 6.9291 6.52613 7.23901 6.75715 7.39028L7.30496 6.55368ZM10.4348 9.20078L10.8532 9.47449C11.0043 9.24348 10.9396 8.9337 10.7087 8.78248L10.4348 9.20078ZM7.79275 12.3263C7.64159 12.5574 7.70638 12.8673 7.93747 13.0184C8.16856 13.1696 8.47844 13.1048 8.62961 12.8737L7.79275 12.3263ZM10.1476 8.90056C9.49153 9.05321 8.75951 9.13658 8 9.13658V10.1366C8.83055 10.1366 9.63891 10.0456 10.3742 9.87454L10.1476 8.90056ZM8 9.13658C6.40959 9.13658 4.99603 8.78026 3.99787 8.2292C2.98232 7.66855 2.5 6.97428 2.5 6.32451H1.5C1.5 7.5051 2.3593 8.46686 3.51456 9.10465C4.6872 9.75204 6.27364 10.1366 8 10.1366V9.13658ZM2.5 6.32451C2.5 5.67408 2.98315 4.97671 3.99883 4.41307C4.99701 3.85914 6.41029 3.5 8 3.5V2.5C6.27294 2.5 4.68622 2.88795 3.5136 3.53868C2.35847 4.17971 1.5 5.1446 1.5 6.32451H2.5ZM8 3.5C9.59041 3.5 11.004 3.85632 12.0021 4.40737C13.0177 4.96803 13.5 5.6623 13.5 6.31206H14.5C14.5 5.13148 13.6407 4.16971 12.4854 3.53193C11.3128 2.88454 9.72636 2.5 8 2.5V3.5ZM13.5 6.31206C13.5 6.71862 13.3061 7.14804 12.9084 7.55745L13.6257 8.25423C14.1473 7.71733 14.5 7.05103 14.5 6.31206H13.5ZM6.75715 7.39028L10.1609 9.61908L10.7087 8.78248L7.30496 6.55368L6.75715 7.39028ZM10.0164 8.92706L7.79275 12.3263L8.62961 12.8737L10.8532 9.47449L10.0164 8.92706Z" fill="#231F20"/>
</svg>
