<svg width="16" height="16" viewBox="0 0 16 16" fill="none" xmlns="http://www.w3.org/2000/svg">
<path d="M10.7039 10.3061C10.9729 10.2435 11.1402 9.97471 11.0776 9.70575C11.015 9.43679 10.7462 9.26949 10.4773 9.33208L10.7039 10.3061ZM13.6766 7.77288C13.4841 7.97095 13.4887 8.2875 13.6868 8.47991C13.8849 8.67232 14.2014 8.66773 14.3938 8.46966L13.6766 7.77288ZM7.16366 6.63293C6.93264 6.48166 6.62273 6.5463 6.47145 6.77733C6.32018 7.00835 6.38482 7.31826 6.61584 7.46953L7.16366 6.63293ZM10.7899 9.60506L11.2083 9.87877C11.3594 9.64776 11.2947 9.33798 11.0638 9.18676L10.7899 9.60506ZM7.82355 13.2263C7.67238 13.4574 7.73717 13.7673 7.96826 13.9184C8.19935 14.0696 8.50924 14.0048 8.6604 13.7737L7.82355 13.2263ZM10.4773 9.33208C9.71979 9.50833 8.87545 9.60441 8 9.60441V10.6044C8.94649 10.6044 9.86717 10.5008 10.7039 10.3061L10.4773 9.33208ZM8 9.60441C6.16774 9.60441 4.53543 9.19407 3.37898 8.55563C2.20514 7.90759 1.625 7.09257 1.625 6.30934H0.625C0.625 7.62338 1.58212 8.7059 2.89567 9.43108C4.2266 10.1658 6.03179 10.6044 8 10.6044V9.60441ZM1.625 6.30934C1.625 5.52544 2.20597 4.70687 3.37994 4.05538C4.53641 3.41361 6.16844 3 8 3V2C6.03109 2 4.22562 2.44242 2.89471 3.181C1.58129 3.90987 0.625 4.99596 0.625 6.30934H1.625ZM8 3C9.83226 3 11.4646 3.41034 12.621 4.04878C13.7949 4.69682 14.375 5.51184 14.375 6.29507H15.375C15.375 4.98102 14.4179 3.89851 13.1043 3.17333C11.7734 2.43856 9.96821 2 8 2V3ZM14.375 6.29507C14.375 6.78516 14.1413 7.29447 13.6766 7.77288L14.3938 8.46966C14.9824 7.86377 15.375 7.11757 15.375 6.29507H14.375ZM6.61584 7.46953L10.5159 10.0234L11.0638 9.18676L7.16366 6.63293L6.61584 7.46953ZM10.3714 9.33134L7.82355 13.2263L8.6604 13.7737L11.2083 9.87877L10.3714 9.33134Z" fill="#231F20"/>
</svg>
