<svg
  width="16"
  height="16"
  viewBox="0 0 16 16"
  fill="none"
  xmlns="http://www.w3.org/2000/svg"
>
  <path
    d="M8 11.4744C9.28584 11.4744 10.5428 11.2706 11.6119 10.8888C12.6811 10.5071 13.5144 9.96443 14.0065 9.32956C14.4985 8.6947 14.6273 7.99611 14.3764 7.32215C14.1256 6.64818 13.5064 6.0291 12.5971 5.5432C11.6879 5.05729 10.5295 4.72639 9.26835 4.59233C8.00721 4.45827 6.70001 4.52707 5.51204 4.79004C4.32408 5.05301 3.30871 5.49833 2.59433 6.06969C1.87995 6.64106 1.49866 7.3128 1.49866 7.99997C1.49866 8.9728 2.22103 9.90317 3.47795 10.6019L5.11051 11.4744"
    stroke="currentColor"
    stroke-linecap="round"
    stroke-linejoin="round"
  />
  <path
    d="M1.49866 11.4744L5.11051 11.4744L5.11051 9.54421"
    stroke="currentColor"
    stroke-linecap="round"
    stroke-linejoin="round"
  />
</svg>
