<svg width="16" height="16" viewBox="0 0 16 16" fill="none" xmlns="http://www.w3.org/2000/svg">
<path d="M14.5038 9.16982H6.09892V2.26232L8.11407 4.28798C8.21533 4.38926 8.34698 4.43991 8.46849 4.43991C8.59001 4.43991 8.73178 4.38926 8.82292 4.28798C9.02544 4.08542 9.02544 3.77144 8.82292 3.56887L5.92678 0.651924C5.73438 0.449359 5.41033 0.449359 5.2078 0.651924L2.31166 3.52836C2.10914 3.7208 2.10914 4.0449 2.31166 4.24747C2.50406 4.45003 2.82811 4.45003 3.03064 4.24747L5.09641 2.20155V9.47367L1.10663 14.6897C0.934478 14.9126 0.974983 15.2265 1.19776 15.3987C1.2889 15.4696 1.40029 15.5 1.50155 15.5C1.65345 15.5 1.80535 15.4291 1.90661 15.2974L5.80526 10.1826H14.4937C14.7772 10.1826 15 9.95983 15 9.67623C15 9.39264 14.7772 9.16982 14.4937 9.16982H14.5038Z" fill="#231F20"/>
</svg>
