<svg width="16" height="16" viewBox="0 0 16 16" fill="none" xmlns="http://www.w3.org/2000/svg">
<g clip-path="url(#clip0_10941_2924)">
<path d="M14.5038 9.66982H6.09892V2.76232L8.11407 4.78798C8.21533 4.88926 8.34698 4.93991 8.46849 4.93991C8.59001 4.93991 8.73178 4.88926 8.82292 4.78798C9.02544 4.58542 9.02544 4.27144 8.82292 4.06887L5.92678 1.15192C5.73438 0.949359 5.41033 0.949359 5.2078 1.15192L2.31166 4.02836C2.10914 4.2208 2.10914 4.5449 2.31166 4.74747C2.50406 4.95003 2.82811 4.95003 3.03064 4.74747L5.09641 2.70155V9.97367L1.10663 15.1897C0.934478 15.4126 0.974983 15.7265 1.19776 15.8987C1.2889 15.9696 1.40029 16 1.50155 16C1.65345 16 1.80535 15.9291 1.90661 15.7974L5.80526 10.6826H14.4937C14.7772 10.6826 15 10.4598 15 10.1762C15 9.89264 14.7772 9.66982 14.4937 9.66982H14.5038Z" fill="#231F20"/>
</g>
<defs>
<clipPath id="clip0_10941_2924">
<rect width="14" height="15" fill="white" transform="translate(1 1)"/>
</clipPath>
</defs>
</svg>
