<svg width="16" height="16" viewBox="0 0 16 16" fill="none" xmlns="http://www.w3.org/2000/svg">
<path d="M10.3742 10.0745C10.6431 10.012 10.8104 9.74319 10.7479 9.47424C10.6853 9.20528 10.4165 9.03798 10.1476 9.10056L10.3742 10.0745ZM12.9084 7.75745C12.716 7.95552 12.7206 8.27207 12.9187 8.46448C13.1168 8.65689 13.4333 8.6523 13.6257 8.45423L12.9084 7.75745ZM7.30496 6.75369C7.07394 6.60241 6.76403 6.66706 6.61276 6.89808C6.46148 7.1291 6.52613 7.43901 6.75715 7.59029L7.30496 6.75369ZM10.4348 9.40078L10.8532 9.67449C11.0043 9.44348 10.9396 9.13371 10.7087 8.98248L10.4348 9.40078ZM7.79275 12.5263C7.64159 12.7574 7.70638 13.0673 7.93747 13.2184C8.16856 13.3696 8.47844 13.3048 8.62961 13.0737L7.79275 12.5263ZM10.1476 9.10056C9.49153 9.25321 8.75951 9.33658 8 9.33658V10.3366C8.83055 10.3366 9.63891 10.2456 10.3742 10.0745L10.1476 9.10056ZM8 9.33658C6.40959 9.33658 4.99603 8.98026 3.99787 8.4292C2.98232 7.86855 2.5 7.17428 2.5 6.52451H1.5C1.5 7.7051 2.3593 8.66686 3.51456 9.30465C4.6872 9.95204 6.27364 10.3366 8 10.3366V9.33658ZM2.5 6.52451C2.5 5.87408 2.98315 5.17671 3.99883 4.61307C4.99701 4.05914 6.41029 3.7 8 3.7V2.7C6.27294 2.7 4.68622 3.08795 3.5136 3.73868C2.35847 4.37971 1.5 5.3446 1.5 6.52451H2.5ZM8 3.7C9.59041 3.7 11.004 4.05632 12.0021 4.60737C13.0177 5.16803 13.5 5.8623 13.5 6.51206H14.5C14.5 5.33148 13.6407 4.36971 12.4854 3.73193C11.3128 3.08454 9.72636 2.7 8 2.7V3.7ZM13.5 6.51206C13.5 6.91862 13.3061 7.34804 12.9084 7.75745L13.6257 8.45423C14.1473 7.91734 14.5 7.25103 14.5 6.51206H13.5ZM6.75715 7.59029L10.1609 9.81908L10.7087 8.98248L7.30496 6.75369L6.75715 7.59029ZM10.0164 9.12707L7.79275 12.5263L8.62961 13.0737L10.8532 9.67449L10.0164 9.12707Z" fill="#231F20"/>
</svg>
