<svg
  width="16"
  height="16"
  viewBox="0 0 16 16"
  fill="none"
  xmlns="http://www.w3.org/2000/svg"
  stroke="currentColor"
  stroke-linecap="round"
  stroke-linejoin="round"
>
  <path
    d="M0.892011 11.5282C0.36933 9.06155 0.36933 6.51275 0.892011 4.0461C0.960688 3.79561 1.09338 3.56731 1.27704 3.38364C1.46071 3.19998 1.68901 3.06729 1.9395 2.99861C5.95249 2.3338 10.0475 2.3338 14.0605 2.99861C14.311 3.06729 14.5393 3.19998 14.723 3.38364C14.9066 3.56731 15.0393 3.79561 15.108 4.0461C15.6307 6.51275 15.6307 9.06155 15.108 11.5282C15.0393 11.7787 14.9066 12.007 14.723 12.1907C14.5393 12.3743 14.311 12.507 14.0605 12.5757C10.0475 13.2406 5.95248 13.2406 1.9395 12.5757C1.68901 12.507 1.46071 12.3743 1.27704 12.1907C1.09338 12.007 0.960688 11.7787 0.892011 11.5282Z"
  />
  <path d="M6.5 10.3L10.5 7.9L6.5 5.5V10.3Z" />
</svg>
