<svg width="16" height="16" viewBox="0 0 16 16" fill="none" xmlns="http://www.w3.org/2000/svg">
<path d="M12.7865 9.17637C12.7865 8.90022 12.5626 8.67637 12.2865 8.67637C12.0103 8.67637 11.7865 8.90022 11.7865 9.17637H12.7865ZM9.46938 5.683C9.72347 5.79112 10.0171 5.67279 10.1252 5.4187C10.2334 5.1646 10.115 4.87097 9.86093 4.76284L9.46938 5.683ZM9.66235 2.29537C9.52881 2.05366 9.22462 1.96597 8.98291 2.0995C8.7412 2.23303 8.6535 2.53723 8.78704 2.77894L9.66235 2.29537ZM10.9221 5.60967L11.1639 6.04733C11.28 5.9832 11.3658 5.87559 11.4025 5.74817C11.4393 5.62076 11.4239 5.48396 11.3598 5.36789L10.9221 5.60967ZM7.6078 6.86942C7.36609 7.00295 7.27839 7.30715 7.41192 7.54886C7.54546 7.79057 7.84965 7.87826 8.09136 7.74473L7.6078 6.86942ZM11.7865 9.17637C11.7865 11.2637 10.0873 12.9628 7.99998 12.9628V13.9628C10.6396 13.9628 12.7865 11.816 12.7865 9.17637H11.7865ZM7.99998 12.9628C5.91265 12.9628 4.2135 11.2637 4.2135 9.17637H3.2135C3.2135 11.816 5.36037 13.9628 7.99998 13.9628V12.9628ZM4.2135 9.17637C4.2135 7.08904 5.91265 5.38989 7.99998 5.38989V4.38989C5.36037 4.38989 3.2135 6.53675 3.2135 9.17637H4.2135ZM7.99998 5.38989C8.52488 5.38989 9.02756 5.49499 9.46938 5.683L9.86093 4.76284C9.29291 4.52113 8.65682 4.38989 7.99998 4.38989V5.38989ZM8.78704 2.77894L10.4844 5.85145L11.3598 5.36789L9.66235 2.29537L8.78704 2.77894ZM10.6803 5.17202L7.6078 6.86942L8.09136 7.74473L11.1639 6.04733L10.6803 5.17202Z" fill="#231F20"/>
</svg>
