<svg width="16" height="16" viewBox="0 0 16 16" fill="none" xmlns="http://www.w3.org/2000/svg">
<path d="M14 9.5094C14 9.23325 13.7761 9.0094 13.5 9.0094C13.2239 9.0094 13 9.23325 13 9.5094H14ZM9.94081 4.89679C10.1949 5.00492 10.4885 4.88659 10.5967 4.63249C10.7048 4.3784 10.5865 4.08476 10.3324 3.97664L9.94081 4.89679ZM10.0091 0.748819C9.87555 0.507109 9.57136 0.419414 9.32965 0.552946C9.08794 0.686478 9.00024 0.990672 9.13377 1.23238L10.0091 0.748819ZM11.7494 4.93296L11.9912 5.37061C12.1072 5.30649 12.1931 5.19888 12.2298 5.07146C12.2665 4.94404 12.2512 4.80725 12.187 4.69117L11.7494 4.93296ZM7.56524 6.67325C7.32353 6.80678 7.23583 7.11097 7.36936 7.35268C7.50289 7.59439 7.80709 7.68209 8.0488 7.54856L7.56524 6.67325ZM13 9.5094C13 12.2658 10.7564 14.5094 8 14.5094V15.5094C11.3087 15.5094 14 12.8181 14 9.5094H13ZM8 14.5094C5.24356 14.5094 3 12.2658 3 9.5094H2C2 12.8181 4.69128 15.5094 8 15.5094V14.5094ZM3 9.5094C3 6.75296 5.24356 4.5094 8 4.5094V3.5094C4.69128 3.5094 2 6.20067 2 9.5094H3ZM8 4.5094C8.69217 4.5094 9.35605 4.64796 9.94081 4.89679L10.3324 3.97664C9.6214 3.6741 8.82412 3.5094 8 3.5094V4.5094ZM9.13377 1.23238L11.3117 5.17474L12.187 4.69117L10.0091 0.748819L9.13377 1.23238ZM11.5076 4.4953L7.56524 6.67325L8.0488 7.54856L11.9912 5.37061L11.5076 4.4953Z" fill="#231F20"/>
</svg>
