<svg width="16" height="16" viewBox="0 0 16 16" fill="none" xmlns="http://www.w3.org/2000/svg">
<path d="M14.668 8.59631H6.16393V0.512295C6.16393 0.22541 5.93852 0 5.65164 0C5.36475 0 5.13934 0.22541 5.13934 0.512295V9.05738L2.02459 13.2889V10.3074C2.02459 10.0205 1.79918 9.79508 1.5123 9.79508C1.22541 9.79508 1 10.0205 1 10.3074V14.4775C1 14.7643 1.22541 14.9898 1.50205 14.9898H5.63115V15C5.91803 15 6.14344 14.7746 6.14344 14.4877C6.14344 14.2008 5.91803 13.9754 5.63115 13.9754H2.79303L5.98975 9.6209H14.6578C14.9447 9.6209 15.1701 9.39549 15.1701 9.10861C15.1701 8.82172 14.9447 8.59631 14.6578 8.59631H14.668Z" fill="#231F20"/>
</svg>
