<svg width="16" height="16" viewBox="0 0 16 16" fill="none" xmlns="http://www.w3.org/2000/svg">
<path d="M14.583 9.09631H6.07891V1.0123C6.07891 0.72541 5.8535 0.5 5.56662 0.5C5.27973 0.5 5.05432 0.72541 5.05432 1.0123V9.55738L1.93957 13.7889V10.8074C1.93957 10.5205 1.71416 10.2951 1.42727 10.2951C1.14039 10.2951 0.914978 10.5205 0.914978 10.8074V14.9775C0.914978 15.2643 1.14039 15.4898 1.41703 15.4898H5.54613V15.5C5.83301 15.5 6.05842 15.2746 6.05842 14.9877C6.05842 14.7008 5.83301 14.4754 5.54613 14.4754H2.70801L5.90473 10.1209H14.5728C14.8596 10.1209 15.0851 9.89549 15.0851 9.60861C15.0851 9.32172 14.8596 9.09631 14.5728 9.09631H14.583Z" fill="#231F20"/>
</svg>
