<svg width="14" height="16" xmlns="http://www.w3.org/2000/svg"><path d="M4.203.702a.713.713 0 0 0-.366.213c-.124.148-.137.208-.15.672l-.012.431-.443.015c-.481.017-.686.041-.991.117-.651.161-1.273.668-1.586 1.29a2.834 2.834 0 0 0-.252.839c-.038.241-.041.553-.041 4.366 0 4.4-.002 4.323.117 4.784.107.412.325.79.639 1.106.422.426.865.64 1.536.742.255.038.554.041 4.346.041s4.091-.003 4.346-.041c.671-.102 1.114-.316 1.536-.742.314-.316.532-.694.639-1.106.119-.461.117-.384.117-4.784 0-3.813-.003-4.125-.041-4.366a2.834 2.834 0 0 0-.252-.839c-.313-.622-.935-1.129-1.586-1.29-.305-.076-.51-.1-.991-.117l-.443-.015-.012-.431c-.013-.488-.039-.581-.204-.726C9.91.687 9.61.64 9.39.75c-.132.066-.302.249-.339.366a3.432 3.432 0 0 0-.038.5l-.011.414H4.998l-.011-.414a3.432 3.432 0 0 0-.038-.5c-.036-.115-.207-.3-.332-.361a.689.689 0 0 0-.414-.053m2.139 9.442-.007.088-.038-.105a5.451 5.451 0 0 0-.054-.142c-.01-.025.003-.045.039-.061.049-.022.054-.018.06.054a1.15 1.15 0 0 1 0 .166" fill-rule="evenodd"/></svg>