<svg
  width="430"
  height="430"
  viewBox="0 0 430 430"
  fill="none"
  xmlns="http://www.w3.org/2000/svg"
>
  <path
    d="M93.5156 350.898C90.9115 354.674 86.2891 356.562 79.6484 356.562C73.138 356.562 67.6042 354.74 63.0469 351.094C58.4896 347.448 54.7135 342.891 51.7188 337.422C45.7292 326.484 42.7344 315.547 42.7344 304.609C42.7344 293.672 43.9062 282.474 46.25 271.016C48.724 259.557 52.0443 247.513 56.2109 234.883C60.3776 222.122 65.1953 209.102 70.6641 195.82C76.263 182.539 82.1875 169.583 88.4375 156.953C101.198 130.651 113.893 107.865 126.523 88.5938H124.375C108.88 88.5938 94.4922 92.1094 81.2109 99.1406C77.9557 101.615 74.8307 102.852 71.8359 102.852C65.5859 102.852 59.5312 99.7917 53.6719 93.6719C40.1302 79.349 48.2031 67.5 77.8906 58.125C91.8229 53.5677 103.021 51.2891 111.484 51.2891C120.078 51.2891 126.979 52.6562 132.188 55.3906C137.396 57.9948 141.823 61.1198 145.469 64.7656C151.198 70.4948 155.234 76.1589 157.578 81.7578C160.052 87.3568 161.289 92.3047 161.289 96.6016C161.289 100.768 159.987 106.432 157.383 113.594C154.909 120.625 151.719 128.177 147.812 136.25L134.531 162.031C129.844 171.016 125.156 180.456 120.469 190.352C115.781 200.247 111.094 210.143 106.406 220.039C101.719 229.935 97.5521 239.57 93.9062 248.945C85.9635 269.909 81.9922 287.682 81.9922 302.266C81.9922 310.339 82.7734 317.305 84.3359 323.164L104.844 288.984C146.51 221.797 187.656 171.276 228.281 137.422C239.74 127.786 251.068 120.234 262.266 114.766C264.089 113.854 266.237 113.398 268.711 113.398C271.185 113.398 273.789 113.724 276.523 114.375C279.388 114.896 282.057 115.742 284.531 116.914C290.26 119.648 293.125 122.969 293.125 126.875C293.125 128.698 292.474 130.391 291.172 131.953L284.336 139.375C258.294 166.979 240.781 205.521 231.797 255C228.932 270.234 227.5 282.344 227.5 291.328C227.5 300.182 227.76 306.237 228.281 309.492C228.802 312.747 229.844 315.807 231.406 318.672C234.922 325.182 240.195 328.438 247.227 328.438C254.258 328.438 262.07 325.833 270.664 320.625C279.258 315.417 287.917 308.255 296.641 299.141C305.495 290.026 314.023 279.349 322.227 267.109C330.56 254.74 337.917 241.523 344.297 227.461C358.62 196.341 365.781 166.654 365.781 138.398C365.781 116.654 360.964 98.2292 351.328 83.125C348.724 79.2188 351.263 74.1406 358.945 67.8906C366.758 61.3802 375.547 58.125 385.312 58.125C398.203 58.125 406.927 69.5833 411.484 92.5C413.047 100.052 413.828 109.948 413.828 122.188C413.828 134.427 412.331 147.904 409.336 162.617C406.341 177.331 402.109 191.719 396.641 205.781C391.302 219.714 384.922 233.125 377.5 246.016C370.208 258.906 362.201 270.951 353.477 282.148C344.753 293.346 335.508 303.568 325.742 312.812C315.977 321.927 306.016 329.74 295.859 336.25C274.896 350.052 255.039 356.953 236.289 356.953C219.102 356.953 206.276 350.182 197.812 336.641C190.391 324.922 186.68 310.013 186.68 291.914C186.68 261.966 192.474 232.865 204.062 204.609C193.255 216.719 182.708 229.219 172.422 242.109C146.901 275.443 129.128 299.336 119.102 313.789L93.5156 350.898Z"
    fill="url(#paint0_linear_2_9)"
  />
  <defs>
    <linearGradient
      id="paint0_linear_2_9"
      x1="203.5"
      y1="64"
      x2="203.5"
      y2="364"
      gradientUnits="userSpaceOnUse"
    >
      <stop stop-color="#3355FA" />
      <stop offset="0.869792" stop-color="#663399" stop-opacity="0.87" />
    </linearGradient>
  </defs>
</svg>
