<svg width="600" height="600" viewBox="0 0 600 600" fill="none" xmlns="http://www.w3.org/2000/svg">
<rect width="600" height="600" fill="#CCCCCC"/>
<path d="M131.488 285V241.364H148.192C151.346 241.364 153.966 241.861 156.054 242.855C158.157 243.835 159.726 245.178 160.763 246.882C161.814 248.587 162.34 250.519 162.34 252.678C162.34 254.453 161.999 255.973 161.317 257.237C160.635 258.487 159.719 259.503 158.569 260.284C157.418 261.065 156.132 261.627 154.712 261.967V262.394C156.26 262.479 157.745 262.955 159.165 263.821C160.6 264.673 161.772 265.881 162.681 267.443C163.59 269.006 164.044 270.895 164.044 273.111C164.044 275.369 163.497 277.401 162.404 279.205C161.31 280.994 159.662 282.408 157.461 283.445C155.259 284.482 152.489 285 149.151 285H131.488ZM139.392 278.395H147.894C150.763 278.395 152.83 277.848 154.094 276.754C155.372 275.646 156.012 274.226 156.012 272.493C156.012 271.2 155.692 270.036 155.053 268.999C154.414 267.948 153.505 267.124 152.326 266.527C151.147 265.916 149.74 265.611 148.107 265.611H139.392V278.395ZM139.392 259.922H147.212C148.576 259.922 149.804 259.673 150.898 259.176C151.992 258.665 152.851 257.948 153.476 257.024C154.115 256.087 154.435 254.979 154.435 253.7C154.435 252.01 153.838 250.618 152.645 249.524C151.466 248.431 149.712 247.884 147.382 247.884H139.392V259.922Z" fill="#929292"/>
<path d="M179.998 285.661C177.924 285.661 176.056 285.291 174.394 284.553C172.746 283.8 171.44 282.692 170.474 281.229C169.522 279.766 169.046 277.962 169.046 275.817C169.046 273.97 169.387 272.443 170.069 271.236C170.751 270.029 171.681 269.063 172.86 268.338C174.039 267.614 175.367 267.067 176.844 266.698C178.336 266.314 179.877 266.037 181.468 265.867C183.386 265.668 184.941 265.49 186.134 265.334C187.327 265.163 188.194 264.908 188.734 264.567C189.288 264.212 189.565 263.665 189.565 262.926V262.798C189.565 261.193 189.089 259.95 188.137 259.07C187.185 258.189 185.815 257.749 184.025 257.749C182.136 257.749 180.637 258.161 179.529 258.985C178.435 259.808 177.697 260.781 177.313 261.904L170.111 260.881C170.68 258.892 171.617 257.23 172.924 255.895C174.231 254.546 175.829 253.537 177.718 252.869C179.607 252.188 181.695 251.847 183.982 251.847C185.559 251.847 187.129 252.031 188.691 252.401C190.254 252.77 191.681 253.381 192.974 254.233C194.266 255.071 195.303 256.215 196.084 257.663C196.88 259.112 197.278 260.923 197.278 263.097V285H189.863V280.504H189.607C189.138 281.413 188.478 282.266 187.626 283.061C186.788 283.842 185.729 284.475 184.451 284.958C183.187 285.426 181.702 285.661 179.998 285.661ZM182.001 279.993C183.549 279.993 184.891 279.688 186.028 279.077C187.164 278.452 188.038 277.628 188.648 276.605C189.273 275.583 189.586 274.467 189.586 273.26V269.404C189.344 269.602 188.933 269.787 188.35 269.958C187.782 270.128 187.143 270.277 186.433 270.405C185.722 270.533 185.019 270.646 184.323 270.746C183.627 270.845 183.023 270.931 182.512 271.002C181.361 271.158 180.332 271.413 179.423 271.769C178.513 272.124 177.796 272.621 177.271 273.26C176.745 273.885 176.482 274.695 176.482 275.689C176.482 277.11 177.001 278.182 178.038 278.906C179.075 279.631 180.396 279.993 182.001 279.993Z" fill="#929292"/>
<path d="M219.309 285.639C216.042 285.639 213.236 284.922 210.893 283.487C208.563 282.053 206.766 280.071 205.502 277.543C204.252 275 203.627 272.074 203.627 268.764C203.627 265.44 204.266 262.507 205.545 259.965C206.823 257.408 208.627 255.419 210.957 253.999C213.3 252.564 216.07 251.847 219.266 251.847C221.923 251.847 224.273 252.337 226.319 253.317C228.379 254.283 230.019 255.654 231.241 257.429C232.462 259.19 233.158 261.25 233.329 263.608H225.957C225.658 262.031 224.948 260.717 223.826 259.666C222.718 258.601 221.234 258.068 219.373 258.068C217.796 258.068 216.411 258.494 215.218 259.347C214.025 260.185 213.094 261.392 212.427 262.969C211.773 264.546 211.447 266.435 211.447 268.636C211.447 270.867 211.773 272.784 212.427 274.389C213.08 275.98 213.996 277.209 215.175 278.075C216.369 278.928 217.768 279.354 219.373 279.354C220.509 279.354 221.525 279.141 222.42 278.715C223.329 278.274 224.089 277.642 224.7 276.818C225.31 275.994 225.729 274.993 225.957 273.814H233.329C233.144 276.129 232.462 278.182 231.283 279.972C230.104 281.747 228.499 283.139 226.468 284.148C224.437 285.142 222.05 285.639 219.309 285.639Z" fill="#929292"/>
<path d="M246.694 274.73L246.672 265.419H247.908L259.669 252.273H268.682L254.215 268.381H252.617L246.694 274.73ZM239.662 285V241.364H247.375V285H239.662ZM260.202 285L249.549 270.107L254.747 264.673L269.428 285H260.202Z" fill="#929292"/>
<path d="M286.708 297.955C283.938 297.955 281.559 297.578 279.57 296.825C277.581 296.087 275.983 295.092 274.776 293.842C273.569 292.592 272.73 291.208 272.262 289.688L279.208 288.004C279.52 288.644 279.975 289.276 280.571 289.901C281.168 290.54 281.971 291.065 282.979 291.477C284.002 291.904 285.287 292.117 286.836 292.117C289.023 292.117 290.834 291.584 292.269 290.519C293.703 289.467 294.421 287.735 294.421 285.32V279.119H294.037C293.64 279.915 293.057 280.732 292.29 281.57C291.537 282.408 290.536 283.111 289.286 283.679C288.05 284.247 286.495 284.531 284.62 284.531C282.105 284.531 279.826 283.942 277.78 282.763C275.749 281.57 274.13 279.794 272.922 277.436C271.729 275.064 271.132 272.095 271.132 268.53C271.132 264.936 271.729 261.904 272.922 259.432C274.13 256.946 275.756 255.064 277.801 253.786C279.847 252.493 282.127 251.847 284.641 251.847C286.559 251.847 288.135 252.173 289.371 252.827C290.621 253.466 291.615 254.24 292.354 255.149C293.093 256.044 293.654 256.889 294.037 257.685H294.463V252.273H302.07V285.533C302.07 288.331 301.402 290.646 300.067 292.479C298.732 294.311 296.907 295.682 294.591 296.591C292.276 297.5 289.648 297.955 286.708 297.955ZM286.772 278.48C288.405 278.48 289.797 278.083 290.948 277.287C292.098 276.492 292.972 275.348 293.569 273.857C294.165 272.365 294.463 270.575 294.463 268.487C294.463 266.428 294.165 264.624 293.569 263.075C292.986 261.527 292.12 260.327 290.969 259.475C289.833 258.608 288.434 258.175 286.772 258.175C285.053 258.175 283.618 258.622 282.468 259.517C281.317 260.412 280.451 261.641 279.868 263.203C279.286 264.752 278.995 266.513 278.995 268.487C278.995 270.49 279.286 272.244 279.868 273.75C280.465 275.242 281.338 276.406 282.489 277.244C283.654 278.068 285.081 278.48 286.772 278.48Z" fill="#929292"/>
<path d="M309.975 285V252.273H317.453V257.727H317.794C318.391 255.838 319.414 254.382 320.863 253.36C322.326 252.323 323.995 251.804 325.87 251.804C326.296 251.804 326.772 251.825 327.297 251.868C327.837 251.896 328.284 251.946 328.64 252.017V259.112C328.313 258.999 327.794 258.899 327.084 258.814C326.388 258.715 325.713 258.665 325.06 258.665C323.654 258.665 322.39 258.97 321.267 259.581C320.159 260.178 319.286 261.009 318.647 262.074C318.007 263.139 317.688 264.368 317.688 265.76V285H309.975Z" fill="#929292"/>
<path d="M346.692 285.639C343.496 285.639 340.726 284.936 338.382 283.53C336.038 282.124 334.22 280.156 332.928 277.628C331.649 275.1 331.01 272.145 331.01 268.764C331.01 265.384 331.649 262.422 332.928 259.879C334.22 257.337 336.038 255.362 338.382 253.956C340.726 252.55 343.496 251.847 346.692 251.847C349.888 251.847 352.658 252.55 355.001 253.956C357.345 255.362 359.156 257.337 360.435 259.879C361.727 262.422 362.374 265.384 362.374 268.764C362.374 272.145 361.727 275.1 360.435 277.628C359.156 280.156 357.345 282.124 355.001 283.53C352.658 284.936 349.888 285.639 346.692 285.639ZM346.734 279.46C348.467 279.46 349.916 278.985 351.081 278.033C352.246 277.067 353.112 275.774 353.68 274.155C354.263 272.536 354.554 270.732 354.554 268.743C354.554 266.74 354.263 264.929 353.68 263.31C353.112 261.676 352.246 260.377 351.081 259.411C349.916 258.445 348.467 257.962 346.734 257.962C344.959 257.962 343.482 258.445 342.303 259.411C341.138 260.377 340.264 261.676 339.682 263.31C339.114 264.929 338.83 266.74 338.83 268.743C338.83 270.732 339.114 272.536 339.682 274.155C340.264 275.774 341.138 277.067 342.303 278.033C343.482 278.985 344.959 279.46 346.734 279.46Z" fill="#929292"/>
<path d="M389.779 271.236V252.273H397.493V285H390.014V279.183H389.673C388.934 281.016 387.72 282.514 386.029 283.679C384.353 284.844 382.287 285.426 379.829 285.426C377.684 285.426 375.788 284.95 374.14 283.999C372.507 283.033 371.228 281.634 370.305 279.801C369.382 277.955 368.92 275.725 368.92 273.111V252.273H376.633V271.918C376.633 273.992 377.201 275.639 378.338 276.861C379.474 278.083 380.966 278.693 382.812 278.693C383.948 278.693 385.049 278.416 386.115 277.862C387.18 277.308 388.054 276.485 388.735 275.391C389.431 274.283 389.779 272.898 389.779 271.236Z" fill="#929292"/>
<path d="M413.137 265.824V285H405.424V252.273H412.796V257.834H413.18C413.932 256.002 415.133 254.546 416.781 253.466C418.442 252.386 420.495 251.847 422.938 251.847C425.197 251.847 427.164 252.33 428.84 253.296C430.531 254.261 431.837 255.661 432.761 257.493C433.698 259.325 434.16 261.548 434.146 264.162V285H426.432V265.355C426.432 263.168 425.864 261.456 424.728 260.22C423.606 258.985 422.05 258.367 420.062 258.367C418.712 258.367 417.512 258.665 416.461 259.261C415.424 259.844 414.607 260.689 414.011 261.797C413.428 262.905 413.137 264.247 413.137 265.824Z" fill="#929292"/>
<path d="M454.131 285.575C451.56 285.575 449.259 284.915 447.228 283.594C445.197 282.273 443.592 280.355 442.413 277.841C441.234 275.327 440.644 272.273 440.644 268.679C440.644 265.043 441.241 261.975 442.434 259.475C443.641 256.96 445.268 255.064 447.313 253.786C449.359 252.493 451.638 251.847 454.153 251.847C456.07 251.847 457.647 252.173 458.883 252.827C460.119 253.466 461.099 254.24 461.823 255.149C462.548 256.044 463.109 256.889 463.506 257.685H463.826V241.364H471.56V285H463.975V279.844H463.506C463.109 280.639 462.533 281.485 461.781 282.379C461.028 283.26 460.033 284.013 458.798 284.638C457.562 285.263 456.006 285.575 454.131 285.575ZM456.283 279.247C457.917 279.247 459.309 278.807 460.459 277.926C461.61 277.031 462.484 275.788 463.08 274.198C463.677 272.607 463.975 270.753 463.975 268.636C463.975 266.52 463.677 264.681 463.08 263.118C462.498 261.556 461.631 260.341 460.481 259.475C459.344 258.608 457.945 258.175 456.283 258.175C454.565 258.175 453.13 258.622 451.979 259.517C450.829 260.412 449.962 261.648 449.38 263.225C448.798 264.801 448.506 266.605 448.506 268.636C448.506 270.682 448.798 272.507 449.38 274.112C449.977 275.703 450.85 276.96 452.001 277.884C453.165 278.793 454.593 279.247 456.283 279.247Z" fill="#929292"/>
<path d="M224.793 314.364V358H216.888V314.364H224.793Z" fill="#929292"/>
<path d="M233.012 358V325.273H240.384V330.834H240.768C241.449 328.959 242.579 327.496 244.155 326.445C245.732 325.379 247.614 324.847 249.802 324.847C252.018 324.847 253.885 325.387 255.405 326.466C256.939 327.531 258.019 328.987 258.644 330.834H258.985C259.709 329.016 260.931 327.567 262.65 326.487C264.383 325.394 266.435 324.847 268.807 324.847C271.819 324.847 274.276 325.798 276.179 327.702C278.083 329.605 279.035 332.382 279.035 336.033V358H271.3V337.226C271.3 335.195 270.76 333.71 269.681 332.773C268.601 331.821 267.28 331.345 265.718 331.345C263.857 331.345 262.401 331.928 261.35 333.092C260.313 334.243 259.795 335.742 259.795 337.588V358H252.231V336.906C252.231 335.216 251.719 333.867 250.697 332.858C249.688 331.85 248.367 331.345 246.733 331.345C245.626 331.345 244.617 331.629 243.708 332.198C242.799 332.752 242.074 333.54 241.535 334.563C240.995 335.571 240.725 336.75 240.725 338.1V358H233.012Z" fill="#929292"/>
<path d="M296.277 358.661C294.203 358.661 292.335 358.291 290.673 357.553C289.026 356.8 287.719 355.692 286.753 354.229C285.801 352.766 285.325 350.962 285.325 348.817C285.325 346.97 285.666 345.443 286.348 344.236C287.03 343.029 287.96 342.063 289.139 341.338C290.318 340.614 291.646 340.067 293.124 339.698C294.615 339.314 296.156 339.037 297.747 338.867C299.665 338.668 301.22 338.49 302.414 338.334C303.607 338.163 304.473 337.908 305.013 337.567C305.567 337.212 305.844 336.665 305.844 335.926V335.798C305.844 334.193 305.368 332.95 304.416 332.07C303.465 331.189 302.094 330.749 300.304 330.749C298.415 330.749 296.916 331.161 295.808 331.985C294.715 332.808 293.976 333.781 293.592 334.904L286.391 333.881C286.959 331.892 287.896 330.23 289.203 328.895C290.51 327.546 292.108 326.537 293.997 325.869C295.887 325.188 297.975 324.847 300.262 324.847C301.838 324.847 303.408 325.031 304.97 325.401C306.533 325.77 307.96 326.381 309.253 327.233C310.546 328.071 311.583 329.215 312.364 330.663C313.159 332.112 313.557 333.923 313.557 336.097V358H306.142V353.504H305.887C305.418 354.413 304.757 355.266 303.905 356.061C303.067 356.842 302.009 357.475 300.73 357.958C299.466 358.426 297.982 358.661 296.277 358.661ZM298.28 352.993C299.828 352.993 301.171 352.688 302.307 352.077C303.443 351.452 304.317 350.628 304.928 349.605C305.553 348.583 305.865 347.467 305.865 346.26V342.404C305.624 342.602 305.212 342.787 304.629 342.958C304.061 343.128 303.422 343.277 302.712 343.405C302.002 343.533 301.298 343.646 300.602 343.746C299.906 343.845 299.303 343.931 298.791 344.002C297.641 344.158 296.611 344.413 295.702 344.769C294.793 345.124 294.075 345.621 293.55 346.26C293.024 346.885 292.762 347.695 292.762 348.689C292.762 350.11 293.28 351.182 294.317 351.906C295.354 352.631 296.675 352.993 298.28 352.993Z" fill="#929292"/>
<path d="M335.546 370.955C332.776 370.955 330.396 370.578 328.408 369.825C326.419 369.087 324.821 368.092 323.614 366.842C322.406 365.592 321.568 364.208 321.1 362.688L328.046 361.004C328.358 361.644 328.813 362.276 329.409 362.901C330.006 363.54 330.808 364.065 331.817 364.477C332.84 364.904 334.125 365.117 335.673 365.117C337.861 365.117 339.672 364.584 341.107 363.519C342.541 362.467 343.259 360.735 343.259 358.32V352.119H342.875C342.477 352.915 341.895 353.732 341.128 354.57C340.375 355.408 339.374 356.111 338.124 356.679C336.888 357.247 335.333 357.531 333.458 357.531C330.943 357.531 328.664 356.942 326.618 355.763C324.587 354.57 322.967 352.794 321.76 350.436C320.567 348.064 319.97 345.095 319.97 341.53C319.97 337.936 320.567 334.904 321.76 332.432C322.967 329.946 324.594 328.064 326.639 326.786C328.685 325.493 330.965 324.847 333.479 324.847C335.396 324.847 336.973 325.173 338.209 325.827C339.459 326.466 340.453 327.24 341.192 328.149C341.931 329.044 342.492 329.889 342.875 330.685H343.301V325.273H350.908V358.533C350.908 361.331 350.24 363.646 348.905 365.479C347.57 367.311 345.744 368.682 343.429 369.591C341.114 370.5 338.486 370.955 335.546 370.955ZM335.61 351.48C337.243 351.48 338.635 351.083 339.786 350.287C340.936 349.492 341.81 348.348 342.406 346.857C343.003 345.365 343.301 343.575 343.301 341.487C343.301 339.428 343.003 337.624 342.406 336.075C341.824 334.527 340.958 333.327 339.807 332.475C338.671 331.608 337.271 331.175 335.61 331.175C333.891 331.175 332.456 331.622 331.306 332.517C330.155 333.412 329.289 334.641 328.706 336.203C328.124 337.752 327.833 339.513 327.833 341.487C327.833 343.49 328.124 345.244 328.706 346.75C329.303 348.242 330.176 349.406 331.327 350.244C332.492 351.068 333.919 351.48 335.61 351.48Z" fill="#929292"/>
<path d="M373.301 358.639C370.02 358.639 367.186 357.958 364.8 356.594C362.428 355.216 360.602 353.27 359.324 350.756C358.046 348.227 357.406 345.252 357.406 341.828C357.406 338.462 358.046 335.507 359.324 332.965C360.617 330.408 362.421 328.419 364.736 326.999C367.051 325.564 369.771 324.847 372.896 324.847C374.914 324.847 376.817 325.173 378.607 325.827C380.411 326.466 382.002 327.46 383.379 328.81C384.771 330.159 385.865 331.878 386.661 333.966C387.456 336.04 387.854 338.512 387.854 341.381V343.746H361.029V338.547H380.46C380.446 337.07 380.127 335.756 379.502 334.605C378.877 333.44 378.003 332.524 376.881 331.857C375.773 331.189 374.48 330.855 373.003 330.855C371.426 330.855 370.041 331.239 368.848 332.006C367.655 332.759 366.725 333.753 366.057 334.989C365.404 336.21 365.07 337.553 365.056 339.016V343.554C365.056 345.458 365.404 347.091 366.1 348.455C366.796 349.804 367.769 350.841 369.019 351.565C370.269 352.276 371.732 352.631 373.408 352.631C374.53 352.631 375.546 352.475 376.455 352.162C377.364 351.835 378.152 351.36 378.82 350.735C379.487 350.11 379.992 349.335 380.333 348.412L387.534 349.222C387.08 351.125 386.213 352.787 384.935 354.208C383.671 355.614 382.051 356.708 380.077 357.489C378.102 358.256 375.844 358.639 373.301 358.639Z" fill="#929292"/>
<path fill-rule="evenodd" clip-rule="evenodd" d="M26.364 26.636C29.8787 23.1212 35.4214 22.9655 38.744 26.288L203.489 191.033C206.811 194.355 206.655 199.898 203.141 203.413C199.626 206.927 194.083 207.083 190.761 203.761L26.0161 39.016C22.6935 35.6934 22.8493 30.1507 26.364 26.636Z" fill="#A2A2A2"/>
<path fill-rule="evenodd" clip-rule="evenodd" d="M396.364 396.364C399.879 392.849 405.421 392.693 408.744 396.016L573.489 560.761C576.811 564.083 576.655 569.626 573.141 573.141C569.626 576.655 564.083 576.811 560.761 573.489L396.016 408.744C392.693 405.421 392.849 399.879 396.364 396.364Z" fill="#A2A2A2"/>
<path fill-rule="evenodd" clip-rule="evenodd" d="M573.364 26.364C576.879 29.8787 577.034 35.4214 573.712 38.744L408.967 203.489C405.645 206.811 400.102 206.655 396.587 203.141C393.073 199.626 392.917 194.083 396.239 190.761L560.984 26.0161C564.307 22.6935 569.849 22.8493 573.364 26.364Z" fill="#A2A2A2"/>
<path fill-rule="evenodd" clip-rule="evenodd" d="M203.364 396.364C206.879 399.879 207.034 405.421 203.712 408.744L38.9672 573.489C35.6447 576.811 30.102 576.655 26.5872 573.141C23.0725 569.626 22.9168 564.083 26.2393 560.761L190.984 396.016C194.307 392.693 199.849 392.849 203.364 396.364Z" fill="#A2A2A2"/>
</svg>
