<svg width="600" height="600" viewBox="0 0 600 600"  xmlns="http://www.w3.org/2000/svg">
<rect width="600" height="600" fill="#CCCCCC"/>
<path fill-rule="evenodd" clip-rule="evenodd" d="M450 170H150C141.716 170 135 176.716 135 185V415C135 423.284 141.716 430 150 430H450C458.284 430 465 423.284 465 415V185C465 176.716 458.284 170 450 170ZM150 145C127.909 145 110 162.909 110 185V415C110 437.091 127.909 455 150 455H450C472.091 455 490 437.091 490 415V185C490 162.909 472.091 145 450 145H150Z" fill="#A2A2A2"/>
<path d="M237.134 235.012C237.134 255.723 220.345 272.512 199.634 272.512C178.924 272.512 162.134 255.723 162.134 235.012C162.134 214.301 178.924 197.512 199.634 197.512C220.345 197.512 237.134 214.301 237.134 235.012Z" fill="#A2A2A2"/>
<path d="M160 405V367.205L221.609 306.364L256.552 338.628L358.161 234L440 316.043V405H160Z" fill="#A2A2A2"/>
<path fill-rule="evenodd" clip-rule="evenodd" d="M105.339 87.6612C110.22 82.7796 118.135 82.7796 123.016 87.6612L513.339 477.983C518.22 482.865 518.22 490.78 513.339 495.661C508.457 500.543 500.543 500.543 495.661 495.661L105.339 105.339C100.457 100.457 100.457 92.5427 105.339 87.6612Z" fill="#CCCCCC"/>
<path fill-rule="evenodd" clip-rule="evenodd" d="M93.8388 104.161C98.7203 99.2796 106.635 99.2796 111.516 104.161L496.839 489.483C501.72 494.365 501.72 502.28 496.839 507.161C491.957 512.043 484.043 512.043 479.161 507.161L93.8388 121.839C88.9572 116.957 88.9572 109.043 93.8388 104.161Z" fill="#A2A2A2"/>
</svg>
